G04 #@! TF.FileFunction,Soldermask,Bot*
%FSLAX46Y46*%
G04 Gerber Fmt 4.6, Leading zero omitted, Abs format (unit mm)*
G04 Created by KiCad (PCBNEW 4.0.0-rc1-stable) date 8/9/2016 10:19:07 PM*
%MOMM*%
G01*
G04 APERTURE LIST*
%ADD10C,0.100000*%
%ADD11C,0.150000*%
%ADD12R,2.027200X2.332000*%
%ADD13O,2.027200X2.332000*%
%ADD14R,2.027200X2.027200*%
%ADD15O,2.027200X2.027200*%
%ADD16C,2.300000*%
%ADD17R,0.900000X1.300000*%
%ADD18R,1.300000X0.900000*%
%ADD19C,1.000000*%
%ADD20R,6.300000X3.800000*%
%ADD21C,20.000000*%
%ADD22C,8.300000*%
%ADD23C,1.824000*%
%ADD24C,0.850000*%
G04 APERTURE END LIST*
D10*
D11*
X62127000Y-75492000D02*
X61873000Y-75492000D01*
X61873000Y-76508000D02*
X62127000Y-76508000D01*
X61873000Y-75492000D02*
X61873000Y-76508000D01*
X62000000Y-76508000D02*
X62000000Y-75492000D01*
X62127000Y-75492000D02*
X62127000Y-76508000D01*
X67127000Y-75492000D02*
X66873000Y-75492000D01*
X66873000Y-76508000D02*
X67127000Y-76508000D01*
X66873000Y-75492000D02*
X66873000Y-76508000D01*
X67000000Y-76508000D02*
X67000000Y-75492000D01*
X67127000Y-75492000D02*
X67127000Y-76508000D01*
X72127000Y-75492000D02*
X71873000Y-75492000D01*
X71873000Y-76508000D02*
X72127000Y-76508000D01*
X71873000Y-75492000D02*
X71873000Y-76508000D01*
X72000000Y-76508000D02*
X72000000Y-75492000D01*
X72127000Y-75492000D02*
X72127000Y-76508000D01*
X77127000Y-75492000D02*
X76873000Y-75492000D01*
X76873000Y-76508000D02*
X77127000Y-76508000D01*
X76873000Y-75492000D02*
X76873000Y-76508000D01*
X77000000Y-76508000D02*
X77000000Y-75492000D01*
X77127000Y-75492000D02*
X77127000Y-76508000D01*
X82127000Y-75492000D02*
X81873000Y-75492000D01*
X81873000Y-76508000D02*
X82127000Y-76508000D01*
X81873000Y-75492000D02*
X81873000Y-76508000D01*
X82000000Y-76508000D02*
X82000000Y-75492000D01*
X82127000Y-75492000D02*
X82127000Y-76508000D01*
X86877000Y-75492000D02*
X86623000Y-75492000D01*
X86623000Y-76508000D02*
X86877000Y-76508000D01*
X86623000Y-75492000D02*
X86623000Y-76508000D01*
X86750000Y-76508000D02*
X86750000Y-75492000D01*
X86877000Y-75492000D02*
X86877000Y-76508000D01*
X92127000Y-75492000D02*
X91873000Y-75492000D01*
X91873000Y-76508000D02*
X92127000Y-76508000D01*
X91873000Y-75492000D02*
X91873000Y-76508000D01*
X92000000Y-76508000D02*
X92000000Y-75492000D01*
X92127000Y-75492000D02*
X92127000Y-76508000D01*
X65373000Y-58008000D02*
X65627000Y-58008000D01*
X65627000Y-56992000D02*
X65373000Y-56992000D01*
X65627000Y-58008000D02*
X65627000Y-56992000D01*
X65500000Y-56992000D02*
X65500000Y-58008000D01*
X65373000Y-58008000D02*
X65373000Y-56992000D01*
X54742000Y-82123000D02*
X54742000Y-82377000D01*
X55758000Y-82377000D02*
X55758000Y-82123000D01*
X54742000Y-82377000D02*
X55758000Y-82377000D01*
X55758000Y-82250000D02*
X54742000Y-82250000D01*
X54742000Y-82123000D02*
X55758000Y-82123000D01*
X82992000Y-59123000D02*
X82992000Y-59377000D01*
X84008000Y-59377000D02*
X84008000Y-59123000D01*
X82992000Y-59377000D02*
X84008000Y-59377000D01*
X84008000Y-59250000D02*
X82992000Y-59250000D01*
X82992000Y-59123000D02*
X84008000Y-59123000D01*
X88492000Y-59123000D02*
X88492000Y-59377000D01*
X89508000Y-59377000D02*
X89508000Y-59123000D01*
X88492000Y-59377000D02*
X89508000Y-59377000D01*
X89508000Y-59250000D02*
X88492000Y-59250000D01*
X88492000Y-59123000D02*
X89508000Y-59123000D01*
D12*
X61144000Y-127500000D03*
D13*
X63684000Y-127500000D03*
X66224000Y-127500000D03*
X68764000Y-127500000D03*
X71304000Y-127500000D03*
X73844000Y-127500000D03*
X76384000Y-127500000D03*
X78924000Y-127500000D03*
D12*
X84004000Y-127500000D03*
D13*
X86544000Y-127500000D03*
X89084000Y-127500000D03*
X91624000Y-127500000D03*
X94164000Y-127500000D03*
X96704000Y-127500000D03*
D12*
X52000000Y-79240000D03*
D13*
X54540000Y-79240000D03*
X57080000Y-79240000D03*
X59620000Y-79240000D03*
X62160000Y-79240000D03*
X64700000Y-79240000D03*
X67240000Y-79240000D03*
X69780000Y-79240000D03*
X72320000Y-79240000D03*
X74860000Y-79240000D03*
D12*
X78924000Y-79240000D03*
D13*
X81464000Y-79240000D03*
X84004000Y-79240000D03*
X86544000Y-79240000D03*
X89084000Y-79240000D03*
X91624000Y-79240000D03*
X94164000Y-79240000D03*
X96704000Y-79240000D03*
D14*
X94304513Y-104730013D03*
D15*
X96844513Y-104730013D03*
X94304513Y-102190013D03*
X96844513Y-102190013D03*
X94304513Y-99650013D03*
X96844513Y-99650013D03*
D16*
X61049840Y-57500000D03*
X53450160Y-57500000D03*
D17*
X62500000Y-76000000D03*
X61500000Y-76000000D03*
X67500000Y-76000000D03*
X66500000Y-76000000D03*
X72500000Y-76000000D03*
X71500000Y-76000000D03*
X77500000Y-76000000D03*
X76500000Y-76000000D03*
X82500000Y-76000000D03*
X81500000Y-76000000D03*
X87250000Y-76000000D03*
X86250000Y-76000000D03*
X92500000Y-76000000D03*
X91500000Y-76000000D03*
X65000000Y-57500000D03*
X66000000Y-57500000D03*
D18*
X55250000Y-81750000D03*
X55250000Y-82750000D03*
X83500000Y-58750000D03*
X83500000Y-59750000D03*
D19*
X52500000Y-102950000D03*
X52500000Y-100050000D03*
D20*
X60500000Y-82500000D03*
D21*
X60500000Y-94500000D03*
D20*
X60500000Y-106500000D03*
D22*
X94500000Y-111250000D03*
D19*
X97500000Y-111250000D03*
X96621320Y-113371320D03*
X94500000Y-114250000D03*
X92378680Y-113371320D03*
X91500000Y-111250000D03*
X92378680Y-109128680D03*
X94500000Y-108250000D03*
X96621320Y-109128680D03*
D22*
X54500000Y-111250000D03*
D19*
X57500000Y-111250000D03*
X56621320Y-113371320D03*
X54500000Y-114250000D03*
X52378680Y-113371320D03*
X51500000Y-111250000D03*
X52378680Y-109128680D03*
X54500000Y-108250000D03*
X56621320Y-109128680D03*
D22*
X74500000Y-55000000D03*
D19*
X77500000Y-55000000D03*
X76621320Y-57121320D03*
X74500000Y-58000000D03*
X72378680Y-57121320D03*
X71500000Y-55000000D03*
X72378680Y-52878680D03*
X74500000Y-52000000D03*
X76621320Y-52878680D03*
D18*
X89000000Y-58750000D03*
X89000000Y-59750000D03*
D23*
X88960000Y-62350000D03*
X91500000Y-62350000D03*
X94040000Y-62350000D03*
D24*
X53585000Y-86519000D03*
X53585000Y-90519000D03*
M02*
