G04 #@! TF.FileFunction,Soldermask,Top*
%FSLAX46Y46*%
G04 Gerber Fmt 4.6, Leading zero omitted, Abs format (unit mm)*
G04 Created by KiCad (PCBNEW 4.0.0-rc1-stable) date 8/9/2016 10:19:07 PM*
%MOMM*%
G01*
G04 APERTURE LIST*
%ADD10C,0.100000*%
%ADD11C,0.010000*%
%ADD12C,2.540000*%
%ADD13R,1.050000X1.100000*%
%ADD14R,1.100000X1.050000*%
%ADD15R,1.097560X1.097560*%
%ADD16R,1.498880X1.498880*%
%ADD17R,2.027200X2.332000*%
%ADD18O,2.027200X2.332000*%
%ADD19R,2.027200X2.027200*%
%ADD20O,2.027200X2.027200*%
%ADD21R,0.800000X1.200000*%
%ADD22R,1.200000X0.800000*%
%ADD23C,2.300000*%
%ADD24R,1.360000X0.950000*%
%ADD25R,1.700000X1.500000*%
%ADD26C,1.000000*%
%ADD27R,2.300000X0.900000*%
%ADD28R,0.900000X1.800000*%
%ADD29C,8.300000*%
%ADD30C,1.824000*%
%ADD31R,5.380000X2.840000*%
%ADD32R,1.300000X1.550000*%
%ADD33R,1.750000X0.800000*%
%ADD34R,2.300000X2.300000*%
%ADD35R,2.000000X2.100000*%
%ADD36C,0.850000*%
G04 APERTURE END LIST*
D10*
D11*
G36*
X95937600Y-121243200D02*
X53087800Y-121243200D01*
X53087800Y-116137800D01*
X53468800Y-116137800D01*
X53468800Y-120887600D01*
X95556600Y-120887600D01*
X95556600Y-116137800D01*
X53468800Y-116137800D01*
X53087800Y-116137800D01*
X53087800Y-115782200D01*
X95937600Y-115782200D01*
X95937600Y-121243200D01*
X95937600Y-121243200D01*
G37*
X95937600Y-121243200D02*
X53087800Y-121243200D01*
X53087800Y-116137800D01*
X53468800Y-116137800D01*
X53468800Y-120887600D01*
X95556600Y-120887600D01*
X95556600Y-116137800D01*
X53468800Y-116137800D01*
X53087800Y-116137800D01*
X53087800Y-115782200D01*
X95937600Y-115782200D01*
X95937600Y-121243200D01*
G36*
X81521921Y-117005875D02*
X81695937Y-117019913D01*
X81808940Y-117039601D01*
X82062328Y-117124418D01*
X82290507Y-117251981D01*
X82490671Y-117419443D01*
X82660011Y-117623954D01*
X82795718Y-117862667D01*
X82894983Y-118132733D01*
X82898225Y-118144400D01*
X82921961Y-118268006D01*
X82937734Y-118427236D01*
X82945522Y-118607537D01*
X82945305Y-118794356D01*
X82937062Y-118973141D01*
X82920774Y-119129340D01*
X82899757Y-119236600D01*
X82802226Y-119511541D01*
X82667601Y-119754346D01*
X82498060Y-119962691D01*
X82295777Y-120134253D01*
X82062928Y-120266712D01*
X81866000Y-120340054D01*
X81770396Y-120360539D01*
X81642059Y-120377504D01*
X81498424Y-120389726D01*
X81356927Y-120395984D01*
X81235001Y-120395056D01*
X81167500Y-120389004D01*
X80897249Y-120323017D01*
X80651721Y-120212680D01*
X80430406Y-120057737D01*
X80328527Y-119963313D01*
X80175211Y-119787403D01*
X80058349Y-119602246D01*
X79968785Y-119391929D01*
X79931788Y-119273808D01*
X79900408Y-119121742D01*
X79880181Y-118935987D01*
X79871294Y-118732455D01*
X79872503Y-118638352D01*
X80652119Y-118638352D01*
X80654157Y-118779400D01*
X80683327Y-119035907D01*
X80744299Y-119255586D01*
X80836527Y-119437270D01*
X80959462Y-119579790D01*
X81065678Y-119656912D01*
X81233366Y-119729525D01*
X81405581Y-119752425D01*
X81585243Y-119725754D01*
X81694337Y-119687490D01*
X81841926Y-119598556D01*
X81964499Y-119468160D01*
X82060254Y-119300023D01*
X82127388Y-119097870D01*
X82164101Y-118865422D01*
X82170800Y-118703199D01*
X82154245Y-118446851D01*
X82105646Y-118222791D01*
X82026599Y-118033196D01*
X81918700Y-117880242D01*
X81783545Y-117766107D01*
X81622731Y-117692967D01*
X81437854Y-117662997D01*
X81407437Y-117662357D01*
X81222460Y-117684418D01*
X81060136Y-117750108D01*
X80922287Y-117856723D01*
X80810737Y-118001559D01*
X80727310Y-118181912D01*
X80673830Y-118395078D01*
X80652119Y-118638352D01*
X79872503Y-118638352D01*
X79873934Y-118527060D01*
X79888287Y-118335713D01*
X79914541Y-118174328D01*
X79918658Y-118157100D01*
X80008008Y-117894512D01*
X80136454Y-117657679D01*
X80299903Y-117450809D01*
X80494264Y-117278108D01*
X80715443Y-117143782D01*
X80959348Y-117052040D01*
X81005019Y-117040450D01*
X81155978Y-117016165D01*
X81335106Y-117004633D01*
X81521921Y-117005875D01*
X81521921Y-117005875D01*
G37*
X81521921Y-117005875D02*
X81695937Y-117019913D01*
X81808940Y-117039601D01*
X82062328Y-117124418D01*
X82290507Y-117251981D01*
X82490671Y-117419443D01*
X82660011Y-117623954D01*
X82795718Y-117862667D01*
X82894983Y-118132733D01*
X82898225Y-118144400D01*
X82921961Y-118268006D01*
X82937734Y-118427236D01*
X82945522Y-118607537D01*
X82945305Y-118794356D01*
X82937062Y-118973141D01*
X82920774Y-119129340D01*
X82899757Y-119236600D01*
X82802226Y-119511541D01*
X82667601Y-119754346D01*
X82498060Y-119962691D01*
X82295777Y-120134253D01*
X82062928Y-120266712D01*
X81866000Y-120340054D01*
X81770396Y-120360539D01*
X81642059Y-120377504D01*
X81498424Y-120389726D01*
X81356927Y-120395984D01*
X81235001Y-120395056D01*
X81167500Y-120389004D01*
X80897249Y-120323017D01*
X80651721Y-120212680D01*
X80430406Y-120057737D01*
X80328527Y-119963313D01*
X80175211Y-119787403D01*
X80058349Y-119602246D01*
X79968785Y-119391929D01*
X79931788Y-119273808D01*
X79900408Y-119121742D01*
X79880181Y-118935987D01*
X79871294Y-118732455D01*
X79872503Y-118638352D01*
X80652119Y-118638352D01*
X80654157Y-118779400D01*
X80683327Y-119035907D01*
X80744299Y-119255586D01*
X80836527Y-119437270D01*
X80959462Y-119579790D01*
X81065678Y-119656912D01*
X81233366Y-119729525D01*
X81405581Y-119752425D01*
X81585243Y-119725754D01*
X81694337Y-119687490D01*
X81841926Y-119598556D01*
X81964499Y-119468160D01*
X82060254Y-119300023D01*
X82127388Y-119097870D01*
X82164101Y-118865422D01*
X82170800Y-118703199D01*
X82154245Y-118446851D01*
X82105646Y-118222791D01*
X82026599Y-118033196D01*
X81918700Y-117880242D01*
X81783545Y-117766107D01*
X81622731Y-117692967D01*
X81437854Y-117662997D01*
X81407437Y-117662357D01*
X81222460Y-117684418D01*
X81060136Y-117750108D01*
X80922287Y-117856723D01*
X80810737Y-118001559D01*
X80727310Y-118181912D01*
X80673830Y-118395078D01*
X80652119Y-118638352D01*
X79872503Y-118638352D01*
X79873934Y-118527060D01*
X79888287Y-118335713D01*
X79914541Y-118174328D01*
X79918658Y-118157100D01*
X80008008Y-117894512D01*
X80136454Y-117657679D01*
X80299903Y-117450809D01*
X80494264Y-117278108D01*
X80715443Y-117143782D01*
X80959348Y-117052040D01*
X81005019Y-117040450D01*
X81155978Y-117016165D01*
X81335106Y-117004633D01*
X81521921Y-117005875D01*
G36*
X84228200Y-117939587D02*
X84526650Y-117946743D01*
X84825100Y-117953900D01*
X84832281Y-118239650D01*
X84839463Y-118525400D01*
X84222055Y-118525400D01*
X84232865Y-119077850D01*
X84238710Y-119299509D01*
X84246596Y-119472401D01*
X84256484Y-119595948D01*
X84268334Y-119669574D01*
X84274470Y-119686587D01*
X84329226Y-119738033D01*
X84421246Y-119772412D01*
X84539008Y-119786812D01*
X84649452Y-119781332D01*
X84787000Y-119764146D01*
X84787000Y-120045989D01*
X84786506Y-120168876D01*
X84783837Y-120250132D01*
X84777205Y-120298927D01*
X84764825Y-120324427D01*
X84744912Y-120335802D01*
X84729850Y-120339410D01*
X84645127Y-120350417D01*
X84525889Y-120358072D01*
X84388332Y-120362045D01*
X84248649Y-120362007D01*
X84123038Y-120357627D01*
X84063100Y-120352976D01*
X83884637Y-120324698D01*
X83747295Y-120277806D01*
X83643429Y-120207920D01*
X83565395Y-120110661D01*
X83533215Y-120049400D01*
X83517517Y-120011935D01*
X83505102Y-119971253D01*
X83495474Y-119920814D01*
X83488132Y-119854081D01*
X83482578Y-119764517D01*
X83478315Y-119645583D01*
X83474844Y-119490741D01*
X83471666Y-119293455D01*
X83470768Y-119230250D01*
X83460930Y-118525400D01*
X83083536Y-118525400D01*
X83097900Y-117953900D01*
X83464888Y-117939000D01*
X83478900Y-117166500D01*
X83853550Y-117159470D01*
X84228200Y-117152441D01*
X84228200Y-117939587D01*
X84228200Y-117939587D01*
G37*
X84228200Y-117939587D02*
X84526650Y-117946743D01*
X84825100Y-117953900D01*
X84832281Y-118239650D01*
X84839463Y-118525400D01*
X84222055Y-118525400D01*
X84232865Y-119077850D01*
X84238710Y-119299509D01*
X84246596Y-119472401D01*
X84256484Y-119595948D01*
X84268334Y-119669574D01*
X84274470Y-119686587D01*
X84329226Y-119738033D01*
X84421246Y-119772412D01*
X84539008Y-119786812D01*
X84649452Y-119781332D01*
X84787000Y-119764146D01*
X84787000Y-120045989D01*
X84786506Y-120168876D01*
X84783837Y-120250132D01*
X84777205Y-120298927D01*
X84764825Y-120324427D01*
X84744912Y-120335802D01*
X84729850Y-120339410D01*
X84645127Y-120350417D01*
X84525889Y-120358072D01*
X84388332Y-120362045D01*
X84248649Y-120362007D01*
X84123038Y-120357627D01*
X84063100Y-120352976D01*
X83884637Y-120324698D01*
X83747295Y-120277806D01*
X83643429Y-120207920D01*
X83565395Y-120110661D01*
X83533215Y-120049400D01*
X83517517Y-120011935D01*
X83505102Y-119971253D01*
X83495474Y-119920814D01*
X83488132Y-119854081D01*
X83482578Y-119764517D01*
X83478315Y-119645583D01*
X83474844Y-119490741D01*
X83471666Y-119293455D01*
X83470768Y-119230250D01*
X83460930Y-118525400D01*
X83083536Y-118525400D01*
X83097900Y-117953900D01*
X83464888Y-117939000D01*
X83478900Y-117166500D01*
X83853550Y-117159470D01*
X84228200Y-117152441D01*
X84228200Y-117939587D01*
G36*
X86057000Y-117941200D02*
X86641200Y-117941200D01*
X86641200Y-118525400D01*
X86057000Y-118525400D01*
X86057000Y-119082783D01*
X86057138Y-119264769D01*
X86058014Y-119403026D01*
X86060318Y-119504628D01*
X86064740Y-119576647D01*
X86071970Y-119626154D01*
X86082699Y-119660222D01*
X86097618Y-119685923D01*
X86117416Y-119710329D01*
X86118366Y-119711433D01*
X86152018Y-119746838D01*
X86186640Y-119767758D01*
X86235884Y-119777657D01*
X86313406Y-119780002D01*
X86385066Y-119779123D01*
X86590400Y-119775546D01*
X86590400Y-120051689D01*
X86589884Y-120173117D01*
X86587110Y-120253016D01*
X86580237Y-120300656D01*
X86567423Y-120325304D01*
X86546828Y-120336232D01*
X86533250Y-120339403D01*
X86445054Y-120350982D01*
X86322600Y-120358932D01*
X86182322Y-120362916D01*
X86040655Y-120362594D01*
X85914033Y-120357628D01*
X85860994Y-120353245D01*
X85667181Y-120316260D01*
X85514458Y-120249843D01*
X85402343Y-120153762D01*
X85375874Y-120118092D01*
X85307700Y-120015140D01*
X85292178Y-118525400D01*
X84886936Y-118525400D01*
X84901300Y-117953900D01*
X85098150Y-117946481D01*
X85295000Y-117939063D01*
X85295000Y-117153800D01*
X86057000Y-117153800D01*
X86057000Y-117941200D01*
X86057000Y-117941200D01*
G37*
X86057000Y-117941200D02*
X86641200Y-117941200D01*
X86641200Y-118525400D01*
X86057000Y-118525400D01*
X86057000Y-119082783D01*
X86057138Y-119264769D01*
X86058014Y-119403026D01*
X86060318Y-119504628D01*
X86064740Y-119576647D01*
X86071970Y-119626154D01*
X86082699Y-119660222D01*
X86097618Y-119685923D01*
X86117416Y-119710329D01*
X86118366Y-119711433D01*
X86152018Y-119746838D01*
X86186640Y-119767758D01*
X86235884Y-119777657D01*
X86313406Y-119780002D01*
X86385066Y-119779123D01*
X86590400Y-119775546D01*
X86590400Y-120051689D01*
X86589884Y-120173117D01*
X86587110Y-120253016D01*
X86580237Y-120300656D01*
X86567423Y-120325304D01*
X86546828Y-120336232D01*
X86533250Y-120339403D01*
X86445054Y-120350982D01*
X86322600Y-120358932D01*
X86182322Y-120362916D01*
X86040655Y-120362594D01*
X85914033Y-120357628D01*
X85860994Y-120353245D01*
X85667181Y-120316260D01*
X85514458Y-120249843D01*
X85402343Y-120153762D01*
X85375874Y-120118092D01*
X85307700Y-120015140D01*
X85292178Y-118525400D01*
X84886936Y-118525400D01*
X84901300Y-117953900D01*
X85098150Y-117946481D01*
X85295000Y-117939063D01*
X85295000Y-117153800D01*
X86057000Y-117153800D01*
X86057000Y-117941200D01*
G36*
X88166126Y-117929107D02*
X88279035Y-117931724D01*
X88361904Y-117937544D01*
X88425110Y-117947759D01*
X88479029Y-117963563D01*
X88534038Y-117986147D01*
X88540806Y-117989189D01*
X88652225Y-118055184D01*
X88755722Y-118142744D01*
X88775874Y-118164349D01*
X88822211Y-118219609D01*
X88860132Y-118273653D01*
X88890631Y-118332275D01*
X88914706Y-118401271D01*
X88933354Y-118486435D01*
X88947569Y-118593562D01*
X88958350Y-118728447D01*
X88966692Y-118896885D01*
X88973591Y-119104670D01*
X88979885Y-119350900D01*
X88985160Y-119552991D01*
X88991010Y-119741961D01*
X88997152Y-119910961D01*
X89003304Y-120053138D01*
X89009182Y-120161643D01*
X89014503Y-120229624D01*
X89016861Y-120246250D01*
X89034565Y-120328800D01*
X88269101Y-120328800D01*
X88253271Y-120233550D01*
X88236840Y-120143407D01*
X88221165Y-120097408D01*
X88199708Y-120089426D01*
X88165928Y-120113330D01*
X88145399Y-120132445D01*
X88005243Y-120234433D01*
X87833163Y-120310711D01*
X87642740Y-120358147D01*
X87447555Y-120373610D01*
X87261191Y-120353969D01*
X87223845Y-120344929D01*
X87064035Y-120278180D01*
X86930067Y-120174611D01*
X86831104Y-120041974D01*
X86807512Y-119992719D01*
X86783597Y-119900570D01*
X86770992Y-119777846D01*
X86770005Y-119643568D01*
X86774180Y-119595185D01*
X87508881Y-119595185D01*
X87531001Y-119663474D01*
X87570450Y-119710959D01*
X87611724Y-119747120D01*
X87653800Y-119765052D01*
X87713996Y-119768863D01*
X87793848Y-119763947D01*
X87895227Y-119749586D01*
X87990090Y-119725934D01*
X88039347Y-119706779D01*
X88127469Y-119657858D01*
X88180199Y-119611328D01*
X88206499Y-119551991D01*
X88215333Y-119464647D01*
X88216000Y-119407191D01*
X88216000Y-119230055D01*
X88092007Y-119246503D01*
X87890951Y-119285782D01*
X87733053Y-119345266D01*
X87614194Y-119426572D01*
X87600749Y-119439473D01*
X87531834Y-119523171D01*
X87508881Y-119595185D01*
X86774180Y-119595185D01*
X86780948Y-119516755D01*
X86798395Y-119433810D01*
X86851504Y-119324459D01*
X86941580Y-119210602D01*
X87057473Y-119104027D01*
X87188035Y-119016523D01*
X87198315Y-119010947D01*
X87334607Y-118950623D01*
X87505367Y-118893680D01*
X87694274Y-118844490D01*
X87885006Y-118807424D01*
X88024070Y-118789785D01*
X88121763Y-118779690D01*
X88179250Y-118768694D01*
X88207029Y-118752749D01*
X88215597Y-118727811D01*
X88216000Y-118715821D01*
X88192922Y-118635311D01*
X88132626Y-118564542D01*
X88048511Y-118517509D01*
X88018677Y-118509744D01*
X87895392Y-118505738D01*
X87747141Y-118530853D01*
X87587357Y-118580953D01*
X87429472Y-118651899D01*
X87297678Y-118731857D01*
X87238245Y-118765419D01*
X87189949Y-118779399D01*
X87189910Y-118779400D01*
X87156745Y-118759569D01*
X87105485Y-118707506D01*
X87044475Y-118634355D01*
X86982062Y-118551261D01*
X86926591Y-118469366D01*
X86886408Y-118399816D01*
X86869859Y-118353754D01*
X86869800Y-118351966D01*
X86892576Y-118300719D01*
X86955538Y-118238679D01*
X87050631Y-118170980D01*
X87169802Y-118102758D01*
X87304998Y-118039148D01*
X87441300Y-117987550D01*
X87517685Y-117964164D01*
X87590203Y-117947812D01*
X87670554Y-117937285D01*
X87770440Y-117931375D01*
X87901561Y-117928872D01*
X88012800Y-117928500D01*
X88166126Y-117929107D01*
X88166126Y-117929107D01*
G37*
X88166126Y-117929107D02*
X88279035Y-117931724D01*
X88361904Y-117937544D01*
X88425110Y-117947759D01*
X88479029Y-117963563D01*
X88534038Y-117986147D01*
X88540806Y-117989189D01*
X88652225Y-118055184D01*
X88755722Y-118142744D01*
X88775874Y-118164349D01*
X88822211Y-118219609D01*
X88860132Y-118273653D01*
X88890631Y-118332275D01*
X88914706Y-118401271D01*
X88933354Y-118486435D01*
X88947569Y-118593562D01*
X88958350Y-118728447D01*
X88966692Y-118896885D01*
X88973591Y-119104670D01*
X88979885Y-119350900D01*
X88985160Y-119552991D01*
X88991010Y-119741961D01*
X88997152Y-119910961D01*
X89003304Y-120053138D01*
X89009182Y-120161643D01*
X89014503Y-120229624D01*
X89016861Y-120246250D01*
X89034565Y-120328800D01*
X88269101Y-120328800D01*
X88253271Y-120233550D01*
X88236840Y-120143407D01*
X88221165Y-120097408D01*
X88199708Y-120089426D01*
X88165928Y-120113330D01*
X88145399Y-120132445D01*
X88005243Y-120234433D01*
X87833163Y-120310711D01*
X87642740Y-120358147D01*
X87447555Y-120373610D01*
X87261191Y-120353969D01*
X87223845Y-120344929D01*
X87064035Y-120278180D01*
X86930067Y-120174611D01*
X86831104Y-120041974D01*
X86807512Y-119992719D01*
X86783597Y-119900570D01*
X86770992Y-119777846D01*
X86770005Y-119643568D01*
X86774180Y-119595185D01*
X87508881Y-119595185D01*
X87531001Y-119663474D01*
X87570450Y-119710959D01*
X87611724Y-119747120D01*
X87653800Y-119765052D01*
X87713996Y-119768863D01*
X87793848Y-119763947D01*
X87895227Y-119749586D01*
X87990090Y-119725934D01*
X88039347Y-119706779D01*
X88127469Y-119657858D01*
X88180199Y-119611328D01*
X88206499Y-119551991D01*
X88215333Y-119464647D01*
X88216000Y-119407191D01*
X88216000Y-119230055D01*
X88092007Y-119246503D01*
X87890951Y-119285782D01*
X87733053Y-119345266D01*
X87614194Y-119426572D01*
X87600749Y-119439473D01*
X87531834Y-119523171D01*
X87508881Y-119595185D01*
X86774180Y-119595185D01*
X86780948Y-119516755D01*
X86798395Y-119433810D01*
X86851504Y-119324459D01*
X86941580Y-119210602D01*
X87057473Y-119104027D01*
X87188035Y-119016523D01*
X87198315Y-119010947D01*
X87334607Y-118950623D01*
X87505367Y-118893680D01*
X87694274Y-118844490D01*
X87885006Y-118807424D01*
X88024070Y-118789785D01*
X88121763Y-118779690D01*
X88179250Y-118768694D01*
X88207029Y-118752749D01*
X88215597Y-118727811D01*
X88216000Y-118715821D01*
X88192922Y-118635311D01*
X88132626Y-118564542D01*
X88048511Y-118517509D01*
X88018677Y-118509744D01*
X87895392Y-118505738D01*
X87747141Y-118530853D01*
X87587357Y-118580953D01*
X87429472Y-118651899D01*
X87297678Y-118731857D01*
X87238245Y-118765419D01*
X87189949Y-118779399D01*
X87189910Y-118779400D01*
X87156745Y-118759569D01*
X87105485Y-118707506D01*
X87044475Y-118634355D01*
X86982062Y-118551261D01*
X86926591Y-118469366D01*
X86886408Y-118399816D01*
X86869859Y-118353754D01*
X86869800Y-118351966D01*
X86892576Y-118300719D01*
X86955538Y-118238679D01*
X87050631Y-118170980D01*
X87169802Y-118102758D01*
X87304998Y-118039148D01*
X87441300Y-117987550D01*
X87517685Y-117964164D01*
X87590203Y-117947812D01*
X87670554Y-117937285D01*
X87770440Y-117931375D01*
X87901561Y-117928872D01*
X88012800Y-117928500D01*
X88166126Y-117929107D01*
G36*
X93876674Y-117919971D02*
X94016015Y-117925314D01*
X94117242Y-117932667D01*
X94193041Y-117944215D01*
X94256099Y-117962147D01*
X94319099Y-117988646D01*
X94343716Y-118000464D01*
X94492572Y-118097908D01*
X94605553Y-118228615D01*
X94685947Y-118396568D01*
X94696005Y-118427163D01*
X94711667Y-118483754D01*
X94723580Y-118544946D01*
X94732239Y-118618492D01*
X94738141Y-118712147D01*
X94741780Y-118833665D01*
X94743654Y-118990800D01*
X94744251Y-119181712D01*
X94746803Y-119470698D01*
X94753868Y-119723681D01*
X94765247Y-119937351D01*
X94780742Y-120108396D01*
X94800154Y-120233505D01*
X94809648Y-120272328D01*
X94826279Y-120330156D01*
X94045603Y-120316100D01*
X94020051Y-120198621D01*
X93994500Y-120081143D01*
X93884464Y-120165827D01*
X93729656Y-120258939D01*
X93548244Y-120326244D01*
X93355588Y-120364574D01*
X93167049Y-120370766D01*
X93011601Y-120345688D01*
X92841952Y-120274704D01*
X92704173Y-120168605D01*
X92617954Y-120056318D01*
X92583001Y-119991524D01*
X92561751Y-119932291D01*
X92550907Y-119862378D01*
X92547171Y-119765545D01*
X92546933Y-119706500D01*
X92549083Y-119588402D01*
X93296000Y-119588402D01*
X93318003Y-119669785D01*
X93378821Y-119728486D01*
X93470668Y-119762045D01*
X93585754Y-119768000D01*
X93716292Y-119743890D01*
X93751684Y-119732434D01*
X93838574Y-119695353D01*
X93918796Y-119651156D01*
X93932678Y-119641805D01*
X93971796Y-119610461D01*
X93994123Y-119576582D01*
X94004337Y-119525563D01*
X94007116Y-119442799D01*
X94007200Y-119409173D01*
X94007200Y-119229605D01*
X93868024Y-119245963D01*
X93702208Y-119277109D01*
X93555675Y-119327052D01*
X93435444Y-119391590D01*
X93348535Y-119466523D01*
X93301965Y-119547647D01*
X93296000Y-119588402D01*
X92549083Y-119588402D01*
X92549084Y-119588363D01*
X92557440Y-119503766D01*
X92575286Y-119435531D01*
X92605907Y-119366483D01*
X92615535Y-119347858D01*
X92719549Y-119199284D01*
X92863905Y-119074474D01*
X93051104Y-118971609D01*
X93219800Y-118908190D01*
X93336138Y-118875442D01*
X93474051Y-118843358D01*
X93617805Y-118814927D01*
X93751667Y-118793136D01*
X93859903Y-118780974D01*
X93897750Y-118779434D01*
X93966850Y-118770967D01*
X93995024Y-118740576D01*
X93986447Y-118680656D01*
X93972366Y-118643599D01*
X93915821Y-118569665D01*
X93824894Y-118524404D01*
X93706788Y-118507315D01*
X93568710Y-118517896D01*
X93417865Y-118555649D01*
X93261459Y-118620073D01*
X93118200Y-118702901D01*
X93046599Y-118746006D01*
X92987117Y-118773713D01*
X92963897Y-118779291D01*
X92931451Y-118759401D01*
X92881360Y-118707005D01*
X92821577Y-118633184D01*
X92760051Y-118549018D01*
X92704733Y-118465589D01*
X92663574Y-118393976D01*
X92644523Y-118345261D01*
X92644876Y-118334662D01*
X92678901Y-118291487D01*
X92748109Y-118234025D01*
X92841797Y-118169784D01*
X92949263Y-118106276D01*
X93028200Y-118065681D01*
X93204079Y-117994328D01*
X93388308Y-117947480D01*
X93593255Y-117923013D01*
X93831288Y-117918802D01*
X93876674Y-117919971D01*
X93876674Y-117919971D01*
G37*
X93876674Y-117919971D02*
X94016015Y-117925314D01*
X94117242Y-117932667D01*
X94193041Y-117944215D01*
X94256099Y-117962147D01*
X94319099Y-117988646D01*
X94343716Y-118000464D01*
X94492572Y-118097908D01*
X94605553Y-118228615D01*
X94685947Y-118396568D01*
X94696005Y-118427163D01*
X94711667Y-118483754D01*
X94723580Y-118544946D01*
X94732239Y-118618492D01*
X94738141Y-118712147D01*
X94741780Y-118833665D01*
X94743654Y-118990800D01*
X94744251Y-119181712D01*
X94746803Y-119470698D01*
X94753868Y-119723681D01*
X94765247Y-119937351D01*
X94780742Y-120108396D01*
X94800154Y-120233505D01*
X94809648Y-120272328D01*
X94826279Y-120330156D01*
X94045603Y-120316100D01*
X94020051Y-120198621D01*
X93994500Y-120081143D01*
X93884464Y-120165827D01*
X93729656Y-120258939D01*
X93548244Y-120326244D01*
X93355588Y-120364574D01*
X93167049Y-120370766D01*
X93011601Y-120345688D01*
X92841952Y-120274704D01*
X92704173Y-120168605D01*
X92617954Y-120056318D01*
X92583001Y-119991524D01*
X92561751Y-119932291D01*
X92550907Y-119862378D01*
X92547171Y-119765545D01*
X92546933Y-119706500D01*
X92549083Y-119588402D01*
X93296000Y-119588402D01*
X93318003Y-119669785D01*
X93378821Y-119728486D01*
X93470668Y-119762045D01*
X93585754Y-119768000D01*
X93716292Y-119743890D01*
X93751684Y-119732434D01*
X93838574Y-119695353D01*
X93918796Y-119651156D01*
X93932678Y-119641805D01*
X93971796Y-119610461D01*
X93994123Y-119576582D01*
X94004337Y-119525563D01*
X94007116Y-119442799D01*
X94007200Y-119409173D01*
X94007200Y-119229605D01*
X93868024Y-119245963D01*
X93702208Y-119277109D01*
X93555675Y-119327052D01*
X93435444Y-119391590D01*
X93348535Y-119466523D01*
X93301965Y-119547647D01*
X93296000Y-119588402D01*
X92549083Y-119588402D01*
X92549084Y-119588363D01*
X92557440Y-119503766D01*
X92575286Y-119435531D01*
X92605907Y-119366483D01*
X92615535Y-119347858D01*
X92719549Y-119199284D01*
X92863905Y-119074474D01*
X93051104Y-118971609D01*
X93219800Y-118908190D01*
X93336138Y-118875442D01*
X93474051Y-118843358D01*
X93617805Y-118814927D01*
X93751667Y-118793136D01*
X93859903Y-118780974D01*
X93897750Y-118779434D01*
X93966850Y-118770967D01*
X93995024Y-118740576D01*
X93986447Y-118680656D01*
X93972366Y-118643599D01*
X93915821Y-118569665D01*
X93824894Y-118524404D01*
X93706788Y-118507315D01*
X93568710Y-118517896D01*
X93417865Y-118555649D01*
X93261459Y-118620073D01*
X93118200Y-118702901D01*
X93046599Y-118746006D01*
X92987117Y-118773713D01*
X92963897Y-118779291D01*
X92931451Y-118759401D01*
X92881360Y-118707005D01*
X92821577Y-118633184D01*
X92760051Y-118549018D01*
X92704733Y-118465589D01*
X92663574Y-118393976D01*
X92644523Y-118345261D01*
X92644876Y-118334662D01*
X92678901Y-118291487D01*
X92748109Y-118234025D01*
X92841797Y-118169784D01*
X92949263Y-118106276D01*
X93028200Y-118065681D01*
X93204079Y-117994328D01*
X93388308Y-117947480D01*
X93593255Y-117923013D01*
X93831288Y-117918802D01*
X93876674Y-117919971D01*
G36*
X89644310Y-117941509D02*
X89745162Y-117943239D01*
X89811553Y-117947590D01*
X89851652Y-117955763D01*
X89873627Y-117968959D01*
X89885648Y-117988378D01*
X89889571Y-117998350D01*
X89901128Y-118038143D01*
X89922419Y-118119996D01*
X89951606Y-118236502D01*
X89986852Y-118380256D01*
X90026319Y-118543853D01*
X90059131Y-118681651D01*
X90207376Y-119307802D01*
X90367502Y-118644707D01*
X90410724Y-118468097D01*
X90451092Y-118307633D01*
X90486842Y-118169979D01*
X90516207Y-118061798D01*
X90537423Y-117989755D01*
X90548705Y-117960534D01*
X90581181Y-117952736D01*
X90653340Y-117947558D01*
X90754110Y-117945497D01*
X90858691Y-117946678D01*
X91147600Y-117953900D01*
X91313750Y-118619932D01*
X91357978Y-118795423D01*
X91398705Y-118953598D01*
X91434224Y-119088098D01*
X91462827Y-119192568D01*
X91482809Y-119260650D01*
X91492462Y-119285986D01*
X91492600Y-119286021D01*
X91501858Y-119262432D01*
X91521551Y-119195870D01*
X91549966Y-119092688D01*
X91585391Y-118959238D01*
X91626111Y-118801874D01*
X91670416Y-118626948D01*
X91672160Y-118619989D01*
X91839020Y-117953900D01*
X92174323Y-117946809D01*
X92319833Y-117945004D01*
X92420994Y-117947080D01*
X92484141Y-117953500D01*
X92515609Y-117964728D01*
X92521414Y-117972209D01*
X92516831Y-118002453D01*
X92499109Y-118076477D01*
X92469602Y-118189371D01*
X92429662Y-118336227D01*
X92380642Y-118512134D01*
X92323895Y-118712184D01*
X92260773Y-118931467D01*
X92194001Y-119160400D01*
X91854801Y-120316100D01*
X91138315Y-120330186D01*
X91120456Y-120259643D01*
X91109266Y-120215254D01*
X91087721Y-120129616D01*
X91057837Y-120010748D01*
X91021630Y-119866672D01*
X90981115Y-119705408D01*
X90959060Y-119617600D01*
X90815524Y-119046100D01*
X90667988Y-119655700D01*
X90626721Y-119825521D01*
X90588934Y-119979715D01*
X90556399Y-120111158D01*
X90530888Y-120212724D01*
X90514171Y-120277290D01*
X90508508Y-120297050D01*
X90487815Y-120310758D01*
X90434225Y-120320281D01*
X90342466Y-120326076D01*
X90207267Y-120328602D01*
X90142885Y-120328800D01*
X89990131Y-120327428D01*
X89882791Y-120323004D01*
X89815543Y-120315064D01*
X89783068Y-120303144D01*
X89778585Y-120297050D01*
X89753598Y-120218717D01*
X89718816Y-120104429D01*
X89675875Y-119959967D01*
X89626414Y-119791114D01*
X89572068Y-119603652D01*
X89514475Y-119403364D01*
X89455271Y-119196031D01*
X89396094Y-118987436D01*
X89338581Y-118783362D01*
X89284367Y-118589591D01*
X89235092Y-118411904D01*
X89192390Y-118256085D01*
X89157900Y-118127916D01*
X89133257Y-118033179D01*
X89120100Y-117977656D01*
X89118490Y-117965321D01*
X89148075Y-117956614D01*
X89219348Y-117949345D01*
X89323202Y-117944088D01*
X89450532Y-117941417D01*
X89500827Y-117941200D01*
X89644310Y-117941509D01*
X89644310Y-117941509D01*
G37*
X89644310Y-117941509D02*
X89745162Y-117943239D01*
X89811553Y-117947590D01*
X89851652Y-117955763D01*
X89873627Y-117968959D01*
X89885648Y-117988378D01*
X89889571Y-117998350D01*
X89901128Y-118038143D01*
X89922419Y-118119996D01*
X89951606Y-118236502D01*
X89986852Y-118380256D01*
X90026319Y-118543853D01*
X90059131Y-118681651D01*
X90207376Y-119307802D01*
X90367502Y-118644707D01*
X90410724Y-118468097D01*
X90451092Y-118307633D01*
X90486842Y-118169979D01*
X90516207Y-118061798D01*
X90537423Y-117989755D01*
X90548705Y-117960534D01*
X90581181Y-117952736D01*
X90653340Y-117947558D01*
X90754110Y-117945497D01*
X90858691Y-117946678D01*
X91147600Y-117953900D01*
X91313750Y-118619932D01*
X91357978Y-118795423D01*
X91398705Y-118953598D01*
X91434224Y-119088098D01*
X91462827Y-119192568D01*
X91482809Y-119260650D01*
X91492462Y-119285986D01*
X91492600Y-119286021D01*
X91501858Y-119262432D01*
X91521551Y-119195870D01*
X91549966Y-119092688D01*
X91585391Y-118959238D01*
X91626111Y-118801874D01*
X91670416Y-118626948D01*
X91672160Y-118619989D01*
X91839020Y-117953900D01*
X92174323Y-117946809D01*
X92319833Y-117945004D01*
X92420994Y-117947080D01*
X92484141Y-117953500D01*
X92515609Y-117964728D01*
X92521414Y-117972209D01*
X92516831Y-118002453D01*
X92499109Y-118076477D01*
X92469602Y-118189371D01*
X92429662Y-118336227D01*
X92380642Y-118512134D01*
X92323895Y-118712184D01*
X92260773Y-118931467D01*
X92194001Y-119160400D01*
X91854801Y-120316100D01*
X91138315Y-120330186D01*
X91120456Y-120259643D01*
X91109266Y-120215254D01*
X91087721Y-120129616D01*
X91057837Y-120010748D01*
X91021630Y-119866672D01*
X90981115Y-119705408D01*
X90959060Y-119617600D01*
X90815524Y-119046100D01*
X90667988Y-119655700D01*
X90626721Y-119825521D01*
X90588934Y-119979715D01*
X90556399Y-120111158D01*
X90530888Y-120212724D01*
X90514171Y-120277290D01*
X90508508Y-120297050D01*
X90487815Y-120310758D01*
X90434225Y-120320281D01*
X90342466Y-120326076D01*
X90207267Y-120328602D01*
X90142885Y-120328800D01*
X89990131Y-120327428D01*
X89882791Y-120323004D01*
X89815543Y-120315064D01*
X89783068Y-120303144D01*
X89778585Y-120297050D01*
X89753598Y-120218717D01*
X89718816Y-120104429D01*
X89675875Y-119959967D01*
X89626414Y-119791114D01*
X89572068Y-119603652D01*
X89514475Y-119403364D01*
X89455271Y-119196031D01*
X89396094Y-118987436D01*
X89338581Y-118783362D01*
X89284367Y-118589591D01*
X89235092Y-118411904D01*
X89192390Y-118256085D01*
X89157900Y-118127916D01*
X89133257Y-118033179D01*
X89120100Y-117977656D01*
X89118490Y-117965321D01*
X89148075Y-117956614D01*
X89219348Y-117949345D01*
X89323202Y-117944088D01*
X89450532Y-117941417D01*
X89500827Y-117941200D01*
X89644310Y-117941509D01*
D12*
X79750000Y-61000000D03*
D13*
X85500000Y-101750000D03*
X85500000Y-103250000D03*
X84500000Y-84750000D03*
X84500000Y-83250000D03*
D10*
G36*
X89201992Y-88540470D02*
X88459530Y-87798008D01*
X89237348Y-87020190D01*
X89979810Y-87762652D01*
X89201992Y-88540470D01*
X89201992Y-88540470D01*
G37*
G36*
X90262652Y-87479810D02*
X89520190Y-86737348D01*
X90298008Y-85959530D01*
X91040470Y-86701992D01*
X90262652Y-87479810D01*
X90262652Y-87479810D01*
G37*
G36*
X90451992Y-89790470D02*
X89709530Y-89048008D01*
X90487348Y-88270190D01*
X91229810Y-89012652D01*
X90451992Y-89790470D01*
X90451992Y-89790470D01*
G37*
G36*
X91512652Y-88729810D02*
X90770190Y-87987348D01*
X91548008Y-87209530D01*
X92290470Y-87951992D01*
X91512652Y-88729810D01*
X91512652Y-88729810D01*
G37*
D13*
X90500000Y-83250000D03*
X90500000Y-84750000D03*
D10*
G36*
X79209530Y-96951992D02*
X79951992Y-96209530D01*
X80729810Y-96987348D01*
X79987348Y-97729810D01*
X79209530Y-96951992D01*
X79209530Y-96951992D01*
G37*
G36*
X80270190Y-98012652D02*
X81012652Y-97270190D01*
X81790470Y-98048008D01*
X81048008Y-98790470D01*
X80270190Y-98012652D01*
X80270190Y-98012652D01*
G37*
D14*
X58000000Y-93750000D03*
X56500000Y-93750000D03*
X56500000Y-99250000D03*
X58000000Y-99250000D03*
D15*
X56250700Y-64750000D03*
X57749300Y-64750000D03*
X56250700Y-67000000D03*
X57749300Y-67000000D03*
X56250700Y-69250000D03*
X57749300Y-69250000D03*
X56250700Y-71500000D03*
X57749300Y-71500000D03*
X56250700Y-73750000D03*
X57749300Y-73750000D03*
X61250700Y-64750000D03*
X62749300Y-64750000D03*
X61250700Y-67000000D03*
X62749300Y-67000000D03*
X61250700Y-69250000D03*
X62749300Y-69250000D03*
X61250700Y-71500000D03*
X62749300Y-71500000D03*
X61250700Y-73750000D03*
X62749300Y-73750000D03*
X66250700Y-64750000D03*
X67749300Y-64750000D03*
X66250700Y-67000000D03*
X67749300Y-67000000D03*
X66250700Y-69250000D03*
X67749300Y-69250000D03*
X66250700Y-71500000D03*
X67749300Y-71500000D03*
X66250700Y-73750000D03*
X67749300Y-73750000D03*
X71250700Y-64750000D03*
X72749300Y-64750000D03*
X71250700Y-67000000D03*
X72749300Y-67000000D03*
X71250700Y-69250000D03*
X72749300Y-69250000D03*
X71250700Y-71500000D03*
X72749300Y-71500000D03*
X71250700Y-73750000D03*
X72749300Y-73750000D03*
X76250700Y-64750000D03*
X77749300Y-64750000D03*
X76250700Y-67000000D03*
X77749300Y-67000000D03*
X76250700Y-69250000D03*
X77749300Y-69250000D03*
X76250700Y-71500000D03*
X77749300Y-71500000D03*
X76250700Y-73750000D03*
X77749300Y-73750000D03*
X81250700Y-64750000D03*
X82749300Y-64750000D03*
X81250700Y-67000000D03*
X82749300Y-67000000D03*
X81250700Y-69250000D03*
X82749300Y-69250000D03*
X81250700Y-71500000D03*
X82749300Y-71500000D03*
X81250700Y-73750000D03*
X82749300Y-73750000D03*
X86250700Y-64750000D03*
X87749300Y-64750000D03*
X86250700Y-67000000D03*
X87749300Y-67000000D03*
X86250700Y-69250000D03*
X87749300Y-69250000D03*
X86250700Y-71500000D03*
X87749300Y-71500000D03*
X86250700Y-73750000D03*
X87749300Y-73750000D03*
X91250700Y-64750000D03*
X92749300Y-64750000D03*
X91250700Y-67000000D03*
X92749300Y-67000000D03*
X91250700Y-69250000D03*
X92749300Y-69250000D03*
X91250700Y-71500000D03*
X92749300Y-71500000D03*
X91250700Y-73750000D03*
X92749300Y-73750000D03*
X56500700Y-85750000D03*
X57999300Y-85750000D03*
D16*
X83500000Y-55049020D03*
X83500000Y-52950980D03*
D17*
X61144000Y-127500000D03*
D18*
X63684000Y-127500000D03*
X66224000Y-127500000D03*
X68764000Y-127500000D03*
X71304000Y-127500000D03*
X73844000Y-127500000D03*
X76384000Y-127500000D03*
X78924000Y-127500000D03*
D17*
X84004000Y-127500000D03*
D18*
X86544000Y-127500000D03*
X89084000Y-127500000D03*
X91624000Y-127500000D03*
X94164000Y-127500000D03*
X96704000Y-127500000D03*
D17*
X52000000Y-79240000D03*
D18*
X54540000Y-79240000D03*
X57080000Y-79240000D03*
X59620000Y-79240000D03*
X62160000Y-79240000D03*
X64700000Y-79240000D03*
X67240000Y-79240000D03*
X69780000Y-79240000D03*
X72320000Y-79240000D03*
X74860000Y-79240000D03*
D17*
X78924000Y-79240000D03*
D18*
X81464000Y-79240000D03*
X84004000Y-79240000D03*
X86544000Y-79240000D03*
X89084000Y-79240000D03*
X91624000Y-79240000D03*
X94164000Y-79240000D03*
X96704000Y-79240000D03*
D19*
X94304513Y-104730013D03*
D20*
X96844513Y-104730013D03*
X94304513Y-102190013D03*
X96844513Y-102190013D03*
X94304513Y-99650013D03*
X96844513Y-99650013D03*
D21*
X58750000Y-76000000D03*
X60250000Y-76000000D03*
X63750000Y-76000000D03*
X65250000Y-76000000D03*
X68750000Y-76000000D03*
X70250000Y-76000000D03*
X73750000Y-76000000D03*
X75250000Y-76000000D03*
X78750000Y-76000000D03*
X80250000Y-76000000D03*
X85250000Y-76000000D03*
X83750000Y-76000000D03*
X90250000Y-76000000D03*
X88750000Y-76000000D03*
X56500000Y-87750000D03*
X58000000Y-87750000D03*
X56500000Y-89750000D03*
X58000000Y-89750000D03*
X56500000Y-91750000D03*
X58000000Y-91750000D03*
X64750000Y-57500000D03*
X66250000Y-57500000D03*
X56500000Y-83750000D03*
X58000000Y-83750000D03*
D22*
X83500000Y-58500000D03*
X83500000Y-60000000D03*
D10*
G36*
X90012563Y-97611091D02*
X90861091Y-96762563D01*
X91426777Y-97328249D01*
X90578249Y-98176777D01*
X90012563Y-97611091D01*
X90012563Y-97611091D01*
G37*
G36*
X91073223Y-98671751D02*
X91921751Y-97823223D01*
X92487437Y-98388909D01*
X91638909Y-99237437D01*
X91073223Y-98671751D01*
X91073223Y-98671751D01*
G37*
D23*
X61049840Y-57500000D03*
X53450160Y-57500000D03*
D10*
G36*
X90856334Y-91252423D02*
X91457375Y-91853464D01*
X90113872Y-93196967D01*
X89512831Y-92595926D01*
X90856334Y-91252423D01*
X90856334Y-91252423D01*
G37*
G36*
X90290648Y-90686738D02*
X90891689Y-91287779D01*
X89548186Y-92631282D01*
X88947145Y-92030241D01*
X90290648Y-90686738D01*
X90290648Y-90686738D01*
G37*
G36*
X89724963Y-90121052D02*
X90326004Y-90722093D01*
X88982501Y-92065596D01*
X88381460Y-91464555D01*
X89724963Y-90121052D01*
X89724963Y-90121052D01*
G37*
G36*
X89159278Y-89555367D02*
X89760319Y-90156408D01*
X88416816Y-91499911D01*
X87815775Y-90898870D01*
X89159278Y-89555367D01*
X89159278Y-89555367D01*
G37*
G36*
X88593592Y-88989681D02*
X89194633Y-89590722D01*
X87851130Y-90934225D01*
X87250089Y-90333184D01*
X88593592Y-88989681D01*
X88593592Y-88989681D01*
G37*
G36*
X88027907Y-88423996D02*
X88628948Y-89025037D01*
X87285445Y-90368540D01*
X86684404Y-89767499D01*
X88027907Y-88423996D01*
X88027907Y-88423996D01*
G37*
G36*
X87462221Y-87858311D02*
X88063262Y-88459352D01*
X86719759Y-89802855D01*
X86118718Y-89201814D01*
X87462221Y-87858311D01*
X87462221Y-87858311D01*
G37*
G36*
X86896536Y-87292625D02*
X87497577Y-87893666D01*
X86154074Y-89237169D01*
X85553033Y-88636128D01*
X86896536Y-87292625D01*
X86896536Y-87292625D01*
G37*
G36*
X83502423Y-87893666D02*
X84103464Y-87292625D01*
X85446967Y-88636128D01*
X84845926Y-89237169D01*
X83502423Y-87893666D01*
X83502423Y-87893666D01*
G37*
G36*
X82936738Y-88459352D02*
X83537779Y-87858311D01*
X84881282Y-89201814D01*
X84280241Y-89802855D01*
X82936738Y-88459352D01*
X82936738Y-88459352D01*
G37*
G36*
X82371052Y-89025037D02*
X82972093Y-88423996D01*
X84315596Y-89767499D01*
X83714555Y-90368540D01*
X82371052Y-89025037D01*
X82371052Y-89025037D01*
G37*
G36*
X81805367Y-89590722D02*
X82406408Y-88989681D01*
X83749911Y-90333184D01*
X83148870Y-90934225D01*
X81805367Y-89590722D01*
X81805367Y-89590722D01*
G37*
G36*
X81239681Y-90156408D02*
X81840722Y-89555367D01*
X83184225Y-90898870D01*
X82583184Y-91499911D01*
X81239681Y-90156408D01*
X81239681Y-90156408D01*
G37*
G36*
X80673996Y-90722093D02*
X81275037Y-90121052D01*
X82618540Y-91464555D01*
X82017499Y-92065596D01*
X80673996Y-90722093D01*
X80673996Y-90722093D01*
G37*
G36*
X80108311Y-91287779D02*
X80709352Y-90686738D01*
X82052855Y-92030241D01*
X81451814Y-92631282D01*
X80108311Y-91287779D01*
X80108311Y-91287779D01*
G37*
G36*
X79542625Y-91853464D02*
X80143666Y-91252423D01*
X81487169Y-92595926D01*
X80886128Y-93196967D01*
X79542625Y-91853464D01*
X79542625Y-91853464D01*
G37*
G36*
X80886128Y-93303033D02*
X81487169Y-93904074D01*
X80143666Y-95247577D01*
X79542625Y-94646536D01*
X80886128Y-93303033D01*
X80886128Y-93303033D01*
G37*
G36*
X81451814Y-93868718D02*
X82052855Y-94469759D01*
X80709352Y-95813262D01*
X80108311Y-95212221D01*
X81451814Y-93868718D01*
X81451814Y-93868718D01*
G37*
G36*
X82017499Y-94434404D02*
X82618540Y-95035445D01*
X81275037Y-96378948D01*
X80673996Y-95777907D01*
X82017499Y-94434404D01*
X82017499Y-94434404D01*
G37*
G36*
X82583184Y-95000089D02*
X83184225Y-95601130D01*
X81840722Y-96944633D01*
X81239681Y-96343592D01*
X82583184Y-95000089D01*
X82583184Y-95000089D01*
G37*
G36*
X83148870Y-95565775D02*
X83749911Y-96166816D01*
X82406408Y-97510319D01*
X81805367Y-96909278D01*
X83148870Y-95565775D01*
X83148870Y-95565775D01*
G37*
G36*
X83714555Y-96131460D02*
X84315596Y-96732501D01*
X82972093Y-98076004D01*
X82371052Y-97474963D01*
X83714555Y-96131460D01*
X83714555Y-96131460D01*
G37*
G36*
X84280241Y-96697145D02*
X84881282Y-97298186D01*
X83537779Y-98641689D01*
X82936738Y-98040648D01*
X84280241Y-96697145D01*
X84280241Y-96697145D01*
G37*
G36*
X84845926Y-97262831D02*
X85446967Y-97863872D01*
X84103464Y-99207375D01*
X83502423Y-98606334D01*
X84845926Y-97262831D01*
X84845926Y-97262831D01*
G37*
G36*
X85553033Y-97863872D02*
X86154074Y-97262831D01*
X87497577Y-98606334D01*
X86896536Y-99207375D01*
X85553033Y-97863872D01*
X85553033Y-97863872D01*
G37*
G36*
X86118718Y-97298186D02*
X86719759Y-96697145D01*
X88063262Y-98040648D01*
X87462221Y-98641689D01*
X86118718Y-97298186D01*
X86118718Y-97298186D01*
G37*
G36*
X86684404Y-96732501D02*
X87285445Y-96131460D01*
X88628948Y-97474963D01*
X88027907Y-98076004D01*
X86684404Y-96732501D01*
X86684404Y-96732501D01*
G37*
G36*
X87250089Y-96166816D02*
X87851130Y-95565775D01*
X89194633Y-96909278D01*
X88593592Y-97510319D01*
X87250089Y-96166816D01*
X87250089Y-96166816D01*
G37*
G36*
X87815775Y-95601130D02*
X88416816Y-95000089D01*
X89760319Y-96343592D01*
X89159278Y-96944633D01*
X87815775Y-95601130D01*
X87815775Y-95601130D01*
G37*
G36*
X88381460Y-95035445D02*
X88982501Y-94434404D01*
X90326004Y-95777907D01*
X89724963Y-96378948D01*
X88381460Y-95035445D01*
X88381460Y-95035445D01*
G37*
G36*
X88947145Y-94469759D02*
X89548186Y-93868718D01*
X90891689Y-95212221D01*
X90290648Y-95813262D01*
X88947145Y-94469759D01*
X88947145Y-94469759D01*
G37*
G36*
X89512831Y-93904074D02*
X90113872Y-93303033D01*
X91457375Y-94646536D01*
X90856334Y-95247577D01*
X89512831Y-93904074D01*
X89512831Y-93904074D01*
G37*
D24*
X58350000Y-97450000D03*
X58350000Y-96500000D03*
X58350000Y-95550000D03*
X56150000Y-95550000D03*
X56150000Y-97450000D03*
D25*
X86400000Y-84800000D03*
X88600000Y-84800000D03*
X86400000Y-83200000D03*
X88600000Y-83200000D03*
D12*
X52250000Y-127000000D03*
D26*
X52500000Y-102950000D03*
X52500000Y-100050000D03*
D27*
X54350000Y-103700000D03*
X54350000Y-99300000D03*
X54350000Y-102200000D03*
D28*
X51350000Y-105100000D03*
X53650000Y-105100000D03*
X53650000Y-97900000D03*
X51350000Y-97900000D03*
D29*
X94500000Y-111250000D03*
D26*
X97500000Y-111250000D03*
X96621320Y-113371320D03*
X94500000Y-114250000D03*
X92378680Y-113371320D03*
X91500000Y-111250000D03*
X92378680Y-109128680D03*
X94500000Y-108250000D03*
X96621320Y-109128680D03*
D29*
X54500000Y-111250000D03*
D26*
X57500000Y-111250000D03*
X56621320Y-113371320D03*
X54500000Y-114250000D03*
X52378680Y-113371320D03*
X51500000Y-111250000D03*
X52378680Y-109128680D03*
X54500000Y-108250000D03*
X56621320Y-109128680D03*
D29*
X74500000Y-55000000D03*
D26*
X77500000Y-55000000D03*
X76621320Y-57121320D03*
X74500000Y-58000000D03*
X72378680Y-57121320D03*
X71500000Y-55000000D03*
X72378680Y-52878680D03*
X74500000Y-52000000D03*
X76621320Y-52878680D03*
D30*
X88960000Y-62350000D03*
X91500000Y-62350000D03*
X94040000Y-62350000D03*
D31*
X91500000Y-52190000D03*
D32*
X95250000Y-67000000D03*
X97250000Y-67000000D03*
D14*
X95500000Y-64750000D03*
X97000000Y-64750000D03*
D22*
X86250000Y-54750000D03*
X86250000Y-53250000D03*
D21*
X95500000Y-69250000D03*
X97000000Y-69250000D03*
D22*
X86250000Y-60000000D03*
X86250000Y-58500000D03*
D33*
X54085000Y-87219000D03*
X54085000Y-87869000D03*
X54085000Y-88519000D03*
X54085000Y-89169000D03*
X54085000Y-89819000D03*
D34*
X51435000Y-87319000D03*
X51435000Y-89719000D03*
X51435000Y-84669000D03*
D35*
X53985000Y-85119000D03*
X53985000Y-91919000D03*
D34*
X51435000Y-92369000D03*
D36*
X53585000Y-86519000D03*
X53585000Y-90519000D03*
M02*
