G04 #@! TF.FileFunction,Legend,Bot*
%FSLAX46Y46*%
G04 Gerber Fmt 4.6, Leading zero omitted, Abs format (unit mm)*
G04 Created by KiCad (PCBNEW 4.0.0-rc1-stable) date 8/9/2016 10:19:07 PM*
%MOMM*%
G01*
G04 APERTURE LIST*
%ADD10C,0.100000*%
%ADD11C,0.150000*%
%ADD12R,2.027200X2.332000*%
%ADD13O,2.027200X2.332000*%
%ADD14R,2.027200X2.027200*%
%ADD15O,2.027200X2.027200*%
%ADD16C,2.300000*%
%ADD17R,0.900000X1.300000*%
%ADD18R,1.300000X0.900000*%
%ADD19C,1.000000*%
%ADD20R,6.300000X3.800000*%
%ADD21C,20.000000*%
%ADD22C,8.300000*%
%ADD23C,1.824000*%
%ADD24C,0.850000*%
G04 APERTURE END LIST*
D10*
D11*
X73677381Y-83976189D02*
X73201190Y-83642855D01*
X73677381Y-83404760D02*
X72677381Y-83404760D01*
X72677381Y-83785713D01*
X72725000Y-83880951D01*
X72772619Y-83928570D01*
X72867857Y-83976189D01*
X73010714Y-83976189D01*
X73105952Y-83928570D01*
X73153571Y-83880951D01*
X73201190Y-83785713D01*
X73201190Y-83404760D01*
X73629762Y-84785713D02*
X73677381Y-84690475D01*
X73677381Y-84499998D01*
X73629762Y-84404760D01*
X73534524Y-84357141D01*
X73153571Y-84357141D01*
X73058333Y-84404760D01*
X73010714Y-84499998D01*
X73010714Y-84690475D01*
X73058333Y-84785713D01*
X73153571Y-84833332D01*
X73248810Y-84833332D01*
X73344048Y-84357141D01*
X73010714Y-85261903D02*
X74010714Y-85261903D01*
X73058333Y-85261903D02*
X73010714Y-85357141D01*
X73010714Y-85547618D01*
X73058333Y-85642856D01*
X73105952Y-85690475D01*
X73201190Y-85738094D01*
X73486905Y-85738094D01*
X73582143Y-85690475D01*
X73629762Y-85642856D01*
X73677381Y-85547618D01*
X73677381Y-85357141D01*
X73629762Y-85261903D01*
X73677381Y-86309522D02*
X73629762Y-86214284D01*
X73534524Y-86166665D01*
X72677381Y-86166665D01*
X73677381Y-87119047D02*
X73153571Y-87119047D01*
X73058333Y-87071428D01*
X73010714Y-86976190D01*
X73010714Y-86785713D01*
X73058333Y-86690475D01*
X73629762Y-87119047D02*
X73677381Y-87023809D01*
X73677381Y-86785713D01*
X73629762Y-86690475D01*
X73534524Y-86642856D01*
X73439286Y-86642856D01*
X73344048Y-86690475D01*
X73296429Y-86785713D01*
X73296429Y-87023809D01*
X73248810Y-87119047D01*
X73629762Y-88023809D02*
X73677381Y-87928571D01*
X73677381Y-87738094D01*
X73629762Y-87642856D01*
X73582143Y-87595237D01*
X73486905Y-87547618D01*
X73201190Y-87547618D01*
X73105952Y-87595237D01*
X73058333Y-87642856D01*
X73010714Y-87738094D01*
X73010714Y-87928571D01*
X73058333Y-88023809D01*
X73629762Y-88833333D02*
X73677381Y-88738095D01*
X73677381Y-88547618D01*
X73629762Y-88452380D01*
X73534524Y-88404761D01*
X73153571Y-88404761D01*
X73058333Y-88452380D01*
X73010714Y-88547618D01*
X73010714Y-88738095D01*
X73058333Y-88833333D01*
X73153571Y-88880952D01*
X73248810Y-88880952D01*
X73344048Y-88404761D01*
X73010714Y-89976190D02*
X73677381Y-90166666D01*
X73201190Y-90357143D01*
X73677381Y-90547619D01*
X73010714Y-90738095D01*
X73677381Y-91119047D02*
X73010714Y-91119047D01*
X72677381Y-91119047D02*
X72725000Y-91071428D01*
X72772619Y-91119047D01*
X72725000Y-91166666D01*
X72677381Y-91119047D01*
X72772619Y-91119047D01*
X73010714Y-91452380D02*
X73010714Y-91833332D01*
X72677381Y-91595237D02*
X73534524Y-91595237D01*
X73629762Y-91642856D01*
X73677381Y-91738094D01*
X73677381Y-91833332D01*
X73677381Y-92166666D02*
X72677381Y-92166666D01*
X73677381Y-92595238D02*
X73153571Y-92595238D01*
X73058333Y-92547619D01*
X73010714Y-92452381D01*
X73010714Y-92309523D01*
X73058333Y-92214285D01*
X73105952Y-92166666D01*
X73582143Y-94404762D02*
X73629762Y-94357143D01*
X73677381Y-94214286D01*
X73677381Y-94119048D01*
X73629762Y-93976190D01*
X73534524Y-93880952D01*
X73439286Y-93833333D01*
X73248810Y-93785714D01*
X73105952Y-93785714D01*
X72915476Y-93833333D01*
X72820238Y-93880952D01*
X72725000Y-93976190D01*
X72677381Y-94119048D01*
X72677381Y-94214286D01*
X72725000Y-94357143D01*
X72772619Y-94404762D01*
X73677381Y-95404762D02*
X73201190Y-95071428D01*
X73677381Y-94833333D02*
X72677381Y-94833333D01*
X72677381Y-95214286D01*
X72725000Y-95309524D01*
X72772619Y-95357143D01*
X72867857Y-95404762D01*
X73010714Y-95404762D01*
X73105952Y-95357143D01*
X73153571Y-95309524D01*
X73201190Y-95214286D01*
X73201190Y-94833333D01*
X72772619Y-95785714D02*
X72725000Y-95833333D01*
X72677381Y-95928571D01*
X72677381Y-96166667D01*
X72725000Y-96261905D01*
X72772619Y-96309524D01*
X72867857Y-96357143D01*
X72963095Y-96357143D01*
X73105952Y-96309524D01*
X73677381Y-95738095D01*
X73677381Y-96357143D01*
X72677381Y-96976190D02*
X72677381Y-97071429D01*
X72725000Y-97166667D01*
X72772619Y-97214286D01*
X72867857Y-97261905D01*
X73058333Y-97309524D01*
X73296429Y-97309524D01*
X73486905Y-97261905D01*
X73582143Y-97214286D01*
X73629762Y-97166667D01*
X73677381Y-97071429D01*
X73677381Y-96976190D01*
X73629762Y-96880952D01*
X73582143Y-96833333D01*
X73486905Y-96785714D01*
X73296429Y-96738095D01*
X73058333Y-96738095D01*
X72867857Y-96785714D01*
X72772619Y-96833333D01*
X72725000Y-96880952D01*
X72677381Y-96976190D01*
X72677381Y-97642857D02*
X72677381Y-98261905D01*
X73058333Y-97928571D01*
X73058333Y-98071429D01*
X73105952Y-98166667D01*
X73153571Y-98214286D01*
X73248810Y-98261905D01*
X73486905Y-98261905D01*
X73582143Y-98214286D01*
X73629762Y-98166667D01*
X73677381Y-98071429D01*
X73677381Y-97785714D01*
X73629762Y-97690476D01*
X73582143Y-97642857D01*
X72772619Y-98642857D02*
X72725000Y-98690476D01*
X72677381Y-98785714D01*
X72677381Y-99023810D01*
X72725000Y-99119048D01*
X72772619Y-99166667D01*
X72867857Y-99214286D01*
X72963095Y-99214286D01*
X73105952Y-99166667D01*
X73677381Y-98595238D01*
X73677381Y-99214286D01*
X73677381Y-100404762D02*
X72677381Y-100404762D01*
X73058333Y-100404762D02*
X73010714Y-100500000D01*
X73010714Y-100690477D01*
X73058333Y-100785715D01*
X73105952Y-100833334D01*
X73201190Y-100880953D01*
X73486905Y-100880953D01*
X73582143Y-100833334D01*
X73629762Y-100785715D01*
X73677381Y-100690477D01*
X73677381Y-100500000D01*
X73629762Y-100404762D01*
X73677381Y-101738096D02*
X73153571Y-101738096D01*
X73058333Y-101690477D01*
X73010714Y-101595239D01*
X73010714Y-101404762D01*
X73058333Y-101309524D01*
X73629762Y-101738096D02*
X73677381Y-101642858D01*
X73677381Y-101404762D01*
X73629762Y-101309524D01*
X73534524Y-101261905D01*
X73439286Y-101261905D01*
X73344048Y-101309524D01*
X73296429Y-101404762D01*
X73296429Y-101642858D01*
X73248810Y-101738096D01*
X73010714Y-102071429D02*
X73010714Y-102452381D01*
X72677381Y-102214286D02*
X73534524Y-102214286D01*
X73629762Y-102261905D01*
X73677381Y-102357143D01*
X73677381Y-102452381D01*
X73010714Y-102642858D02*
X73010714Y-103023810D01*
X72677381Y-102785715D02*
X73534524Y-102785715D01*
X73629762Y-102833334D01*
X73677381Y-102928572D01*
X73677381Y-103023810D01*
X73629762Y-103738097D02*
X73677381Y-103642859D01*
X73677381Y-103452382D01*
X73629762Y-103357144D01*
X73534524Y-103309525D01*
X73153571Y-103309525D01*
X73058333Y-103357144D01*
X73010714Y-103452382D01*
X73010714Y-103642859D01*
X73058333Y-103738097D01*
X73153571Y-103785716D01*
X73248810Y-103785716D01*
X73344048Y-103309525D01*
X73677381Y-104214287D02*
X73010714Y-104214287D01*
X73201190Y-104214287D02*
X73105952Y-104261906D01*
X73058333Y-104309525D01*
X73010714Y-104404763D01*
X73010714Y-104500002D01*
X73010714Y-104738097D02*
X73677381Y-104976192D01*
X73010714Y-105214288D02*
X73677381Y-104976192D01*
X73915476Y-104880954D01*
X73963095Y-104833335D01*
X74010714Y-104738097D01*
X73629762Y-105642859D02*
X73677381Y-105642859D01*
X73772619Y-105595240D01*
X73820238Y-105547621D01*
X74846429Y-83333331D02*
X74846429Y-84095236D01*
X75227381Y-83714284D02*
X74465476Y-83714284D01*
X75179762Y-85285712D02*
X75227381Y-85380950D01*
X75227381Y-85571426D01*
X75179762Y-85666665D01*
X75084524Y-85714284D01*
X75036905Y-85714284D01*
X74941667Y-85666665D01*
X74894048Y-85571426D01*
X74894048Y-85428569D01*
X74846429Y-85333331D01*
X74751190Y-85285712D01*
X74703571Y-85285712D01*
X74608333Y-85333331D01*
X74560714Y-85428569D01*
X74560714Y-85571426D01*
X74608333Y-85666665D01*
X75227381Y-86142855D02*
X74560714Y-86142855D01*
X74227381Y-86142855D02*
X74275000Y-86095236D01*
X74322619Y-86142855D01*
X74275000Y-86190474D01*
X74227381Y-86142855D01*
X74322619Y-86142855D01*
X75227381Y-87047617D02*
X74227381Y-87047617D01*
X75179762Y-87047617D02*
X75227381Y-86952379D01*
X75227381Y-86761902D01*
X75179762Y-86666664D01*
X75132143Y-86619045D01*
X75036905Y-86571426D01*
X74751190Y-86571426D01*
X74655952Y-86619045D01*
X74608333Y-86666664D01*
X74560714Y-86761902D01*
X74560714Y-86952379D01*
X74608333Y-87047617D01*
X75179762Y-87904760D02*
X75227381Y-87809522D01*
X75227381Y-87619045D01*
X75179762Y-87523807D01*
X75084524Y-87476188D01*
X74703571Y-87476188D01*
X74608333Y-87523807D01*
X74560714Y-87619045D01*
X74560714Y-87809522D01*
X74608333Y-87904760D01*
X74703571Y-87952379D01*
X74798810Y-87952379D01*
X74894048Y-87476188D01*
X74560714Y-88999998D02*
X74560714Y-89380950D01*
X74227381Y-89142855D02*
X75084524Y-89142855D01*
X75179762Y-89190474D01*
X75227381Y-89285712D01*
X75227381Y-89380950D01*
X75227381Y-89857141D02*
X75179762Y-89761903D01*
X75132143Y-89714284D01*
X75036905Y-89666665D01*
X74751190Y-89666665D01*
X74655952Y-89714284D01*
X74608333Y-89761903D01*
X74560714Y-89857141D01*
X74560714Y-89999999D01*
X74608333Y-90095237D01*
X74655952Y-90142856D01*
X74751190Y-90190475D01*
X75036905Y-90190475D01*
X75132143Y-90142856D01*
X75179762Y-90095237D01*
X75227381Y-89999999D01*
X75227381Y-89857141D01*
X74560714Y-90523808D02*
X75227381Y-90714284D01*
X74751190Y-90904761D01*
X75227381Y-91095237D01*
X74560714Y-91285713D01*
X75227381Y-92095237D02*
X74703571Y-92095237D01*
X74608333Y-92047618D01*
X74560714Y-91952380D01*
X74560714Y-91761903D01*
X74608333Y-91666665D01*
X75179762Y-92095237D02*
X75227381Y-91999999D01*
X75227381Y-91761903D01*
X75179762Y-91666665D01*
X75084524Y-91619046D01*
X74989286Y-91619046D01*
X74894048Y-91666665D01*
X74846429Y-91761903D01*
X74846429Y-91999999D01*
X74798810Y-92095237D01*
X75227381Y-92571427D02*
X74560714Y-92571427D01*
X74751190Y-92571427D02*
X74655952Y-92619046D01*
X74608333Y-92666665D01*
X74560714Y-92761903D01*
X74560714Y-92857142D01*
X75227381Y-93619047D02*
X74227381Y-93619047D01*
X75179762Y-93619047D02*
X75227381Y-93523809D01*
X75227381Y-93333332D01*
X75179762Y-93238094D01*
X75132143Y-93190475D01*
X75036905Y-93142856D01*
X74751190Y-93142856D01*
X74655952Y-93190475D01*
X74608333Y-93238094D01*
X74560714Y-93333332D01*
X74560714Y-93523809D01*
X74608333Y-93619047D01*
X75179762Y-94047618D02*
X75227381Y-94142856D01*
X75227381Y-94333332D01*
X75179762Y-94428571D01*
X75084524Y-94476190D01*
X75036905Y-94476190D01*
X74941667Y-94428571D01*
X74894048Y-94333332D01*
X74894048Y-94190475D01*
X74846429Y-94095237D01*
X74751190Y-94047618D01*
X74703571Y-94047618D01*
X74608333Y-94095237D01*
X74560714Y-94190475D01*
X74560714Y-94333332D01*
X74608333Y-94428571D01*
X75227381Y-95666666D02*
X74560714Y-95666666D01*
X74655952Y-95666666D02*
X74608333Y-95714285D01*
X74560714Y-95809523D01*
X74560714Y-95952381D01*
X74608333Y-96047619D01*
X74703571Y-96095238D01*
X75227381Y-96095238D01*
X74703571Y-96095238D02*
X74608333Y-96142857D01*
X74560714Y-96238095D01*
X74560714Y-96380952D01*
X74608333Y-96476190D01*
X74703571Y-96523809D01*
X75227381Y-96523809D01*
X75179762Y-97380952D02*
X75227381Y-97285714D01*
X75227381Y-97095237D01*
X75179762Y-96999999D01*
X75084524Y-96952380D01*
X74703571Y-96952380D01*
X74608333Y-96999999D01*
X74560714Y-97095237D01*
X74560714Y-97285714D01*
X74608333Y-97380952D01*
X74703571Y-97428571D01*
X74798810Y-97428571D01*
X74894048Y-96952380D01*
X74560714Y-97714285D02*
X74560714Y-98095237D01*
X74227381Y-97857142D02*
X75084524Y-97857142D01*
X75179762Y-97904761D01*
X75227381Y-97999999D01*
X75227381Y-98095237D01*
X75227381Y-98857143D02*
X74703571Y-98857143D01*
X74608333Y-98809524D01*
X74560714Y-98714286D01*
X74560714Y-98523809D01*
X74608333Y-98428571D01*
X75179762Y-98857143D02*
X75227381Y-98761905D01*
X75227381Y-98523809D01*
X75179762Y-98428571D01*
X75084524Y-98380952D01*
X74989286Y-98380952D01*
X74894048Y-98428571D01*
X74846429Y-98523809D01*
X74846429Y-98761905D01*
X74798810Y-98857143D01*
X75227381Y-99476190D02*
X75179762Y-99380952D01*
X75084524Y-99333333D01*
X74227381Y-99333333D01*
X75227381Y-100619048D02*
X74227381Y-100619048D01*
X74608333Y-100619048D02*
X74560714Y-100714286D01*
X74560714Y-100904763D01*
X74608333Y-101000001D01*
X74655952Y-101047620D01*
X74751190Y-101095239D01*
X75036905Y-101095239D01*
X75132143Y-101047620D01*
X75179762Y-101000001D01*
X75227381Y-100904763D01*
X75227381Y-100714286D01*
X75179762Y-100619048D01*
X75227381Y-101523810D02*
X74560714Y-101523810D01*
X74751190Y-101523810D02*
X74655952Y-101571429D01*
X74608333Y-101619048D01*
X74560714Y-101714286D01*
X74560714Y-101809525D01*
X75227381Y-102571430D02*
X74703571Y-102571430D01*
X74608333Y-102523811D01*
X74560714Y-102428573D01*
X74560714Y-102238096D01*
X74608333Y-102142858D01*
X75179762Y-102571430D02*
X75227381Y-102476192D01*
X75227381Y-102238096D01*
X75179762Y-102142858D01*
X75084524Y-102095239D01*
X74989286Y-102095239D01*
X74894048Y-102142858D01*
X74846429Y-102238096D01*
X74846429Y-102476192D01*
X74798810Y-102571430D01*
X75179762Y-103476192D02*
X75227381Y-103380954D01*
X75227381Y-103190477D01*
X75179762Y-103095239D01*
X75132143Y-103047620D01*
X75036905Y-103000001D01*
X74751190Y-103000001D01*
X74655952Y-103047620D01*
X74608333Y-103095239D01*
X74560714Y-103190477D01*
X74560714Y-103380954D01*
X74608333Y-103476192D01*
X75227381Y-103904763D02*
X74227381Y-103904763D01*
X74846429Y-104000001D02*
X75227381Y-104285716D01*
X74560714Y-104285716D02*
X74941667Y-103904763D01*
X75179762Y-105095240D02*
X75227381Y-105000002D01*
X75227381Y-104809525D01*
X75179762Y-104714287D01*
X75084524Y-104666668D01*
X74703571Y-104666668D01*
X74608333Y-104714287D01*
X74560714Y-104809525D01*
X74560714Y-105000002D01*
X74608333Y-105095240D01*
X74703571Y-105142859D01*
X74798810Y-105142859D01*
X74894048Y-104666668D01*
X74560714Y-105428573D02*
X74560714Y-105809525D01*
X74227381Y-105571430D02*
X75084524Y-105571430D01*
X75179762Y-105619049D01*
X75227381Y-105714287D01*
X75227381Y-105809525D01*
X87000002Y-131252381D02*
X86428573Y-131252381D01*
X86714288Y-132252381D02*
X86714288Y-131252381D01*
X85952383Y-132252381D02*
X86047621Y-132204762D01*
X86095240Y-132157143D01*
X86142859Y-132061905D01*
X86142859Y-131776190D01*
X86095240Y-131680952D01*
X86047621Y-131633333D01*
X85952383Y-131585714D01*
X85809525Y-131585714D01*
X85714287Y-131633333D01*
X85666668Y-131680952D01*
X85619049Y-131776190D01*
X85619049Y-132061905D01*
X85666668Y-132157143D01*
X85714287Y-132204762D01*
X85809525Y-132252381D01*
X85952383Y-132252381D01*
X84000001Y-132252381D02*
X84000001Y-131252381D01*
X84000001Y-132204762D02*
X84095239Y-132252381D01*
X84285716Y-132252381D01*
X84380954Y-132204762D01*
X84428573Y-132157143D01*
X84476192Y-132061905D01*
X84476192Y-131776190D01*
X84428573Y-131680952D01*
X84380954Y-131633333D01*
X84285716Y-131585714D01*
X84095239Y-131585714D01*
X84000001Y-131633333D01*
X83380954Y-132252381D02*
X83476192Y-132204762D01*
X83523811Y-132157143D01*
X83571430Y-132061905D01*
X83571430Y-131776190D01*
X83523811Y-131680952D01*
X83476192Y-131633333D01*
X83380954Y-131585714D01*
X83238096Y-131585714D01*
X83142858Y-131633333D01*
X83095239Y-131680952D01*
X83047620Y-131776190D01*
X83047620Y-132061905D01*
X83095239Y-132157143D01*
X83142858Y-132204762D01*
X83238096Y-132252381D01*
X83380954Y-132252381D01*
X82714287Y-131585714D02*
X82523811Y-132252381D01*
X82333334Y-131776190D01*
X82142858Y-132252381D01*
X81952382Y-131585714D01*
X81571430Y-131585714D02*
X81571430Y-132252381D01*
X81571430Y-131680952D02*
X81523811Y-131633333D01*
X81428573Y-131585714D01*
X81285715Y-131585714D01*
X81190477Y-131633333D01*
X81142858Y-131728571D01*
X81142858Y-132252381D01*
X80523811Y-132252381D02*
X80619049Y-132204762D01*
X80666668Y-132109524D01*
X80666668Y-131252381D01*
X80000001Y-132252381D02*
X80095239Y-132204762D01*
X80142858Y-132157143D01*
X80190477Y-132061905D01*
X80190477Y-131776190D01*
X80142858Y-131680952D01*
X80095239Y-131633333D01*
X80000001Y-131585714D01*
X79857143Y-131585714D01*
X79761905Y-131633333D01*
X79714286Y-131680952D01*
X79666667Y-131776190D01*
X79666667Y-132061905D01*
X79714286Y-132157143D01*
X79761905Y-132204762D01*
X79857143Y-132252381D01*
X80000001Y-132252381D01*
X78809524Y-132252381D02*
X78809524Y-131728571D01*
X78857143Y-131633333D01*
X78952381Y-131585714D01*
X79142858Y-131585714D01*
X79238096Y-131633333D01*
X78809524Y-132204762D02*
X78904762Y-132252381D01*
X79142858Y-132252381D01*
X79238096Y-132204762D01*
X79285715Y-132109524D01*
X79285715Y-132014286D01*
X79238096Y-131919048D01*
X79142858Y-131871429D01*
X78904762Y-131871429D01*
X78809524Y-131823810D01*
X77904762Y-132252381D02*
X77904762Y-131252381D01*
X77904762Y-132204762D02*
X78000000Y-132252381D01*
X78190477Y-132252381D01*
X78285715Y-132204762D01*
X78333334Y-132157143D01*
X78380953Y-132061905D01*
X78380953Y-131776190D01*
X78333334Y-131680952D01*
X78285715Y-131633333D01*
X78190477Y-131585714D01*
X78000000Y-131585714D01*
X77904762Y-131633333D01*
X76238095Y-132204762D02*
X76333333Y-132252381D01*
X76523810Y-132252381D01*
X76619048Y-132204762D01*
X76666667Y-132157143D01*
X76714286Y-132061905D01*
X76714286Y-131776190D01*
X76666667Y-131680952D01*
X76619048Y-131633333D01*
X76523810Y-131585714D01*
X76333333Y-131585714D01*
X76238095Y-131633333D01*
X75666667Y-132252381D02*
X75761905Y-132204762D01*
X75809524Y-132157143D01*
X75857143Y-132061905D01*
X75857143Y-131776190D01*
X75809524Y-131680952D01*
X75761905Y-131633333D01*
X75666667Y-131585714D01*
X75523809Y-131585714D01*
X75428571Y-131633333D01*
X75380952Y-131680952D01*
X75333333Y-131776190D01*
X75333333Y-132061905D01*
X75380952Y-132157143D01*
X75428571Y-132204762D01*
X75523809Y-132252381D01*
X75666667Y-132252381D01*
X74476190Y-132252381D02*
X74476190Y-131252381D01*
X74476190Y-132204762D02*
X74571428Y-132252381D01*
X74761905Y-132252381D01*
X74857143Y-132204762D01*
X74904762Y-132157143D01*
X74952381Y-132061905D01*
X74952381Y-131776190D01*
X74904762Y-131680952D01*
X74857143Y-131633333D01*
X74761905Y-131585714D01*
X74571428Y-131585714D01*
X74476190Y-131633333D01*
X73619047Y-132204762D02*
X73714285Y-132252381D01*
X73904762Y-132252381D01*
X74000000Y-132204762D01*
X74047619Y-132109524D01*
X74047619Y-131728571D01*
X74000000Y-131633333D01*
X73904762Y-131585714D01*
X73714285Y-131585714D01*
X73619047Y-131633333D01*
X73571428Y-131728571D01*
X73571428Y-131823810D01*
X74047619Y-131919048D01*
X72523809Y-131585714D02*
X72142857Y-131585714D01*
X72380952Y-131252381D02*
X72380952Y-132109524D01*
X72333333Y-132204762D01*
X72238095Y-132252381D01*
X72142857Y-132252381D01*
X71666666Y-132252381D02*
X71761904Y-132204762D01*
X71809523Y-132157143D01*
X71857142Y-132061905D01*
X71857142Y-131776190D01*
X71809523Y-131680952D01*
X71761904Y-131633333D01*
X71666666Y-131585714D01*
X71523808Y-131585714D01*
X71428570Y-131633333D01*
X71380951Y-131680952D01*
X71333332Y-131776190D01*
X71333332Y-132061905D01*
X71380951Y-132157143D01*
X71428570Y-132204762D01*
X71523808Y-132252381D01*
X71666666Y-132252381D01*
X70285713Y-131585714D02*
X69904761Y-131585714D01*
X70142856Y-131252381D02*
X70142856Y-132109524D01*
X70095237Y-132204762D01*
X69999999Y-132252381D01*
X69904761Y-132252381D01*
X69571427Y-132252381D02*
X69571427Y-131252381D01*
X69142855Y-132252381D02*
X69142855Y-131728571D01*
X69190474Y-131633333D01*
X69285712Y-131585714D01*
X69428570Y-131585714D01*
X69523808Y-131633333D01*
X69571427Y-131680952D01*
X68666665Y-132252381D02*
X68666665Y-131585714D01*
X68666665Y-131252381D02*
X68714284Y-131300000D01*
X68666665Y-131347619D01*
X68619046Y-131300000D01*
X68666665Y-131252381D01*
X68666665Y-131347619D01*
X68238094Y-132204762D02*
X68142856Y-132252381D01*
X67952380Y-132252381D01*
X67857141Y-132204762D01*
X67809522Y-132109524D01*
X67809522Y-132061905D01*
X67857141Y-131966667D01*
X67952380Y-131919048D01*
X68095237Y-131919048D01*
X68190475Y-131871429D01*
X68238094Y-131776190D01*
X68238094Y-131728571D01*
X68190475Y-131633333D01*
X68095237Y-131585714D01*
X67952380Y-131585714D01*
X67857141Y-131633333D01*
X66619046Y-132252381D02*
X66619046Y-131252381D01*
X66619046Y-131633333D02*
X66523808Y-131585714D01*
X66333331Y-131585714D01*
X66238093Y-131633333D01*
X66190474Y-131680952D01*
X66142855Y-131776190D01*
X66142855Y-132061905D01*
X66190474Y-132157143D01*
X66238093Y-132204762D01*
X66333331Y-132252381D01*
X66523808Y-132252381D01*
X66619046Y-132204762D01*
X65285712Y-132252381D02*
X65285712Y-131728571D01*
X65333331Y-131633333D01*
X65428569Y-131585714D01*
X65619046Y-131585714D01*
X65714284Y-131633333D01*
X65285712Y-132204762D02*
X65380950Y-132252381D01*
X65619046Y-132252381D01*
X65714284Y-132204762D01*
X65761903Y-132109524D01*
X65761903Y-132014286D01*
X65714284Y-131919048D01*
X65619046Y-131871429D01*
X65380950Y-131871429D01*
X65285712Y-131823810D01*
X64380950Y-132252381D02*
X64380950Y-131252381D01*
X64380950Y-132204762D02*
X64476188Y-132252381D01*
X64666665Y-132252381D01*
X64761903Y-132204762D01*
X64809522Y-132157143D01*
X64857141Y-132061905D01*
X64857141Y-131776190D01*
X64809522Y-131680952D01*
X64761903Y-131633333D01*
X64666665Y-131585714D01*
X64476188Y-131585714D01*
X64380950Y-131633333D01*
X63476188Y-131585714D02*
X63476188Y-132395238D01*
X63523807Y-132490476D01*
X63571426Y-132538095D01*
X63666665Y-132585714D01*
X63809522Y-132585714D01*
X63904760Y-132538095D01*
X63476188Y-132204762D02*
X63571426Y-132252381D01*
X63761903Y-132252381D01*
X63857141Y-132204762D01*
X63904760Y-132157143D01*
X63952379Y-132061905D01*
X63952379Y-131776190D01*
X63904760Y-131680952D01*
X63857141Y-131633333D01*
X63761903Y-131585714D01*
X63571426Y-131585714D01*
X63476188Y-131633333D01*
X62619045Y-132204762D02*
X62714283Y-132252381D01*
X62904760Y-132252381D01*
X62999998Y-132204762D01*
X63047617Y-132109524D01*
X63047617Y-131728571D01*
X62999998Y-131633333D01*
X62904760Y-131585714D01*
X62714283Y-131585714D01*
X62619045Y-131633333D01*
X62571426Y-131728571D01*
X62571426Y-131823810D01*
X63047617Y-131919048D01*
X62142855Y-132157143D02*
X62095236Y-132204762D01*
X62142855Y-132252381D01*
X62190474Y-132204762D01*
X62142855Y-132157143D01*
X62142855Y-132252381D01*
X62142855Y-131633333D02*
X62095236Y-131680952D01*
X62142855Y-131728571D01*
X62190474Y-131680952D01*
X62142855Y-131633333D01*
X62142855Y-131728571D01*
X85309524Y-133802381D02*
X85880953Y-133802381D01*
X85595239Y-133802381D02*
X85595239Y-132802381D01*
X85690477Y-132945238D01*
X85785715Y-133040476D01*
X85880953Y-133088095D01*
X84880953Y-133707143D02*
X84833334Y-133754762D01*
X84880953Y-133802381D01*
X84928572Y-133754762D01*
X84880953Y-133707143D01*
X84880953Y-133802381D01*
X83642858Y-132802381D02*
X83642858Y-133611905D01*
X83595239Y-133707143D01*
X83547620Y-133754762D01*
X83452382Y-133802381D01*
X83261905Y-133802381D01*
X83166667Y-133754762D01*
X83119048Y-133707143D01*
X83071429Y-133611905D01*
X83071429Y-132802381D01*
X82642858Y-133754762D02*
X82547620Y-133802381D01*
X82357144Y-133802381D01*
X82261905Y-133754762D01*
X82214286Y-133659524D01*
X82214286Y-133611905D01*
X82261905Y-133516667D01*
X82357144Y-133469048D01*
X82500001Y-133469048D01*
X82595239Y-133421429D01*
X82642858Y-133326190D01*
X82642858Y-133278571D01*
X82595239Y-133183333D01*
X82500001Y-133135714D01*
X82357144Y-133135714D01*
X82261905Y-133183333D01*
X81404762Y-133754762D02*
X81500000Y-133802381D01*
X81690477Y-133802381D01*
X81785715Y-133754762D01*
X81833334Y-133659524D01*
X81833334Y-133278571D01*
X81785715Y-133183333D01*
X81690477Y-133135714D01*
X81500000Y-133135714D01*
X81404762Y-133183333D01*
X81357143Y-133278571D01*
X81357143Y-133373810D01*
X81833334Y-133469048D01*
X80214286Y-133516667D02*
X79738095Y-133516667D01*
X80309524Y-133802381D02*
X79976191Y-132802381D01*
X79642857Y-133802381D01*
X79309524Y-133802381D02*
X79309524Y-133135714D01*
X79309524Y-133326190D02*
X79261905Y-133230952D01*
X79214286Y-133183333D01*
X79119048Y-133135714D01*
X79023809Y-133135714D01*
X78261904Y-133802381D02*
X78261904Y-132802381D01*
X78261904Y-133754762D02*
X78357142Y-133802381D01*
X78547619Y-133802381D01*
X78642857Y-133754762D01*
X78690476Y-133707143D01*
X78738095Y-133611905D01*
X78738095Y-133326190D01*
X78690476Y-133230952D01*
X78642857Y-133183333D01*
X78547619Y-133135714D01*
X78357142Y-133135714D01*
X78261904Y-133183333D01*
X77357142Y-133135714D02*
X77357142Y-133802381D01*
X77785714Y-133135714D02*
X77785714Y-133659524D01*
X77738095Y-133754762D01*
X77642857Y-133802381D01*
X77499999Y-133802381D01*
X77404761Y-133754762D01*
X77357142Y-133707143D01*
X76880952Y-133802381D02*
X76880952Y-133135714D01*
X76880952Y-132802381D02*
X76928571Y-132850000D01*
X76880952Y-132897619D01*
X76833333Y-132850000D01*
X76880952Y-132802381D01*
X76880952Y-132897619D01*
X76404762Y-133135714D02*
X76404762Y-133802381D01*
X76404762Y-133230952D02*
X76357143Y-133183333D01*
X76261905Y-133135714D01*
X76119047Y-133135714D01*
X76023809Y-133183333D01*
X75976190Y-133278571D01*
X75976190Y-133802381D01*
X75357143Y-133802381D02*
X75452381Y-133754762D01*
X75500000Y-133707143D01*
X75547619Y-133611905D01*
X75547619Y-133326190D01*
X75500000Y-133230952D01*
X75452381Y-133183333D01*
X75357143Y-133135714D01*
X75214285Y-133135714D01*
X75119047Y-133183333D01*
X75071428Y-133230952D01*
X75023809Y-133326190D01*
X75023809Y-133611905D01*
X75071428Y-133707143D01*
X75119047Y-133754762D01*
X75214285Y-133802381D01*
X75357143Y-133802381D01*
X73309523Y-133802381D02*
X73880952Y-133802381D01*
X73595238Y-133802381D02*
X73595238Y-132802381D01*
X73690476Y-132945238D01*
X73785714Y-133040476D01*
X73880952Y-133088095D01*
X72880952Y-133707143D02*
X72833333Y-133754762D01*
X72880952Y-133802381D01*
X72928571Y-133754762D01*
X72880952Y-133707143D01*
X72880952Y-133802381D01*
X71976190Y-132802381D02*
X72166667Y-132802381D01*
X72261905Y-132850000D01*
X72309524Y-132897619D01*
X72404762Y-133040476D01*
X72452381Y-133230952D01*
X72452381Y-133611905D01*
X72404762Y-133707143D01*
X72357143Y-133754762D01*
X72261905Y-133802381D01*
X72071428Y-133802381D01*
X71976190Y-133754762D01*
X71928571Y-133707143D01*
X71880952Y-133611905D01*
X71880952Y-133373810D01*
X71928571Y-133278571D01*
X71976190Y-133230952D01*
X72071428Y-133183333D01*
X72261905Y-133183333D01*
X72357143Y-133230952D01*
X72404762Y-133278571D01*
X72452381Y-133373810D01*
X71452381Y-133707143D02*
X71404762Y-133754762D01*
X71452381Y-133802381D01*
X71500000Y-133754762D01*
X71452381Y-133707143D01*
X71452381Y-133802381D01*
X71071429Y-132802381D02*
X70404762Y-132802381D01*
X70833334Y-133802381D01*
X69119048Y-133802381D02*
X69214286Y-133754762D01*
X69261905Y-133707143D01*
X69309524Y-133611905D01*
X69309524Y-133326190D01*
X69261905Y-133230952D01*
X69214286Y-133183333D01*
X69119048Y-133135714D01*
X68976190Y-133135714D01*
X68880952Y-133183333D01*
X68833333Y-133230952D01*
X68785714Y-133326190D01*
X68785714Y-133611905D01*
X68833333Y-133707143D01*
X68880952Y-133754762D01*
X68976190Y-133802381D01*
X69119048Y-133802381D01*
X68357143Y-133802381D02*
X68357143Y-133135714D01*
X68357143Y-133326190D02*
X68309524Y-133230952D01*
X68261905Y-133183333D01*
X68166667Y-133135714D01*
X68071428Y-133135714D01*
X66976190Y-133135714D02*
X66976190Y-133802381D01*
X66976190Y-133230952D02*
X66928571Y-133183333D01*
X66833333Y-133135714D01*
X66690475Y-133135714D01*
X66595237Y-133183333D01*
X66547618Y-133278571D01*
X66547618Y-133802381D01*
X65690475Y-133754762D02*
X65785713Y-133802381D01*
X65976190Y-133802381D01*
X66071428Y-133754762D01*
X66119047Y-133659524D01*
X66119047Y-133278571D01*
X66071428Y-133183333D01*
X65976190Y-133135714D01*
X65785713Y-133135714D01*
X65690475Y-133183333D01*
X65642856Y-133278571D01*
X65642856Y-133373810D01*
X66119047Y-133469048D01*
X65309523Y-133135714D02*
X65119047Y-133802381D01*
X64928570Y-133326190D01*
X64738094Y-133802381D01*
X64547618Y-133135714D01*
X63785713Y-133754762D02*
X63880951Y-133802381D01*
X64071428Y-133802381D01*
X64166666Y-133754762D01*
X64214285Y-133659524D01*
X64214285Y-133278571D01*
X64166666Y-133183333D01*
X64071428Y-133135714D01*
X63880951Y-133135714D01*
X63785713Y-133183333D01*
X63738094Y-133278571D01*
X63738094Y-133373810D01*
X64214285Y-133469048D01*
X63309523Y-133802381D02*
X63309523Y-133135714D01*
X63309523Y-133326190D02*
X63261904Y-133230952D01*
X63214285Y-133183333D01*
X63119047Y-133135714D01*
X63023808Y-133135714D01*
X90785717Y-134447619D02*
X90738098Y-134400000D01*
X90642860Y-134352381D01*
X90404764Y-134352381D01*
X90309526Y-134400000D01*
X90261907Y-134447619D01*
X90214288Y-134542857D01*
X90214288Y-134638095D01*
X90261907Y-134780952D01*
X90833336Y-135352381D01*
X90214288Y-135352381D01*
X89785717Y-135257143D02*
X89738098Y-135304762D01*
X89785717Y-135352381D01*
X89833336Y-135304762D01*
X89785717Y-135257143D01*
X89785717Y-135352381D01*
X88595241Y-135066667D02*
X88119050Y-135066667D01*
X88690479Y-135352381D02*
X88357146Y-134352381D01*
X88023812Y-135352381D01*
X87261907Y-135352381D02*
X87261907Y-134352381D01*
X87261907Y-135304762D02*
X87357145Y-135352381D01*
X87547622Y-135352381D01*
X87642860Y-135304762D01*
X87690479Y-135257143D01*
X87738098Y-135161905D01*
X87738098Y-134876190D01*
X87690479Y-134780952D01*
X87642860Y-134733333D01*
X87547622Y-134685714D01*
X87357145Y-134685714D01*
X87261907Y-134733333D01*
X86357145Y-135352381D02*
X86357145Y-134352381D01*
X86357145Y-135304762D02*
X86452383Y-135352381D01*
X86642860Y-135352381D01*
X86738098Y-135304762D01*
X86785717Y-135257143D01*
X86833336Y-135161905D01*
X86833336Y-134876190D01*
X86785717Y-134780952D01*
X86738098Y-134733333D01*
X86642860Y-134685714D01*
X86452383Y-134685714D01*
X86357145Y-134733333D01*
X85166669Y-135066667D02*
X84690478Y-135066667D01*
X85261907Y-135352381D02*
X84928574Y-134352381D01*
X84595240Y-135352381D01*
X83833335Y-135352381D02*
X83833335Y-134352381D01*
X83833335Y-135304762D02*
X83928573Y-135352381D01*
X84119050Y-135352381D01*
X84214288Y-135304762D01*
X84261907Y-135257143D01*
X84309526Y-135161905D01*
X84309526Y-134876190D01*
X84261907Y-134780952D01*
X84214288Y-134733333D01*
X84119050Y-134685714D01*
X83928573Y-134685714D01*
X83833335Y-134733333D01*
X82928573Y-135352381D02*
X82928573Y-134828571D01*
X82976192Y-134733333D01*
X83071430Y-134685714D01*
X83261907Y-134685714D01*
X83357145Y-134733333D01*
X82928573Y-135304762D02*
X83023811Y-135352381D01*
X83261907Y-135352381D01*
X83357145Y-135304762D01*
X83404764Y-135209524D01*
X83404764Y-135114286D01*
X83357145Y-135019048D01*
X83261907Y-134971429D01*
X83023811Y-134971429D01*
X82928573Y-134923810D01*
X82595240Y-134685714D02*
X82214288Y-134685714D01*
X82452383Y-135352381D02*
X82452383Y-134495238D01*
X82404764Y-134400000D01*
X82309526Y-134352381D01*
X82214288Y-134352381D01*
X81880954Y-135352381D02*
X81880954Y-134685714D01*
X81880954Y-134876190D02*
X81833335Y-134780952D01*
X81785716Y-134733333D01*
X81690478Y-134685714D01*
X81595239Y-134685714D01*
X80833334Y-134685714D02*
X80833334Y-135352381D01*
X81261906Y-134685714D02*
X81261906Y-135209524D01*
X81214287Y-135304762D01*
X81119049Y-135352381D01*
X80976191Y-135352381D01*
X80880953Y-135304762D01*
X80833334Y-135257143D01*
X80357144Y-135352381D02*
X80357144Y-134685714D01*
X80357144Y-134352381D02*
X80404763Y-134400000D01*
X80357144Y-134447619D01*
X80309525Y-134400000D01*
X80357144Y-134352381D01*
X80357144Y-134447619D01*
X80023811Y-134685714D02*
X79642859Y-134685714D01*
X79880954Y-134352381D02*
X79880954Y-135209524D01*
X79833335Y-135304762D01*
X79738097Y-135352381D01*
X79642859Y-135352381D01*
X78214286Y-134828571D02*
X78071429Y-134876190D01*
X78023810Y-134923810D01*
X77976191Y-135019048D01*
X77976191Y-135161905D01*
X78023810Y-135257143D01*
X78071429Y-135304762D01*
X78166667Y-135352381D01*
X78547620Y-135352381D01*
X78547620Y-134352381D01*
X78214286Y-134352381D01*
X78119048Y-134400000D01*
X78071429Y-134447619D01*
X78023810Y-134542857D01*
X78023810Y-134638095D01*
X78071429Y-134733333D01*
X78119048Y-134780952D01*
X78214286Y-134828571D01*
X78547620Y-134828571D01*
X77404763Y-135352381D02*
X77500001Y-135304762D01*
X77547620Y-135257143D01*
X77595239Y-135161905D01*
X77595239Y-134876190D01*
X77547620Y-134780952D01*
X77500001Y-134733333D01*
X77404763Y-134685714D01*
X77261905Y-134685714D01*
X77166667Y-134733333D01*
X77119048Y-134780952D01*
X77071429Y-134876190D01*
X77071429Y-135161905D01*
X77119048Y-135257143D01*
X77166667Y-135304762D01*
X77261905Y-135352381D01*
X77404763Y-135352381D01*
X76214286Y-135352381D02*
X76214286Y-134828571D01*
X76261905Y-134733333D01*
X76357143Y-134685714D01*
X76547620Y-134685714D01*
X76642858Y-134733333D01*
X76214286Y-135304762D02*
X76309524Y-135352381D01*
X76547620Y-135352381D01*
X76642858Y-135304762D01*
X76690477Y-135209524D01*
X76690477Y-135114286D01*
X76642858Y-135019048D01*
X76547620Y-134971429D01*
X76309524Y-134971429D01*
X76214286Y-134923810D01*
X75738096Y-135352381D02*
X75738096Y-134685714D01*
X75738096Y-134876190D02*
X75690477Y-134780952D01*
X75642858Y-134733333D01*
X75547620Y-134685714D01*
X75452381Y-134685714D01*
X74690476Y-135352381D02*
X74690476Y-134352381D01*
X74690476Y-135304762D02*
X74785714Y-135352381D01*
X74976191Y-135352381D01*
X75071429Y-135304762D01*
X75119048Y-135257143D01*
X75166667Y-135161905D01*
X75166667Y-134876190D01*
X75119048Y-134780952D01*
X75071429Y-134733333D01*
X74976191Y-134685714D01*
X74785714Y-134685714D01*
X74690476Y-134733333D01*
X74261905Y-135304762D02*
X74166667Y-135352381D01*
X73976191Y-135352381D01*
X73880952Y-135304762D01*
X73833333Y-135209524D01*
X73833333Y-135161905D01*
X73880952Y-135066667D01*
X73976191Y-135019048D01*
X74119048Y-135019048D01*
X74214286Y-134971429D01*
X74261905Y-134876190D01*
X74261905Y-134828571D01*
X74214286Y-134733333D01*
X74119048Y-134685714D01*
X73976191Y-134685714D01*
X73880952Y-134733333D01*
X72785714Y-134685714D02*
X72404762Y-134685714D01*
X72642857Y-134352381D02*
X72642857Y-135209524D01*
X72595238Y-135304762D01*
X72500000Y-135352381D01*
X72404762Y-135352381D01*
X71928571Y-135352381D02*
X72023809Y-135304762D01*
X72071428Y-135257143D01*
X72119047Y-135161905D01*
X72119047Y-134876190D01*
X72071428Y-134780952D01*
X72023809Y-134733333D01*
X71928571Y-134685714D01*
X71785713Y-134685714D01*
X71690475Y-134733333D01*
X71642856Y-134780952D01*
X71595237Y-134876190D01*
X71595237Y-135161905D01*
X71642856Y-135257143D01*
X71690475Y-135304762D01*
X71785713Y-135352381D01*
X71928571Y-135352381D01*
X70071427Y-134828571D02*
X69928570Y-134876190D01*
X69880951Y-134923810D01*
X69833332Y-135019048D01*
X69833332Y-135161905D01*
X69880951Y-135257143D01*
X69928570Y-135304762D01*
X70023808Y-135352381D01*
X70404761Y-135352381D01*
X70404761Y-134352381D01*
X70071427Y-134352381D01*
X69976189Y-134400000D01*
X69928570Y-134447619D01*
X69880951Y-134542857D01*
X69880951Y-134638095D01*
X69928570Y-134733333D01*
X69976189Y-134780952D01*
X70071427Y-134828571D01*
X70404761Y-134828571D01*
X69261904Y-135352381D02*
X69357142Y-135304762D01*
X69404761Y-135257143D01*
X69452380Y-135161905D01*
X69452380Y-134876190D01*
X69404761Y-134780952D01*
X69357142Y-134733333D01*
X69261904Y-134685714D01*
X69119046Y-134685714D01*
X69023808Y-134733333D01*
X68976189Y-134780952D01*
X68928570Y-134876190D01*
X68928570Y-135161905D01*
X68976189Y-135257143D01*
X69023808Y-135304762D01*
X69119046Y-135352381D01*
X69261904Y-135352381D01*
X68071427Y-135352381D02*
X68071427Y-134828571D01*
X68119046Y-134733333D01*
X68214284Y-134685714D01*
X68404761Y-134685714D01*
X68499999Y-134733333D01*
X68071427Y-135304762D02*
X68166665Y-135352381D01*
X68404761Y-135352381D01*
X68499999Y-135304762D01*
X68547618Y-135209524D01*
X68547618Y-135114286D01*
X68499999Y-135019048D01*
X68404761Y-134971429D01*
X68166665Y-134971429D01*
X68071427Y-134923810D01*
X67595237Y-135352381D02*
X67595237Y-134685714D01*
X67595237Y-134876190D02*
X67547618Y-134780952D01*
X67499999Y-134733333D01*
X67404761Y-134685714D01*
X67309522Y-134685714D01*
X66547617Y-135352381D02*
X66547617Y-134352381D01*
X66547617Y-135304762D02*
X66642855Y-135352381D01*
X66833332Y-135352381D01*
X66928570Y-135304762D01*
X66976189Y-135257143D01*
X67023808Y-135161905D01*
X67023808Y-134876190D01*
X66976189Y-134780952D01*
X66928570Y-134733333D01*
X66833332Y-134685714D01*
X66642855Y-134685714D01*
X66547617Y-134733333D01*
X66119046Y-135304762D02*
X66023808Y-135352381D01*
X65833332Y-135352381D01*
X65738093Y-135304762D01*
X65690474Y-135209524D01*
X65690474Y-135161905D01*
X65738093Y-135066667D01*
X65833332Y-135019048D01*
X65976189Y-135019048D01*
X66071427Y-134971429D01*
X66119046Y-134876190D01*
X66119046Y-134828571D01*
X66071427Y-134733333D01*
X65976189Y-134685714D01*
X65833332Y-134685714D01*
X65738093Y-134733333D01*
X64499998Y-135352381D02*
X64499998Y-134352381D01*
X64166664Y-135066667D01*
X63833331Y-134352381D01*
X63833331Y-135352381D01*
X62928569Y-135352381D02*
X62928569Y-134828571D01*
X62976188Y-134733333D01*
X63071426Y-134685714D01*
X63261903Y-134685714D01*
X63357141Y-134733333D01*
X62928569Y-135304762D02*
X63023807Y-135352381D01*
X63261903Y-135352381D01*
X63357141Y-135304762D01*
X63404760Y-135209524D01*
X63404760Y-135114286D01*
X63357141Y-135019048D01*
X63261903Y-134971429D01*
X63023807Y-134971429D01*
X62928569Y-134923810D01*
X62452379Y-134685714D02*
X62452379Y-135352381D01*
X62452379Y-134780952D02*
X62404760Y-134733333D01*
X62309522Y-134685714D01*
X62166664Y-134685714D01*
X62071426Y-134733333D01*
X62023807Y-134828571D01*
X62023807Y-135352381D01*
X61119045Y-135352381D02*
X61119045Y-134828571D01*
X61166664Y-134733333D01*
X61261902Y-134685714D01*
X61452379Y-134685714D01*
X61547617Y-134733333D01*
X61119045Y-135304762D02*
X61214283Y-135352381D01*
X61452379Y-135352381D01*
X61547617Y-135304762D01*
X61595236Y-135209524D01*
X61595236Y-135114286D01*
X61547617Y-135019048D01*
X61452379Y-134971429D01*
X61214283Y-134971429D01*
X61119045Y-134923810D01*
X60214283Y-134685714D02*
X60214283Y-135495238D01*
X60261902Y-135590476D01*
X60309521Y-135638095D01*
X60404760Y-135685714D01*
X60547617Y-135685714D01*
X60642855Y-135638095D01*
X60214283Y-135304762D02*
X60309521Y-135352381D01*
X60499998Y-135352381D01*
X60595236Y-135304762D01*
X60642855Y-135257143D01*
X60690474Y-135161905D01*
X60690474Y-134876190D01*
X60642855Y-134780952D01*
X60595236Y-134733333D01*
X60499998Y-134685714D01*
X60309521Y-134685714D01*
X60214283Y-134733333D01*
X59357140Y-135304762D02*
X59452378Y-135352381D01*
X59642855Y-135352381D01*
X59738093Y-135304762D01*
X59785712Y-135209524D01*
X59785712Y-134828571D01*
X59738093Y-134733333D01*
X59642855Y-134685714D01*
X59452378Y-134685714D01*
X59357140Y-134733333D01*
X59309521Y-134828571D01*
X59309521Y-134923810D01*
X59785712Y-135019048D01*
X58880950Y-135352381D02*
X58880950Y-134685714D01*
X58880950Y-134876190D02*
X58833331Y-134780952D01*
X58785712Y-134733333D01*
X58690474Y-134685714D01*
X58595235Y-134685714D01*
X58214283Y-135304762D02*
X58214283Y-135352381D01*
X58261902Y-135447619D01*
X58309521Y-135495238D01*
X97714288Y-136902381D02*
X97714288Y-135902381D01*
X97285716Y-136902381D02*
X97285716Y-136378571D01*
X97333335Y-136283333D01*
X97428573Y-136235714D01*
X97571431Y-136235714D01*
X97666669Y-136283333D01*
X97714288Y-136330952D01*
X96952383Y-136235714D02*
X96571431Y-136235714D01*
X96809526Y-135902381D02*
X96809526Y-136759524D01*
X96761907Y-136854762D01*
X96666669Y-136902381D01*
X96571431Y-136902381D01*
X96380954Y-136235714D02*
X96000002Y-136235714D01*
X96238097Y-135902381D02*
X96238097Y-136759524D01*
X96190478Y-136854762D01*
X96095240Y-136902381D01*
X96000002Y-136902381D01*
X95666668Y-136235714D02*
X95666668Y-137235714D01*
X95666668Y-136283333D02*
X95571430Y-136235714D01*
X95380953Y-136235714D01*
X95285715Y-136283333D01*
X95238096Y-136330952D01*
X95190477Y-136426190D01*
X95190477Y-136711905D01*
X95238096Y-136807143D01*
X95285715Y-136854762D01*
X95380953Y-136902381D01*
X95571430Y-136902381D01*
X95666668Y-136854762D01*
X94809525Y-136854762D02*
X94714287Y-136902381D01*
X94523811Y-136902381D01*
X94428572Y-136854762D01*
X94380953Y-136759524D01*
X94380953Y-136711905D01*
X94428572Y-136616667D01*
X94523811Y-136569048D01*
X94666668Y-136569048D01*
X94761906Y-136521429D01*
X94809525Y-136426190D01*
X94809525Y-136378571D01*
X94761906Y-136283333D01*
X94666668Y-136235714D01*
X94523811Y-136235714D01*
X94428572Y-136283333D01*
X93952382Y-136807143D02*
X93904763Y-136854762D01*
X93952382Y-136902381D01*
X94000001Y-136854762D01*
X93952382Y-136807143D01*
X93952382Y-136902381D01*
X93952382Y-136283333D02*
X93904763Y-136330952D01*
X93952382Y-136378571D01*
X94000001Y-136330952D01*
X93952382Y-136283333D01*
X93952382Y-136378571D01*
X92761906Y-135854762D02*
X93619049Y-137140476D01*
X91714287Y-135854762D02*
X92571430Y-137140476D01*
X91238097Y-136902381D02*
X91333335Y-136854762D01*
X91380954Y-136759524D01*
X91380954Y-135902381D01*
X90476191Y-136854762D02*
X90571429Y-136902381D01*
X90761906Y-136902381D01*
X90857144Y-136854762D01*
X90904763Y-136759524D01*
X90904763Y-136378571D01*
X90857144Y-136283333D01*
X90761906Y-136235714D01*
X90571429Y-136235714D01*
X90476191Y-136283333D01*
X90428572Y-136378571D01*
X90428572Y-136473810D01*
X90904763Y-136569048D01*
X89571429Y-136902381D02*
X89571429Y-136378571D01*
X89619048Y-136283333D01*
X89714286Y-136235714D01*
X89904763Y-136235714D01*
X90000001Y-136283333D01*
X89571429Y-136854762D02*
X89666667Y-136902381D01*
X89904763Y-136902381D01*
X90000001Y-136854762D01*
X90047620Y-136759524D01*
X90047620Y-136664286D01*
X90000001Y-136569048D01*
X89904763Y-136521429D01*
X89666667Y-136521429D01*
X89571429Y-136473810D01*
X89095239Y-136902381D02*
X89095239Y-136235714D01*
X89095239Y-136426190D02*
X89047620Y-136330952D01*
X89000001Y-136283333D01*
X88904763Y-136235714D01*
X88809524Y-136235714D01*
X88476191Y-136235714D02*
X88476191Y-136902381D01*
X88476191Y-136330952D02*
X88428572Y-136283333D01*
X88333334Y-136235714D01*
X88190476Y-136235714D01*
X88095238Y-136283333D01*
X88047619Y-136378571D01*
X88047619Y-136902381D01*
X87571429Y-136807143D02*
X87523810Y-136854762D01*
X87571429Y-136902381D01*
X87619048Y-136854762D01*
X87571429Y-136807143D01*
X87571429Y-136902381D01*
X86666667Y-136902381D02*
X86666667Y-136378571D01*
X86714286Y-136283333D01*
X86809524Y-136235714D01*
X87000001Y-136235714D01*
X87095239Y-136283333D01*
X86666667Y-136854762D02*
X86761905Y-136902381D01*
X87000001Y-136902381D01*
X87095239Y-136854762D01*
X87142858Y-136759524D01*
X87142858Y-136664286D01*
X87095239Y-136569048D01*
X87000001Y-136521429D01*
X86761905Y-136521429D01*
X86666667Y-136473810D01*
X85761905Y-136902381D02*
X85761905Y-135902381D01*
X85761905Y-136854762D02*
X85857143Y-136902381D01*
X86047620Y-136902381D01*
X86142858Y-136854762D01*
X86190477Y-136807143D01*
X86238096Y-136711905D01*
X86238096Y-136426190D01*
X86190477Y-136330952D01*
X86142858Y-136283333D01*
X86047620Y-136235714D01*
X85857143Y-136235714D01*
X85761905Y-136283333D01*
X84857143Y-136902381D02*
X84857143Y-136378571D01*
X84904762Y-136283333D01*
X85000000Y-136235714D01*
X85190477Y-136235714D01*
X85285715Y-136283333D01*
X84857143Y-136854762D02*
X84952381Y-136902381D01*
X85190477Y-136902381D01*
X85285715Y-136854762D01*
X85333334Y-136759524D01*
X85333334Y-136664286D01*
X85285715Y-136569048D01*
X85190477Y-136521429D01*
X84952381Y-136521429D01*
X84857143Y-136473810D01*
X84523810Y-136235714D02*
X84142858Y-136235714D01*
X84380953Y-136902381D02*
X84380953Y-136045238D01*
X84333334Y-135950000D01*
X84238096Y-135902381D01*
X84142858Y-135902381D01*
X83809524Y-136902381D02*
X83809524Y-136235714D01*
X83809524Y-136426190D02*
X83761905Y-136330952D01*
X83714286Y-136283333D01*
X83619048Y-136235714D01*
X83523809Y-136235714D01*
X82761904Y-136235714D02*
X82761904Y-136902381D01*
X83190476Y-136235714D02*
X83190476Y-136759524D01*
X83142857Y-136854762D01*
X83047619Y-136902381D01*
X82904761Y-136902381D01*
X82809523Y-136854762D01*
X82761904Y-136807143D01*
X82285714Y-136902381D02*
X82285714Y-136235714D01*
X82285714Y-135902381D02*
X82333333Y-135950000D01*
X82285714Y-135997619D01*
X82238095Y-135950000D01*
X82285714Y-135902381D01*
X82285714Y-135997619D01*
X81952381Y-136235714D02*
X81571429Y-136235714D01*
X81809524Y-135902381D02*
X81809524Y-136759524D01*
X81761905Y-136854762D01*
X81666667Y-136902381D01*
X81571429Y-136902381D01*
X81238095Y-136807143D02*
X81190476Y-136854762D01*
X81238095Y-136902381D01*
X81285714Y-136854762D01*
X81238095Y-136807143D01*
X81238095Y-136902381D01*
X80333333Y-136854762D02*
X80428571Y-136902381D01*
X80619048Y-136902381D01*
X80714286Y-136854762D01*
X80761905Y-136807143D01*
X80809524Y-136711905D01*
X80809524Y-136426190D01*
X80761905Y-136330952D01*
X80714286Y-136283333D01*
X80619048Y-136235714D01*
X80428571Y-136235714D01*
X80333333Y-136283333D01*
X79761905Y-136902381D02*
X79857143Y-136854762D01*
X79904762Y-136807143D01*
X79952381Y-136711905D01*
X79952381Y-136426190D01*
X79904762Y-136330952D01*
X79857143Y-136283333D01*
X79761905Y-136235714D01*
X79619047Y-136235714D01*
X79523809Y-136283333D01*
X79476190Y-136330952D01*
X79428571Y-136426190D01*
X79428571Y-136711905D01*
X79476190Y-136807143D01*
X79523809Y-136854762D01*
X79619047Y-136902381D01*
X79761905Y-136902381D01*
X79000000Y-136902381D02*
X79000000Y-136235714D01*
X79000000Y-136330952D02*
X78952381Y-136283333D01*
X78857143Y-136235714D01*
X78714285Y-136235714D01*
X78619047Y-136283333D01*
X78571428Y-136378571D01*
X78571428Y-136902381D01*
X78571428Y-136378571D02*
X78523809Y-136283333D01*
X78428571Y-136235714D01*
X78285714Y-136235714D01*
X78190476Y-136283333D01*
X78142857Y-136378571D01*
X78142857Y-136902381D01*
X76952381Y-135854762D02*
X77809524Y-137140476D01*
X76190476Y-136902381D02*
X76190476Y-136378571D01*
X76238095Y-136283333D01*
X76333333Y-136235714D01*
X76523810Y-136235714D01*
X76619048Y-136283333D01*
X76190476Y-136854762D02*
X76285714Y-136902381D01*
X76523810Y-136902381D01*
X76619048Y-136854762D01*
X76666667Y-136759524D01*
X76666667Y-136664286D01*
X76619048Y-136569048D01*
X76523810Y-136521429D01*
X76285714Y-136521429D01*
X76190476Y-136473810D01*
X75285714Y-136902381D02*
X75285714Y-135902381D01*
X75285714Y-136854762D02*
X75380952Y-136902381D01*
X75571429Y-136902381D01*
X75666667Y-136854762D01*
X75714286Y-136807143D01*
X75761905Y-136711905D01*
X75761905Y-136426190D01*
X75714286Y-136330952D01*
X75666667Y-136283333D01*
X75571429Y-136235714D01*
X75380952Y-136235714D01*
X75285714Y-136283333D01*
X74380952Y-136902381D02*
X74380952Y-135902381D01*
X74380952Y-136854762D02*
X74476190Y-136902381D01*
X74666667Y-136902381D01*
X74761905Y-136854762D01*
X74809524Y-136807143D01*
X74857143Y-136711905D01*
X74857143Y-136426190D01*
X74809524Y-136330952D01*
X74761905Y-136283333D01*
X74666667Y-136235714D01*
X74476190Y-136235714D01*
X74380952Y-136283333D01*
X73904762Y-136521429D02*
X73142857Y-136521429D01*
X72666667Y-136902381D02*
X72666667Y-135902381D01*
X72666667Y-136283333D02*
X72571429Y-136235714D01*
X72380952Y-136235714D01*
X72285714Y-136283333D01*
X72238095Y-136330952D01*
X72190476Y-136426190D01*
X72190476Y-136711905D01*
X72238095Y-136807143D01*
X72285714Y-136854762D01*
X72380952Y-136902381D01*
X72571429Y-136902381D01*
X72666667Y-136854762D01*
X71619048Y-136902381D02*
X71714286Y-136854762D01*
X71761905Y-136807143D01*
X71809524Y-136711905D01*
X71809524Y-136426190D01*
X71761905Y-136330952D01*
X71714286Y-136283333D01*
X71619048Y-136235714D01*
X71476190Y-136235714D01*
X71380952Y-136283333D01*
X71333333Y-136330952D01*
X71285714Y-136426190D01*
X71285714Y-136711905D01*
X71333333Y-136807143D01*
X71380952Y-136854762D01*
X71476190Y-136902381D01*
X71619048Y-136902381D01*
X70428571Y-136902381D02*
X70428571Y-136378571D01*
X70476190Y-136283333D01*
X70571428Y-136235714D01*
X70761905Y-136235714D01*
X70857143Y-136283333D01*
X70428571Y-136854762D02*
X70523809Y-136902381D01*
X70761905Y-136902381D01*
X70857143Y-136854762D01*
X70904762Y-136759524D01*
X70904762Y-136664286D01*
X70857143Y-136569048D01*
X70761905Y-136521429D01*
X70523809Y-136521429D01*
X70428571Y-136473810D01*
X69952381Y-136902381D02*
X69952381Y-136235714D01*
X69952381Y-136426190D02*
X69904762Y-136330952D01*
X69857143Y-136283333D01*
X69761905Y-136235714D01*
X69666666Y-136235714D01*
X68904761Y-136902381D02*
X68904761Y-135902381D01*
X68904761Y-136854762D02*
X68999999Y-136902381D01*
X69190476Y-136902381D01*
X69285714Y-136854762D01*
X69333333Y-136807143D01*
X69380952Y-136711905D01*
X69380952Y-136426190D01*
X69333333Y-136330952D01*
X69285714Y-136283333D01*
X69190476Y-136235714D01*
X68999999Y-136235714D01*
X68904761Y-136283333D01*
X68476190Y-136854762D02*
X68380952Y-136902381D01*
X68190476Y-136902381D01*
X68095237Y-136854762D01*
X68047618Y-136759524D01*
X68047618Y-136711905D01*
X68095237Y-136616667D01*
X68190476Y-136569048D01*
X68333333Y-136569048D01*
X68428571Y-136521429D01*
X68476190Y-136426190D01*
X68476190Y-136378571D01*
X68428571Y-136283333D01*
X68333333Y-136235714D01*
X68190476Y-136235714D01*
X68095237Y-136283333D01*
X67619047Y-136521429D02*
X66857142Y-136521429D01*
X65952380Y-136902381D02*
X65952380Y-136378571D01*
X65999999Y-136283333D01*
X66095237Y-136235714D01*
X66285714Y-136235714D01*
X66380952Y-136283333D01*
X65952380Y-136854762D02*
X66047618Y-136902381D01*
X66285714Y-136902381D01*
X66380952Y-136854762D01*
X66428571Y-136759524D01*
X66428571Y-136664286D01*
X66380952Y-136569048D01*
X66285714Y-136521429D01*
X66047618Y-136521429D01*
X65952380Y-136473810D01*
X65476190Y-136902381D02*
X65476190Y-136235714D01*
X65476190Y-136426190D02*
X65428571Y-136330952D01*
X65380952Y-136283333D01*
X65285714Y-136235714D01*
X65190475Y-136235714D01*
X64428570Y-136902381D02*
X64428570Y-135902381D01*
X64428570Y-136854762D02*
X64523808Y-136902381D01*
X64714285Y-136902381D01*
X64809523Y-136854762D01*
X64857142Y-136807143D01*
X64904761Y-136711905D01*
X64904761Y-136426190D01*
X64857142Y-136330952D01*
X64809523Y-136283333D01*
X64714285Y-136235714D01*
X64523808Y-136235714D01*
X64428570Y-136283333D01*
X63523808Y-136235714D02*
X63523808Y-136902381D01*
X63952380Y-136235714D02*
X63952380Y-136759524D01*
X63904761Y-136854762D01*
X63809523Y-136902381D01*
X63666665Y-136902381D01*
X63571427Y-136854762D01*
X63523808Y-136807143D01*
X63047618Y-136902381D02*
X63047618Y-136235714D01*
X63047618Y-135902381D02*
X63095237Y-135950000D01*
X63047618Y-135997619D01*
X62999999Y-135950000D01*
X63047618Y-135902381D01*
X63047618Y-135997619D01*
X62571428Y-136235714D02*
X62571428Y-136902381D01*
X62571428Y-136330952D02*
X62523809Y-136283333D01*
X62428571Y-136235714D01*
X62285713Y-136235714D01*
X62190475Y-136283333D01*
X62142856Y-136378571D01*
X62142856Y-136902381D01*
X61523809Y-136902381D02*
X61619047Y-136854762D01*
X61666666Y-136807143D01*
X61714285Y-136711905D01*
X61714285Y-136426190D01*
X61666666Y-136330952D01*
X61619047Y-136283333D01*
X61523809Y-136235714D01*
X61380951Y-136235714D01*
X61285713Y-136283333D01*
X61238094Y-136330952D01*
X61190475Y-136426190D01*
X61190475Y-136711905D01*
X61238094Y-136807143D01*
X61285713Y-136854762D01*
X61380951Y-136902381D01*
X61523809Y-136902381D01*
X60761904Y-136521429D02*
X59999999Y-136521429D01*
X59619047Y-136235714D02*
X59380952Y-136902381D01*
X59142856Y-136235714D01*
X58238094Y-136902381D02*
X58809523Y-136902381D01*
X58523809Y-136902381D02*
X58523809Y-135902381D01*
X58619047Y-136045238D01*
X58714285Y-136140476D01*
X58809523Y-136188095D01*
X57380951Y-135902381D02*
X57571428Y-135902381D01*
X57666666Y-135950000D01*
X57714285Y-135997619D01*
X57809523Y-136140476D01*
X57857142Y-136330952D01*
X57857142Y-136711905D01*
X57809523Y-136807143D01*
X57761904Y-136854762D01*
X57666666Y-136902381D01*
X57476189Y-136902381D01*
X57380951Y-136854762D01*
X57333332Y-136807143D01*
X57285713Y-136711905D01*
X57285713Y-136473810D01*
X57333332Y-136378571D01*
X57380951Y-136330952D01*
X57476189Y-136283333D01*
X57666666Y-136283333D01*
X57761904Y-136330952D01*
X57809523Y-136378571D01*
X57857142Y-136473810D01*
X56428570Y-136235714D02*
X56428570Y-136902381D01*
X56666666Y-135854762D02*
X56904761Y-136569048D01*
X56285713Y-136569048D01*
X55190475Y-135854762D02*
X56047618Y-137140476D01*
X54904761Y-136854762D02*
X54809523Y-136902381D01*
X54619047Y-136902381D01*
X54523808Y-136854762D01*
X54476189Y-136759524D01*
X54476189Y-136711905D01*
X54523808Y-136616667D01*
X54619047Y-136569048D01*
X54761904Y-136569048D01*
X54857142Y-136521429D01*
X54904761Y-136426190D01*
X54904761Y-136378571D01*
X54857142Y-136283333D01*
X54761904Y-136235714D01*
X54619047Y-136235714D01*
X54523808Y-136283333D01*
X53666665Y-136854762D02*
X53761903Y-136902381D01*
X53952380Y-136902381D01*
X54047618Y-136854762D01*
X54095237Y-136759524D01*
X54095237Y-136378571D01*
X54047618Y-136283333D01*
X53952380Y-136235714D01*
X53761903Y-136235714D01*
X53666665Y-136283333D01*
X53619046Y-136378571D01*
X53619046Y-136473810D01*
X54095237Y-136569048D01*
X53333332Y-136235714D02*
X52952380Y-136235714D01*
X53190475Y-135902381D02*
X53190475Y-136759524D01*
X53142856Y-136854762D01*
X53047618Y-136902381D01*
X52952380Y-136902381D01*
X52190474Y-136235714D02*
X52190474Y-136902381D01*
X52619046Y-136235714D02*
X52619046Y-136759524D01*
X52571427Y-136854762D01*
X52476189Y-136902381D01*
X52333331Y-136902381D01*
X52238093Y-136854762D01*
X52190474Y-136807143D01*
X51714284Y-136235714D02*
X51714284Y-137235714D01*
X51714284Y-136283333D02*
X51619046Y-136235714D01*
X51428569Y-136235714D01*
X51333331Y-136283333D01*
X51285712Y-136330952D01*
X51238093Y-136426190D01*
X51238093Y-136711905D01*
X51285712Y-136807143D01*
X51333331Y-136854762D01*
X51428569Y-136902381D01*
X51619046Y-136902381D01*
X51714284Y-136854762D01*
X95976195Y-137452381D02*
X95357147Y-137452381D01*
X95690481Y-137833333D01*
X95547623Y-137833333D01*
X95452385Y-137880952D01*
X95404766Y-137928571D01*
X95357147Y-138023810D01*
X95357147Y-138261905D01*
X95404766Y-138357143D01*
X95452385Y-138404762D01*
X95547623Y-138452381D01*
X95833338Y-138452381D01*
X95928576Y-138404762D01*
X95976195Y-138357143D01*
X94928576Y-138357143D02*
X94880957Y-138404762D01*
X94928576Y-138452381D01*
X94976195Y-138404762D01*
X94928576Y-138357143D01*
X94928576Y-138452381D01*
X93690481Y-138452381D02*
X93690481Y-137452381D01*
X93214291Y-137785714D02*
X93214291Y-138452381D01*
X93214291Y-137880952D02*
X93166672Y-137833333D01*
X93071434Y-137785714D01*
X92928576Y-137785714D01*
X92833338Y-137833333D01*
X92785719Y-137928571D01*
X92785719Y-138452381D01*
X92357148Y-138404762D02*
X92261910Y-138452381D01*
X92071434Y-138452381D01*
X91976195Y-138404762D01*
X91928576Y-138309524D01*
X91928576Y-138261905D01*
X91976195Y-138166667D01*
X92071434Y-138119048D01*
X92214291Y-138119048D01*
X92309529Y-138071429D01*
X92357148Y-137976190D01*
X92357148Y-137928571D01*
X92309529Y-137833333D01*
X92214291Y-137785714D01*
X92071434Y-137785714D01*
X91976195Y-137833333D01*
X91642862Y-137785714D02*
X91261910Y-137785714D01*
X91500005Y-137452381D02*
X91500005Y-138309524D01*
X91452386Y-138404762D01*
X91357148Y-138452381D01*
X91261910Y-138452381D01*
X90500004Y-138452381D02*
X90500004Y-137928571D01*
X90547623Y-137833333D01*
X90642861Y-137785714D01*
X90833338Y-137785714D01*
X90928576Y-137833333D01*
X90500004Y-138404762D02*
X90595242Y-138452381D01*
X90833338Y-138452381D01*
X90928576Y-138404762D01*
X90976195Y-138309524D01*
X90976195Y-138214286D01*
X90928576Y-138119048D01*
X90833338Y-138071429D01*
X90595242Y-138071429D01*
X90500004Y-138023810D01*
X89880957Y-138452381D02*
X89976195Y-138404762D01*
X90023814Y-138309524D01*
X90023814Y-137452381D01*
X89357147Y-138452381D02*
X89452385Y-138404762D01*
X89500004Y-138309524D01*
X89500004Y-137452381D01*
X88261908Y-138166667D02*
X87785717Y-138166667D01*
X88357146Y-138452381D02*
X88023813Y-137452381D01*
X87690479Y-138452381D01*
X86928574Y-138452381D02*
X86928574Y-137452381D01*
X86928574Y-138404762D02*
X87023812Y-138452381D01*
X87214289Y-138452381D01*
X87309527Y-138404762D01*
X87357146Y-138357143D01*
X87404765Y-138261905D01*
X87404765Y-137976190D01*
X87357146Y-137880952D01*
X87309527Y-137833333D01*
X87214289Y-137785714D01*
X87023812Y-137785714D01*
X86928574Y-137833333D01*
X86023812Y-138452381D02*
X86023812Y-137928571D01*
X86071431Y-137833333D01*
X86166669Y-137785714D01*
X86357146Y-137785714D01*
X86452384Y-137833333D01*
X86023812Y-138404762D02*
X86119050Y-138452381D01*
X86357146Y-138452381D01*
X86452384Y-138404762D01*
X86500003Y-138309524D01*
X86500003Y-138214286D01*
X86452384Y-138119048D01*
X86357146Y-138071429D01*
X86119050Y-138071429D01*
X86023812Y-138023810D01*
X85690479Y-137785714D02*
X85309527Y-137785714D01*
X85547622Y-138452381D02*
X85547622Y-137595238D01*
X85500003Y-137500000D01*
X85404765Y-137452381D01*
X85309527Y-137452381D01*
X84976193Y-138452381D02*
X84976193Y-137785714D01*
X84976193Y-137976190D02*
X84928574Y-137880952D01*
X84880955Y-137833333D01*
X84785717Y-137785714D01*
X84690478Y-137785714D01*
X83928573Y-137785714D02*
X83928573Y-138452381D01*
X84357145Y-137785714D02*
X84357145Y-138309524D01*
X84309526Y-138404762D01*
X84214288Y-138452381D01*
X84071430Y-138452381D01*
X83976192Y-138404762D01*
X83928573Y-138357143D01*
X83452383Y-138452381D02*
X83452383Y-137785714D01*
X83452383Y-137452381D02*
X83500002Y-137500000D01*
X83452383Y-137547619D01*
X83404764Y-137500000D01*
X83452383Y-137452381D01*
X83452383Y-137547619D01*
X83119050Y-137785714D02*
X82738098Y-137785714D01*
X82976193Y-137452381D02*
X82976193Y-138309524D01*
X82928574Y-138404762D01*
X82833336Y-138452381D01*
X82738098Y-138452381D01*
X81690478Y-138166667D02*
X81214287Y-138166667D01*
X81785716Y-138452381D02*
X81452383Y-137452381D01*
X81119049Y-138452381D01*
X80928573Y-137452381D02*
X80595240Y-138452381D01*
X80261906Y-137452381D01*
X79357144Y-138452381D02*
X79690478Y-137976190D01*
X79928573Y-138452381D02*
X79928573Y-137452381D01*
X79547620Y-137452381D01*
X79452382Y-137500000D01*
X79404763Y-137547619D01*
X79357144Y-137642857D01*
X79357144Y-137785714D01*
X79404763Y-137880952D01*
X79452382Y-137928571D01*
X79547620Y-137976190D01*
X79928573Y-137976190D01*
X77833334Y-137928571D02*
X77690477Y-137976190D01*
X77642858Y-138023810D01*
X77595239Y-138119048D01*
X77595239Y-138261905D01*
X77642858Y-138357143D01*
X77690477Y-138404762D01*
X77785715Y-138452381D01*
X78166668Y-138452381D01*
X78166668Y-137452381D01*
X77833334Y-137452381D01*
X77738096Y-137500000D01*
X77690477Y-137547619D01*
X77642858Y-137642857D01*
X77642858Y-137738095D01*
X77690477Y-137833333D01*
X77738096Y-137880952D01*
X77833334Y-137928571D01*
X78166668Y-137928571D01*
X77023811Y-138452381D02*
X77119049Y-138404762D01*
X77166668Y-138357143D01*
X77214287Y-138261905D01*
X77214287Y-137976190D01*
X77166668Y-137880952D01*
X77119049Y-137833333D01*
X77023811Y-137785714D01*
X76880953Y-137785714D01*
X76785715Y-137833333D01*
X76738096Y-137880952D01*
X76690477Y-137976190D01*
X76690477Y-138261905D01*
X76738096Y-138357143D01*
X76785715Y-138404762D01*
X76880953Y-138452381D01*
X77023811Y-138452381D01*
X75833334Y-138452381D02*
X75833334Y-137928571D01*
X75880953Y-137833333D01*
X75976191Y-137785714D01*
X76166668Y-137785714D01*
X76261906Y-137833333D01*
X75833334Y-138404762D02*
X75928572Y-138452381D01*
X76166668Y-138452381D01*
X76261906Y-138404762D01*
X76309525Y-138309524D01*
X76309525Y-138214286D01*
X76261906Y-138119048D01*
X76166668Y-138071429D01*
X75928572Y-138071429D01*
X75833334Y-138023810D01*
X75357144Y-138452381D02*
X75357144Y-137785714D01*
X75357144Y-137976190D02*
X75309525Y-137880952D01*
X75261906Y-137833333D01*
X75166668Y-137785714D01*
X75071429Y-137785714D01*
X74309524Y-138452381D02*
X74309524Y-137452381D01*
X74309524Y-138404762D02*
X74404762Y-138452381D01*
X74595239Y-138452381D01*
X74690477Y-138404762D01*
X74738096Y-138357143D01*
X74785715Y-138261905D01*
X74785715Y-137976190D01*
X74738096Y-137880952D01*
X74690477Y-137833333D01*
X74595239Y-137785714D01*
X74404762Y-137785714D01*
X74309524Y-137833333D01*
X73880953Y-138404762D02*
X73785715Y-138452381D01*
X73595239Y-138452381D01*
X73500000Y-138404762D01*
X73452381Y-138309524D01*
X73452381Y-138261905D01*
X73500000Y-138166667D01*
X73595239Y-138119048D01*
X73738096Y-138119048D01*
X73833334Y-138071429D01*
X73880953Y-137976190D01*
X73880953Y-137928571D01*
X73833334Y-137833333D01*
X73738096Y-137785714D01*
X73595239Y-137785714D01*
X73500000Y-137833333D01*
X71976190Y-138833333D02*
X72023810Y-138785714D01*
X72119048Y-138642857D01*
X72166667Y-138547619D01*
X72214286Y-138404762D01*
X72261905Y-138166667D01*
X72261905Y-137976190D01*
X72214286Y-137738095D01*
X72166667Y-137595238D01*
X72119048Y-137500000D01*
X72023810Y-137357143D01*
X71976190Y-137309524D01*
X71595238Y-137785714D02*
X71595238Y-138452381D01*
X71595238Y-137880952D02*
X71547619Y-137833333D01*
X71452381Y-137785714D01*
X71309523Y-137785714D01*
X71214285Y-137833333D01*
X71166666Y-137928571D01*
X71166666Y-138452381D01*
X70309523Y-138404762D02*
X70404761Y-138452381D01*
X70595238Y-138452381D01*
X70690476Y-138404762D01*
X70738095Y-138309524D01*
X70738095Y-137928571D01*
X70690476Y-137833333D01*
X70595238Y-137785714D01*
X70404761Y-137785714D01*
X70309523Y-137833333D01*
X70261904Y-137928571D01*
X70261904Y-138023810D01*
X70738095Y-138119048D01*
X69928571Y-138452381D02*
X69404761Y-137785714D01*
X69928571Y-137785714D02*
X69404761Y-138452381D01*
X69166666Y-137785714D02*
X68785714Y-137785714D01*
X69023809Y-137452381D02*
X69023809Y-138309524D01*
X68976190Y-138404762D01*
X68880952Y-138452381D01*
X68785714Y-138452381D01*
X67690475Y-137785714D02*
X67690475Y-138785714D01*
X67690475Y-137833333D02*
X67595237Y-137785714D01*
X67404760Y-137785714D01*
X67309522Y-137833333D01*
X67261903Y-137880952D01*
X67214284Y-137976190D01*
X67214284Y-138261905D01*
X67261903Y-138357143D01*
X67309522Y-138404762D01*
X67404760Y-138452381D01*
X67595237Y-138452381D01*
X67690475Y-138404762D01*
X66357141Y-138452381D02*
X66357141Y-137928571D01*
X66404760Y-137833333D01*
X66499998Y-137785714D01*
X66690475Y-137785714D01*
X66785713Y-137833333D01*
X66357141Y-138404762D02*
X66452379Y-138452381D01*
X66690475Y-138452381D01*
X66785713Y-138404762D01*
X66833332Y-138309524D01*
X66833332Y-138214286D01*
X66785713Y-138119048D01*
X66690475Y-138071429D01*
X66452379Y-138071429D01*
X66357141Y-138023810D01*
X65452379Y-137785714D02*
X65452379Y-138595238D01*
X65499998Y-138690476D01*
X65547617Y-138738095D01*
X65642856Y-138785714D01*
X65785713Y-138785714D01*
X65880951Y-138738095D01*
X65452379Y-138404762D02*
X65547617Y-138452381D01*
X65738094Y-138452381D01*
X65833332Y-138404762D01*
X65880951Y-138357143D01*
X65928570Y-138261905D01*
X65928570Y-137976190D01*
X65880951Y-137880952D01*
X65833332Y-137833333D01*
X65738094Y-137785714D01*
X65547617Y-137785714D01*
X65452379Y-137833333D01*
X64595236Y-138404762D02*
X64690474Y-138452381D01*
X64880951Y-138452381D01*
X64976189Y-138404762D01*
X65023808Y-138309524D01*
X65023808Y-137928571D01*
X64976189Y-137833333D01*
X64880951Y-137785714D01*
X64690474Y-137785714D01*
X64595236Y-137833333D01*
X64547617Y-137928571D01*
X64547617Y-138023810D01*
X65023808Y-138119048D01*
X62928569Y-138452381D02*
X62928569Y-137928571D01*
X62976188Y-137833333D01*
X63071426Y-137785714D01*
X63261903Y-137785714D01*
X63357141Y-137833333D01*
X62928569Y-138404762D02*
X63023807Y-138452381D01*
X63261903Y-138452381D01*
X63357141Y-138404762D01*
X63404760Y-138309524D01*
X63404760Y-138214286D01*
X63357141Y-138119048D01*
X63261903Y-138071429D01*
X63023807Y-138071429D01*
X62928569Y-138023810D01*
X62595236Y-137785714D02*
X62214284Y-137785714D01*
X62452379Y-137452381D02*
X62452379Y-138309524D01*
X62404760Y-138404762D01*
X62309522Y-138452381D01*
X62214284Y-138452381D01*
X60690473Y-138452381D02*
X60690473Y-137928571D01*
X60738092Y-137833333D01*
X60833330Y-137785714D01*
X61023807Y-137785714D01*
X61119045Y-137833333D01*
X60690473Y-138404762D02*
X60785711Y-138452381D01*
X61023807Y-138452381D01*
X61119045Y-138404762D01*
X61166664Y-138309524D01*
X61166664Y-138214286D01*
X61119045Y-138119048D01*
X61023807Y-138071429D01*
X60785711Y-138071429D01*
X60690473Y-138023810D01*
X60214283Y-138452381D02*
X60214283Y-137452381D01*
X60214283Y-137833333D02*
X60119045Y-137785714D01*
X59928568Y-137785714D01*
X59833330Y-137833333D01*
X59785711Y-137880952D01*
X59738092Y-137976190D01*
X59738092Y-138261905D01*
X59785711Y-138357143D01*
X59833330Y-138404762D01*
X59928568Y-138452381D01*
X60119045Y-138452381D01*
X60214283Y-138404762D01*
X59166664Y-138452381D02*
X59261902Y-138404762D01*
X59309521Y-138357143D01*
X59357140Y-138261905D01*
X59357140Y-137976190D01*
X59309521Y-137880952D01*
X59261902Y-137833333D01*
X59166664Y-137785714D01*
X59023806Y-137785714D01*
X58928568Y-137833333D01*
X58880949Y-137880952D01*
X58833330Y-137976190D01*
X58833330Y-138261905D01*
X58880949Y-138357143D01*
X58928568Y-138404762D01*
X59023806Y-138452381D01*
X59166664Y-138452381D01*
X58499997Y-137785714D02*
X58261902Y-138452381D01*
X58023806Y-137785714D01*
X57261901Y-138404762D02*
X57357139Y-138452381D01*
X57547616Y-138452381D01*
X57642854Y-138404762D01*
X57690473Y-138309524D01*
X57690473Y-137928571D01*
X57642854Y-137833333D01*
X57547616Y-137785714D01*
X57357139Y-137785714D01*
X57261901Y-137833333D01*
X57214282Y-137928571D01*
X57214282Y-138023810D01*
X57690473Y-138119048D01*
X55880949Y-138452381D02*
X55976187Y-138404762D01*
X56023806Y-138309524D01*
X56023806Y-137452381D01*
X55499996Y-138452381D02*
X55499996Y-137785714D01*
X55499996Y-137452381D02*
X55547615Y-137500000D01*
X55499996Y-137547619D01*
X55452377Y-137500000D01*
X55499996Y-137452381D01*
X55499996Y-137547619D01*
X55023806Y-137785714D02*
X55023806Y-138452381D01*
X55023806Y-137880952D02*
X54976187Y-137833333D01*
X54880949Y-137785714D01*
X54738091Y-137785714D01*
X54642853Y-137833333D01*
X54595234Y-137928571D01*
X54595234Y-138452381D01*
X54119044Y-138452381D02*
X54119044Y-137452381D01*
X54023806Y-138071429D02*
X53738091Y-138452381D01*
X53738091Y-137785714D02*
X54119044Y-138166667D01*
X53404758Y-138833333D02*
X53357139Y-138785714D01*
X53261901Y-138642857D01*
X53214282Y-138547619D01*
X53166663Y-138404762D01*
X53119044Y-138166667D01*
X53119044Y-137976190D01*
X53166663Y-137738095D01*
X53214282Y-137595238D01*
X53261901Y-137500000D01*
X53357139Y-137357143D01*
X53404758Y-137309524D01*
X93190479Y-139335714D02*
X93190479Y-140002381D01*
X93428575Y-138954762D02*
X93666670Y-139669048D01*
X93047622Y-139669048D01*
X92666670Y-139907143D02*
X92619051Y-139954762D01*
X92666670Y-140002381D01*
X92714289Y-139954762D01*
X92666670Y-139907143D01*
X92666670Y-140002381D01*
X91428575Y-139002381D02*
X91428575Y-139811905D01*
X91380956Y-139907143D01*
X91333337Y-139954762D01*
X91238099Y-140002381D01*
X91047622Y-140002381D01*
X90952384Y-139954762D01*
X90904765Y-139907143D01*
X90857146Y-139811905D01*
X90857146Y-139002381D01*
X90428575Y-139954762D02*
X90333337Y-140002381D01*
X90142861Y-140002381D01*
X90047622Y-139954762D01*
X90000003Y-139859524D01*
X90000003Y-139811905D01*
X90047622Y-139716667D01*
X90142861Y-139669048D01*
X90285718Y-139669048D01*
X90380956Y-139621429D01*
X90428575Y-139526190D01*
X90428575Y-139478571D01*
X90380956Y-139383333D01*
X90285718Y-139335714D01*
X90142861Y-139335714D01*
X90047622Y-139383333D01*
X89190479Y-139954762D02*
X89285717Y-140002381D01*
X89476194Y-140002381D01*
X89571432Y-139954762D01*
X89619051Y-139859524D01*
X89619051Y-139478571D01*
X89571432Y-139383333D01*
X89476194Y-139335714D01*
X89285717Y-139335714D01*
X89190479Y-139383333D01*
X89142860Y-139478571D01*
X89142860Y-139573810D01*
X89619051Y-139669048D01*
X87952384Y-140002381D02*
X87952384Y-139002381D01*
X87952384Y-139383333D02*
X87857146Y-139335714D01*
X87666669Y-139335714D01*
X87571431Y-139383333D01*
X87523812Y-139430952D01*
X87476193Y-139526190D01*
X87476193Y-139811905D01*
X87523812Y-139907143D01*
X87571431Y-139954762D01*
X87666669Y-140002381D01*
X87857146Y-140002381D01*
X87952384Y-139954762D01*
X86904765Y-140002381D02*
X87000003Y-139954762D01*
X87047622Y-139907143D01*
X87095241Y-139811905D01*
X87095241Y-139526190D01*
X87047622Y-139430952D01*
X87000003Y-139383333D01*
X86904765Y-139335714D01*
X86761907Y-139335714D01*
X86666669Y-139383333D01*
X86619050Y-139430952D01*
X86571431Y-139526190D01*
X86571431Y-139811905D01*
X86619050Y-139907143D01*
X86666669Y-139954762D01*
X86761907Y-140002381D01*
X86904765Y-140002381D01*
X85714288Y-140002381D02*
X85714288Y-139478571D01*
X85761907Y-139383333D01*
X85857145Y-139335714D01*
X86047622Y-139335714D01*
X86142860Y-139383333D01*
X85714288Y-139954762D02*
X85809526Y-140002381D01*
X86047622Y-140002381D01*
X86142860Y-139954762D01*
X86190479Y-139859524D01*
X86190479Y-139764286D01*
X86142860Y-139669048D01*
X86047622Y-139621429D01*
X85809526Y-139621429D01*
X85714288Y-139573810D01*
X85238098Y-140002381D02*
X85238098Y-139335714D01*
X85238098Y-139526190D02*
X85190479Y-139430952D01*
X85142860Y-139383333D01*
X85047622Y-139335714D01*
X84952383Y-139335714D01*
X84190478Y-140002381D02*
X84190478Y-139002381D01*
X84190478Y-139954762D02*
X84285716Y-140002381D01*
X84476193Y-140002381D01*
X84571431Y-139954762D01*
X84619050Y-139907143D01*
X84666669Y-139811905D01*
X84666669Y-139526190D01*
X84619050Y-139430952D01*
X84571431Y-139383333D01*
X84476193Y-139335714D01*
X84285716Y-139335714D01*
X84190478Y-139383333D01*
X83095240Y-139335714D02*
X82714288Y-139335714D01*
X82952383Y-139002381D02*
X82952383Y-139859524D01*
X82904764Y-139954762D01*
X82809526Y-140002381D01*
X82714288Y-140002381D01*
X82476192Y-139335714D02*
X82238097Y-140002381D01*
X82000001Y-139335714D02*
X82238097Y-140002381D01*
X82333335Y-140240476D01*
X82380954Y-140288095D01*
X82476192Y-140335714D01*
X81619049Y-139335714D02*
X81619049Y-140335714D01*
X81619049Y-139383333D02*
X81523811Y-139335714D01*
X81333334Y-139335714D01*
X81238096Y-139383333D01*
X81190477Y-139430952D01*
X81142858Y-139526190D01*
X81142858Y-139811905D01*
X81190477Y-139907143D01*
X81238096Y-139954762D01*
X81333334Y-140002381D01*
X81523811Y-140002381D01*
X81619049Y-139954762D01*
X80333334Y-139954762D02*
X80428572Y-140002381D01*
X80619049Y-140002381D01*
X80714287Y-139954762D01*
X80761906Y-139859524D01*
X80761906Y-139478571D01*
X80714287Y-139383333D01*
X80619049Y-139335714D01*
X80428572Y-139335714D01*
X80333334Y-139383333D01*
X80285715Y-139478571D01*
X80285715Y-139573810D01*
X80761906Y-139669048D01*
X79142858Y-139002381D02*
X79142858Y-139192857D01*
X78761905Y-139002381D02*
X78761905Y-139192857D01*
X78333334Y-140002381D02*
X78333334Y-139002381D01*
X77952381Y-139002381D01*
X77857143Y-139050000D01*
X77809524Y-139097619D01*
X77761905Y-139192857D01*
X77761905Y-139335714D01*
X77809524Y-139430952D01*
X77857143Y-139478571D01*
X77952381Y-139526190D01*
X78333334Y-139526190D01*
X77333334Y-140002381D02*
X77333334Y-139335714D01*
X77333334Y-139526190D02*
X77285715Y-139430952D01*
X77238096Y-139383333D01*
X77142858Y-139335714D01*
X77047619Y-139335714D01*
X76571429Y-140002381D02*
X76666667Y-139954762D01*
X76714286Y-139907143D01*
X76761905Y-139811905D01*
X76761905Y-139526190D01*
X76714286Y-139430952D01*
X76666667Y-139383333D01*
X76571429Y-139335714D01*
X76428571Y-139335714D01*
X76333333Y-139383333D01*
X76285714Y-139430952D01*
X76238095Y-139526190D01*
X76238095Y-139811905D01*
X76285714Y-139907143D01*
X76333333Y-139954762D01*
X76428571Y-140002381D01*
X76571429Y-140002381D01*
X75190476Y-139002381D02*
X74619047Y-139002381D01*
X74904762Y-140002381D02*
X74904762Y-139002381D01*
X74285714Y-140002381D02*
X74285714Y-139335714D01*
X74285714Y-139526190D02*
X74238095Y-139430952D01*
X74190476Y-139383333D01*
X74095238Y-139335714D01*
X73999999Y-139335714D01*
X73666666Y-140002381D02*
X73666666Y-139335714D01*
X73666666Y-139002381D02*
X73714285Y-139050000D01*
X73666666Y-139097619D01*
X73619047Y-139050000D01*
X73666666Y-139002381D01*
X73666666Y-139097619D01*
X73190476Y-139335714D02*
X73190476Y-140002381D01*
X73190476Y-139430952D02*
X73142857Y-139383333D01*
X73047619Y-139335714D01*
X72904761Y-139335714D01*
X72809523Y-139383333D01*
X72761904Y-139478571D01*
X72761904Y-140002381D01*
X72285714Y-140002381D02*
X72285714Y-139002381D01*
X72190476Y-139621429D02*
X71904761Y-140002381D01*
X71904761Y-139335714D02*
X72285714Y-139716667D01*
X71095237Y-139954762D02*
X71190475Y-140002381D01*
X71380952Y-140002381D01*
X71476190Y-139954762D01*
X71523809Y-139859524D01*
X71523809Y-139478571D01*
X71476190Y-139383333D01*
X71380952Y-139335714D01*
X71190475Y-139335714D01*
X71095237Y-139383333D01*
X71047618Y-139478571D01*
X71047618Y-139573810D01*
X71523809Y-139669048D01*
X70761904Y-139335714D02*
X70380952Y-139335714D01*
X70619047Y-139002381D02*
X70619047Y-139859524D01*
X70571428Y-139954762D01*
X70476190Y-140002381D01*
X70380952Y-140002381D01*
X69380951Y-139002381D02*
X68761903Y-139002381D01*
X69095237Y-139383333D01*
X68952379Y-139383333D01*
X68857141Y-139430952D01*
X68809522Y-139478571D01*
X68761903Y-139573810D01*
X68761903Y-139811905D01*
X68809522Y-139907143D01*
X68857141Y-139954762D01*
X68952379Y-140002381D01*
X69238094Y-140002381D01*
X69333332Y-139954762D01*
X69380951Y-139907143D01*
X68476189Y-139002381D02*
X68142856Y-140002381D01*
X67809522Y-139002381D01*
X66761903Y-138954762D02*
X67619046Y-140240476D01*
X65904760Y-140002381D02*
X66476189Y-140002381D01*
X66190475Y-140002381D02*
X66190475Y-139002381D01*
X66285713Y-139145238D01*
X66380951Y-139240476D01*
X66476189Y-139288095D01*
X65523808Y-139097619D02*
X65476189Y-139050000D01*
X65380951Y-139002381D01*
X65142855Y-139002381D01*
X65047617Y-139050000D01*
X64999998Y-139097619D01*
X64952379Y-139192857D01*
X64952379Y-139288095D01*
X64999998Y-139430952D01*
X65571427Y-140002381D01*
X64952379Y-140002381D01*
X63761903Y-140002381D02*
X63761903Y-139002381D01*
X63428569Y-139716667D01*
X63095236Y-139002381D01*
X63095236Y-140002381D01*
X62619046Y-140002381D02*
X62619046Y-139002381D01*
X62619046Y-139478571D02*
X62047617Y-139478571D01*
X62047617Y-140002381D02*
X62047617Y-139002381D01*
X61666665Y-139335714D02*
X61142855Y-139335714D01*
X61666665Y-140002381D01*
X61142855Y-140002381D01*
X59714283Y-140383333D02*
X59761903Y-140335714D01*
X59857141Y-140192857D01*
X59904760Y-140097619D01*
X59952379Y-139954762D01*
X59999998Y-139716667D01*
X59999998Y-139526190D01*
X59952379Y-139288095D01*
X59904760Y-139145238D01*
X59857141Y-139050000D01*
X59761903Y-138907143D01*
X59714283Y-138859524D01*
X59333331Y-139002381D02*
X59333331Y-139811905D01*
X59285712Y-139907143D01*
X59238093Y-139954762D01*
X59142855Y-140002381D01*
X58952378Y-140002381D01*
X58857140Y-139954762D01*
X58809521Y-139907143D01*
X58761902Y-139811905D01*
X58761902Y-139002381D01*
X58333331Y-139954762D02*
X58190474Y-140002381D01*
X57952378Y-140002381D01*
X57857140Y-139954762D01*
X57809521Y-139907143D01*
X57761902Y-139811905D01*
X57761902Y-139716667D01*
X57809521Y-139621429D01*
X57857140Y-139573810D01*
X57952378Y-139526190D01*
X58142855Y-139478571D01*
X58238093Y-139430952D01*
X58285712Y-139383333D01*
X58333331Y-139288095D01*
X58333331Y-139192857D01*
X58285712Y-139097619D01*
X58238093Y-139050000D01*
X58142855Y-139002381D01*
X57904759Y-139002381D01*
X57761902Y-139050000D01*
X56999997Y-139478571D02*
X56857140Y-139526190D01*
X56809521Y-139573810D01*
X56761902Y-139669048D01*
X56761902Y-139811905D01*
X56809521Y-139907143D01*
X56857140Y-139954762D01*
X56952378Y-140002381D01*
X57333331Y-140002381D01*
X57333331Y-139002381D01*
X56999997Y-139002381D01*
X56904759Y-139050000D01*
X56857140Y-139097619D01*
X56809521Y-139192857D01*
X56809521Y-139288095D01*
X56857140Y-139383333D01*
X56904759Y-139430952D01*
X56999997Y-139478571D01*
X57333331Y-139478571D01*
X56428569Y-140383333D02*
X56380950Y-140335714D01*
X56285712Y-140192857D01*
X56238093Y-140097619D01*
X56190474Y-139954762D01*
X56142855Y-139716667D01*
X56142855Y-139526190D01*
X56190474Y-139288095D01*
X56238093Y-139145238D01*
X56285712Y-139050000D01*
X56380950Y-138907143D01*
X56428569Y-138859524D01*
X55714283Y-139002381D02*
X55714283Y-139192857D01*
X55333330Y-139002381D02*
X55333330Y-139192857D01*
X91285717Y-143102381D02*
X91285717Y-142102381D01*
X90952383Y-142816667D01*
X90619050Y-142102381D01*
X90619050Y-143102381D01*
X90000003Y-143102381D02*
X90095241Y-143054762D01*
X90142860Y-143007143D01*
X90190479Y-142911905D01*
X90190479Y-142626190D01*
X90142860Y-142530952D01*
X90095241Y-142483333D01*
X90000003Y-142435714D01*
X89857145Y-142435714D01*
X89761907Y-142483333D01*
X89714288Y-142530952D01*
X89666669Y-142626190D01*
X89666669Y-142911905D01*
X89714288Y-143007143D01*
X89761907Y-143054762D01*
X89857145Y-143102381D01*
X90000003Y-143102381D01*
X89238098Y-143102381D02*
X89238098Y-142435714D01*
X89238098Y-142626190D02*
X89190479Y-142530952D01*
X89142860Y-142483333D01*
X89047622Y-142435714D01*
X88952383Y-142435714D01*
X88238097Y-143054762D02*
X88333335Y-143102381D01*
X88523812Y-143102381D01*
X88619050Y-143054762D01*
X88666669Y-142959524D01*
X88666669Y-142578571D01*
X88619050Y-142483333D01*
X88523812Y-142435714D01*
X88333335Y-142435714D01*
X88238097Y-142483333D01*
X88190478Y-142578571D01*
X88190478Y-142673810D01*
X88666669Y-142769048D01*
X86571430Y-143102381D02*
X86571430Y-142102381D01*
X86571430Y-143054762D02*
X86666668Y-143102381D01*
X86857145Y-143102381D01*
X86952383Y-143054762D01*
X87000002Y-143007143D01*
X87047621Y-142911905D01*
X87047621Y-142626190D01*
X87000002Y-142530952D01*
X86952383Y-142483333D01*
X86857145Y-142435714D01*
X86666668Y-142435714D01*
X86571430Y-142483333D01*
X85714287Y-143054762D02*
X85809525Y-143102381D01*
X86000002Y-143102381D01*
X86095240Y-143054762D01*
X86142859Y-142959524D01*
X86142859Y-142578571D01*
X86095240Y-142483333D01*
X86000002Y-142435714D01*
X85809525Y-142435714D01*
X85714287Y-142483333D01*
X85666668Y-142578571D01*
X85666668Y-142673810D01*
X86142859Y-142769048D01*
X85380954Y-142435714D02*
X85000002Y-142435714D01*
X85238097Y-142102381D02*
X85238097Y-142959524D01*
X85190478Y-143054762D01*
X85095240Y-143102381D01*
X85000002Y-143102381D01*
X84238096Y-143102381D02*
X84238096Y-142578571D01*
X84285715Y-142483333D01*
X84380953Y-142435714D01*
X84571430Y-142435714D01*
X84666668Y-142483333D01*
X84238096Y-143054762D02*
X84333334Y-143102381D01*
X84571430Y-143102381D01*
X84666668Y-143054762D01*
X84714287Y-142959524D01*
X84714287Y-142864286D01*
X84666668Y-142769048D01*
X84571430Y-142721429D01*
X84333334Y-142721429D01*
X84238096Y-142673810D01*
X83761906Y-143102381D02*
X83761906Y-142435714D01*
X83761906Y-142102381D02*
X83809525Y-142150000D01*
X83761906Y-142197619D01*
X83714287Y-142150000D01*
X83761906Y-142102381D01*
X83761906Y-142197619D01*
X83142859Y-143102381D02*
X83238097Y-143054762D01*
X83285716Y-142959524D01*
X83285716Y-142102381D01*
X82809525Y-143054762D02*
X82714287Y-143102381D01*
X82523811Y-143102381D01*
X82428572Y-143054762D01*
X82380953Y-142959524D01*
X82380953Y-142911905D01*
X82428572Y-142816667D01*
X82523811Y-142769048D01*
X82666668Y-142769048D01*
X82761906Y-142721429D01*
X82809525Y-142626190D01*
X82809525Y-142578571D01*
X82761906Y-142483333D01*
X82666668Y-142435714D01*
X82523811Y-142435714D01*
X82428572Y-142483333D01*
X81047620Y-143102381D02*
X81142858Y-143054762D01*
X81190477Y-143007143D01*
X81238096Y-142911905D01*
X81238096Y-142626190D01*
X81190477Y-142530952D01*
X81142858Y-142483333D01*
X81047620Y-142435714D01*
X80904762Y-142435714D01*
X80809524Y-142483333D01*
X80761905Y-142530952D01*
X80714286Y-142626190D01*
X80714286Y-142911905D01*
X80761905Y-143007143D01*
X80809524Y-143054762D01*
X80904762Y-143102381D01*
X81047620Y-143102381D01*
X80285715Y-142435714D02*
X80285715Y-143102381D01*
X80285715Y-142530952D02*
X80238096Y-142483333D01*
X80142858Y-142435714D01*
X80000000Y-142435714D01*
X79904762Y-142483333D01*
X79857143Y-142578571D01*
X79857143Y-143102381D01*
X78761905Y-142435714D02*
X78380953Y-142435714D01*
X78619048Y-142102381D02*
X78619048Y-142959524D01*
X78571429Y-143054762D01*
X78476191Y-143102381D01*
X78380953Y-143102381D01*
X78047619Y-143102381D02*
X78047619Y-142102381D01*
X77619047Y-143102381D02*
X77619047Y-142578571D01*
X77666666Y-142483333D01*
X77761904Y-142435714D01*
X77904762Y-142435714D01*
X78000000Y-142483333D01*
X78047619Y-142530952D01*
X77142857Y-143102381D02*
X77142857Y-142435714D01*
X77142857Y-142102381D02*
X77190476Y-142150000D01*
X77142857Y-142197619D01*
X77095238Y-142150000D01*
X77142857Y-142102381D01*
X77142857Y-142197619D01*
X76714286Y-143054762D02*
X76619048Y-143102381D01*
X76428572Y-143102381D01*
X76333333Y-143054762D01*
X76285714Y-142959524D01*
X76285714Y-142911905D01*
X76333333Y-142816667D01*
X76428572Y-142769048D01*
X76571429Y-142769048D01*
X76666667Y-142721429D01*
X76714286Y-142626190D01*
X76714286Y-142578571D01*
X76666667Y-142483333D01*
X76571429Y-142435714D01*
X76428572Y-142435714D01*
X76333333Y-142483333D01*
X75095238Y-143102381D02*
X75095238Y-142102381D01*
X75095238Y-142483333D02*
X75000000Y-142435714D01*
X74809523Y-142435714D01*
X74714285Y-142483333D01*
X74666666Y-142530952D01*
X74619047Y-142626190D01*
X74619047Y-142911905D01*
X74666666Y-143007143D01*
X74714285Y-143054762D01*
X74809523Y-143102381D01*
X75000000Y-143102381D01*
X75095238Y-143054762D01*
X73761904Y-143102381D02*
X73761904Y-142578571D01*
X73809523Y-142483333D01*
X73904761Y-142435714D01*
X74095238Y-142435714D01*
X74190476Y-142483333D01*
X73761904Y-143054762D02*
X73857142Y-143102381D01*
X74095238Y-143102381D01*
X74190476Y-143054762D01*
X74238095Y-142959524D01*
X74238095Y-142864286D01*
X74190476Y-142769048D01*
X74095238Y-142721429D01*
X73857142Y-142721429D01*
X73761904Y-142673810D01*
X72857142Y-143102381D02*
X72857142Y-142102381D01*
X72857142Y-143054762D02*
X72952380Y-143102381D01*
X73142857Y-143102381D01*
X73238095Y-143054762D01*
X73285714Y-143007143D01*
X73333333Y-142911905D01*
X73333333Y-142626190D01*
X73285714Y-142530952D01*
X73238095Y-142483333D01*
X73142857Y-142435714D01*
X72952380Y-142435714D01*
X72857142Y-142483333D01*
X71952380Y-142435714D02*
X71952380Y-143245238D01*
X71999999Y-143340476D01*
X72047618Y-143388095D01*
X72142857Y-143435714D01*
X72285714Y-143435714D01*
X72380952Y-143388095D01*
X71952380Y-143054762D02*
X72047618Y-143102381D01*
X72238095Y-143102381D01*
X72333333Y-143054762D01*
X72380952Y-143007143D01*
X72428571Y-142911905D01*
X72428571Y-142626190D01*
X72380952Y-142530952D01*
X72333333Y-142483333D01*
X72238095Y-142435714D01*
X72047618Y-142435714D01*
X71952380Y-142483333D01*
X71095237Y-143054762D02*
X71190475Y-143102381D01*
X71380952Y-143102381D01*
X71476190Y-143054762D01*
X71523809Y-142959524D01*
X71523809Y-142578571D01*
X71476190Y-142483333D01*
X71380952Y-142435714D01*
X71190475Y-142435714D01*
X71095237Y-142483333D01*
X71047618Y-142578571D01*
X71047618Y-142673810D01*
X71523809Y-142769048D01*
X69428570Y-143102381D02*
X69428570Y-142578571D01*
X69476189Y-142483333D01*
X69571427Y-142435714D01*
X69761904Y-142435714D01*
X69857142Y-142483333D01*
X69428570Y-143054762D02*
X69523808Y-143102381D01*
X69761904Y-143102381D01*
X69857142Y-143054762D01*
X69904761Y-142959524D01*
X69904761Y-142864286D01*
X69857142Y-142769048D01*
X69761904Y-142721429D01*
X69523808Y-142721429D01*
X69428570Y-142673810D01*
X68952380Y-143102381D02*
X68952380Y-142435714D01*
X68952380Y-142626190D02*
X68904761Y-142530952D01*
X68857142Y-142483333D01*
X68761904Y-142435714D01*
X68666665Y-142435714D01*
X67952379Y-143054762D02*
X68047617Y-143102381D01*
X68238094Y-143102381D01*
X68333332Y-143054762D01*
X68380951Y-142959524D01*
X68380951Y-142578571D01*
X68333332Y-142483333D01*
X68238094Y-142435714D01*
X68047617Y-142435714D01*
X67952379Y-142483333D01*
X67904760Y-142578571D01*
X67904760Y-142673810D01*
X68380951Y-142769048D01*
X66285712Y-143102381D02*
X66285712Y-142578571D01*
X66333331Y-142483333D01*
X66428569Y-142435714D01*
X66619046Y-142435714D01*
X66714284Y-142483333D01*
X66285712Y-143054762D02*
X66380950Y-143102381D01*
X66619046Y-143102381D01*
X66714284Y-143054762D01*
X66761903Y-142959524D01*
X66761903Y-142864286D01*
X66714284Y-142769048D01*
X66619046Y-142721429D01*
X66380950Y-142721429D01*
X66285712Y-142673810D01*
X65904760Y-142435714D02*
X65666665Y-143102381D01*
X65428569Y-142435714D01*
X64619045Y-143102381D02*
X64619045Y-142578571D01*
X64666664Y-142483333D01*
X64761902Y-142435714D01*
X64952379Y-142435714D01*
X65047617Y-142483333D01*
X64619045Y-143054762D02*
X64714283Y-143102381D01*
X64952379Y-143102381D01*
X65047617Y-143054762D01*
X65095236Y-142959524D01*
X65095236Y-142864286D01*
X65047617Y-142769048D01*
X64952379Y-142721429D01*
X64714283Y-142721429D01*
X64619045Y-142673810D01*
X64142855Y-143102381D02*
X64142855Y-142435714D01*
X64142855Y-142102381D02*
X64190474Y-142150000D01*
X64142855Y-142197619D01*
X64095236Y-142150000D01*
X64142855Y-142102381D01*
X64142855Y-142197619D01*
X63523808Y-143102381D02*
X63619046Y-143054762D01*
X63666665Y-142959524D01*
X63666665Y-142102381D01*
X62714283Y-143102381D02*
X62714283Y-142578571D01*
X62761902Y-142483333D01*
X62857140Y-142435714D01*
X63047617Y-142435714D01*
X63142855Y-142483333D01*
X62714283Y-143054762D02*
X62809521Y-143102381D01*
X63047617Y-143102381D01*
X63142855Y-143054762D01*
X63190474Y-142959524D01*
X63190474Y-142864286D01*
X63142855Y-142769048D01*
X63047617Y-142721429D01*
X62809521Y-142721429D01*
X62714283Y-142673810D01*
X62238093Y-143102381D02*
X62238093Y-142102381D01*
X62238093Y-142483333D02*
X62142855Y-142435714D01*
X61952378Y-142435714D01*
X61857140Y-142483333D01*
X61809521Y-142530952D01*
X61761902Y-142626190D01*
X61761902Y-142911905D01*
X61809521Y-143007143D01*
X61857140Y-143054762D01*
X61952378Y-143102381D01*
X62142855Y-143102381D01*
X62238093Y-143054762D01*
X61190474Y-143102381D02*
X61285712Y-143054762D01*
X61333331Y-142959524D01*
X61333331Y-142102381D01*
X60428568Y-143054762D02*
X60523806Y-143102381D01*
X60714283Y-143102381D01*
X60809521Y-143054762D01*
X60857140Y-142959524D01*
X60857140Y-142578571D01*
X60809521Y-142483333D01*
X60714283Y-142435714D01*
X60523806Y-142435714D01*
X60428568Y-142483333D01*
X60380949Y-142578571D01*
X60380949Y-142673810D01*
X60857140Y-142769048D01*
X58761901Y-143102381D02*
X58761901Y-142578571D01*
X58809520Y-142483333D01*
X58904758Y-142435714D01*
X59095235Y-142435714D01*
X59190473Y-142483333D01*
X58761901Y-143054762D02*
X58857139Y-143102381D01*
X59095235Y-143102381D01*
X59190473Y-143054762D01*
X59238092Y-142959524D01*
X59238092Y-142864286D01*
X59190473Y-142769048D01*
X59095235Y-142721429D01*
X58857139Y-142721429D01*
X58761901Y-142673810D01*
X58428568Y-142435714D02*
X58047616Y-142435714D01*
X58285711Y-142102381D02*
X58285711Y-142959524D01*
X58238092Y-143054762D01*
X58142854Y-143102381D01*
X58047616Y-143102381D01*
X57714282Y-143007143D02*
X57666663Y-143054762D01*
X57714282Y-143102381D01*
X57761901Y-143054762D01*
X57714282Y-143007143D01*
X57714282Y-143102381D01*
X57714282Y-142483333D02*
X57666663Y-142530952D01*
X57714282Y-142578571D01*
X57761901Y-142530952D01*
X57714282Y-142483333D01*
X57714282Y-142578571D01*
X95119049Y-144652381D02*
X95119049Y-143652381D01*
X94690477Y-144652381D02*
X94690477Y-144128571D01*
X94738096Y-144033333D01*
X94833334Y-143985714D01*
X94976192Y-143985714D01*
X95071430Y-144033333D01*
X95119049Y-144080952D01*
X94357144Y-143985714D02*
X93976192Y-143985714D01*
X94214287Y-143652381D02*
X94214287Y-144509524D01*
X94166668Y-144604762D01*
X94071430Y-144652381D01*
X93976192Y-144652381D01*
X93785715Y-143985714D02*
X93404763Y-143985714D01*
X93642858Y-143652381D02*
X93642858Y-144509524D01*
X93595239Y-144604762D01*
X93500001Y-144652381D01*
X93404763Y-144652381D01*
X93071429Y-143985714D02*
X93071429Y-144985714D01*
X93071429Y-144033333D02*
X92976191Y-143985714D01*
X92785714Y-143985714D01*
X92690476Y-144033333D01*
X92642857Y-144080952D01*
X92595238Y-144176190D01*
X92595238Y-144461905D01*
X92642857Y-144557143D01*
X92690476Y-144604762D01*
X92785714Y-144652381D01*
X92976191Y-144652381D01*
X93071429Y-144604762D01*
X92214286Y-144604762D02*
X92119048Y-144652381D01*
X91928572Y-144652381D01*
X91833333Y-144604762D01*
X91785714Y-144509524D01*
X91785714Y-144461905D01*
X91833333Y-144366667D01*
X91928572Y-144319048D01*
X92071429Y-144319048D01*
X92166667Y-144271429D01*
X92214286Y-144176190D01*
X92214286Y-144128571D01*
X92166667Y-144033333D01*
X92071429Y-143985714D01*
X91928572Y-143985714D01*
X91833333Y-144033333D01*
X91357143Y-144557143D02*
X91309524Y-144604762D01*
X91357143Y-144652381D01*
X91404762Y-144604762D01*
X91357143Y-144557143D01*
X91357143Y-144652381D01*
X91357143Y-144033333D02*
X91309524Y-144080952D01*
X91357143Y-144128571D01*
X91404762Y-144080952D01*
X91357143Y-144033333D01*
X91357143Y-144128571D01*
X90166667Y-143604762D02*
X91023810Y-144890476D01*
X89119048Y-143604762D02*
X89976191Y-144890476D01*
X88357143Y-143985714D02*
X88357143Y-144795238D01*
X88404762Y-144890476D01*
X88452381Y-144938095D01*
X88547620Y-144985714D01*
X88690477Y-144985714D01*
X88785715Y-144938095D01*
X88357143Y-144604762D02*
X88452381Y-144652381D01*
X88642858Y-144652381D01*
X88738096Y-144604762D01*
X88785715Y-144557143D01*
X88833334Y-144461905D01*
X88833334Y-144176190D01*
X88785715Y-144080952D01*
X88738096Y-144033333D01*
X88642858Y-143985714D01*
X88452381Y-143985714D01*
X88357143Y-144033333D01*
X87880953Y-144652381D02*
X87880953Y-143985714D01*
X87880953Y-143652381D02*
X87928572Y-143700000D01*
X87880953Y-143747619D01*
X87833334Y-143700000D01*
X87880953Y-143652381D01*
X87880953Y-143747619D01*
X87547620Y-143985714D02*
X87166668Y-143985714D01*
X87404763Y-143652381D02*
X87404763Y-144509524D01*
X87357144Y-144604762D01*
X87261906Y-144652381D01*
X87166668Y-144652381D01*
X86833334Y-144652381D02*
X86833334Y-143652381D01*
X86404762Y-144652381D02*
X86404762Y-144128571D01*
X86452381Y-144033333D01*
X86547619Y-143985714D01*
X86690477Y-143985714D01*
X86785715Y-144033333D01*
X86833334Y-144080952D01*
X85500000Y-143985714D02*
X85500000Y-144652381D01*
X85928572Y-143985714D02*
X85928572Y-144509524D01*
X85880953Y-144604762D01*
X85785715Y-144652381D01*
X85642857Y-144652381D01*
X85547619Y-144604762D01*
X85500000Y-144557143D01*
X85023810Y-144652381D02*
X85023810Y-143652381D01*
X85023810Y-144033333D02*
X84928572Y-143985714D01*
X84738095Y-143985714D01*
X84642857Y-144033333D01*
X84595238Y-144080952D01*
X84547619Y-144176190D01*
X84547619Y-144461905D01*
X84595238Y-144557143D01*
X84642857Y-144604762D01*
X84738095Y-144652381D01*
X84928572Y-144652381D01*
X85023810Y-144604762D01*
X84119048Y-144557143D02*
X84071429Y-144604762D01*
X84119048Y-144652381D01*
X84166667Y-144604762D01*
X84119048Y-144557143D01*
X84119048Y-144652381D01*
X83214286Y-144604762D02*
X83309524Y-144652381D01*
X83500001Y-144652381D01*
X83595239Y-144604762D01*
X83642858Y-144557143D01*
X83690477Y-144461905D01*
X83690477Y-144176190D01*
X83642858Y-144080952D01*
X83595239Y-144033333D01*
X83500001Y-143985714D01*
X83309524Y-143985714D01*
X83214286Y-144033333D01*
X82642858Y-144652381D02*
X82738096Y-144604762D01*
X82785715Y-144557143D01*
X82833334Y-144461905D01*
X82833334Y-144176190D01*
X82785715Y-144080952D01*
X82738096Y-144033333D01*
X82642858Y-143985714D01*
X82500000Y-143985714D01*
X82404762Y-144033333D01*
X82357143Y-144080952D01*
X82309524Y-144176190D01*
X82309524Y-144461905D01*
X82357143Y-144557143D01*
X82404762Y-144604762D01*
X82500000Y-144652381D01*
X82642858Y-144652381D01*
X81880953Y-144652381D02*
X81880953Y-143985714D01*
X81880953Y-144080952D02*
X81833334Y-144033333D01*
X81738096Y-143985714D01*
X81595238Y-143985714D01*
X81500000Y-144033333D01*
X81452381Y-144128571D01*
X81452381Y-144652381D01*
X81452381Y-144128571D02*
X81404762Y-144033333D01*
X81309524Y-143985714D01*
X81166667Y-143985714D01*
X81071429Y-144033333D01*
X81023810Y-144128571D01*
X81023810Y-144652381D01*
X79833334Y-143604762D02*
X80690477Y-144890476D01*
X79500001Y-144652381D02*
X79500001Y-143985714D01*
X79500001Y-144176190D02*
X79452382Y-144080952D01*
X79404763Y-144033333D01*
X79309525Y-143985714D01*
X79214286Y-143985714D01*
X78452381Y-143985714D02*
X78452381Y-144795238D01*
X78500000Y-144890476D01*
X78547619Y-144938095D01*
X78642858Y-144985714D01*
X78785715Y-144985714D01*
X78880953Y-144938095D01*
X78452381Y-144604762D02*
X78547619Y-144652381D01*
X78738096Y-144652381D01*
X78833334Y-144604762D01*
X78880953Y-144557143D01*
X78928572Y-144461905D01*
X78928572Y-144176190D01*
X78880953Y-144080952D01*
X78833334Y-144033333D01*
X78738096Y-143985714D01*
X78547619Y-143985714D01*
X78452381Y-144033333D01*
X77833334Y-144652381D02*
X77928572Y-144604762D01*
X77976191Y-144509524D01*
X77976191Y-143652381D01*
X77071428Y-144604762D02*
X77166666Y-144652381D01*
X77357143Y-144652381D01*
X77452381Y-144604762D01*
X77500000Y-144509524D01*
X77500000Y-144128571D01*
X77452381Y-144033333D01*
X77357143Y-143985714D01*
X77166666Y-143985714D01*
X77071428Y-144033333D01*
X77023809Y-144128571D01*
X77023809Y-144223810D01*
X77500000Y-144319048D01*
X76595238Y-143985714D02*
X76595238Y-144652381D01*
X76595238Y-144080952D02*
X76547619Y-144033333D01*
X76452381Y-143985714D01*
X76309523Y-143985714D01*
X76214285Y-144033333D01*
X76166666Y-144128571D01*
X76166666Y-144652381D01*
X75690476Y-143985714D02*
X75690476Y-144652381D01*
X75690476Y-144080952D02*
X75642857Y-144033333D01*
X75547619Y-143985714D01*
X75404761Y-143985714D01*
X75309523Y-144033333D01*
X75261904Y-144128571D01*
X75261904Y-144652381D01*
X74071428Y-143604762D02*
X74928571Y-144890476D01*
X73595238Y-144652381D02*
X73690476Y-144604762D01*
X73738095Y-144557143D01*
X73785714Y-144461905D01*
X73785714Y-144176190D01*
X73738095Y-144080952D01*
X73690476Y-144033333D01*
X73595238Y-143985714D01*
X73452380Y-143985714D01*
X73357142Y-144033333D01*
X73309523Y-144080952D01*
X73261904Y-144176190D01*
X73261904Y-144461905D01*
X73309523Y-144557143D01*
X73357142Y-144604762D01*
X73452380Y-144652381D01*
X73595238Y-144652381D01*
X72976190Y-143985714D02*
X72595238Y-143985714D01*
X72833333Y-143652381D02*
X72833333Y-144509524D01*
X72785714Y-144604762D01*
X72690476Y-144652381D01*
X72595238Y-144652381D01*
X72404761Y-143985714D02*
X72023809Y-143985714D01*
X72261904Y-143652381D02*
X72261904Y-144509524D01*
X72214285Y-144604762D01*
X72119047Y-144652381D01*
X72023809Y-144652381D01*
X71261903Y-144652381D02*
X71261903Y-144128571D01*
X71309522Y-144033333D01*
X71404760Y-143985714D01*
X71595237Y-143985714D01*
X71690475Y-144033333D01*
X71261903Y-144604762D02*
X71357141Y-144652381D01*
X71595237Y-144652381D01*
X71690475Y-144604762D01*
X71738094Y-144509524D01*
X71738094Y-144414286D01*
X71690475Y-144319048D01*
X71595237Y-144271429D01*
X71357141Y-144271429D01*
X71261903Y-144223810D01*
X70880951Y-143985714D02*
X70690475Y-144652381D01*
X70499998Y-144176190D01*
X70309522Y-144652381D01*
X70119046Y-143985714D01*
X69309522Y-144652381D02*
X69309522Y-144128571D01*
X69357141Y-144033333D01*
X69452379Y-143985714D01*
X69642856Y-143985714D01*
X69738094Y-144033333D01*
X69309522Y-144604762D02*
X69404760Y-144652381D01*
X69642856Y-144652381D01*
X69738094Y-144604762D01*
X69785713Y-144509524D01*
X69785713Y-144414286D01*
X69738094Y-144319048D01*
X69642856Y-144271429D01*
X69404760Y-144271429D01*
X69309522Y-144223810D01*
X68833332Y-144271429D02*
X68071427Y-144271429D01*
X67595237Y-144652381D02*
X67595237Y-143652381D01*
X67595237Y-144033333D02*
X67499999Y-143985714D01*
X67309522Y-143985714D01*
X67214284Y-144033333D01*
X67166665Y-144080952D01*
X67119046Y-144176190D01*
X67119046Y-144461905D01*
X67166665Y-144557143D01*
X67214284Y-144604762D01*
X67309522Y-144652381D01*
X67499999Y-144652381D01*
X67595237Y-144604762D01*
X66261903Y-144652381D02*
X66261903Y-144128571D01*
X66309522Y-144033333D01*
X66404760Y-143985714D01*
X66595237Y-143985714D01*
X66690475Y-144033333D01*
X66261903Y-144604762D02*
X66357141Y-144652381D01*
X66595237Y-144652381D01*
X66690475Y-144604762D01*
X66738094Y-144509524D01*
X66738094Y-144414286D01*
X66690475Y-144319048D01*
X66595237Y-144271429D01*
X66357141Y-144271429D01*
X66261903Y-144223810D01*
X65357141Y-144652381D02*
X65357141Y-143652381D01*
X65357141Y-144604762D02*
X65452379Y-144652381D01*
X65642856Y-144652381D01*
X65738094Y-144604762D01*
X65785713Y-144557143D01*
X65833332Y-144461905D01*
X65833332Y-144176190D01*
X65785713Y-144080952D01*
X65738094Y-144033333D01*
X65642856Y-143985714D01*
X65452379Y-143985714D01*
X65357141Y-144033333D01*
X64452379Y-143985714D02*
X64452379Y-144795238D01*
X64499998Y-144890476D01*
X64547617Y-144938095D01*
X64642856Y-144985714D01*
X64785713Y-144985714D01*
X64880951Y-144938095D01*
X64452379Y-144604762D02*
X64547617Y-144652381D01*
X64738094Y-144652381D01*
X64833332Y-144604762D01*
X64880951Y-144557143D01*
X64928570Y-144461905D01*
X64928570Y-144176190D01*
X64880951Y-144080952D01*
X64833332Y-144033333D01*
X64738094Y-143985714D01*
X64547617Y-143985714D01*
X64452379Y-144033333D01*
X63595236Y-144604762D02*
X63690474Y-144652381D01*
X63880951Y-144652381D01*
X63976189Y-144604762D01*
X64023808Y-144509524D01*
X64023808Y-144128571D01*
X63976189Y-144033333D01*
X63880951Y-143985714D01*
X63690474Y-143985714D01*
X63595236Y-144033333D01*
X63547617Y-144128571D01*
X63547617Y-144223810D01*
X64023808Y-144319048D01*
X63166665Y-144604762D02*
X63071427Y-144652381D01*
X62880951Y-144652381D01*
X62785712Y-144604762D01*
X62738093Y-144509524D01*
X62738093Y-144461905D01*
X62785712Y-144366667D01*
X62880951Y-144319048D01*
X63023808Y-144319048D01*
X63119046Y-144271429D01*
X63166665Y-144176190D01*
X63166665Y-144128571D01*
X63119046Y-144033333D01*
X63023808Y-143985714D01*
X62880951Y-143985714D01*
X62785712Y-144033333D01*
X62309522Y-144271429D02*
X61547617Y-144271429D01*
X61119046Y-143747619D02*
X61071427Y-143700000D01*
X60976189Y-143652381D01*
X60738093Y-143652381D01*
X60642855Y-143700000D01*
X60595236Y-143747619D01*
X60547617Y-143842857D01*
X60547617Y-143938095D01*
X60595236Y-144080952D01*
X61166665Y-144652381D01*
X60547617Y-144652381D01*
X59928570Y-143652381D02*
X59833331Y-143652381D01*
X59738093Y-143700000D01*
X59690474Y-143747619D01*
X59642855Y-143842857D01*
X59595236Y-144033333D01*
X59595236Y-144271429D01*
X59642855Y-144461905D01*
X59690474Y-144557143D01*
X59738093Y-144604762D01*
X59833331Y-144652381D01*
X59928570Y-144652381D01*
X60023808Y-144604762D01*
X60071427Y-144557143D01*
X60119046Y-144461905D01*
X60166665Y-144271429D01*
X60166665Y-144033333D01*
X60119046Y-143842857D01*
X60071427Y-143747619D01*
X60023808Y-143700000D01*
X59928570Y-143652381D01*
X58642855Y-144652381D02*
X59214284Y-144652381D01*
X58928570Y-144652381D02*
X58928570Y-143652381D01*
X59023808Y-143795238D01*
X59119046Y-143890476D01*
X59214284Y-143938095D01*
X57785712Y-143652381D02*
X57976189Y-143652381D01*
X58071427Y-143700000D01*
X58119046Y-143747619D01*
X58214284Y-143890476D01*
X58261903Y-144080952D01*
X58261903Y-144461905D01*
X58214284Y-144557143D01*
X58166665Y-144604762D01*
X58071427Y-144652381D01*
X57880950Y-144652381D01*
X57785712Y-144604762D01*
X57738093Y-144557143D01*
X57690474Y-144461905D01*
X57690474Y-144223810D01*
X57738093Y-144128571D01*
X57785712Y-144080952D01*
X57880950Y-144033333D01*
X58071427Y-144033333D01*
X58166665Y-144080952D01*
X58214284Y-144128571D01*
X58261903Y-144223810D01*
X56547617Y-143604762D02*
X57404760Y-144890476D01*
X56309522Y-143985714D02*
X56119046Y-144652381D01*
X55928569Y-144176190D01*
X55738093Y-144652381D01*
X55547617Y-143985714D01*
X55166665Y-144652381D02*
X55166665Y-143985714D01*
X55166665Y-143652381D02*
X55214284Y-143700000D01*
X55166665Y-143747619D01*
X55119046Y-143700000D01*
X55166665Y-143652381D01*
X55166665Y-143747619D01*
X54690475Y-144652381D02*
X54690475Y-143652381D01*
X54595237Y-144271429D02*
X54309522Y-144652381D01*
X54309522Y-143985714D02*
X54690475Y-144366667D01*
X53880951Y-144652381D02*
X53880951Y-143985714D01*
X53880951Y-143652381D02*
X53928570Y-143700000D01*
X53880951Y-143747619D01*
X53833332Y-143700000D01*
X53880951Y-143652381D01*
X53880951Y-143747619D01*
X75261904Y-59500000D02*
X75357142Y-59452381D01*
X75499999Y-59452381D01*
X75642857Y-59500000D01*
X75738095Y-59595238D01*
X75785714Y-59690476D01*
X75833333Y-59880952D01*
X75833333Y-60023810D01*
X75785714Y-60214286D01*
X75738095Y-60309524D01*
X75642857Y-60404762D01*
X75499999Y-60452381D01*
X75404761Y-60452381D01*
X75261904Y-60404762D01*
X75214285Y-60357143D01*
X75214285Y-60023810D01*
X75404761Y-60023810D01*
X74785714Y-60452381D02*
X74785714Y-59452381D01*
X74214285Y-60452381D01*
X74214285Y-59452381D01*
X73738095Y-60452381D02*
X73738095Y-59452381D01*
X73500000Y-59452381D01*
X73357142Y-59500000D01*
X73261904Y-59595238D01*
X73214285Y-59690476D01*
X73166666Y-59880952D01*
X73166666Y-60023810D01*
X73214285Y-60214286D01*
X73261904Y-60309524D01*
X73357142Y-60404762D01*
X73500000Y-60452381D01*
X73738095Y-60452381D01*
X97428571Y-116702381D02*
X97428571Y-115702381D01*
X97190476Y-115702381D01*
X97047618Y-115750000D01*
X96952380Y-115845238D01*
X96904761Y-115940476D01*
X96857142Y-116130952D01*
X96857142Y-116273810D01*
X96904761Y-116464286D01*
X96952380Y-116559524D01*
X97047618Y-116654762D01*
X97190476Y-116702381D01*
X97428571Y-116702381D01*
X96428571Y-116702381D02*
X96428571Y-115702381D01*
X95428571Y-115750000D02*
X95523809Y-115702381D01*
X95666666Y-115702381D01*
X95809524Y-115750000D01*
X95904762Y-115845238D01*
X95952381Y-115940476D01*
X96000000Y-116130952D01*
X96000000Y-116273810D01*
X95952381Y-116464286D01*
X95904762Y-116559524D01*
X95809524Y-116654762D01*
X95666666Y-116702381D01*
X95571428Y-116702381D01*
X95428571Y-116654762D01*
X95380952Y-116607143D01*
X95380952Y-116273810D01*
X95571428Y-116273810D01*
X94952381Y-116702381D02*
X94952381Y-115702381D01*
X94619048Y-115702381D02*
X94047619Y-115702381D01*
X94333334Y-116702381D02*
X94333334Y-115702381D01*
X93761905Y-116416667D02*
X93285714Y-116416667D01*
X93857143Y-116702381D02*
X93523810Y-115702381D01*
X93190476Y-116702381D01*
X92380952Y-116702381D02*
X92857143Y-116702381D01*
X92857143Y-115702381D01*
X91857143Y-115702381D02*
X91761904Y-115702381D01*
X91666666Y-115750000D01*
X91619047Y-115797619D01*
X91571428Y-115892857D01*
X91523809Y-116083333D01*
X91523809Y-116321429D01*
X91571428Y-116511905D01*
X91619047Y-116607143D01*
X91666666Y-116654762D01*
X91761904Y-116702381D01*
X91857143Y-116702381D01*
X91952381Y-116654762D01*
X92000000Y-116607143D01*
X92047619Y-116511905D01*
X92095238Y-116321429D01*
X92095238Y-116083333D01*
X92047619Y-115892857D01*
X92000000Y-115797619D01*
X91952381Y-115750000D01*
X91857143Y-115702381D01*
X57428571Y-116702381D02*
X57428571Y-115702381D01*
X57190476Y-115702381D01*
X57047618Y-115750000D01*
X56952380Y-115845238D01*
X56904761Y-115940476D01*
X56857142Y-116130952D01*
X56857142Y-116273810D01*
X56904761Y-116464286D01*
X56952380Y-116559524D01*
X57047618Y-116654762D01*
X57190476Y-116702381D01*
X57428571Y-116702381D01*
X56428571Y-116702381D02*
X56428571Y-115702381D01*
X55428571Y-115750000D02*
X55523809Y-115702381D01*
X55666666Y-115702381D01*
X55809524Y-115750000D01*
X55904762Y-115845238D01*
X55952381Y-115940476D01*
X56000000Y-116130952D01*
X56000000Y-116273810D01*
X55952381Y-116464286D01*
X55904762Y-116559524D01*
X55809524Y-116654762D01*
X55666666Y-116702381D01*
X55571428Y-116702381D01*
X55428571Y-116654762D01*
X55380952Y-116607143D01*
X55380952Y-116273810D01*
X55571428Y-116273810D01*
X54952381Y-116702381D02*
X54952381Y-115702381D01*
X54619048Y-115702381D02*
X54047619Y-115702381D01*
X54333334Y-116702381D02*
X54333334Y-115702381D01*
X53761905Y-116416667D02*
X53285714Y-116416667D01*
X53857143Y-116702381D02*
X53523810Y-115702381D01*
X53190476Y-116702381D01*
X52380952Y-116702381D02*
X52857143Y-116702381D01*
X52857143Y-115702381D01*
X51523809Y-116702381D02*
X52095238Y-116702381D01*
X51809524Y-116702381D02*
X51809524Y-115702381D01*
X51904762Y-115845238D01*
X52000000Y-115940476D01*
X52095238Y-115988095D01*
X88642859Y-66257143D02*
X88690478Y-66304762D01*
X88833335Y-66352381D01*
X88928573Y-66352381D01*
X89071431Y-66304762D01*
X89166669Y-66209524D01*
X89214288Y-66114286D01*
X89261907Y-65923810D01*
X89261907Y-65780952D01*
X89214288Y-65590476D01*
X89166669Y-65495238D01*
X89071431Y-65400000D01*
X88928573Y-65352381D01*
X88833335Y-65352381D01*
X88690478Y-65400000D01*
X88642859Y-65447619D01*
X87785716Y-65685714D02*
X87785716Y-66352381D01*
X88214288Y-65685714D02*
X88214288Y-66209524D01*
X88166669Y-66304762D01*
X88071431Y-66352381D01*
X87928573Y-66352381D01*
X87833335Y-66304762D01*
X87785716Y-66257143D01*
X87452383Y-65685714D02*
X87071431Y-65685714D01*
X87309526Y-65352381D02*
X87309526Y-66209524D01*
X87261907Y-66304762D01*
X87166669Y-66352381D01*
X87071431Y-66352381D01*
X85690477Y-65352381D02*
X85690477Y-66066667D01*
X85738097Y-66209524D01*
X85833335Y-66304762D01*
X85976192Y-66352381D01*
X86071430Y-66352381D01*
X85214287Y-66352381D02*
X85214287Y-65352381D01*
X84833334Y-65352381D01*
X84738096Y-65400000D01*
X84690477Y-65447619D01*
X84642858Y-65542857D01*
X84642858Y-65685714D01*
X84690477Y-65780952D01*
X84738096Y-65828571D01*
X84833334Y-65876190D01*
X85214287Y-65876190D01*
X83690477Y-66352381D02*
X84261906Y-66352381D01*
X83976192Y-66352381D02*
X83976192Y-65352381D01*
X84071430Y-65495238D01*
X84166668Y-65590476D01*
X84261906Y-65638095D01*
X83261906Y-65971429D02*
X82500001Y-65971429D01*
X81738096Y-65352381D02*
X81738096Y-66066667D01*
X81785716Y-66209524D01*
X81880954Y-66304762D01*
X82023811Y-66352381D01*
X82119049Y-66352381D01*
X81261906Y-66352381D02*
X81261906Y-65352381D01*
X80880953Y-65352381D01*
X80785715Y-65400000D01*
X80738096Y-65447619D01*
X80690477Y-65542857D01*
X80690477Y-65685714D01*
X80738096Y-65780952D01*
X80785715Y-65828571D01*
X80880953Y-65876190D01*
X81261906Y-65876190D01*
X80357144Y-65352381D02*
X79690477Y-65352381D01*
X80119049Y-66352381D01*
X78690477Y-65685714D02*
X78309525Y-65685714D01*
X78547620Y-65352381D02*
X78547620Y-66209524D01*
X78500001Y-66304762D01*
X78404763Y-66352381D01*
X78309525Y-66352381D01*
X77833334Y-66352381D02*
X77928572Y-66304762D01*
X77976191Y-66257143D01*
X78023810Y-66161905D01*
X78023810Y-65876190D01*
X77976191Y-65780952D01*
X77928572Y-65733333D01*
X77833334Y-65685714D01*
X77690476Y-65685714D01*
X77595238Y-65733333D01*
X77547619Y-65780952D01*
X77500000Y-65876190D01*
X77500000Y-66161905D01*
X77547619Y-66257143D01*
X77595238Y-66304762D01*
X77690476Y-66352381D01*
X77833334Y-66352381D01*
X75880952Y-66352381D02*
X75880952Y-65352381D01*
X75880952Y-66304762D02*
X75976190Y-66352381D01*
X76166667Y-66352381D01*
X76261905Y-66304762D01*
X76309524Y-66257143D01*
X76357143Y-66161905D01*
X76357143Y-65876190D01*
X76309524Y-65780952D01*
X76261905Y-65733333D01*
X76166667Y-65685714D01*
X75976190Y-65685714D01*
X75880952Y-65733333D01*
X75404762Y-66352381D02*
X75404762Y-65685714D01*
X75404762Y-65352381D02*
X75452381Y-65400000D01*
X75404762Y-65447619D01*
X75357143Y-65400000D01*
X75404762Y-65352381D01*
X75404762Y-65447619D01*
X74976191Y-66304762D02*
X74880953Y-66352381D01*
X74690477Y-66352381D01*
X74595238Y-66304762D01*
X74547619Y-66209524D01*
X74547619Y-66161905D01*
X74595238Y-66066667D01*
X74690477Y-66019048D01*
X74833334Y-66019048D01*
X74928572Y-65971429D01*
X74976191Y-65876190D01*
X74976191Y-65828571D01*
X74928572Y-65733333D01*
X74833334Y-65685714D01*
X74690477Y-65685714D01*
X74595238Y-65733333D01*
X73690476Y-66304762D02*
X73785714Y-66352381D01*
X73976191Y-66352381D01*
X74071429Y-66304762D01*
X74119048Y-66257143D01*
X74166667Y-66161905D01*
X74166667Y-65876190D01*
X74119048Y-65780952D01*
X74071429Y-65733333D01*
X73976191Y-65685714D01*
X73785714Y-65685714D01*
X73690476Y-65733333D01*
X73119048Y-66352381D02*
X73214286Y-66304762D01*
X73261905Y-66257143D01*
X73309524Y-66161905D01*
X73309524Y-65876190D01*
X73261905Y-65780952D01*
X73214286Y-65733333D01*
X73119048Y-65685714D01*
X72976190Y-65685714D01*
X72880952Y-65733333D01*
X72833333Y-65780952D01*
X72785714Y-65876190D01*
X72785714Y-66161905D01*
X72833333Y-66257143D01*
X72880952Y-66304762D01*
X72976190Y-66352381D01*
X73119048Y-66352381D01*
X72357143Y-65685714D02*
X72357143Y-66352381D01*
X72357143Y-65780952D02*
X72309524Y-65733333D01*
X72214286Y-65685714D01*
X72071428Y-65685714D01*
X71976190Y-65733333D01*
X71928571Y-65828571D01*
X71928571Y-66352381D01*
X71452381Y-65685714D02*
X71452381Y-66352381D01*
X71452381Y-65780952D02*
X71404762Y-65733333D01*
X71309524Y-65685714D01*
X71166666Y-65685714D01*
X71071428Y-65733333D01*
X71023809Y-65828571D01*
X71023809Y-66352381D01*
X70166666Y-66304762D02*
X70261904Y-66352381D01*
X70452381Y-66352381D01*
X70547619Y-66304762D01*
X70595238Y-66209524D01*
X70595238Y-65828571D01*
X70547619Y-65733333D01*
X70452381Y-65685714D01*
X70261904Y-65685714D01*
X70166666Y-65733333D01*
X70119047Y-65828571D01*
X70119047Y-65923810D01*
X70595238Y-66019048D01*
X69261904Y-66304762D02*
X69357142Y-66352381D01*
X69547619Y-66352381D01*
X69642857Y-66304762D01*
X69690476Y-66257143D01*
X69738095Y-66161905D01*
X69738095Y-65876190D01*
X69690476Y-65780952D01*
X69642857Y-65733333D01*
X69547619Y-65685714D01*
X69357142Y-65685714D01*
X69261904Y-65733333D01*
X68976190Y-65685714D02*
X68595238Y-65685714D01*
X68833333Y-65352381D02*
X68833333Y-66209524D01*
X68785714Y-66304762D01*
X68690476Y-66352381D01*
X68595238Y-66352381D01*
X67023808Y-66352381D02*
X67499999Y-66352381D01*
X67499999Y-65352381D01*
X66690475Y-65828571D02*
X66357141Y-65828571D01*
X66214284Y-66352381D02*
X66690475Y-66352381D01*
X66690475Y-65352381D01*
X66214284Y-65352381D01*
X65785713Y-66352381D02*
X65785713Y-65352381D01*
X65547618Y-65352381D01*
X65404760Y-65400000D01*
X65309522Y-65495238D01*
X65261903Y-65590476D01*
X65214284Y-65780952D01*
X65214284Y-65923810D01*
X65261903Y-66114286D01*
X65309522Y-66209524D01*
X65404760Y-66304762D01*
X65547618Y-66352381D01*
X65785713Y-66352381D01*
X64023808Y-66352381D02*
X64023808Y-65685714D01*
X64023808Y-65780952D02*
X63976189Y-65733333D01*
X63880951Y-65685714D01*
X63738093Y-65685714D01*
X63642855Y-65733333D01*
X63595236Y-65828571D01*
X63595236Y-66352381D01*
X63595236Y-65828571D02*
X63547617Y-65733333D01*
X63452379Y-65685714D01*
X63309522Y-65685714D01*
X63214284Y-65733333D01*
X63166665Y-65828571D01*
X63166665Y-66352381D01*
X62261903Y-66352381D02*
X62261903Y-65828571D01*
X62309522Y-65733333D01*
X62404760Y-65685714D01*
X62595237Y-65685714D01*
X62690475Y-65733333D01*
X62261903Y-66304762D02*
X62357141Y-66352381D01*
X62595237Y-66352381D01*
X62690475Y-66304762D01*
X62738094Y-66209524D01*
X62738094Y-66114286D01*
X62690475Y-66019048D01*
X62595237Y-65971429D01*
X62357141Y-65971429D01*
X62261903Y-65923810D01*
X61928570Y-65685714D02*
X61547618Y-65685714D01*
X61785713Y-65352381D02*
X61785713Y-66209524D01*
X61738094Y-66304762D01*
X61642856Y-66352381D01*
X61547618Y-66352381D01*
X61214284Y-66352381D02*
X61214284Y-65685714D01*
X61214284Y-65876190D02*
X61166665Y-65780952D01*
X61119046Y-65733333D01*
X61023808Y-65685714D01*
X60928569Y-65685714D01*
X60595236Y-66352381D02*
X60595236Y-65685714D01*
X60595236Y-65352381D02*
X60642855Y-65400000D01*
X60595236Y-65447619D01*
X60547617Y-65400000D01*
X60595236Y-65352381D01*
X60595236Y-65447619D01*
X60214284Y-66352381D02*
X59690474Y-65685714D01*
X60214284Y-65685714D02*
X59690474Y-66352381D01*
X85023811Y-67807143D02*
X85071430Y-67854762D01*
X85214287Y-67902381D01*
X85309525Y-67902381D01*
X85452383Y-67854762D01*
X85547621Y-67759524D01*
X85595240Y-67664286D01*
X85642859Y-67473810D01*
X85642859Y-67330952D01*
X85595240Y-67140476D01*
X85547621Y-67045238D01*
X85452383Y-66950000D01*
X85309525Y-66902381D01*
X85214287Y-66902381D01*
X85071430Y-66950000D01*
X85023811Y-66997619D01*
X84166668Y-67235714D02*
X84166668Y-67902381D01*
X84595240Y-67235714D02*
X84595240Y-67759524D01*
X84547621Y-67854762D01*
X84452383Y-67902381D01*
X84309525Y-67902381D01*
X84214287Y-67854762D01*
X84166668Y-67807143D01*
X83833335Y-67235714D02*
X83452383Y-67235714D01*
X83690478Y-66902381D02*
X83690478Y-67759524D01*
X83642859Y-67854762D01*
X83547621Y-67902381D01*
X83452383Y-67902381D01*
X82071429Y-66902381D02*
X82071429Y-67616667D01*
X82119049Y-67759524D01*
X82214287Y-67854762D01*
X82357144Y-67902381D01*
X82452382Y-67902381D01*
X81595239Y-67902381D02*
X81595239Y-66902381D01*
X81214286Y-66902381D01*
X81119048Y-66950000D01*
X81071429Y-66997619D01*
X81023810Y-67092857D01*
X81023810Y-67235714D01*
X81071429Y-67330952D01*
X81119048Y-67378571D01*
X81214286Y-67426190D01*
X81595239Y-67426190D01*
X80452382Y-67330952D02*
X80547620Y-67283333D01*
X80595239Y-67235714D01*
X80642858Y-67140476D01*
X80642858Y-67092857D01*
X80595239Y-66997619D01*
X80547620Y-66950000D01*
X80452382Y-66902381D01*
X80261905Y-66902381D01*
X80166667Y-66950000D01*
X80119048Y-66997619D01*
X80071429Y-67092857D01*
X80071429Y-67140476D01*
X80119048Y-67235714D01*
X80166667Y-67283333D01*
X80261905Y-67330952D01*
X80452382Y-67330952D01*
X80547620Y-67378571D01*
X80595239Y-67426190D01*
X80642858Y-67521429D01*
X80642858Y-67711905D01*
X80595239Y-67807143D01*
X80547620Y-67854762D01*
X80452382Y-67902381D01*
X80261905Y-67902381D01*
X80166667Y-67854762D01*
X80119048Y-67807143D01*
X80071429Y-67711905D01*
X80071429Y-67521429D01*
X80119048Y-67426190D01*
X80166667Y-67378571D01*
X80261905Y-67330952D01*
X79023810Y-67235714D02*
X78642858Y-67235714D01*
X78880953Y-66902381D02*
X78880953Y-67759524D01*
X78833334Y-67854762D01*
X78738096Y-67902381D01*
X78642858Y-67902381D01*
X78166667Y-67902381D02*
X78261905Y-67854762D01*
X78309524Y-67807143D01*
X78357143Y-67711905D01*
X78357143Y-67426190D01*
X78309524Y-67330952D01*
X78261905Y-67283333D01*
X78166667Y-67235714D01*
X78023809Y-67235714D01*
X77928571Y-67283333D01*
X77880952Y-67330952D01*
X77833333Y-67426190D01*
X77833333Y-67711905D01*
X77880952Y-67807143D01*
X77928571Y-67854762D01*
X78023809Y-67902381D01*
X78166667Y-67902381D01*
X76214285Y-67902381D02*
X76214285Y-66902381D01*
X76214285Y-67854762D02*
X76309523Y-67902381D01*
X76500000Y-67902381D01*
X76595238Y-67854762D01*
X76642857Y-67807143D01*
X76690476Y-67711905D01*
X76690476Y-67426190D01*
X76642857Y-67330952D01*
X76595238Y-67283333D01*
X76500000Y-67235714D01*
X76309523Y-67235714D01*
X76214285Y-67283333D01*
X75738095Y-67902381D02*
X75738095Y-67235714D01*
X75738095Y-66902381D02*
X75785714Y-66950000D01*
X75738095Y-66997619D01*
X75690476Y-66950000D01*
X75738095Y-66902381D01*
X75738095Y-66997619D01*
X75309524Y-67854762D02*
X75214286Y-67902381D01*
X75023810Y-67902381D01*
X74928571Y-67854762D01*
X74880952Y-67759524D01*
X74880952Y-67711905D01*
X74928571Y-67616667D01*
X75023810Y-67569048D01*
X75166667Y-67569048D01*
X75261905Y-67521429D01*
X75309524Y-67426190D01*
X75309524Y-67378571D01*
X75261905Y-67283333D01*
X75166667Y-67235714D01*
X75023810Y-67235714D01*
X74928571Y-67283333D01*
X74023809Y-67854762D02*
X74119047Y-67902381D01*
X74309524Y-67902381D01*
X74404762Y-67854762D01*
X74452381Y-67807143D01*
X74500000Y-67711905D01*
X74500000Y-67426190D01*
X74452381Y-67330952D01*
X74404762Y-67283333D01*
X74309524Y-67235714D01*
X74119047Y-67235714D01*
X74023809Y-67283333D01*
X73452381Y-67902381D02*
X73547619Y-67854762D01*
X73595238Y-67807143D01*
X73642857Y-67711905D01*
X73642857Y-67426190D01*
X73595238Y-67330952D01*
X73547619Y-67283333D01*
X73452381Y-67235714D01*
X73309523Y-67235714D01*
X73214285Y-67283333D01*
X73166666Y-67330952D01*
X73119047Y-67426190D01*
X73119047Y-67711905D01*
X73166666Y-67807143D01*
X73214285Y-67854762D01*
X73309523Y-67902381D01*
X73452381Y-67902381D01*
X72690476Y-67235714D02*
X72690476Y-67902381D01*
X72690476Y-67330952D02*
X72642857Y-67283333D01*
X72547619Y-67235714D01*
X72404761Y-67235714D01*
X72309523Y-67283333D01*
X72261904Y-67378571D01*
X72261904Y-67902381D01*
X71785714Y-67235714D02*
X71785714Y-67902381D01*
X71785714Y-67330952D02*
X71738095Y-67283333D01*
X71642857Y-67235714D01*
X71499999Y-67235714D01*
X71404761Y-67283333D01*
X71357142Y-67378571D01*
X71357142Y-67902381D01*
X70499999Y-67854762D02*
X70595237Y-67902381D01*
X70785714Y-67902381D01*
X70880952Y-67854762D01*
X70928571Y-67759524D01*
X70928571Y-67378571D01*
X70880952Y-67283333D01*
X70785714Y-67235714D01*
X70595237Y-67235714D01*
X70499999Y-67283333D01*
X70452380Y-67378571D01*
X70452380Y-67473810D01*
X70928571Y-67569048D01*
X69595237Y-67854762D02*
X69690475Y-67902381D01*
X69880952Y-67902381D01*
X69976190Y-67854762D01*
X70023809Y-67807143D01*
X70071428Y-67711905D01*
X70071428Y-67426190D01*
X70023809Y-67330952D01*
X69976190Y-67283333D01*
X69880952Y-67235714D01*
X69690475Y-67235714D01*
X69595237Y-67283333D01*
X69309523Y-67235714D02*
X68928571Y-67235714D01*
X69166666Y-66902381D02*
X69166666Y-67759524D01*
X69119047Y-67854762D01*
X69023809Y-67902381D01*
X68928571Y-67902381D01*
X67833332Y-67902381D02*
X67833332Y-66902381D01*
X67833332Y-67283333D02*
X67738094Y-67235714D01*
X67547617Y-67235714D01*
X67452379Y-67283333D01*
X67404760Y-67330952D01*
X67357141Y-67426190D01*
X67357141Y-67711905D01*
X67404760Y-67807143D01*
X67452379Y-67854762D01*
X67547617Y-67902381D01*
X67738094Y-67902381D01*
X67833332Y-67854762D01*
X66499998Y-67235714D02*
X66499998Y-67902381D01*
X66928570Y-67235714D02*
X66928570Y-67759524D01*
X66880951Y-67854762D01*
X66785713Y-67902381D01*
X66642855Y-67902381D01*
X66547617Y-67854762D01*
X66499998Y-67807143D01*
X66119046Y-67235714D02*
X65595236Y-67235714D01*
X66119046Y-67902381D01*
X65595236Y-67902381D01*
X65309522Y-67235714D02*
X64785712Y-67235714D01*
X65309522Y-67902381D01*
X64785712Y-67902381D01*
X64023807Y-67854762D02*
X64119045Y-67902381D01*
X64309522Y-67902381D01*
X64404760Y-67854762D01*
X64452379Y-67759524D01*
X64452379Y-67378571D01*
X64404760Y-67283333D01*
X64309522Y-67235714D01*
X64119045Y-67235714D01*
X64023807Y-67283333D01*
X63976188Y-67378571D01*
X63976188Y-67473810D01*
X64452379Y-67569048D01*
X63547617Y-67902381D02*
X63547617Y-67235714D01*
X63547617Y-67426190D02*
X63499998Y-67330952D01*
X63452379Y-67283333D01*
X63357141Y-67235714D01*
X63261902Y-67235714D01*
X84880954Y-69357143D02*
X84928573Y-69404762D01*
X85071430Y-69452381D01*
X85166668Y-69452381D01*
X85309526Y-69404762D01*
X85404764Y-69309524D01*
X85452383Y-69214286D01*
X85500002Y-69023810D01*
X85500002Y-68880952D01*
X85452383Y-68690476D01*
X85404764Y-68595238D01*
X85309526Y-68500000D01*
X85166668Y-68452381D01*
X85071430Y-68452381D01*
X84928573Y-68500000D01*
X84880954Y-68547619D01*
X84023811Y-68785714D02*
X84023811Y-69452381D01*
X84452383Y-68785714D02*
X84452383Y-69309524D01*
X84404764Y-69404762D01*
X84309526Y-69452381D01*
X84166668Y-69452381D01*
X84071430Y-69404762D01*
X84023811Y-69357143D01*
X83690478Y-68785714D02*
X83309526Y-68785714D01*
X83547621Y-68452381D02*
X83547621Y-69309524D01*
X83500002Y-69404762D01*
X83404764Y-69452381D01*
X83309526Y-69452381D01*
X81928572Y-68452381D02*
X81928572Y-69166667D01*
X81976192Y-69309524D01*
X82071430Y-69404762D01*
X82214287Y-69452381D01*
X82309525Y-69452381D01*
X81452382Y-69452381D02*
X81452382Y-68452381D01*
X81071429Y-68452381D01*
X80976191Y-68500000D01*
X80928572Y-68547619D01*
X80880953Y-68642857D01*
X80880953Y-68785714D01*
X80928572Y-68880952D01*
X80976191Y-68928571D01*
X81071429Y-68976190D01*
X81452382Y-68976190D01*
X80404763Y-69452381D02*
X80214287Y-69452381D01*
X80119048Y-69404762D01*
X80071429Y-69357143D01*
X79976191Y-69214286D01*
X79928572Y-69023810D01*
X79928572Y-68642857D01*
X79976191Y-68547619D01*
X80023810Y-68500000D01*
X80119048Y-68452381D01*
X80309525Y-68452381D01*
X80404763Y-68500000D01*
X80452382Y-68547619D01*
X80500001Y-68642857D01*
X80500001Y-68880952D01*
X80452382Y-68976190D01*
X80404763Y-69023810D01*
X80309525Y-69071429D01*
X80119048Y-69071429D01*
X80023810Y-69023810D01*
X79976191Y-68976190D01*
X79928572Y-68880952D01*
X78880953Y-68785714D02*
X78500001Y-68785714D01*
X78738096Y-68452381D02*
X78738096Y-69309524D01*
X78690477Y-69404762D01*
X78595239Y-69452381D01*
X78500001Y-69452381D01*
X78023810Y-69452381D02*
X78119048Y-69404762D01*
X78166667Y-69357143D01*
X78214286Y-69261905D01*
X78214286Y-68976190D01*
X78166667Y-68880952D01*
X78119048Y-68833333D01*
X78023810Y-68785714D01*
X77880952Y-68785714D01*
X77785714Y-68833333D01*
X77738095Y-68880952D01*
X77690476Y-68976190D01*
X77690476Y-69261905D01*
X77738095Y-69357143D01*
X77785714Y-69404762D01*
X77880952Y-69452381D01*
X78023810Y-69452381D01*
X76071428Y-69452381D02*
X76071428Y-68452381D01*
X76071428Y-69404762D02*
X76166666Y-69452381D01*
X76357143Y-69452381D01*
X76452381Y-69404762D01*
X76500000Y-69357143D01*
X76547619Y-69261905D01*
X76547619Y-68976190D01*
X76500000Y-68880952D01*
X76452381Y-68833333D01*
X76357143Y-68785714D01*
X76166666Y-68785714D01*
X76071428Y-68833333D01*
X75595238Y-69452381D02*
X75595238Y-68785714D01*
X75595238Y-68452381D02*
X75642857Y-68500000D01*
X75595238Y-68547619D01*
X75547619Y-68500000D01*
X75595238Y-68452381D01*
X75595238Y-68547619D01*
X75166667Y-69404762D02*
X75071429Y-69452381D01*
X74880953Y-69452381D01*
X74785714Y-69404762D01*
X74738095Y-69309524D01*
X74738095Y-69261905D01*
X74785714Y-69166667D01*
X74880953Y-69119048D01*
X75023810Y-69119048D01*
X75119048Y-69071429D01*
X75166667Y-68976190D01*
X75166667Y-68928571D01*
X75119048Y-68833333D01*
X75023810Y-68785714D01*
X74880953Y-68785714D01*
X74785714Y-68833333D01*
X73880952Y-69404762D02*
X73976190Y-69452381D01*
X74166667Y-69452381D01*
X74261905Y-69404762D01*
X74309524Y-69357143D01*
X74357143Y-69261905D01*
X74357143Y-68976190D01*
X74309524Y-68880952D01*
X74261905Y-68833333D01*
X74166667Y-68785714D01*
X73976190Y-68785714D01*
X73880952Y-68833333D01*
X73309524Y-69452381D02*
X73404762Y-69404762D01*
X73452381Y-69357143D01*
X73500000Y-69261905D01*
X73500000Y-68976190D01*
X73452381Y-68880952D01*
X73404762Y-68833333D01*
X73309524Y-68785714D01*
X73166666Y-68785714D01*
X73071428Y-68833333D01*
X73023809Y-68880952D01*
X72976190Y-68976190D01*
X72976190Y-69261905D01*
X73023809Y-69357143D01*
X73071428Y-69404762D01*
X73166666Y-69452381D01*
X73309524Y-69452381D01*
X72547619Y-68785714D02*
X72547619Y-69452381D01*
X72547619Y-68880952D02*
X72500000Y-68833333D01*
X72404762Y-68785714D01*
X72261904Y-68785714D01*
X72166666Y-68833333D01*
X72119047Y-68928571D01*
X72119047Y-69452381D01*
X71642857Y-68785714D02*
X71642857Y-69452381D01*
X71642857Y-68880952D02*
X71595238Y-68833333D01*
X71500000Y-68785714D01*
X71357142Y-68785714D01*
X71261904Y-68833333D01*
X71214285Y-68928571D01*
X71214285Y-69452381D01*
X70357142Y-69404762D02*
X70452380Y-69452381D01*
X70642857Y-69452381D01*
X70738095Y-69404762D01*
X70785714Y-69309524D01*
X70785714Y-68928571D01*
X70738095Y-68833333D01*
X70642857Y-68785714D01*
X70452380Y-68785714D01*
X70357142Y-68833333D01*
X70309523Y-68928571D01*
X70309523Y-69023810D01*
X70785714Y-69119048D01*
X69452380Y-69404762D02*
X69547618Y-69452381D01*
X69738095Y-69452381D01*
X69833333Y-69404762D01*
X69880952Y-69357143D01*
X69928571Y-69261905D01*
X69928571Y-68976190D01*
X69880952Y-68880952D01*
X69833333Y-68833333D01*
X69738095Y-68785714D01*
X69547618Y-68785714D01*
X69452380Y-68833333D01*
X69166666Y-68785714D02*
X68785714Y-68785714D01*
X69023809Y-68452381D02*
X69023809Y-69309524D01*
X68976190Y-69404762D01*
X68880952Y-69452381D01*
X68785714Y-69452381D01*
X67214284Y-69452381D02*
X67690475Y-69452381D01*
X67690475Y-68452381D01*
X66880951Y-68928571D02*
X66547617Y-68928571D01*
X66404760Y-69452381D02*
X66880951Y-69452381D01*
X66880951Y-68452381D01*
X66404760Y-68452381D01*
X65976189Y-69452381D02*
X65976189Y-68452381D01*
X65738094Y-68452381D01*
X65595236Y-68500000D01*
X65499998Y-68595238D01*
X65452379Y-68690476D01*
X65404760Y-68880952D01*
X65404760Y-69023810D01*
X65452379Y-69214286D01*
X65499998Y-69309524D01*
X65595236Y-69404762D01*
X65738094Y-69452381D01*
X65976189Y-69452381D01*
X64547617Y-68785714D02*
X64547617Y-69452381D01*
X64785713Y-68404762D02*
X65023808Y-69119048D01*
X64404760Y-69119048D01*
X63499998Y-69452381D02*
X64071427Y-69452381D01*
X63785713Y-69452381D02*
X63785713Y-68452381D01*
X63880951Y-68595238D01*
X63976189Y-68690476D01*
X64071427Y-68738095D01*
X89000002Y-70907143D02*
X89047621Y-70954762D01*
X89190478Y-71002381D01*
X89285716Y-71002381D01*
X89428574Y-70954762D01*
X89523812Y-70859524D01*
X89571431Y-70764286D01*
X89619050Y-70573810D01*
X89619050Y-70430952D01*
X89571431Y-70240476D01*
X89523812Y-70145238D01*
X89428574Y-70050000D01*
X89285716Y-70002381D01*
X89190478Y-70002381D01*
X89047621Y-70050000D01*
X89000002Y-70097619D01*
X88142859Y-70335714D02*
X88142859Y-71002381D01*
X88571431Y-70335714D02*
X88571431Y-70859524D01*
X88523812Y-70954762D01*
X88428574Y-71002381D01*
X88285716Y-71002381D01*
X88190478Y-70954762D01*
X88142859Y-70907143D01*
X87809526Y-70335714D02*
X87428574Y-70335714D01*
X87666669Y-70002381D02*
X87666669Y-70859524D01*
X87619050Y-70954762D01*
X87523812Y-71002381D01*
X87428574Y-71002381D01*
X86047620Y-70002381D02*
X86047620Y-70716667D01*
X86095240Y-70859524D01*
X86190478Y-70954762D01*
X86333335Y-71002381D01*
X86428573Y-71002381D01*
X85571430Y-71002381D02*
X85571430Y-70002381D01*
X85190477Y-70002381D01*
X85095239Y-70050000D01*
X85047620Y-70097619D01*
X85000001Y-70192857D01*
X85000001Y-70335714D01*
X85047620Y-70430952D01*
X85095239Y-70478571D01*
X85190477Y-70526190D01*
X85571430Y-70526190D01*
X84047620Y-71002381D02*
X84619049Y-71002381D01*
X84333335Y-71002381D02*
X84333335Y-70002381D01*
X84428573Y-70145238D01*
X84523811Y-70240476D01*
X84619049Y-70288095D01*
X83428573Y-70002381D02*
X83333334Y-70002381D01*
X83238096Y-70050000D01*
X83190477Y-70097619D01*
X83142858Y-70192857D01*
X83095239Y-70383333D01*
X83095239Y-70621429D01*
X83142858Y-70811905D01*
X83190477Y-70907143D01*
X83238096Y-70954762D01*
X83333334Y-71002381D01*
X83428573Y-71002381D01*
X83523811Y-70954762D01*
X83571430Y-70907143D01*
X83619049Y-70811905D01*
X83666668Y-70621429D01*
X83666668Y-70383333D01*
X83619049Y-70192857D01*
X83571430Y-70097619D01*
X83523811Y-70050000D01*
X83428573Y-70002381D01*
X82047620Y-70335714D02*
X81666668Y-70335714D01*
X81904763Y-70002381D02*
X81904763Y-70859524D01*
X81857144Y-70954762D01*
X81761906Y-71002381D01*
X81666668Y-71002381D01*
X81190477Y-71002381D02*
X81285715Y-70954762D01*
X81333334Y-70907143D01*
X81380953Y-70811905D01*
X81380953Y-70526190D01*
X81333334Y-70430952D01*
X81285715Y-70383333D01*
X81190477Y-70335714D01*
X81047619Y-70335714D01*
X80952381Y-70383333D01*
X80904762Y-70430952D01*
X80857143Y-70526190D01*
X80857143Y-70811905D01*
X80904762Y-70907143D01*
X80952381Y-70954762D01*
X81047619Y-71002381D01*
X81190477Y-71002381D01*
X79238095Y-71002381D02*
X79238095Y-70002381D01*
X79238095Y-70954762D02*
X79333333Y-71002381D01*
X79523810Y-71002381D01*
X79619048Y-70954762D01*
X79666667Y-70907143D01*
X79714286Y-70811905D01*
X79714286Y-70526190D01*
X79666667Y-70430952D01*
X79619048Y-70383333D01*
X79523810Y-70335714D01*
X79333333Y-70335714D01*
X79238095Y-70383333D01*
X78761905Y-71002381D02*
X78761905Y-70335714D01*
X78761905Y-70002381D02*
X78809524Y-70050000D01*
X78761905Y-70097619D01*
X78714286Y-70050000D01*
X78761905Y-70002381D01*
X78761905Y-70097619D01*
X78333334Y-70954762D02*
X78238096Y-71002381D01*
X78047620Y-71002381D01*
X77952381Y-70954762D01*
X77904762Y-70859524D01*
X77904762Y-70811905D01*
X77952381Y-70716667D01*
X78047620Y-70669048D01*
X78190477Y-70669048D01*
X78285715Y-70621429D01*
X78333334Y-70526190D01*
X78333334Y-70478571D01*
X78285715Y-70383333D01*
X78190477Y-70335714D01*
X78047620Y-70335714D01*
X77952381Y-70383333D01*
X77047619Y-70954762D02*
X77142857Y-71002381D01*
X77333334Y-71002381D01*
X77428572Y-70954762D01*
X77476191Y-70907143D01*
X77523810Y-70811905D01*
X77523810Y-70526190D01*
X77476191Y-70430952D01*
X77428572Y-70383333D01*
X77333334Y-70335714D01*
X77142857Y-70335714D01*
X77047619Y-70383333D01*
X76476191Y-71002381D02*
X76571429Y-70954762D01*
X76619048Y-70907143D01*
X76666667Y-70811905D01*
X76666667Y-70526190D01*
X76619048Y-70430952D01*
X76571429Y-70383333D01*
X76476191Y-70335714D01*
X76333333Y-70335714D01*
X76238095Y-70383333D01*
X76190476Y-70430952D01*
X76142857Y-70526190D01*
X76142857Y-70811905D01*
X76190476Y-70907143D01*
X76238095Y-70954762D01*
X76333333Y-71002381D01*
X76476191Y-71002381D01*
X75714286Y-70335714D02*
X75714286Y-71002381D01*
X75714286Y-70430952D02*
X75666667Y-70383333D01*
X75571429Y-70335714D01*
X75428571Y-70335714D01*
X75333333Y-70383333D01*
X75285714Y-70478571D01*
X75285714Y-71002381D01*
X74809524Y-70335714D02*
X74809524Y-71002381D01*
X74809524Y-70430952D02*
X74761905Y-70383333D01*
X74666667Y-70335714D01*
X74523809Y-70335714D01*
X74428571Y-70383333D01*
X74380952Y-70478571D01*
X74380952Y-71002381D01*
X73523809Y-70954762D02*
X73619047Y-71002381D01*
X73809524Y-71002381D01*
X73904762Y-70954762D01*
X73952381Y-70859524D01*
X73952381Y-70478571D01*
X73904762Y-70383333D01*
X73809524Y-70335714D01*
X73619047Y-70335714D01*
X73523809Y-70383333D01*
X73476190Y-70478571D01*
X73476190Y-70573810D01*
X73952381Y-70669048D01*
X72619047Y-70954762D02*
X72714285Y-71002381D01*
X72904762Y-71002381D01*
X73000000Y-70954762D01*
X73047619Y-70907143D01*
X73095238Y-70811905D01*
X73095238Y-70526190D01*
X73047619Y-70430952D01*
X73000000Y-70383333D01*
X72904762Y-70335714D01*
X72714285Y-70335714D01*
X72619047Y-70383333D01*
X72333333Y-70335714D02*
X71952381Y-70335714D01*
X72190476Y-70002381D02*
X72190476Y-70859524D01*
X72142857Y-70954762D01*
X72047619Y-71002381D01*
X71952381Y-71002381D01*
X70857142Y-71002381D02*
X70857142Y-70002381D01*
X69809523Y-71002381D02*
X70142857Y-70526190D01*
X70380952Y-71002381D02*
X70380952Y-70002381D01*
X69999999Y-70002381D01*
X69904761Y-70050000D01*
X69857142Y-70097619D01*
X69809523Y-70192857D01*
X69809523Y-70335714D01*
X69857142Y-70430952D01*
X69904761Y-70478571D01*
X69999999Y-70526190D01*
X70380952Y-70526190D01*
X68761904Y-70335714D02*
X68380952Y-70335714D01*
X68619047Y-70002381D02*
X68619047Y-70859524D01*
X68571428Y-70954762D01*
X68476190Y-71002381D01*
X68380952Y-71002381D01*
X68047618Y-71002381D02*
X68047618Y-70335714D01*
X68047618Y-70526190D02*
X67999999Y-70430952D01*
X67952380Y-70383333D01*
X67857142Y-70335714D01*
X67761903Y-70335714D01*
X66999998Y-71002381D02*
X66999998Y-70478571D01*
X67047617Y-70383333D01*
X67142855Y-70335714D01*
X67333332Y-70335714D01*
X67428570Y-70383333D01*
X66999998Y-70954762D02*
X67095236Y-71002381D01*
X67333332Y-71002381D01*
X67428570Y-70954762D01*
X67476189Y-70859524D01*
X67476189Y-70764286D01*
X67428570Y-70669048D01*
X67333332Y-70621429D01*
X67095236Y-70621429D01*
X66999998Y-70573810D01*
X66523808Y-70335714D02*
X66523808Y-71002381D01*
X66523808Y-70430952D02*
X66476189Y-70383333D01*
X66380951Y-70335714D01*
X66238093Y-70335714D01*
X66142855Y-70383333D01*
X66095236Y-70478571D01*
X66095236Y-71002381D01*
X65666665Y-70954762D02*
X65571427Y-71002381D01*
X65380951Y-71002381D01*
X65285712Y-70954762D01*
X65238093Y-70859524D01*
X65238093Y-70811905D01*
X65285712Y-70716667D01*
X65380951Y-70669048D01*
X65523808Y-70669048D01*
X65619046Y-70621429D01*
X65666665Y-70526190D01*
X65666665Y-70478571D01*
X65619046Y-70383333D01*
X65523808Y-70335714D01*
X65380951Y-70335714D01*
X65285712Y-70383333D01*
X64809522Y-71002381D02*
X64809522Y-70335714D01*
X64809522Y-70430952D02*
X64761903Y-70383333D01*
X64666665Y-70335714D01*
X64523807Y-70335714D01*
X64428569Y-70383333D01*
X64380950Y-70478571D01*
X64380950Y-71002381D01*
X64380950Y-70478571D02*
X64333331Y-70383333D01*
X64238093Y-70335714D01*
X64095236Y-70335714D01*
X63999998Y-70383333D01*
X63952379Y-70478571D01*
X63952379Y-71002381D01*
X63476189Y-71002381D02*
X63476189Y-70335714D01*
X63476189Y-70002381D02*
X63523808Y-70050000D01*
X63476189Y-70097619D01*
X63428570Y-70050000D01*
X63476189Y-70002381D01*
X63476189Y-70097619D01*
X63142856Y-70335714D02*
X62761904Y-70335714D01*
X62999999Y-70002381D02*
X62999999Y-70859524D01*
X62952380Y-70954762D01*
X62857142Y-71002381D01*
X62761904Y-71002381D01*
X61190474Y-71002381D02*
X61666665Y-71002381D01*
X61666665Y-70002381D01*
X60857141Y-70478571D02*
X60523807Y-70478571D01*
X60380950Y-71002381D02*
X60857141Y-71002381D01*
X60857141Y-70002381D01*
X60380950Y-70002381D01*
X59952379Y-71002381D02*
X59952379Y-70002381D01*
X59714284Y-70002381D01*
X59571426Y-70050000D01*
X59476188Y-70145238D01*
X59428569Y-70240476D01*
X59380950Y-70430952D01*
X59380950Y-70573810D01*
X59428569Y-70764286D01*
X59476188Y-70859524D01*
X59571426Y-70954762D01*
X59714284Y-71002381D01*
X59952379Y-71002381D01*
X87119049Y-72457143D02*
X87166668Y-72504762D01*
X87309525Y-72552381D01*
X87404763Y-72552381D01*
X87547621Y-72504762D01*
X87642859Y-72409524D01*
X87690478Y-72314286D01*
X87738097Y-72123810D01*
X87738097Y-71980952D01*
X87690478Y-71790476D01*
X87642859Y-71695238D01*
X87547621Y-71600000D01*
X87404763Y-71552381D01*
X87309525Y-71552381D01*
X87166668Y-71600000D01*
X87119049Y-71647619D01*
X86261906Y-71885714D02*
X86261906Y-72552381D01*
X86690478Y-71885714D02*
X86690478Y-72409524D01*
X86642859Y-72504762D01*
X86547621Y-72552381D01*
X86404763Y-72552381D01*
X86309525Y-72504762D01*
X86261906Y-72457143D01*
X85928573Y-71885714D02*
X85547621Y-71885714D01*
X85785716Y-71552381D02*
X85785716Y-72409524D01*
X85738097Y-72504762D01*
X85642859Y-72552381D01*
X85547621Y-72552381D01*
X84166667Y-71552381D02*
X84166667Y-72266667D01*
X84214287Y-72409524D01*
X84309525Y-72504762D01*
X84452382Y-72552381D01*
X84547620Y-72552381D01*
X83690477Y-72552381D02*
X83690477Y-71552381D01*
X83309524Y-71552381D01*
X83214286Y-71600000D01*
X83166667Y-71647619D01*
X83119048Y-71742857D01*
X83119048Y-71885714D01*
X83166667Y-71980952D01*
X83214286Y-72028571D01*
X83309524Y-72076190D01*
X83690477Y-72076190D01*
X82166667Y-72552381D02*
X82738096Y-72552381D01*
X82452382Y-72552381D02*
X82452382Y-71552381D01*
X82547620Y-71695238D01*
X82642858Y-71790476D01*
X82738096Y-71838095D01*
X81214286Y-72552381D02*
X81785715Y-72552381D01*
X81500001Y-72552381D02*
X81500001Y-71552381D01*
X81595239Y-71695238D01*
X81690477Y-71790476D01*
X81785715Y-71838095D01*
X80166667Y-71885714D02*
X79785715Y-71885714D01*
X80023810Y-71552381D02*
X80023810Y-72409524D01*
X79976191Y-72504762D01*
X79880953Y-72552381D01*
X79785715Y-72552381D01*
X79309524Y-72552381D02*
X79404762Y-72504762D01*
X79452381Y-72457143D01*
X79500000Y-72361905D01*
X79500000Y-72076190D01*
X79452381Y-71980952D01*
X79404762Y-71933333D01*
X79309524Y-71885714D01*
X79166666Y-71885714D01*
X79071428Y-71933333D01*
X79023809Y-71980952D01*
X78976190Y-72076190D01*
X78976190Y-72361905D01*
X79023809Y-72457143D01*
X79071428Y-72504762D01*
X79166666Y-72552381D01*
X79309524Y-72552381D01*
X77357142Y-72552381D02*
X77357142Y-71552381D01*
X77357142Y-72504762D02*
X77452380Y-72552381D01*
X77642857Y-72552381D01*
X77738095Y-72504762D01*
X77785714Y-72457143D01*
X77833333Y-72361905D01*
X77833333Y-72076190D01*
X77785714Y-71980952D01*
X77738095Y-71933333D01*
X77642857Y-71885714D01*
X77452380Y-71885714D01*
X77357142Y-71933333D01*
X76880952Y-72552381D02*
X76880952Y-71885714D01*
X76880952Y-71552381D02*
X76928571Y-71600000D01*
X76880952Y-71647619D01*
X76833333Y-71600000D01*
X76880952Y-71552381D01*
X76880952Y-71647619D01*
X76452381Y-72504762D02*
X76357143Y-72552381D01*
X76166667Y-72552381D01*
X76071428Y-72504762D01*
X76023809Y-72409524D01*
X76023809Y-72361905D01*
X76071428Y-72266667D01*
X76166667Y-72219048D01*
X76309524Y-72219048D01*
X76404762Y-72171429D01*
X76452381Y-72076190D01*
X76452381Y-72028571D01*
X76404762Y-71933333D01*
X76309524Y-71885714D01*
X76166667Y-71885714D01*
X76071428Y-71933333D01*
X75166666Y-72504762D02*
X75261904Y-72552381D01*
X75452381Y-72552381D01*
X75547619Y-72504762D01*
X75595238Y-72457143D01*
X75642857Y-72361905D01*
X75642857Y-72076190D01*
X75595238Y-71980952D01*
X75547619Y-71933333D01*
X75452381Y-71885714D01*
X75261904Y-71885714D01*
X75166666Y-71933333D01*
X74595238Y-72552381D02*
X74690476Y-72504762D01*
X74738095Y-72457143D01*
X74785714Y-72361905D01*
X74785714Y-72076190D01*
X74738095Y-71980952D01*
X74690476Y-71933333D01*
X74595238Y-71885714D01*
X74452380Y-71885714D01*
X74357142Y-71933333D01*
X74309523Y-71980952D01*
X74261904Y-72076190D01*
X74261904Y-72361905D01*
X74309523Y-72457143D01*
X74357142Y-72504762D01*
X74452380Y-72552381D01*
X74595238Y-72552381D01*
X73833333Y-71885714D02*
X73833333Y-72552381D01*
X73833333Y-71980952D02*
X73785714Y-71933333D01*
X73690476Y-71885714D01*
X73547618Y-71885714D01*
X73452380Y-71933333D01*
X73404761Y-72028571D01*
X73404761Y-72552381D01*
X72928571Y-71885714D02*
X72928571Y-72552381D01*
X72928571Y-71980952D02*
X72880952Y-71933333D01*
X72785714Y-71885714D01*
X72642856Y-71885714D01*
X72547618Y-71933333D01*
X72499999Y-72028571D01*
X72499999Y-72552381D01*
X71642856Y-72504762D02*
X71738094Y-72552381D01*
X71928571Y-72552381D01*
X72023809Y-72504762D01*
X72071428Y-72409524D01*
X72071428Y-72028571D01*
X72023809Y-71933333D01*
X71928571Y-71885714D01*
X71738094Y-71885714D01*
X71642856Y-71933333D01*
X71595237Y-72028571D01*
X71595237Y-72123810D01*
X72071428Y-72219048D01*
X70738094Y-72504762D02*
X70833332Y-72552381D01*
X71023809Y-72552381D01*
X71119047Y-72504762D01*
X71166666Y-72457143D01*
X71214285Y-72361905D01*
X71214285Y-72076190D01*
X71166666Y-71980952D01*
X71119047Y-71933333D01*
X71023809Y-71885714D01*
X70833332Y-71885714D01*
X70738094Y-71933333D01*
X70452380Y-71885714D02*
X70071428Y-71885714D01*
X70309523Y-71552381D02*
X70309523Y-72409524D01*
X70261904Y-72504762D01*
X70166666Y-72552381D01*
X70071428Y-72552381D01*
X68976189Y-72552381D02*
X68976189Y-71552381D01*
X67928570Y-72552381D02*
X68261904Y-72076190D01*
X68499999Y-72552381D02*
X68499999Y-71552381D01*
X68119046Y-71552381D01*
X68023808Y-71600000D01*
X67976189Y-71647619D01*
X67928570Y-71742857D01*
X67928570Y-71885714D01*
X67976189Y-71980952D01*
X68023808Y-72028571D01*
X68119046Y-72076190D01*
X68499999Y-72076190D01*
X66738094Y-72552381D02*
X66738094Y-71885714D01*
X66738094Y-72076190D02*
X66690475Y-71980952D01*
X66642856Y-71933333D01*
X66547618Y-71885714D01*
X66452379Y-71885714D01*
X65738093Y-72504762D02*
X65833331Y-72552381D01*
X66023808Y-72552381D01*
X66119046Y-72504762D01*
X66166665Y-72409524D01*
X66166665Y-72028571D01*
X66119046Y-71933333D01*
X66023808Y-71885714D01*
X65833331Y-71885714D01*
X65738093Y-71933333D01*
X65690474Y-72028571D01*
X65690474Y-72123810D01*
X66166665Y-72219048D01*
X64833331Y-72504762D02*
X64928569Y-72552381D01*
X65119046Y-72552381D01*
X65214284Y-72504762D01*
X65261903Y-72457143D01*
X65309522Y-72361905D01*
X65309522Y-72076190D01*
X65261903Y-71980952D01*
X65214284Y-71933333D01*
X65119046Y-71885714D01*
X64928569Y-71885714D01*
X64833331Y-71933333D01*
X64023807Y-72504762D02*
X64119045Y-72552381D01*
X64309522Y-72552381D01*
X64404760Y-72504762D01*
X64452379Y-72409524D01*
X64452379Y-72028571D01*
X64404760Y-71933333D01*
X64309522Y-71885714D01*
X64119045Y-71885714D01*
X64023807Y-71933333D01*
X63976188Y-72028571D01*
X63976188Y-72123810D01*
X64452379Y-72219048D01*
X63547617Y-72552381D02*
X63547617Y-71885714D01*
X63547617Y-71552381D02*
X63595236Y-71600000D01*
X63547617Y-71647619D01*
X63499998Y-71600000D01*
X63547617Y-71552381D01*
X63547617Y-71647619D01*
X63166665Y-71885714D02*
X62928570Y-72552381D01*
X62690474Y-71885714D01*
X61928569Y-72504762D02*
X62023807Y-72552381D01*
X62214284Y-72552381D01*
X62309522Y-72504762D01*
X62357141Y-72409524D01*
X62357141Y-72028571D01*
X62309522Y-71933333D01*
X62214284Y-71885714D01*
X62023807Y-71885714D01*
X61928569Y-71933333D01*
X61880950Y-72028571D01*
X61880950Y-72123810D01*
X62357141Y-72219048D01*
X61452379Y-72552381D02*
X61452379Y-71885714D01*
X61452379Y-72076190D02*
X61404760Y-71980952D01*
X61357141Y-71933333D01*
X61261903Y-71885714D01*
X61166664Y-71885714D01*
X62762000Y-75365000D02*
G75*
G02X62889000Y-75492000I0J-127000D01*
G01*
X61111000Y-75492000D02*
G75*
G02X61238000Y-75365000I127000J0D01*
G01*
X61238000Y-76635000D02*
G75*
G02X61111000Y-76508000I0J127000D01*
G01*
X62889000Y-76508000D02*
G75*
G02X62762000Y-76635000I-127000J0D01*
G01*
X62889000Y-75492000D02*
X62889000Y-76508000D01*
X61111000Y-76508000D02*
X61111000Y-75492000D01*
X62762000Y-75365000D02*
X61238000Y-75365000D01*
X61238000Y-76635000D02*
X62762000Y-76635000D01*
X67762000Y-75365000D02*
G75*
G02X67889000Y-75492000I0J-127000D01*
G01*
X66111000Y-75492000D02*
G75*
G02X66238000Y-75365000I127000J0D01*
G01*
X66238000Y-76635000D02*
G75*
G02X66111000Y-76508000I0J127000D01*
G01*
X67889000Y-76508000D02*
G75*
G02X67762000Y-76635000I-127000J0D01*
G01*
X67889000Y-75492000D02*
X67889000Y-76508000D01*
X66111000Y-76508000D02*
X66111000Y-75492000D01*
X67762000Y-75365000D02*
X66238000Y-75365000D01*
X66238000Y-76635000D02*
X67762000Y-76635000D01*
X72762000Y-75365000D02*
G75*
G02X72889000Y-75492000I0J-127000D01*
G01*
X71111000Y-75492000D02*
G75*
G02X71238000Y-75365000I127000J0D01*
G01*
X71238000Y-76635000D02*
G75*
G02X71111000Y-76508000I0J127000D01*
G01*
X72889000Y-76508000D02*
G75*
G02X72762000Y-76635000I-127000J0D01*
G01*
X72889000Y-75492000D02*
X72889000Y-76508000D01*
X71111000Y-76508000D02*
X71111000Y-75492000D01*
X72762000Y-75365000D02*
X71238000Y-75365000D01*
X71238000Y-76635000D02*
X72762000Y-76635000D01*
X77762000Y-75365000D02*
G75*
G02X77889000Y-75492000I0J-127000D01*
G01*
X76111000Y-75492000D02*
G75*
G02X76238000Y-75365000I127000J0D01*
G01*
X76238000Y-76635000D02*
G75*
G02X76111000Y-76508000I0J127000D01*
G01*
X77889000Y-76508000D02*
G75*
G02X77762000Y-76635000I-127000J0D01*
G01*
X77889000Y-75492000D02*
X77889000Y-76508000D01*
X76111000Y-76508000D02*
X76111000Y-75492000D01*
X77762000Y-75365000D02*
X76238000Y-75365000D01*
X76238000Y-76635000D02*
X77762000Y-76635000D01*
X82762000Y-75365000D02*
G75*
G02X82889000Y-75492000I0J-127000D01*
G01*
X81111000Y-75492000D02*
G75*
G02X81238000Y-75365000I127000J0D01*
G01*
X81238000Y-76635000D02*
G75*
G02X81111000Y-76508000I0J127000D01*
G01*
X82889000Y-76508000D02*
G75*
G02X82762000Y-76635000I-127000J0D01*
G01*
X82889000Y-75492000D02*
X82889000Y-76508000D01*
X81111000Y-76508000D02*
X81111000Y-75492000D01*
X82762000Y-75365000D02*
X81238000Y-75365000D01*
X81238000Y-76635000D02*
X82762000Y-76635000D01*
X87512000Y-75365000D02*
G75*
G02X87639000Y-75492000I0J-127000D01*
G01*
X85861000Y-75492000D02*
G75*
G02X85988000Y-75365000I127000J0D01*
G01*
X85988000Y-76635000D02*
G75*
G02X85861000Y-76508000I0J127000D01*
G01*
X87639000Y-76508000D02*
G75*
G02X87512000Y-76635000I-127000J0D01*
G01*
X87639000Y-75492000D02*
X87639000Y-76508000D01*
X85861000Y-76508000D02*
X85861000Y-75492000D01*
X87512000Y-75365000D02*
X85988000Y-75365000D01*
X85988000Y-76635000D02*
X87512000Y-76635000D01*
X92762000Y-75365000D02*
G75*
G02X92889000Y-75492000I0J-127000D01*
G01*
X91111000Y-75492000D02*
G75*
G02X91238000Y-75365000I127000J0D01*
G01*
X91238000Y-76635000D02*
G75*
G02X91111000Y-76508000I0J127000D01*
G01*
X92889000Y-76508000D02*
G75*
G02X92762000Y-76635000I-127000J0D01*
G01*
X92889000Y-75492000D02*
X92889000Y-76508000D01*
X91111000Y-76508000D02*
X91111000Y-75492000D01*
X92762000Y-75365000D02*
X91238000Y-75365000D01*
X91238000Y-76635000D02*
X92762000Y-76635000D01*
X64738000Y-58135000D02*
G75*
G02X64611000Y-58008000I0J127000D01*
G01*
X66389000Y-58008000D02*
G75*
G02X66262000Y-58135000I-127000J0D01*
G01*
X66262000Y-56865000D02*
G75*
G02X66389000Y-56992000I0J-127000D01*
G01*
X64611000Y-56992000D02*
G75*
G02X64738000Y-56865000I127000J0D01*
G01*
X64611000Y-58008000D02*
X64611000Y-56992000D01*
X66389000Y-56992000D02*
X66389000Y-58008000D01*
X64738000Y-58135000D02*
X66262000Y-58135000D01*
X66262000Y-56865000D02*
X64738000Y-56865000D01*
X54615000Y-81488000D02*
G75*
G02X54742000Y-81361000I127000J0D01*
G01*
X54742000Y-83139000D02*
G75*
G02X54615000Y-83012000I0J127000D01*
G01*
X55885000Y-83012000D02*
G75*
G02X55758000Y-83139000I-127000J0D01*
G01*
X55758000Y-81361000D02*
G75*
G02X55885000Y-81488000I0J-127000D01*
G01*
X54742000Y-81361000D02*
X55758000Y-81361000D01*
X55758000Y-83139000D02*
X54742000Y-83139000D01*
X54615000Y-81488000D02*
X54615000Y-83012000D01*
X55885000Y-83012000D02*
X55885000Y-81488000D01*
X82865000Y-58488000D02*
G75*
G02X82992000Y-58361000I127000J0D01*
G01*
X82992000Y-60139000D02*
G75*
G02X82865000Y-60012000I0J127000D01*
G01*
X84135000Y-60012000D02*
G75*
G02X84008000Y-60139000I-127000J0D01*
G01*
X84008000Y-58361000D02*
G75*
G02X84135000Y-58488000I0J-127000D01*
G01*
X82992000Y-58361000D02*
X84008000Y-58361000D01*
X84008000Y-60139000D02*
X82992000Y-60139000D01*
X82865000Y-58488000D02*
X82865000Y-60012000D01*
X84135000Y-60012000D02*
X84135000Y-58488000D01*
X70406000Y-92849000D02*
X70787000Y-92849000D01*
X70787000Y-92849000D02*
X70787000Y-96151000D01*
X70787000Y-96151000D02*
X70406000Y-96151000D01*
X70500000Y-94500000D02*
G75*
G03X70500000Y-94500000I-10000000J0D01*
G01*
X88365000Y-58488000D02*
G75*
G02X88492000Y-58361000I127000J0D01*
G01*
X88492000Y-60139000D02*
G75*
G02X88365000Y-60012000I0J127000D01*
G01*
X89635000Y-60012000D02*
G75*
G02X89508000Y-60139000I-127000J0D01*
G01*
X89508000Y-58361000D02*
G75*
G02X89635000Y-58488000I0J-127000D01*
G01*
X88492000Y-58361000D02*
X89508000Y-58361000D01*
X89508000Y-60139000D02*
X88492000Y-60139000D01*
X88365000Y-58488000D02*
X88365000Y-60012000D01*
X89635000Y-60012000D02*
X89635000Y-58488000D01*
X62833333Y-76849381D02*
X62833333Y-77563667D01*
X62880953Y-77706524D01*
X62976191Y-77801762D01*
X63119048Y-77849381D01*
X63214286Y-77849381D01*
X62357143Y-77849381D02*
X62357143Y-76849381D01*
X61976190Y-76849381D01*
X61880952Y-76897000D01*
X61833333Y-76944619D01*
X61785714Y-77039857D01*
X61785714Y-77182714D01*
X61833333Y-77277952D01*
X61880952Y-77325571D01*
X61976190Y-77373190D01*
X62357143Y-77373190D01*
X60833333Y-77849381D02*
X61404762Y-77849381D01*
X61119048Y-77849381D02*
X61119048Y-76849381D01*
X61214286Y-76992238D01*
X61309524Y-77087476D01*
X61404762Y-77135095D01*
X67833333Y-76849381D02*
X67833333Y-77563667D01*
X67880953Y-77706524D01*
X67976191Y-77801762D01*
X68119048Y-77849381D01*
X68214286Y-77849381D01*
X67357143Y-77849381D02*
X67357143Y-76849381D01*
X66976190Y-76849381D01*
X66880952Y-76897000D01*
X66833333Y-76944619D01*
X66785714Y-77039857D01*
X66785714Y-77182714D01*
X66833333Y-77277952D01*
X66880952Y-77325571D01*
X66976190Y-77373190D01*
X67357143Y-77373190D01*
X66404762Y-76944619D02*
X66357143Y-76897000D01*
X66261905Y-76849381D01*
X66023809Y-76849381D01*
X65928571Y-76897000D01*
X65880952Y-76944619D01*
X65833333Y-77039857D01*
X65833333Y-77135095D01*
X65880952Y-77277952D01*
X66452381Y-77849381D01*
X65833333Y-77849381D01*
X72833333Y-76849381D02*
X72833333Y-77563667D01*
X72880953Y-77706524D01*
X72976191Y-77801762D01*
X73119048Y-77849381D01*
X73214286Y-77849381D01*
X72357143Y-77849381D02*
X72357143Y-76849381D01*
X71976190Y-76849381D01*
X71880952Y-76897000D01*
X71833333Y-76944619D01*
X71785714Y-77039857D01*
X71785714Y-77182714D01*
X71833333Y-77277952D01*
X71880952Y-77325571D01*
X71976190Y-77373190D01*
X72357143Y-77373190D01*
X71452381Y-76849381D02*
X70833333Y-76849381D01*
X71166667Y-77230333D01*
X71023809Y-77230333D01*
X70928571Y-77277952D01*
X70880952Y-77325571D01*
X70833333Y-77420810D01*
X70833333Y-77658905D01*
X70880952Y-77754143D01*
X70928571Y-77801762D01*
X71023809Y-77849381D01*
X71309524Y-77849381D01*
X71404762Y-77801762D01*
X71452381Y-77754143D01*
X77833333Y-76849381D02*
X77833333Y-77563667D01*
X77880953Y-77706524D01*
X77976191Y-77801762D01*
X78119048Y-77849381D01*
X78214286Y-77849381D01*
X77357143Y-77849381D02*
X77357143Y-76849381D01*
X76976190Y-76849381D01*
X76880952Y-76897000D01*
X76833333Y-76944619D01*
X76785714Y-77039857D01*
X76785714Y-77182714D01*
X76833333Y-77277952D01*
X76880952Y-77325571D01*
X76976190Y-77373190D01*
X77357143Y-77373190D01*
X75928571Y-77182714D02*
X75928571Y-77849381D01*
X76166667Y-76801762D02*
X76404762Y-77516048D01*
X75785714Y-77516048D01*
X82833333Y-76849381D02*
X82833333Y-77563667D01*
X82880953Y-77706524D01*
X82976191Y-77801762D01*
X83119048Y-77849381D01*
X83214286Y-77849381D01*
X82357143Y-77849381D02*
X82357143Y-76849381D01*
X81976190Y-76849381D01*
X81880952Y-76897000D01*
X81833333Y-76944619D01*
X81785714Y-77039857D01*
X81785714Y-77182714D01*
X81833333Y-77277952D01*
X81880952Y-77325571D01*
X81976190Y-77373190D01*
X82357143Y-77373190D01*
X80880952Y-76849381D02*
X81357143Y-76849381D01*
X81404762Y-77325571D01*
X81357143Y-77277952D01*
X81261905Y-77230333D01*
X81023809Y-77230333D01*
X80928571Y-77277952D01*
X80880952Y-77325571D01*
X80833333Y-77420810D01*
X80833333Y-77658905D01*
X80880952Y-77754143D01*
X80928571Y-77801762D01*
X81023809Y-77849381D01*
X81261905Y-77849381D01*
X81357143Y-77801762D01*
X81404762Y-77754143D01*
X87583333Y-76849381D02*
X87583333Y-77563667D01*
X87630953Y-77706524D01*
X87726191Y-77801762D01*
X87869048Y-77849381D01*
X87964286Y-77849381D01*
X87107143Y-77849381D02*
X87107143Y-76849381D01*
X86726190Y-76849381D01*
X86630952Y-76897000D01*
X86583333Y-76944619D01*
X86535714Y-77039857D01*
X86535714Y-77182714D01*
X86583333Y-77277952D01*
X86630952Y-77325571D01*
X86726190Y-77373190D01*
X87107143Y-77373190D01*
X85678571Y-76849381D02*
X85869048Y-76849381D01*
X85964286Y-76897000D01*
X86011905Y-76944619D01*
X86107143Y-77087476D01*
X86154762Y-77277952D01*
X86154762Y-77658905D01*
X86107143Y-77754143D01*
X86059524Y-77801762D01*
X85964286Y-77849381D01*
X85773809Y-77849381D01*
X85678571Y-77801762D01*
X85630952Y-77754143D01*
X85583333Y-77658905D01*
X85583333Y-77420810D01*
X85630952Y-77325571D01*
X85678571Y-77277952D01*
X85773809Y-77230333D01*
X85964286Y-77230333D01*
X86059524Y-77277952D01*
X86107143Y-77325571D01*
X86154762Y-77420810D01*
X92833333Y-76849381D02*
X92833333Y-77563667D01*
X92880953Y-77706524D01*
X92976191Y-77801762D01*
X93119048Y-77849381D01*
X93214286Y-77849381D01*
X92357143Y-77849381D02*
X92357143Y-76849381D01*
X91976190Y-76849381D01*
X91880952Y-76897000D01*
X91833333Y-76944619D01*
X91785714Y-77039857D01*
X91785714Y-77182714D01*
X91833333Y-77277952D01*
X91880952Y-77325571D01*
X91976190Y-77373190D01*
X92357143Y-77373190D01*
X91452381Y-76849381D02*
X90785714Y-76849381D01*
X91214286Y-77849381D01*
X66333333Y-55555381D02*
X66333333Y-56269667D01*
X66380953Y-56412524D01*
X66476191Y-56507762D01*
X66619048Y-56555381D01*
X66714286Y-56555381D01*
X65857143Y-56555381D02*
X65857143Y-55555381D01*
X65476190Y-55555381D01*
X65380952Y-55603000D01*
X65333333Y-55650619D01*
X65285714Y-55745857D01*
X65285714Y-55888714D01*
X65333333Y-55983952D01*
X65380952Y-56031571D01*
X65476190Y-56079190D01*
X65857143Y-56079190D01*
X64714286Y-55983952D02*
X64809524Y-55936333D01*
X64857143Y-55888714D01*
X64904762Y-55793476D01*
X64904762Y-55745857D01*
X64857143Y-55650619D01*
X64809524Y-55603000D01*
X64714286Y-55555381D01*
X64523809Y-55555381D01*
X64428571Y-55603000D01*
X64380952Y-55650619D01*
X64333333Y-55745857D01*
X64333333Y-55793476D01*
X64380952Y-55888714D01*
X64428571Y-55936333D01*
X64523809Y-55983952D01*
X64714286Y-55983952D01*
X64809524Y-56031571D01*
X64857143Y-56079190D01*
X64904762Y-56174429D01*
X64904762Y-56364905D01*
X64857143Y-56460143D01*
X64809524Y-56507762D01*
X64714286Y-56555381D01*
X64523809Y-56555381D01*
X64428571Y-56507762D01*
X64380952Y-56460143D01*
X64333333Y-56364905D01*
X64333333Y-56174429D01*
X64380952Y-56079190D01*
X64428571Y-56031571D01*
X64523809Y-55983952D01*
X56099381Y-81416667D02*
X56813667Y-81416667D01*
X56956524Y-81369047D01*
X57051762Y-81273809D01*
X57099381Y-81130952D01*
X57099381Y-81035714D01*
X57099381Y-81892857D02*
X56099381Y-81892857D01*
X56099381Y-82273810D01*
X56147000Y-82369048D01*
X56194619Y-82416667D01*
X56289857Y-82464286D01*
X56432714Y-82464286D01*
X56527952Y-82416667D01*
X56575571Y-82369048D01*
X56623190Y-82273810D01*
X56623190Y-81892857D01*
X57099381Y-82940476D02*
X57099381Y-83130952D01*
X57051762Y-83226191D01*
X57004143Y-83273810D01*
X56861286Y-83369048D01*
X56670810Y-83416667D01*
X56289857Y-83416667D01*
X56194619Y-83369048D01*
X56147000Y-83321429D01*
X56099381Y-83226191D01*
X56099381Y-83035714D01*
X56147000Y-82940476D01*
X56194619Y-82892857D01*
X56289857Y-82845238D01*
X56527952Y-82845238D01*
X56623190Y-82892857D01*
X56670810Y-82940476D01*
X56718429Y-83035714D01*
X56718429Y-83226191D01*
X56670810Y-83321429D01*
X56623190Y-83369048D01*
X56527952Y-83416667D01*
X84349381Y-57940477D02*
X85063667Y-57940477D01*
X85206524Y-57892857D01*
X85301762Y-57797619D01*
X85349381Y-57654762D01*
X85349381Y-57559524D01*
X85349381Y-58416667D02*
X84349381Y-58416667D01*
X84349381Y-58797620D01*
X84397000Y-58892858D01*
X84444619Y-58940477D01*
X84539857Y-58988096D01*
X84682714Y-58988096D01*
X84777952Y-58940477D01*
X84825571Y-58892858D01*
X84873190Y-58797620D01*
X84873190Y-58416667D01*
X85349381Y-59940477D02*
X85349381Y-59369048D01*
X85349381Y-59654762D02*
X84349381Y-59654762D01*
X84492238Y-59559524D01*
X84587476Y-59464286D01*
X84635095Y-59369048D01*
X84349381Y-60559524D02*
X84349381Y-60654763D01*
X84397000Y-60750001D01*
X84444619Y-60797620D01*
X84539857Y-60845239D01*
X84730333Y-60892858D01*
X84968429Y-60892858D01*
X85158905Y-60845239D01*
X85254143Y-60797620D01*
X85301762Y-60750001D01*
X85349381Y-60654763D01*
X85349381Y-60559524D01*
X85301762Y-60464286D01*
X85254143Y-60416667D01*
X85158905Y-60369048D01*
X84968429Y-60321429D01*
X84730333Y-60321429D01*
X84539857Y-60369048D01*
X84444619Y-60416667D01*
X84397000Y-60464286D01*
X84349381Y-60559524D01*
X71731571Y-93714286D02*
X71779190Y-93857143D01*
X71826810Y-93904762D01*
X71922048Y-93952381D01*
X72064905Y-93952381D01*
X72160143Y-93904762D01*
X72207762Y-93857143D01*
X72255381Y-93761905D01*
X72255381Y-93380952D01*
X71255381Y-93380952D01*
X71255381Y-93714286D01*
X71303000Y-93809524D01*
X71350619Y-93857143D01*
X71445857Y-93904762D01*
X71541095Y-93904762D01*
X71636333Y-93857143D01*
X71683952Y-93809524D01*
X71731571Y-93714286D01*
X71731571Y-93380952D01*
X71255381Y-94238095D02*
X71255381Y-94809524D01*
X72255381Y-94523809D02*
X71255381Y-94523809D01*
X72255381Y-95666667D02*
X72255381Y-95095238D01*
X72255381Y-95380952D02*
X71255381Y-95380952D01*
X71398238Y-95285714D01*
X71493476Y-95190476D01*
X71541095Y-95095238D01*
X89849381Y-57940477D02*
X90563667Y-57940477D01*
X90706524Y-57892857D01*
X90801762Y-57797619D01*
X90849381Y-57654762D01*
X90849381Y-57559524D01*
X90849381Y-58416667D02*
X89849381Y-58416667D01*
X89849381Y-58797620D01*
X89897000Y-58892858D01*
X89944619Y-58940477D01*
X90039857Y-58988096D01*
X90182714Y-58988096D01*
X90277952Y-58940477D01*
X90325571Y-58892858D01*
X90373190Y-58797620D01*
X90373190Y-58416667D01*
X90849381Y-59940477D02*
X90849381Y-59369048D01*
X90849381Y-59654762D02*
X89849381Y-59654762D01*
X89992238Y-59559524D01*
X90087476Y-59464286D01*
X90135095Y-59369048D01*
X90849381Y-60892858D02*
X90849381Y-60321429D01*
X90849381Y-60607143D02*
X89849381Y-60607143D01*
X89992238Y-60511905D01*
X90087476Y-60416667D01*
X90135095Y-60321429D01*
%LPC*%
X62127000Y-75492000D02*
X61873000Y-75492000D01*
X61873000Y-76508000D02*
X62127000Y-76508000D01*
X61873000Y-75492000D02*
X61873000Y-76508000D01*
X62000000Y-76508000D02*
X62000000Y-75492000D01*
X62127000Y-75492000D02*
X62127000Y-76508000D01*
X67127000Y-75492000D02*
X66873000Y-75492000D01*
X66873000Y-76508000D02*
X67127000Y-76508000D01*
X66873000Y-75492000D02*
X66873000Y-76508000D01*
X67000000Y-76508000D02*
X67000000Y-75492000D01*
X67127000Y-75492000D02*
X67127000Y-76508000D01*
X72127000Y-75492000D02*
X71873000Y-75492000D01*
X71873000Y-76508000D02*
X72127000Y-76508000D01*
X71873000Y-75492000D02*
X71873000Y-76508000D01*
X72000000Y-76508000D02*
X72000000Y-75492000D01*
X72127000Y-75492000D02*
X72127000Y-76508000D01*
X77127000Y-75492000D02*
X76873000Y-75492000D01*
X76873000Y-76508000D02*
X77127000Y-76508000D01*
X76873000Y-75492000D02*
X76873000Y-76508000D01*
X77000000Y-76508000D02*
X77000000Y-75492000D01*
X77127000Y-75492000D02*
X77127000Y-76508000D01*
X82127000Y-75492000D02*
X81873000Y-75492000D01*
X81873000Y-76508000D02*
X82127000Y-76508000D01*
X81873000Y-75492000D02*
X81873000Y-76508000D01*
X82000000Y-76508000D02*
X82000000Y-75492000D01*
X82127000Y-75492000D02*
X82127000Y-76508000D01*
X86877000Y-75492000D02*
X86623000Y-75492000D01*
X86623000Y-76508000D02*
X86877000Y-76508000D01*
X86623000Y-75492000D02*
X86623000Y-76508000D01*
X86750000Y-76508000D02*
X86750000Y-75492000D01*
X86877000Y-75492000D02*
X86877000Y-76508000D01*
X92127000Y-75492000D02*
X91873000Y-75492000D01*
X91873000Y-76508000D02*
X92127000Y-76508000D01*
X91873000Y-75492000D02*
X91873000Y-76508000D01*
X92000000Y-76508000D02*
X92000000Y-75492000D01*
X92127000Y-75492000D02*
X92127000Y-76508000D01*
X65373000Y-58008000D02*
X65627000Y-58008000D01*
X65627000Y-56992000D02*
X65373000Y-56992000D01*
X65627000Y-58008000D02*
X65627000Y-56992000D01*
X65500000Y-56992000D02*
X65500000Y-58008000D01*
X65373000Y-58008000D02*
X65373000Y-56992000D01*
X54742000Y-82123000D02*
X54742000Y-82377000D01*
X55758000Y-82377000D02*
X55758000Y-82123000D01*
X54742000Y-82377000D02*
X55758000Y-82377000D01*
X55758000Y-82250000D02*
X54742000Y-82250000D01*
X54742000Y-82123000D02*
X55758000Y-82123000D01*
X82992000Y-59123000D02*
X82992000Y-59377000D01*
X84008000Y-59377000D02*
X84008000Y-59123000D01*
X82992000Y-59377000D02*
X84008000Y-59377000D01*
X84008000Y-59250000D02*
X82992000Y-59250000D01*
X82992000Y-59123000D02*
X84008000Y-59123000D01*
X88492000Y-59123000D02*
X88492000Y-59377000D01*
X89508000Y-59377000D02*
X89508000Y-59123000D01*
X88492000Y-59377000D02*
X89508000Y-59377000D01*
X89508000Y-59250000D02*
X88492000Y-59250000D01*
X88492000Y-59123000D02*
X89508000Y-59123000D01*
D12*
X61144000Y-127500000D03*
D13*
X63684000Y-127500000D03*
X66224000Y-127500000D03*
X68764000Y-127500000D03*
X71304000Y-127500000D03*
X73844000Y-127500000D03*
X76384000Y-127500000D03*
X78924000Y-127500000D03*
D12*
X84004000Y-127500000D03*
D13*
X86544000Y-127500000D03*
X89084000Y-127500000D03*
X91624000Y-127500000D03*
X94164000Y-127500000D03*
X96704000Y-127500000D03*
D12*
X52000000Y-79240000D03*
D13*
X54540000Y-79240000D03*
X57080000Y-79240000D03*
X59620000Y-79240000D03*
X62160000Y-79240000D03*
X64700000Y-79240000D03*
X67240000Y-79240000D03*
X69780000Y-79240000D03*
X72320000Y-79240000D03*
X74860000Y-79240000D03*
D12*
X78924000Y-79240000D03*
D13*
X81464000Y-79240000D03*
X84004000Y-79240000D03*
X86544000Y-79240000D03*
X89084000Y-79240000D03*
X91624000Y-79240000D03*
X94164000Y-79240000D03*
X96704000Y-79240000D03*
D14*
X94304513Y-104730013D03*
D15*
X96844513Y-104730013D03*
X94304513Y-102190013D03*
X96844513Y-102190013D03*
X94304513Y-99650013D03*
X96844513Y-99650013D03*
D16*
X61049840Y-57500000D03*
X53450160Y-57500000D03*
D17*
X62500000Y-76000000D03*
X61500000Y-76000000D03*
X67500000Y-76000000D03*
X66500000Y-76000000D03*
X72500000Y-76000000D03*
X71500000Y-76000000D03*
X77500000Y-76000000D03*
X76500000Y-76000000D03*
X82500000Y-76000000D03*
X81500000Y-76000000D03*
X87250000Y-76000000D03*
X86250000Y-76000000D03*
X92500000Y-76000000D03*
X91500000Y-76000000D03*
X65000000Y-57500000D03*
X66000000Y-57500000D03*
D18*
X55250000Y-81750000D03*
X55250000Y-82750000D03*
X83500000Y-58750000D03*
X83500000Y-59750000D03*
D19*
X52500000Y-102950000D03*
X52500000Y-100050000D03*
D20*
X60500000Y-82500000D03*
D21*
X60500000Y-94500000D03*
D20*
X60500000Y-106500000D03*
D22*
X94500000Y-111250000D03*
D19*
X97500000Y-111250000D03*
X96621320Y-113371320D03*
X94500000Y-114250000D03*
X92378680Y-113371320D03*
X91500000Y-111250000D03*
X92378680Y-109128680D03*
X94500000Y-108250000D03*
X96621320Y-109128680D03*
D22*
X54500000Y-111250000D03*
D19*
X57500000Y-111250000D03*
X56621320Y-113371320D03*
X54500000Y-114250000D03*
X52378680Y-113371320D03*
X51500000Y-111250000D03*
X52378680Y-109128680D03*
X54500000Y-108250000D03*
X56621320Y-109128680D03*
D22*
X74500000Y-55000000D03*
D19*
X77500000Y-55000000D03*
X76621320Y-57121320D03*
X74500000Y-58000000D03*
X72378680Y-57121320D03*
X71500000Y-55000000D03*
X72378680Y-52878680D03*
X74500000Y-52000000D03*
X76621320Y-52878680D03*
D18*
X89000000Y-58750000D03*
X89000000Y-59750000D03*
D23*
X88960000Y-62350000D03*
X91500000Y-62350000D03*
X94040000Y-62350000D03*
D24*
X53585000Y-86519000D03*
X53585000Y-90519000D03*
M02*
