G04 #@! TF.FileFunction,Soldermask,Top*
%FSLAX46Y46*%
G04 Gerber Fmt 4.6, Leading zero omitted, Abs format (unit mm)*
G04 Created by KiCad (PCBNEW 4.0.0-rc1-stable) date 8/9/2016 11:22:53 PM*
%MOMM*%
G01*
G04 APERTURE LIST*
%ADD10C,0.100000*%
%ADD11R,6.300000X3.800000*%
%ADD12C,20.000000*%
%ADD13R,1.300000X1.550000*%
%ADD14R,1.100000X1.050000*%
%ADD15R,2.027200X2.027200*%
%ADD16O,2.027200X2.027200*%
%ADD17R,2.300000X2.300000*%
%ADD18C,2.300000*%
%ADD19R,2.200000X2.300000*%
%ADD20C,2.200000*%
%ADD21R,0.950000X2.000000*%
%ADD22R,0.800000X1.200000*%
%ADD23C,2.000000*%
G04 APERTURE END LIST*
D10*
D11*
X112000000Y-97000000D03*
D12*
X112000000Y-85000000D03*
D11*
X112000000Y-73000000D03*
D13*
X122250000Y-75500000D03*
X120250000Y-75500000D03*
D14*
X122000000Y-73500000D03*
X120500000Y-73500000D03*
D15*
X105250000Y-70000000D03*
D16*
X102710000Y-70000000D03*
X105250000Y-67460000D03*
X102710000Y-67460000D03*
X105250000Y-64920000D03*
X102710000Y-64920000D03*
D17*
X117500000Y-53750000D03*
D18*
X120040000Y-53750000D03*
D17*
X104500000Y-53750000D03*
D18*
X107040000Y-53750000D03*
D19*
X110750000Y-53750000D03*
D20*
X113290000Y-53750000D03*
D21*
X121905000Y-63850000D03*
X120635000Y-63850000D03*
X119365000Y-63850000D03*
X118095000Y-63850000D03*
X118095000Y-71150000D03*
X119365000Y-71150000D03*
X120635000Y-71150000D03*
X121905000Y-71150000D03*
D22*
X118000000Y-58250000D03*
X119500000Y-58250000D03*
X105000000Y-58250000D03*
X106500000Y-58250000D03*
X111250000Y-58250000D03*
X112750000Y-58250000D03*
X111250000Y-63000000D03*
X112750000Y-63000000D03*
X120500000Y-61500000D03*
X122000000Y-61500000D03*
D23*
X109000000Y-65500000D03*
X115000000Y-65500000D03*
X109000000Y-69500000D03*
X115000000Y-69500000D03*
M02*
