G04 #@! TF.FileFunction,Legend,Top*
%FSLAX46Y46*%
G04 Gerber Fmt 4.6, Leading zero omitted, Abs format (unit mm)*
G04 Created by KiCad (PCBNEW 4.0.0-rc1-stable) date 8/9/2016 11:22:53 PM*
%MOMM*%
G01*
G04 APERTURE LIST*
%ADD10C,0.100000*%
%ADD11C,0.150000*%
%ADD12R,6.300000X3.800000*%
%ADD13C,20.000000*%
%ADD14R,1.300000X1.550000*%
%ADD15R,1.100000X1.050000*%
%ADD16R,2.027200X2.027200*%
%ADD17O,2.027200X2.027200*%
%ADD18R,2.300000X2.300000*%
%ADD19C,2.300000*%
%ADD20R,2.200000X2.300000*%
%ADD21C,2.200000*%
%ADD22R,0.950000X2.000000*%
%ADD23R,0.800000X1.200000*%
%ADD24C,2.000000*%
G04 APERTURE END LIST*
D10*
D11*
X121906000Y-86651000D02*
X122287000Y-86651000D01*
X122287000Y-86651000D02*
X122287000Y-83349000D01*
X122287000Y-83349000D02*
X121906000Y-83349000D01*
X122000000Y-85000000D02*
G75*
G03X122000000Y-85000000I-10000000J0D01*
G01*
X120750000Y-76350000D02*
X121750000Y-76350000D01*
X121750000Y-74650000D02*
X120750000Y-74650000D01*
X121600000Y-74100000D02*
X120900000Y-74100000D01*
X120900000Y-72900000D02*
X121600000Y-72900000D01*
X106520000Y-68730000D02*
X106520000Y-63650000D01*
X106800000Y-71550000D02*
X105250000Y-71550000D01*
X103980000Y-71270000D02*
X103980000Y-68730000D01*
X103980000Y-68730000D02*
X106520000Y-68730000D01*
X106520000Y-63650000D02*
X101440000Y-63650000D01*
X101440000Y-63650000D02*
X101440000Y-68730000D01*
X106800000Y-71550000D02*
X106800000Y-70000000D01*
X101440000Y-71270000D02*
X103980000Y-71270000D01*
X101440000Y-68730000D02*
X101440000Y-71270000D01*
X117301000Y-55064000D02*
X117301000Y-54864000D01*
X117301000Y-52470000D02*
X117301000Y-52650000D01*
X120528744Y-52780357D02*
G75*
G03X117301000Y-52464000I-1727744J-1003643D01*
G01*
X119853006Y-52650932D02*
G75*
G03X117750000Y-52650000I-1052006J-1133068D01*
G01*
X117313780Y-55090726D02*
G75*
G03X120551000Y-54744000I1497220J1306726D01*
G01*
X117787111Y-54863253D02*
G75*
G03X119835000Y-54844000I1013889J1079253D01*
G01*
X104301000Y-55064000D02*
X104301000Y-54864000D01*
X104301000Y-52470000D02*
X104301000Y-52650000D01*
X107528744Y-52780357D02*
G75*
G03X104301000Y-52464000I-1727744J-1003643D01*
G01*
X106853006Y-52650932D02*
G75*
G03X104750000Y-52650000I-1052006J-1133068D01*
G01*
X104313780Y-55090726D02*
G75*
G03X107551000Y-54744000I1497220J1306726D01*
G01*
X104787111Y-54863253D02*
G75*
G03X106835000Y-54844000I1013889J1079253D01*
G01*
X109535112Y-55274904D02*
G75*
G03X109520000Y-52250000I2484888J1524904D01*
G01*
X109520000Y-55250000D02*
X109520000Y-52250000D01*
X114537936Y-53750000D02*
G75*
G03X114537936Y-53750000I-2517936J0D01*
G01*
X122755000Y-64750000D02*
X122455000Y-64750000D01*
X122755000Y-70250000D02*
X122455000Y-70250000D01*
X117245000Y-70250000D02*
X117545000Y-70250000D01*
X117245000Y-64750000D02*
X117545000Y-64750000D01*
X122755000Y-64750000D02*
X122755000Y-70250000D01*
X117245000Y-64750000D02*
X117245000Y-70250000D01*
X122455000Y-64750000D02*
X122455000Y-63000000D01*
X119250000Y-58925000D02*
X118250000Y-58925000D01*
X118250000Y-57575000D02*
X119250000Y-57575000D01*
X106250000Y-58925000D02*
X105250000Y-58925000D01*
X105250000Y-57575000D02*
X106250000Y-57575000D01*
X112500000Y-58925000D02*
X111500000Y-58925000D01*
X111500000Y-57575000D02*
X112500000Y-57575000D01*
X112500000Y-63675000D02*
X111500000Y-63675000D01*
X111500000Y-62325000D02*
X112500000Y-62325000D01*
X121750000Y-62175000D02*
X120750000Y-62175000D01*
X120750000Y-60825000D02*
X121750000Y-60825000D01*
X115950000Y-70500000D02*
X115950000Y-70400000D01*
X116050000Y-70550000D02*
X115700000Y-70550000D01*
X115700000Y-70550000D02*
G75*
G03X116050000Y-70200000I-700000J1050000D01*
G01*
X116050000Y-70550000D02*
X116050000Y-70200000D01*
X113414214Y-67500000D02*
G75*
G03X113414214Y-67500000I-1414214J0D01*
G01*
X114000000Y-64500000D02*
X110000000Y-64500000D01*
X114000000Y-70500000D02*
X110000000Y-70500000D01*
X115000000Y-66750000D02*
X115000000Y-68250000D01*
X109000000Y-68250000D02*
X109000000Y-66750000D01*
D10*
X115000000Y-67500000D02*
X115000000Y-67500000D01*
X110000000Y-64500000D02*
X114000000Y-64500000D01*
X110000000Y-70500000D02*
X114000000Y-70500000D01*
X109000000Y-67500000D02*
X109000000Y-67500000D01*
X113414214Y-67500000D02*
G75*
G03X113414214Y-67500000I-1414214J0D01*
G01*
D11*
X123231571Y-85785714D02*
X123279190Y-85642857D01*
X123326810Y-85595238D01*
X123422048Y-85547619D01*
X123564905Y-85547619D01*
X123660143Y-85595238D01*
X123707762Y-85642857D01*
X123755381Y-85738095D01*
X123755381Y-86119048D01*
X122755381Y-86119048D01*
X122755381Y-85785714D01*
X122803000Y-85690476D01*
X122850619Y-85642857D01*
X122945857Y-85595238D01*
X123041095Y-85595238D01*
X123136333Y-85642857D01*
X123183952Y-85690476D01*
X123231571Y-85785714D01*
X123231571Y-86119048D01*
X122755381Y-85261905D02*
X122755381Y-84690476D01*
X123755381Y-84976191D02*
X122755381Y-84976191D01*
X123755381Y-83833333D02*
X123755381Y-84404762D01*
X123755381Y-84119048D02*
X122755381Y-84119048D01*
X122898238Y-84214286D01*
X122993476Y-84309524D01*
X123041095Y-84404762D01*
X118333334Y-75857143D02*
X118285715Y-75904762D01*
X118142858Y-75952381D01*
X118047620Y-75952381D01*
X117904762Y-75904762D01*
X117809524Y-75809524D01*
X117761905Y-75714286D01*
X117714286Y-75523810D01*
X117714286Y-75380952D01*
X117761905Y-75190476D01*
X117809524Y-75095238D01*
X117904762Y-75000000D01*
X118047620Y-74952381D01*
X118142858Y-74952381D01*
X118285715Y-75000000D01*
X118333334Y-75047619D01*
X119285715Y-75952381D02*
X118714286Y-75952381D01*
X119000000Y-75952381D02*
X119000000Y-74952381D01*
X118904762Y-75095238D01*
X118809524Y-75190476D01*
X118714286Y-75238095D01*
X118333334Y-73857143D02*
X118285715Y-73904762D01*
X118142858Y-73952381D01*
X118047620Y-73952381D01*
X117904762Y-73904762D01*
X117809524Y-73809524D01*
X117761905Y-73714286D01*
X117714286Y-73523810D01*
X117714286Y-73380952D01*
X117761905Y-73190476D01*
X117809524Y-73095238D01*
X117904762Y-73000000D01*
X118047620Y-72952381D01*
X118142858Y-72952381D01*
X118285715Y-73000000D01*
X118333334Y-73047619D01*
X118714286Y-73047619D02*
X118761905Y-73000000D01*
X118857143Y-72952381D01*
X119095239Y-72952381D01*
X119190477Y-73000000D01*
X119238096Y-73047619D01*
X119285715Y-73142857D01*
X119285715Y-73238095D01*
X119238096Y-73380952D01*
X118666667Y-73952381D01*
X119285715Y-73952381D01*
X102785715Y-63107143D02*
X102738096Y-63154762D01*
X102595239Y-63202381D01*
X102500001Y-63202381D01*
X102357143Y-63154762D01*
X102261905Y-63059524D01*
X102214286Y-62964286D01*
X102166667Y-62773810D01*
X102166667Y-62630952D01*
X102214286Y-62440476D01*
X102261905Y-62345238D01*
X102357143Y-62250000D01*
X102500001Y-62202381D01*
X102595239Y-62202381D01*
X102738096Y-62250000D01*
X102785715Y-62297619D01*
X103404762Y-62202381D02*
X103595239Y-62202381D01*
X103690477Y-62250000D01*
X103785715Y-62345238D01*
X103833334Y-62535714D01*
X103833334Y-62869048D01*
X103785715Y-63059524D01*
X103690477Y-63154762D01*
X103595239Y-63202381D01*
X103404762Y-63202381D01*
X103309524Y-63154762D01*
X103214286Y-63059524D01*
X103166667Y-62869048D01*
X103166667Y-62535714D01*
X103214286Y-62345238D01*
X103309524Y-62250000D01*
X103404762Y-62202381D01*
X104261905Y-63202381D02*
X104261905Y-62202381D01*
X104833334Y-63202381D01*
X104833334Y-62202381D01*
X105833334Y-63202381D02*
X105261905Y-63202381D01*
X105547619Y-63202381D02*
X105547619Y-62202381D01*
X105452381Y-62345238D01*
X105357143Y-62440476D01*
X105261905Y-62488095D01*
X118261905Y-51452381D02*
X118261905Y-50452381D01*
X118500000Y-50452381D01*
X118642858Y-50500000D01*
X118738096Y-50595238D01*
X118785715Y-50690476D01*
X118833334Y-50880952D01*
X118833334Y-51023810D01*
X118785715Y-51214286D01*
X118738096Y-51309524D01*
X118642858Y-51404762D01*
X118500000Y-51452381D01*
X118261905Y-51452381D01*
X119785715Y-51452381D02*
X119214286Y-51452381D01*
X119500000Y-51452381D02*
X119500000Y-50452381D01*
X119404762Y-50595238D01*
X119309524Y-50690476D01*
X119214286Y-50738095D01*
X115548095Y-55942381D02*
X115548095Y-54942381D01*
X116119524Y-55942381D02*
X115690952Y-55370952D01*
X116119524Y-54942381D02*
X115548095Y-55513810D01*
X105261905Y-51452381D02*
X105261905Y-50452381D01*
X105500000Y-50452381D01*
X105642858Y-50500000D01*
X105738096Y-50595238D01*
X105785715Y-50690476D01*
X105833334Y-50880952D01*
X105833334Y-51023810D01*
X105785715Y-51214286D01*
X105738096Y-51309524D01*
X105642858Y-51404762D01*
X105500000Y-51452381D01*
X105261905Y-51452381D01*
X106214286Y-50547619D02*
X106261905Y-50500000D01*
X106357143Y-50452381D01*
X106595239Y-50452381D01*
X106690477Y-50500000D01*
X106738096Y-50547619D01*
X106785715Y-50642857D01*
X106785715Y-50738095D01*
X106738096Y-50880952D01*
X106166667Y-51452381D01*
X106785715Y-51452381D01*
X102548095Y-55942381D02*
X102548095Y-54942381D01*
X103119524Y-55942381D02*
X102690952Y-55370952D01*
X103119524Y-54942381D02*
X102548095Y-55513810D01*
X114511905Y-51452381D02*
X114511905Y-50452381D01*
X114750000Y-50452381D01*
X114892858Y-50500000D01*
X114988096Y-50595238D01*
X115035715Y-50690476D01*
X115083334Y-50880952D01*
X115083334Y-51023810D01*
X115035715Y-51214286D01*
X114988096Y-51309524D01*
X114892858Y-51404762D01*
X114750000Y-51452381D01*
X114511905Y-51452381D01*
X115416667Y-50452381D02*
X116035715Y-50452381D01*
X115702381Y-50833333D01*
X115845239Y-50833333D01*
X115940477Y-50880952D01*
X115988096Y-50928571D01*
X116035715Y-51023810D01*
X116035715Y-51261905D01*
X115988096Y-51357143D01*
X115940477Y-51404762D01*
X115845239Y-51452381D01*
X115559524Y-51452381D01*
X115464286Y-51404762D01*
X115416667Y-51357143D01*
X108583095Y-56107381D02*
X108583095Y-55107381D01*
X109154524Y-56107381D02*
X108725952Y-55535952D01*
X109154524Y-55107381D02*
X108583095Y-55678810D01*
X116952381Y-68476190D02*
X115952381Y-68476190D01*
X116857143Y-67428571D02*
X116904762Y-67476190D01*
X116952381Y-67619047D01*
X116952381Y-67714285D01*
X116904762Y-67857143D01*
X116809524Y-67952381D01*
X116714286Y-68000000D01*
X116523810Y-68047619D01*
X116380952Y-68047619D01*
X116190476Y-68000000D01*
X116095238Y-67952381D01*
X116000000Y-67857143D01*
X115952381Y-67714285D01*
X115952381Y-67619047D01*
X116000000Y-67476190D01*
X116047619Y-67428571D01*
X116952381Y-66476190D02*
X116952381Y-67047619D01*
X116952381Y-66761905D02*
X115952381Y-66761905D01*
X116095238Y-66857143D01*
X116190476Y-66952381D01*
X116238095Y-67047619D01*
X120833334Y-58702381D02*
X120500000Y-58226190D01*
X120261905Y-58702381D02*
X120261905Y-57702381D01*
X120642858Y-57702381D01*
X120738096Y-57750000D01*
X120785715Y-57797619D01*
X120833334Y-57892857D01*
X120833334Y-58035714D01*
X120785715Y-58130952D01*
X120738096Y-58178571D01*
X120642858Y-58226190D01*
X120261905Y-58226190D01*
X121785715Y-58702381D02*
X121214286Y-58702381D01*
X121500000Y-58702381D02*
X121500000Y-57702381D01*
X121404762Y-57845238D01*
X121309524Y-57940476D01*
X121214286Y-57988095D01*
X107833334Y-58702381D02*
X107500000Y-58226190D01*
X107261905Y-58702381D02*
X107261905Y-57702381D01*
X107642858Y-57702381D01*
X107738096Y-57750000D01*
X107785715Y-57797619D01*
X107833334Y-57892857D01*
X107833334Y-58035714D01*
X107785715Y-58130952D01*
X107738096Y-58178571D01*
X107642858Y-58226190D01*
X107261905Y-58226190D01*
X108214286Y-57797619D02*
X108261905Y-57750000D01*
X108357143Y-57702381D01*
X108595239Y-57702381D01*
X108690477Y-57750000D01*
X108738096Y-57797619D01*
X108785715Y-57892857D01*
X108785715Y-57988095D01*
X108738096Y-58130952D01*
X108166667Y-58702381D01*
X108785715Y-58702381D01*
X114083334Y-58702381D02*
X113750000Y-58226190D01*
X113511905Y-58702381D02*
X113511905Y-57702381D01*
X113892858Y-57702381D01*
X113988096Y-57750000D01*
X114035715Y-57797619D01*
X114083334Y-57892857D01*
X114083334Y-58035714D01*
X114035715Y-58130952D01*
X113988096Y-58178571D01*
X113892858Y-58226190D01*
X113511905Y-58226190D01*
X114416667Y-57702381D02*
X115035715Y-57702381D01*
X114702381Y-58083333D01*
X114845239Y-58083333D01*
X114940477Y-58130952D01*
X114988096Y-58178571D01*
X115035715Y-58273810D01*
X115035715Y-58511905D01*
X114988096Y-58607143D01*
X114940477Y-58654762D01*
X114845239Y-58702381D01*
X114559524Y-58702381D01*
X114464286Y-58654762D01*
X114416667Y-58607143D01*
X109583334Y-63452381D02*
X109250000Y-62976190D01*
X109011905Y-63452381D02*
X109011905Y-62452381D01*
X109392858Y-62452381D01*
X109488096Y-62500000D01*
X109535715Y-62547619D01*
X109583334Y-62642857D01*
X109583334Y-62785714D01*
X109535715Y-62880952D01*
X109488096Y-62928571D01*
X109392858Y-62976190D01*
X109011905Y-62976190D01*
X110440477Y-62785714D02*
X110440477Y-63452381D01*
X110202381Y-62404762D02*
X109964286Y-63119048D01*
X110583334Y-63119048D01*
X118833334Y-61952381D02*
X118500000Y-61476190D01*
X118261905Y-61952381D02*
X118261905Y-60952381D01*
X118642858Y-60952381D01*
X118738096Y-61000000D01*
X118785715Y-61047619D01*
X118833334Y-61142857D01*
X118833334Y-61285714D01*
X118785715Y-61380952D01*
X118738096Y-61428571D01*
X118642858Y-61476190D01*
X118261905Y-61476190D01*
X119738096Y-60952381D02*
X119261905Y-60952381D01*
X119214286Y-61428571D01*
X119261905Y-61380952D01*
X119357143Y-61333333D01*
X119595239Y-61333333D01*
X119690477Y-61380952D01*
X119738096Y-61428571D01*
X119785715Y-61523810D01*
X119785715Y-61761905D01*
X119738096Y-61857143D01*
X119690477Y-61904762D01*
X119595239Y-61952381D01*
X119357143Y-61952381D01*
X119261905Y-61904762D01*
X119214286Y-61857143D01*
X107904762Y-68833333D02*
X107952381Y-68690476D01*
X107952381Y-68452380D01*
X107904762Y-68357142D01*
X107857143Y-68309523D01*
X107761905Y-68261904D01*
X107666667Y-68261904D01*
X107571429Y-68309523D01*
X107523810Y-68357142D01*
X107476190Y-68452380D01*
X107428571Y-68642857D01*
X107380952Y-68738095D01*
X107333333Y-68785714D01*
X107238095Y-68833333D01*
X107142857Y-68833333D01*
X107047619Y-68785714D01*
X107000000Y-68738095D01*
X106952381Y-68642857D01*
X106952381Y-68404761D01*
X107000000Y-68261904D01*
X106952381Y-67928571D02*
X107952381Y-67690476D01*
X107238095Y-67499999D01*
X107952381Y-67309523D01*
X106952381Y-67071428D01*
X107952381Y-66166666D02*
X107952381Y-66738095D01*
X107952381Y-66452381D02*
X106952381Y-66452381D01*
X107095238Y-66547619D01*
X107190476Y-66642857D01*
X107238095Y-66738095D01*
%LPC*%
D12*
X112000000Y-97000000D03*
D13*
X112000000Y-85000000D03*
D12*
X112000000Y-73000000D03*
D14*
X122250000Y-75500000D03*
X120250000Y-75500000D03*
D15*
X122000000Y-73500000D03*
X120500000Y-73500000D03*
D16*
X105250000Y-70000000D03*
D17*
X102710000Y-70000000D03*
X105250000Y-67460000D03*
X102710000Y-67460000D03*
X105250000Y-64920000D03*
X102710000Y-64920000D03*
D18*
X117500000Y-53750000D03*
D19*
X120040000Y-53750000D03*
D18*
X104500000Y-53750000D03*
D19*
X107040000Y-53750000D03*
D20*
X110750000Y-53750000D03*
D21*
X113290000Y-53750000D03*
D22*
X121905000Y-63850000D03*
X120635000Y-63850000D03*
X119365000Y-63850000D03*
X118095000Y-63850000D03*
X118095000Y-71150000D03*
X119365000Y-71150000D03*
X120635000Y-71150000D03*
X121905000Y-71150000D03*
D23*
X118000000Y-58250000D03*
X119500000Y-58250000D03*
X105000000Y-58250000D03*
X106500000Y-58250000D03*
X111250000Y-58250000D03*
X112750000Y-58250000D03*
X111250000Y-63000000D03*
X112750000Y-63000000D03*
X120500000Y-61500000D03*
X122000000Y-61500000D03*
D24*
X109000000Y-65500000D03*
X115000000Y-65500000D03*
X109000000Y-69500000D03*
X115000000Y-69500000D03*
M02*
