G04 #@! TF.FileFunction,Copper,L1,Top,Signal*
%FSLAX46Y46*%
G04 Gerber Fmt 4.6, Leading zero omitted, Abs format (unit mm)*
G04 Created by KiCad (PCBNEW 4.0.0-rc1-stable) date 8/9/2016 11:22:53 PM*
%MOMM*%
G01*
G04 APERTURE LIST*
%ADD10C,0.100000*%
%ADD11R,6.000000X3.500000*%
%ADD12C,14.000000*%
%ADD13R,1.000000X1.250000*%
%ADD14R,0.800000X0.750000*%
%ADD15R,1.727200X1.727200*%
%ADD16O,1.727200X1.727200*%
%ADD17R,2.000000X2.000000*%
%ADD18C,2.000000*%
%ADD19R,1.900000X2.000000*%
%ADD20C,1.900000*%
%ADD21R,0.650000X1.700000*%
%ADD22R,0.500000X0.900000*%
%ADD23C,1.700000*%
%ADD24C,0.600000*%
%ADD25C,0.250000*%
%ADD26C,0.152400*%
G04 APERTURE END LIST*
D10*
D11*
X112000000Y-97000000D03*
D12*
X112000000Y-85000000D03*
D11*
X112000000Y-73000000D03*
D13*
X122250000Y-75500000D03*
X120250000Y-75500000D03*
D14*
X122000000Y-73500000D03*
X120500000Y-73500000D03*
D15*
X105250000Y-70000000D03*
D16*
X102710000Y-70000000D03*
X105250000Y-67460000D03*
X102710000Y-67460000D03*
X105250000Y-64920000D03*
X102710000Y-64920000D03*
D17*
X117500000Y-53750000D03*
D18*
X120040000Y-53750000D03*
D17*
X104500000Y-53750000D03*
D18*
X107040000Y-53750000D03*
D19*
X110750000Y-53750000D03*
D20*
X113290000Y-53750000D03*
D21*
X121905000Y-63850000D03*
X120635000Y-63850000D03*
X119365000Y-63850000D03*
X118095000Y-63850000D03*
X118095000Y-71150000D03*
X119365000Y-71150000D03*
X120635000Y-71150000D03*
X121905000Y-71150000D03*
D22*
X118000000Y-58250000D03*
X119500000Y-58250000D03*
X105000000Y-58250000D03*
X106500000Y-58250000D03*
X111250000Y-58250000D03*
X112750000Y-58250000D03*
X111250000Y-63000000D03*
X112750000Y-63000000D03*
X120500000Y-61500000D03*
X122000000Y-61500000D03*
D23*
X109000000Y-65500000D03*
X115000000Y-65500000D03*
X109000000Y-69500000D03*
X115000000Y-69500000D03*
D24*
X121750000Y-69500000D03*
X118000000Y-69500000D03*
X120750000Y-67250000D03*
X104000000Y-58250000D03*
X117000000Y-58250000D03*
D25*
X122250000Y-78500000D02*
X122250000Y-90500000D01*
X115750000Y-97000000D02*
X112000000Y-97000000D01*
X122250000Y-90500000D02*
X115750000Y-97000000D01*
X112000000Y-73000000D02*
X115750000Y-73000000D01*
X122250000Y-78500000D02*
X122250000Y-75500000D01*
X121250000Y-78500000D02*
X122250000Y-78500000D01*
X115750000Y-73000000D02*
X121250000Y-78500000D01*
X122000000Y-73500000D02*
X122000000Y-74250000D01*
X122250000Y-74500000D02*
X122250000Y-75500000D01*
X122000000Y-74250000D02*
X122250000Y-74500000D01*
X121905000Y-71150000D02*
X121905000Y-72405000D01*
X122000000Y-72500000D02*
X122000000Y-73500000D01*
X121905000Y-72405000D02*
X122000000Y-72500000D01*
X121905000Y-69655000D02*
X121905000Y-71150000D01*
X121750000Y-69500000D02*
X121905000Y-69655000D01*
X111250000Y-63000000D02*
X111250000Y-61500000D01*
X120500000Y-61500000D02*
X111250000Y-61500000D01*
X111250000Y-61500000D02*
X102250000Y-61500000D01*
X101500000Y-68790000D02*
X102710000Y-70000000D01*
X101500000Y-62250000D02*
X101500000Y-68790000D01*
X102250000Y-61500000D02*
X101500000Y-62250000D01*
X105250000Y-70000000D02*
X107000000Y-68250000D01*
X119365000Y-69615000D02*
X119365000Y-71150000D01*
X118000000Y-68250000D02*
X119365000Y-69615000D01*
X107000000Y-68250000D02*
X118000000Y-68250000D01*
X118095000Y-69595000D02*
X118095000Y-71150000D01*
X118000000Y-69500000D02*
X118095000Y-69595000D01*
X105250000Y-64920000D02*
X107080000Y-66750000D01*
X121905000Y-65595000D02*
X121905000Y-63850000D01*
X121250000Y-66250000D02*
X121905000Y-65595000D01*
X120500000Y-66250000D02*
X121250000Y-66250000D01*
X120000000Y-66750000D02*
X120500000Y-66250000D01*
X107080000Y-66750000D02*
X120000000Y-66750000D01*
X121905000Y-63850000D02*
X121905000Y-62595000D01*
X122000000Y-62500000D02*
X122000000Y-61500000D01*
X121905000Y-62595000D02*
X122000000Y-62500000D01*
X119500000Y-58250000D02*
X119500000Y-54290000D01*
X119500000Y-54290000D02*
X120040000Y-53750000D01*
X106500000Y-58250000D02*
X106500000Y-54290000D01*
X106500000Y-54290000D02*
X107040000Y-53750000D01*
X112750000Y-58250000D02*
X112750000Y-54290000D01*
X112750000Y-54290000D02*
X113290000Y-53750000D01*
X120635000Y-63850000D02*
X120635000Y-62865000D01*
X111250000Y-59000000D02*
X111250000Y-58250000D01*
X111500000Y-59250000D02*
X111250000Y-59000000D01*
X120750000Y-59250000D02*
X111500000Y-59250000D01*
X121250000Y-59750000D02*
X120750000Y-59250000D01*
X121250000Y-62250000D02*
X121250000Y-59750000D01*
X120635000Y-62865000D02*
X121250000Y-62250000D01*
X112750000Y-63000000D02*
X112750000Y-65500000D01*
X115000000Y-65500000D02*
X112750000Y-65500000D01*
X112750000Y-65500000D02*
X109000000Y-65500000D01*
X115000000Y-65500000D02*
X118750000Y-65500000D01*
X118750000Y-65500000D02*
X119365000Y-64885000D01*
X119365000Y-64885000D02*
X119365000Y-63850000D01*
X120635000Y-67365000D02*
X120750000Y-67250000D01*
X120635000Y-67365000D02*
X120635000Y-67500000D01*
X120635000Y-67500000D02*
X105290000Y-67500000D01*
X105290000Y-67500000D02*
X105250000Y-67460000D01*
X120635000Y-71150000D02*
X120635000Y-67500000D01*
X118000000Y-58250000D02*
X117000000Y-58250000D01*
X104000000Y-58250000D02*
X105000000Y-58250000D01*
D26*
G36*
X122626854Y-50486644D02*
X123158273Y-50841727D01*
X123513356Y-51373147D01*
X123645000Y-52034966D01*
X123645000Y-97965034D01*
X123513356Y-98626853D01*
X123158273Y-99158273D01*
X122626854Y-99513356D01*
X121965034Y-99645000D01*
X102034966Y-99645000D01*
X101373147Y-99513356D01*
X100841727Y-99158273D01*
X100486644Y-98626854D01*
X100355000Y-97965034D01*
X100355000Y-86632524D01*
X101856933Y-86632524D01*
X103253767Y-90389839D01*
X103673400Y-91017863D01*
X105261118Y-91702537D01*
X111963655Y-85000000D01*
X105261118Y-78297463D01*
X103673400Y-78982137D01*
X102004288Y-82626672D01*
X101856933Y-86632524D01*
X100355000Y-86632524D01*
X100355000Y-78261118D01*
X105297463Y-78261118D01*
X112000000Y-84963655D01*
X118702537Y-78261118D01*
X118017863Y-76673400D01*
X114441447Y-75035485D01*
X115000000Y-75035485D01*
X115103762Y-75015961D01*
X115199060Y-74954638D01*
X115262993Y-74861070D01*
X115285485Y-74750000D01*
X115285485Y-73405000D01*
X115582244Y-73405000D01*
X120963622Y-78786379D01*
X121042386Y-78839006D01*
X121095013Y-78874171D01*
X121250000Y-78905000D01*
X121845000Y-78905000D01*
X121845000Y-82565712D01*
X120746233Y-79610161D01*
X120326600Y-78982137D01*
X118738882Y-78297463D01*
X112036345Y-85000000D01*
X118738882Y-91702537D01*
X120326600Y-91017863D01*
X121845000Y-87702410D01*
X121845000Y-90332244D01*
X115582244Y-96595000D01*
X115285485Y-96595000D01*
X115285485Y-95250000D01*
X115265961Y-95146238D01*
X115204638Y-95050940D01*
X115111070Y-94987007D01*
X115000000Y-94964515D01*
X114112807Y-94964515D01*
X117389839Y-93746233D01*
X118017863Y-93326600D01*
X118702537Y-91738882D01*
X112000000Y-85036345D01*
X105297463Y-91738882D01*
X105982137Y-93326600D01*
X109558553Y-94964515D01*
X109000000Y-94964515D01*
X108896238Y-94984039D01*
X108800940Y-95045362D01*
X108737007Y-95138930D01*
X108714515Y-95250000D01*
X108714515Y-98750000D01*
X108734039Y-98853762D01*
X108795362Y-98949060D01*
X108888930Y-99012993D01*
X109000000Y-99035485D01*
X115000000Y-99035485D01*
X115103762Y-99015961D01*
X115199060Y-98954638D01*
X115262993Y-98861070D01*
X115285485Y-98750000D01*
X115285485Y-97405000D01*
X115750000Y-97405000D01*
X115904987Y-97374171D01*
X116036378Y-97286378D01*
X122536378Y-90786378D01*
X122624171Y-90654987D01*
X122655000Y-90500000D01*
X122655000Y-76410485D01*
X122750000Y-76410485D01*
X122853762Y-76390961D01*
X122949060Y-76329638D01*
X123012993Y-76236070D01*
X123035485Y-76125000D01*
X123035485Y-74875000D01*
X123015961Y-74771238D01*
X122954638Y-74675940D01*
X122861070Y-74612007D01*
X122750000Y-74589515D01*
X122655000Y-74589515D01*
X122655000Y-74500000D01*
X122624171Y-74345013D01*
X122536378Y-74213621D01*
X122470059Y-74147303D01*
X122503762Y-74140961D01*
X122599060Y-74079638D01*
X122662993Y-73986070D01*
X122685485Y-73875000D01*
X122685485Y-73125000D01*
X122665961Y-73021238D01*
X122604638Y-72925940D01*
X122511070Y-72862007D01*
X122405000Y-72840528D01*
X122405000Y-72500000D01*
X122374171Y-72345013D01*
X122322736Y-72268036D01*
X122333762Y-72265961D01*
X122429060Y-72204638D01*
X122492993Y-72111070D01*
X122515485Y-72000000D01*
X122515485Y-70300000D01*
X122495961Y-70196238D01*
X122434638Y-70100940D01*
X122341070Y-70037007D01*
X122310000Y-70030715D01*
X122310000Y-69663797D01*
X122329899Y-69615875D01*
X122330101Y-69385137D01*
X122241987Y-69171886D01*
X122078973Y-69008587D01*
X121865875Y-68920101D01*
X121635137Y-68919899D01*
X121421886Y-69008013D01*
X121258587Y-69171027D01*
X121170101Y-69384125D01*
X121169899Y-69614863D01*
X121258013Y-69828114D01*
X121421027Y-69991413D01*
X121500000Y-70024205D01*
X121500000Y-70029568D01*
X121476238Y-70034039D01*
X121380940Y-70095362D01*
X121317007Y-70188930D01*
X121294515Y-70300000D01*
X121294515Y-72000000D01*
X121314039Y-72103762D01*
X121375362Y-72199060D01*
X121468930Y-72262993D01*
X121500000Y-72269285D01*
X121500000Y-72405000D01*
X121530829Y-72559987D01*
X121594306Y-72654986D01*
X121595000Y-72656025D01*
X121595000Y-72840456D01*
X121496238Y-72859039D01*
X121400940Y-72920362D01*
X121337007Y-73013930D01*
X121314515Y-73125000D01*
X121314515Y-73875000D01*
X121334039Y-73978762D01*
X121395362Y-74074060D01*
X121488930Y-74137993D01*
X121595000Y-74159472D01*
X121595000Y-74250000D01*
X121625829Y-74404987D01*
X121689315Y-74500000D01*
X121713622Y-74536378D01*
X121766759Y-74589515D01*
X121750000Y-74589515D01*
X121646238Y-74609039D01*
X121550940Y-74670362D01*
X121487007Y-74763930D01*
X121464515Y-74875000D01*
X121464515Y-76125000D01*
X121484039Y-76228762D01*
X121545362Y-76324060D01*
X121638930Y-76387993D01*
X121750000Y-76410485D01*
X121845000Y-76410485D01*
X121845000Y-78095000D01*
X121417757Y-78095000D01*
X119656436Y-76333679D01*
X119704529Y-76353600D01*
X120167150Y-76353600D01*
X120224300Y-76296450D01*
X120224300Y-75525700D01*
X120275700Y-75525700D01*
X120275700Y-76296450D01*
X120332850Y-76353600D01*
X120795471Y-76353600D01*
X120879491Y-76318798D01*
X120943797Y-76254492D01*
X120978600Y-76170472D01*
X120978600Y-75582850D01*
X120921450Y-75525700D01*
X120275700Y-75525700D01*
X120224300Y-75525700D01*
X119578550Y-75525700D01*
X119521400Y-75582850D01*
X119521400Y-76170472D01*
X119541321Y-76218564D01*
X118152285Y-74829528D01*
X119521400Y-74829528D01*
X119521400Y-75417150D01*
X119578550Y-75474300D01*
X120224300Y-75474300D01*
X120224300Y-74703550D01*
X120275700Y-74703550D01*
X120275700Y-75474300D01*
X120921450Y-75474300D01*
X120978600Y-75417150D01*
X120978600Y-74829528D01*
X120943797Y-74745508D01*
X120879491Y-74681202D01*
X120795471Y-74646400D01*
X120332850Y-74646400D01*
X120275700Y-74703550D01*
X120224300Y-74703550D01*
X120167150Y-74646400D01*
X119704529Y-74646400D01*
X119620509Y-74681202D01*
X119556203Y-74745508D01*
X119521400Y-74829528D01*
X118152285Y-74829528D01*
X116905607Y-73582850D01*
X119871400Y-73582850D01*
X119871400Y-73920472D01*
X119906203Y-74004492D01*
X119970509Y-74068798D01*
X120054529Y-74103600D01*
X120417150Y-74103600D01*
X120474300Y-74046450D01*
X120474300Y-73525700D01*
X120525700Y-73525700D01*
X120525700Y-74046450D01*
X120582850Y-74103600D01*
X120945471Y-74103600D01*
X121029491Y-74068798D01*
X121093797Y-74004492D01*
X121128600Y-73920472D01*
X121128600Y-73582850D01*
X121071450Y-73525700D01*
X120525700Y-73525700D01*
X120474300Y-73525700D01*
X119928550Y-73525700D01*
X119871400Y-73582850D01*
X116905607Y-73582850D01*
X116402285Y-73079528D01*
X119871400Y-73079528D01*
X119871400Y-73417150D01*
X119928550Y-73474300D01*
X120474300Y-73474300D01*
X120474300Y-72953550D01*
X120525700Y-72953550D01*
X120525700Y-73474300D01*
X121071450Y-73474300D01*
X121128600Y-73417150D01*
X121128600Y-73079528D01*
X121093797Y-72995508D01*
X121029491Y-72931202D01*
X120945471Y-72896400D01*
X120582850Y-72896400D01*
X120525700Y-72953550D01*
X120474300Y-72953550D01*
X120417150Y-72896400D01*
X120054529Y-72896400D01*
X119970509Y-72931202D01*
X119906203Y-72995508D01*
X119871400Y-73079528D01*
X116402285Y-73079528D01*
X116036378Y-72713622D01*
X115904987Y-72625829D01*
X115750000Y-72595000D01*
X115285485Y-72595000D01*
X115285485Y-71250000D01*
X115265961Y-71146238D01*
X115204638Y-71050940D01*
X115111070Y-70987007D01*
X115000000Y-70964515D01*
X109000000Y-70964515D01*
X108896238Y-70984039D01*
X108800940Y-71045362D01*
X108737007Y-71138930D01*
X108714515Y-71250000D01*
X108714515Y-74750000D01*
X108734039Y-74853762D01*
X108795362Y-74949060D01*
X108888930Y-75012993D01*
X109000000Y-75035485D01*
X109887193Y-75035485D01*
X106610161Y-76253767D01*
X105982137Y-76673400D01*
X105297463Y-78261118D01*
X100355000Y-78261118D01*
X100355000Y-62250000D01*
X101095000Y-62250000D01*
X101095000Y-68790000D01*
X101125829Y-68944987D01*
X101179513Y-69025330D01*
X101213622Y-69076378D01*
X101658508Y-69521265D01*
X101631047Y-69562363D01*
X101543996Y-70000000D01*
X101631047Y-70437637D01*
X101878949Y-70808647D01*
X102249959Y-71056549D01*
X102687596Y-71143600D01*
X102732404Y-71143600D01*
X103170041Y-71056549D01*
X103541051Y-70808647D01*
X103788953Y-70437637D01*
X103876004Y-70000000D01*
X103788953Y-69562363D01*
X103541051Y-69191353D01*
X103170041Y-68943451D01*
X102732404Y-68856400D01*
X102687596Y-68856400D01*
X102249959Y-68943451D01*
X102235721Y-68952965D01*
X101905000Y-68622244D01*
X101905000Y-68286054D01*
X102249959Y-68516549D01*
X102687596Y-68603600D01*
X102732404Y-68603600D01*
X103170041Y-68516549D01*
X103541051Y-68268647D01*
X103788953Y-67897637D01*
X103876004Y-67460000D01*
X103788953Y-67022363D01*
X103541051Y-66651353D01*
X103170041Y-66403451D01*
X102732404Y-66316400D01*
X102687596Y-66316400D01*
X102249959Y-66403451D01*
X101905000Y-66633946D01*
X101905000Y-65631586D01*
X102117571Y-65837570D01*
X102513806Y-65994437D01*
X102684300Y-65954750D01*
X102684300Y-64945700D01*
X102735700Y-64945700D01*
X102735700Y-65954750D01*
X102906194Y-65994437D01*
X103302429Y-65837570D01*
X103608472Y-65541011D01*
X103777731Y-65149909D01*
X103784435Y-65116194D01*
X103744731Y-64945700D01*
X102735700Y-64945700D01*
X102684300Y-64945700D01*
X102664300Y-64945700D01*
X102664300Y-64894300D01*
X102684300Y-64894300D01*
X102684300Y-63885250D01*
X102735700Y-63885250D01*
X102735700Y-64894300D01*
X103744731Y-64894300D01*
X103784435Y-64723806D01*
X103777731Y-64690091D01*
X103608472Y-64298989D01*
X103302429Y-64002430D01*
X102906194Y-63845563D01*
X102735700Y-63885250D01*
X102684300Y-63885250D01*
X102513806Y-63845563D01*
X102117571Y-64002430D01*
X101905000Y-64208414D01*
X101905000Y-62417756D01*
X102417756Y-61905000D01*
X110845000Y-61905000D01*
X110845000Y-62317010D01*
X110800940Y-62345362D01*
X110737007Y-62438930D01*
X110714515Y-62550000D01*
X110714515Y-63450000D01*
X110734039Y-63553762D01*
X110795362Y-63649060D01*
X110888930Y-63712993D01*
X111000000Y-63735485D01*
X111500000Y-63735485D01*
X111603762Y-63715961D01*
X111699060Y-63654638D01*
X111762993Y-63561070D01*
X111785485Y-63450000D01*
X111785485Y-62550000D01*
X111765961Y-62446238D01*
X111704638Y-62350940D01*
X111655000Y-62317023D01*
X111655000Y-61905000D01*
X119964515Y-61905000D01*
X119964515Y-61950000D01*
X119984039Y-62053762D01*
X120045362Y-62149060D01*
X120138930Y-62212993D01*
X120250000Y-62235485D01*
X120691759Y-62235485D01*
X120348622Y-62578622D01*
X120260829Y-62710013D01*
X120257987Y-62724302D01*
X120206238Y-62734039D01*
X120110940Y-62795362D01*
X120047007Y-62888930D01*
X120024515Y-63000000D01*
X120024515Y-64700000D01*
X120044039Y-64803762D01*
X120105362Y-64899060D01*
X120198930Y-64962993D01*
X120310000Y-64985485D01*
X120960000Y-64985485D01*
X121063762Y-64965961D01*
X121159060Y-64904638D01*
X121222993Y-64811070D01*
X121245485Y-64700000D01*
X121245485Y-63000000D01*
X121225961Y-62896238D01*
X121206602Y-62866154D01*
X121505523Y-62567233D01*
X121500000Y-62595000D01*
X121500000Y-62729568D01*
X121476238Y-62734039D01*
X121380940Y-62795362D01*
X121317007Y-62888930D01*
X121294515Y-63000000D01*
X121294515Y-64700000D01*
X121314039Y-64803762D01*
X121375362Y-64899060D01*
X121468930Y-64962993D01*
X121500000Y-64969285D01*
X121500000Y-65427244D01*
X121082244Y-65845000D01*
X120500000Y-65845000D01*
X120345013Y-65875829D01*
X120301356Y-65905000D01*
X120213622Y-65963622D01*
X119832244Y-66345000D01*
X115752981Y-66345000D01*
X115957409Y-66140929D01*
X116055375Y-65905000D01*
X118750000Y-65905000D01*
X118904987Y-65874171D01*
X119036378Y-65786378D01*
X119651378Y-65171378D01*
X119739171Y-65039987D01*
X119750012Y-64985485D01*
X119752346Y-64973754D01*
X119793762Y-64965961D01*
X119889060Y-64904638D01*
X119952993Y-64811070D01*
X119975485Y-64700000D01*
X119975485Y-63000000D01*
X119955961Y-62896238D01*
X119894638Y-62800940D01*
X119801070Y-62737007D01*
X119690000Y-62714515D01*
X119040000Y-62714515D01*
X118936238Y-62734039D01*
X118840940Y-62795362D01*
X118777007Y-62888930D01*
X118754515Y-63000000D01*
X118754515Y-64700000D01*
X118774039Y-64803762D01*
X118812975Y-64864269D01*
X118582244Y-65095000D01*
X116055319Y-65095000D01*
X115958526Y-64860743D01*
X115640929Y-64542591D01*
X115225757Y-64370197D01*
X114776215Y-64369804D01*
X114360743Y-64541474D01*
X114042591Y-64859071D01*
X113944625Y-65095000D01*
X113155000Y-65095000D01*
X113155000Y-63932850D01*
X117541400Y-63932850D01*
X117541400Y-64745471D01*
X117576202Y-64829491D01*
X117640508Y-64893797D01*
X117724528Y-64928600D01*
X118012150Y-64928600D01*
X118069300Y-64871450D01*
X118069300Y-63875700D01*
X118120700Y-63875700D01*
X118120700Y-64871450D01*
X118177850Y-64928600D01*
X118465472Y-64928600D01*
X118549492Y-64893797D01*
X118613798Y-64829491D01*
X118648600Y-64745471D01*
X118648600Y-63932850D01*
X118591450Y-63875700D01*
X118120700Y-63875700D01*
X118069300Y-63875700D01*
X117598550Y-63875700D01*
X117541400Y-63932850D01*
X113155000Y-63932850D01*
X113155000Y-63682990D01*
X113199060Y-63654638D01*
X113262993Y-63561070D01*
X113285485Y-63450000D01*
X113285485Y-62954529D01*
X117541400Y-62954529D01*
X117541400Y-63767150D01*
X117598550Y-63824300D01*
X118069300Y-63824300D01*
X118069300Y-62828550D01*
X118120700Y-62828550D01*
X118120700Y-63824300D01*
X118591450Y-63824300D01*
X118648600Y-63767150D01*
X118648600Y-62954529D01*
X118613798Y-62870509D01*
X118549492Y-62806203D01*
X118465472Y-62771400D01*
X118177850Y-62771400D01*
X118120700Y-62828550D01*
X118069300Y-62828550D01*
X118012150Y-62771400D01*
X117724528Y-62771400D01*
X117640508Y-62806203D01*
X117576202Y-62870509D01*
X117541400Y-62954529D01*
X113285485Y-62954529D01*
X113285485Y-62550000D01*
X113265961Y-62446238D01*
X113204638Y-62350940D01*
X113111070Y-62287007D01*
X113000000Y-62264515D01*
X112500000Y-62264515D01*
X112396238Y-62284039D01*
X112300940Y-62345362D01*
X112237007Y-62438930D01*
X112214515Y-62550000D01*
X112214515Y-63450000D01*
X112234039Y-63553762D01*
X112295362Y-63649060D01*
X112345000Y-63682977D01*
X112345000Y-65095000D01*
X110055319Y-65095000D01*
X109958526Y-64860743D01*
X109640929Y-64542591D01*
X109225757Y-64370197D01*
X108776215Y-64369804D01*
X108360743Y-64541474D01*
X108042591Y-64859071D01*
X107870197Y-65274243D01*
X107869804Y-65723785D01*
X108041474Y-66139257D01*
X108246858Y-66345000D01*
X107247756Y-66345000D01*
X106301492Y-65398736D01*
X106328953Y-65357637D01*
X106416004Y-64920000D01*
X106328953Y-64482363D01*
X106081051Y-64111353D01*
X105710041Y-63863451D01*
X105272404Y-63776400D01*
X105227596Y-63776400D01*
X104789959Y-63863451D01*
X104418949Y-64111353D01*
X104171047Y-64482363D01*
X104083996Y-64920000D01*
X104171047Y-65357637D01*
X104418949Y-65728647D01*
X104789959Y-65976549D01*
X105227596Y-66063600D01*
X105272404Y-66063600D01*
X105710041Y-65976549D01*
X105724279Y-65967035D01*
X106793622Y-67036378D01*
X106881356Y-67095000D01*
X106343401Y-67095000D01*
X106328953Y-67022363D01*
X106081051Y-66651353D01*
X105710041Y-66403451D01*
X105272404Y-66316400D01*
X105227596Y-66316400D01*
X104789959Y-66403451D01*
X104418949Y-66651353D01*
X104171047Y-67022363D01*
X104083996Y-67460000D01*
X104171047Y-67897637D01*
X104418949Y-68268647D01*
X104789959Y-68516549D01*
X105227596Y-68603600D01*
X105272404Y-68603600D01*
X105710041Y-68516549D01*
X106081051Y-68268647D01*
X106324033Y-67905000D01*
X106801356Y-67905000D01*
X106713622Y-67963622D01*
X105826329Y-68850915D01*
X104386400Y-68850915D01*
X104282638Y-68870439D01*
X104187340Y-68931762D01*
X104123407Y-69025330D01*
X104100915Y-69136400D01*
X104100915Y-70863600D01*
X104120439Y-70967362D01*
X104181762Y-71062660D01*
X104275330Y-71126593D01*
X104386400Y-71149085D01*
X106113600Y-71149085D01*
X106217362Y-71129561D01*
X106312660Y-71068238D01*
X106376593Y-70974670D01*
X106399085Y-70863600D01*
X106399085Y-70255165D01*
X108281181Y-70255165D01*
X108374562Y-70404564D01*
X108768333Y-70575053D01*
X109197373Y-70581875D01*
X109596365Y-70423991D01*
X109625438Y-70404564D01*
X109718819Y-70255165D01*
X114281181Y-70255165D01*
X114374562Y-70404564D01*
X114768333Y-70575053D01*
X115197373Y-70581875D01*
X115596365Y-70423991D01*
X115625438Y-70404564D01*
X115718819Y-70255165D01*
X115000000Y-69536345D01*
X114281181Y-70255165D01*
X109718819Y-70255165D01*
X109000000Y-69536345D01*
X108281181Y-70255165D01*
X106399085Y-70255165D01*
X106399085Y-69697373D01*
X107918125Y-69697373D01*
X108076009Y-70096365D01*
X108095436Y-70125438D01*
X108244835Y-70218819D01*
X108963655Y-69500000D01*
X109036345Y-69500000D01*
X109755165Y-70218819D01*
X109904564Y-70125438D01*
X110075053Y-69731667D01*
X110075598Y-69697373D01*
X113918125Y-69697373D01*
X114076009Y-70096365D01*
X114095436Y-70125438D01*
X114244835Y-70218819D01*
X114963655Y-69500000D01*
X115036345Y-69500000D01*
X115755165Y-70218819D01*
X115904564Y-70125438D01*
X116075053Y-69731667D01*
X116081875Y-69302627D01*
X115923991Y-68903635D01*
X115904564Y-68874562D01*
X115755165Y-68781181D01*
X115036345Y-69500000D01*
X114963655Y-69500000D01*
X114244835Y-68781181D01*
X114095436Y-68874562D01*
X113924947Y-69268333D01*
X113918125Y-69697373D01*
X110075598Y-69697373D01*
X110081875Y-69302627D01*
X109923991Y-68903635D01*
X109904564Y-68874562D01*
X109755165Y-68781181D01*
X109036345Y-69500000D01*
X108963655Y-69500000D01*
X108244835Y-68781181D01*
X108095436Y-68874562D01*
X107924947Y-69268333D01*
X107918125Y-69697373D01*
X106399085Y-69697373D01*
X106399085Y-69423671D01*
X107167756Y-68655000D01*
X108337332Y-68655000D01*
X108281181Y-68744835D01*
X109000000Y-69463655D01*
X109718819Y-68744835D01*
X109662668Y-68655000D01*
X114337332Y-68655000D01*
X114281181Y-68744835D01*
X115000000Y-69463655D01*
X115718819Y-68744835D01*
X115662668Y-68655000D01*
X117832244Y-68655000D01*
X118097328Y-68920085D01*
X117885137Y-68919899D01*
X117671886Y-69008013D01*
X117508587Y-69171027D01*
X117420101Y-69384125D01*
X117419899Y-69614863D01*
X117508013Y-69828114D01*
X117671027Y-69991413D01*
X117690000Y-69999291D01*
X117690000Y-70029568D01*
X117666238Y-70034039D01*
X117570940Y-70095362D01*
X117507007Y-70188930D01*
X117484515Y-70300000D01*
X117484515Y-72000000D01*
X117504039Y-72103762D01*
X117565362Y-72199060D01*
X117658930Y-72262993D01*
X117770000Y-72285485D01*
X118420000Y-72285485D01*
X118523762Y-72265961D01*
X118619060Y-72204638D01*
X118682993Y-72111070D01*
X118705485Y-72000000D01*
X118705485Y-70300000D01*
X118685961Y-70196238D01*
X118624638Y-70100940D01*
X118531070Y-70037007D01*
X118500000Y-70030715D01*
X118500000Y-69808293D01*
X118579899Y-69615875D01*
X118580086Y-69402842D01*
X118960000Y-69782757D01*
X118960000Y-70029568D01*
X118936238Y-70034039D01*
X118840940Y-70095362D01*
X118777007Y-70188930D01*
X118754515Y-70300000D01*
X118754515Y-72000000D01*
X118774039Y-72103762D01*
X118835362Y-72199060D01*
X118928930Y-72262993D01*
X119040000Y-72285485D01*
X119690000Y-72285485D01*
X119793762Y-72265961D01*
X119889060Y-72204638D01*
X119952993Y-72111070D01*
X119975485Y-72000000D01*
X119975485Y-70300000D01*
X119955961Y-70196238D01*
X119894638Y-70100940D01*
X119801070Y-70037007D01*
X119770000Y-70030715D01*
X119770000Y-69615000D01*
X119759530Y-69562363D01*
X119739172Y-69460014D01*
X119651379Y-69328622D01*
X118286378Y-67963622D01*
X118198644Y-67905000D01*
X120230000Y-67905000D01*
X120230000Y-70029568D01*
X120206238Y-70034039D01*
X120110940Y-70095362D01*
X120047007Y-70188930D01*
X120024515Y-70300000D01*
X120024515Y-72000000D01*
X120044039Y-72103762D01*
X120105362Y-72199060D01*
X120198930Y-72262993D01*
X120310000Y-72285485D01*
X120960000Y-72285485D01*
X121063762Y-72265961D01*
X121159060Y-72204638D01*
X121222993Y-72111070D01*
X121245485Y-72000000D01*
X121245485Y-70300000D01*
X121225961Y-70196238D01*
X121164638Y-70100940D01*
X121071070Y-70037007D01*
X121040000Y-70030715D01*
X121040000Y-67757735D01*
X121078114Y-67741987D01*
X121241413Y-67578973D01*
X121329899Y-67365875D01*
X121330101Y-67135137D01*
X121241987Y-66921886D01*
X121078973Y-66758587D01*
X120865875Y-66670101D01*
X120652842Y-66669914D01*
X120667756Y-66655000D01*
X121250000Y-66655000D01*
X121404987Y-66624171D01*
X121536378Y-66536378D01*
X122191378Y-65881378D01*
X122215685Y-65845000D01*
X122279171Y-65749987D01*
X122310000Y-65595000D01*
X122310000Y-64970432D01*
X122333762Y-64965961D01*
X122429060Y-64904638D01*
X122492993Y-64811070D01*
X122515485Y-64700000D01*
X122515485Y-63000000D01*
X122495961Y-62896238D01*
X122434638Y-62800940D01*
X122341070Y-62737007D01*
X122321953Y-62733136D01*
X122374171Y-62654987D01*
X122395054Y-62550000D01*
X122405000Y-62500000D01*
X122405000Y-62182990D01*
X122449060Y-62154638D01*
X122512993Y-62061070D01*
X122535485Y-61950000D01*
X122535485Y-61050000D01*
X122515961Y-60946238D01*
X122454638Y-60850940D01*
X122361070Y-60787007D01*
X122250000Y-60764515D01*
X121750000Y-60764515D01*
X121655000Y-60782390D01*
X121655000Y-59750000D01*
X121624171Y-59595013D01*
X121536378Y-59463622D01*
X121036378Y-58963622D01*
X121035437Y-58962993D01*
X120904987Y-58875829D01*
X120750000Y-58845000D01*
X119989809Y-58845000D01*
X120012993Y-58811070D01*
X120035485Y-58700000D01*
X120035485Y-57800000D01*
X120015961Y-57696238D01*
X119954638Y-57600940D01*
X119905000Y-57567023D01*
X119905000Y-55029883D01*
X120293491Y-55030222D01*
X120764115Y-54835764D01*
X121124499Y-54476009D01*
X121319778Y-54005725D01*
X121320222Y-53496509D01*
X121125764Y-53025885D01*
X120766009Y-52665501D01*
X120295725Y-52470222D01*
X119786509Y-52469778D01*
X119315885Y-52664236D01*
X118955501Y-53023991D01*
X118760222Y-53494275D01*
X118759778Y-54003491D01*
X118954236Y-54474115D01*
X119095000Y-54615125D01*
X119095000Y-57567010D01*
X119050940Y-57595362D01*
X118987007Y-57688930D01*
X118964515Y-57800000D01*
X118964515Y-58700000D01*
X118984039Y-58803762D01*
X119010575Y-58845000D01*
X118489809Y-58845000D01*
X118512993Y-58811070D01*
X118535485Y-58700000D01*
X118535485Y-57800000D01*
X118515961Y-57696238D01*
X118454638Y-57600940D01*
X118361070Y-57537007D01*
X118250000Y-57514515D01*
X117750000Y-57514515D01*
X117646238Y-57534039D01*
X117550940Y-57595362D01*
X117487007Y-57688930D01*
X117464515Y-57800000D01*
X117464515Y-57845000D01*
X117415235Y-57845000D01*
X117328973Y-57758587D01*
X117115875Y-57670101D01*
X116885137Y-57669899D01*
X116671886Y-57758013D01*
X116508587Y-57921027D01*
X116420101Y-58134125D01*
X116419899Y-58364863D01*
X116508013Y-58578114D01*
X116671027Y-58741413D01*
X116884125Y-58829899D01*
X117114863Y-58830101D01*
X117328114Y-58741987D01*
X117415253Y-58655000D01*
X117464515Y-58655000D01*
X117464515Y-58700000D01*
X117484039Y-58803762D01*
X117510575Y-58845000D01*
X113239809Y-58845000D01*
X113262993Y-58811070D01*
X113285485Y-58700000D01*
X113285485Y-57800000D01*
X113265961Y-57696238D01*
X113204638Y-57600940D01*
X113155000Y-57567023D01*
X113155000Y-54979883D01*
X113533589Y-54980213D01*
X113985829Y-54793351D01*
X114332135Y-54447649D01*
X114519786Y-53995735D01*
X114519928Y-53832850D01*
X116271400Y-53832850D01*
X116271400Y-54795471D01*
X116306202Y-54879491D01*
X116370508Y-54943797D01*
X116454528Y-54978600D01*
X117417150Y-54978600D01*
X117474300Y-54921450D01*
X117474300Y-53775700D01*
X117525700Y-53775700D01*
X117525700Y-54921450D01*
X117582850Y-54978600D01*
X118545472Y-54978600D01*
X118629492Y-54943797D01*
X118693798Y-54879491D01*
X118728600Y-54795471D01*
X118728600Y-53832850D01*
X118671450Y-53775700D01*
X117525700Y-53775700D01*
X117474300Y-53775700D01*
X116328550Y-53775700D01*
X116271400Y-53832850D01*
X114519928Y-53832850D01*
X114520213Y-53506411D01*
X114333351Y-53054171D01*
X113987649Y-52707865D01*
X113979616Y-52704529D01*
X116271400Y-52704529D01*
X116271400Y-53667150D01*
X116328550Y-53724300D01*
X117474300Y-53724300D01*
X117474300Y-52578550D01*
X117525700Y-52578550D01*
X117525700Y-53724300D01*
X118671450Y-53724300D01*
X118728600Y-53667150D01*
X118728600Y-52704529D01*
X118693798Y-52620509D01*
X118629492Y-52556203D01*
X118545472Y-52521400D01*
X117582850Y-52521400D01*
X117525700Y-52578550D01*
X117474300Y-52578550D01*
X117417150Y-52521400D01*
X116454528Y-52521400D01*
X116370508Y-52556203D01*
X116306202Y-52620509D01*
X116271400Y-52704529D01*
X113979616Y-52704529D01*
X113535735Y-52520214D01*
X113046411Y-52519787D01*
X112594171Y-52706649D01*
X112247865Y-53052351D01*
X112060214Y-53504265D01*
X112059787Y-53993589D01*
X112246649Y-54445829D01*
X112345000Y-54544352D01*
X112345000Y-57567010D01*
X112300940Y-57595362D01*
X112237007Y-57688930D01*
X112214515Y-57800000D01*
X112214515Y-58700000D01*
X112234039Y-58803762D01*
X112260575Y-58845000D01*
X111739809Y-58845000D01*
X111762993Y-58811070D01*
X111785485Y-58700000D01*
X111785485Y-57800000D01*
X111765961Y-57696238D01*
X111704638Y-57600940D01*
X111611070Y-57537007D01*
X111500000Y-57514515D01*
X111000000Y-57514515D01*
X110896238Y-57534039D01*
X110800940Y-57595362D01*
X110737007Y-57688930D01*
X110714515Y-57800000D01*
X110714515Y-58700000D01*
X110734039Y-58803762D01*
X110795362Y-58899060D01*
X110845000Y-58932977D01*
X110845000Y-59000000D01*
X110875829Y-59154987D01*
X110939315Y-59250000D01*
X110963622Y-59286378D01*
X111213621Y-59536378D01*
X111345013Y-59624171D01*
X111500000Y-59655000D01*
X120582244Y-59655000D01*
X120845000Y-59917756D01*
X120845000Y-60783753D01*
X120750000Y-60764515D01*
X120250000Y-60764515D01*
X120146238Y-60784039D01*
X120050940Y-60845362D01*
X119987007Y-60938930D01*
X119964515Y-61050000D01*
X119964515Y-61095000D01*
X102250000Y-61095000D01*
X102095013Y-61125829D01*
X101963622Y-61213622D01*
X101213622Y-61963622D01*
X101125829Y-62095013D01*
X101095000Y-62250000D01*
X100355000Y-62250000D01*
X100355000Y-58364863D01*
X103419899Y-58364863D01*
X103508013Y-58578114D01*
X103671027Y-58741413D01*
X103884125Y-58829899D01*
X104114863Y-58830101D01*
X104328114Y-58741987D01*
X104415253Y-58655000D01*
X104464515Y-58655000D01*
X104464515Y-58700000D01*
X104484039Y-58803762D01*
X104545362Y-58899060D01*
X104638930Y-58962993D01*
X104750000Y-58985485D01*
X105250000Y-58985485D01*
X105353762Y-58965961D01*
X105449060Y-58904638D01*
X105512993Y-58811070D01*
X105535485Y-58700000D01*
X105535485Y-57800000D01*
X105515961Y-57696238D01*
X105454638Y-57600940D01*
X105361070Y-57537007D01*
X105250000Y-57514515D01*
X104750000Y-57514515D01*
X104646238Y-57534039D01*
X104550940Y-57595362D01*
X104487007Y-57688930D01*
X104464515Y-57800000D01*
X104464515Y-57845000D01*
X104415235Y-57845000D01*
X104328973Y-57758587D01*
X104115875Y-57670101D01*
X103885137Y-57669899D01*
X103671886Y-57758013D01*
X103508587Y-57921027D01*
X103420101Y-58134125D01*
X103419899Y-58364863D01*
X100355000Y-58364863D01*
X100355000Y-53832850D01*
X103271400Y-53832850D01*
X103271400Y-54795471D01*
X103306202Y-54879491D01*
X103370508Y-54943797D01*
X103454528Y-54978600D01*
X104417150Y-54978600D01*
X104474300Y-54921450D01*
X104474300Y-53775700D01*
X104525700Y-53775700D01*
X104525700Y-54921450D01*
X104582850Y-54978600D01*
X105545472Y-54978600D01*
X105629492Y-54943797D01*
X105693798Y-54879491D01*
X105728600Y-54795471D01*
X105728600Y-54003491D01*
X105759778Y-54003491D01*
X105954236Y-54474115D01*
X106095000Y-54615125D01*
X106095000Y-57567010D01*
X106050940Y-57595362D01*
X105987007Y-57688930D01*
X105964515Y-57800000D01*
X105964515Y-58700000D01*
X105984039Y-58803762D01*
X106045362Y-58899060D01*
X106138930Y-58962993D01*
X106250000Y-58985485D01*
X106750000Y-58985485D01*
X106853762Y-58965961D01*
X106949060Y-58904638D01*
X107012993Y-58811070D01*
X107035485Y-58700000D01*
X107035485Y-57800000D01*
X107015961Y-57696238D01*
X106954638Y-57600940D01*
X106905000Y-57567023D01*
X106905000Y-55029883D01*
X107293491Y-55030222D01*
X107764115Y-54835764D01*
X108124499Y-54476009D01*
X108319778Y-54005725D01*
X108319928Y-53832850D01*
X109571400Y-53832850D01*
X109571400Y-54795471D01*
X109606202Y-54879491D01*
X109670508Y-54943797D01*
X109754528Y-54978600D01*
X110667150Y-54978600D01*
X110724300Y-54921450D01*
X110724300Y-53775700D01*
X110775700Y-53775700D01*
X110775700Y-54921450D01*
X110832850Y-54978600D01*
X111745472Y-54978600D01*
X111829492Y-54943797D01*
X111893798Y-54879491D01*
X111928600Y-54795471D01*
X111928600Y-53832850D01*
X111871450Y-53775700D01*
X110775700Y-53775700D01*
X110724300Y-53775700D01*
X109628550Y-53775700D01*
X109571400Y-53832850D01*
X108319928Y-53832850D01*
X108320222Y-53496509D01*
X108125764Y-53025885D01*
X107804969Y-52704529D01*
X109571400Y-52704529D01*
X109571400Y-53667150D01*
X109628550Y-53724300D01*
X110724300Y-53724300D01*
X110724300Y-52578550D01*
X110775700Y-52578550D01*
X110775700Y-53724300D01*
X111871450Y-53724300D01*
X111928600Y-53667150D01*
X111928600Y-52704529D01*
X111893798Y-52620509D01*
X111829492Y-52556203D01*
X111745472Y-52521400D01*
X110832850Y-52521400D01*
X110775700Y-52578550D01*
X110724300Y-52578550D01*
X110667150Y-52521400D01*
X109754528Y-52521400D01*
X109670508Y-52556203D01*
X109606202Y-52620509D01*
X109571400Y-52704529D01*
X107804969Y-52704529D01*
X107766009Y-52665501D01*
X107295725Y-52470222D01*
X106786509Y-52469778D01*
X106315885Y-52664236D01*
X105955501Y-53023991D01*
X105760222Y-53494275D01*
X105759778Y-54003491D01*
X105728600Y-54003491D01*
X105728600Y-53832850D01*
X105671450Y-53775700D01*
X104525700Y-53775700D01*
X104474300Y-53775700D01*
X103328550Y-53775700D01*
X103271400Y-53832850D01*
X100355000Y-53832850D01*
X100355000Y-52704529D01*
X103271400Y-52704529D01*
X103271400Y-53667150D01*
X103328550Y-53724300D01*
X104474300Y-53724300D01*
X104474300Y-52578550D01*
X104525700Y-52578550D01*
X104525700Y-53724300D01*
X105671450Y-53724300D01*
X105728600Y-53667150D01*
X105728600Y-52704529D01*
X105693798Y-52620509D01*
X105629492Y-52556203D01*
X105545472Y-52521400D01*
X104582850Y-52521400D01*
X104525700Y-52578550D01*
X104474300Y-52578550D01*
X104417150Y-52521400D01*
X103454528Y-52521400D01*
X103370508Y-52556203D01*
X103306202Y-52620509D01*
X103271400Y-52704529D01*
X100355000Y-52704529D01*
X100355000Y-52034966D01*
X100486644Y-51373146D01*
X100841727Y-50841727D01*
X101373147Y-50486644D01*
X102034966Y-50355000D01*
X121965034Y-50355000D01*
X122626854Y-50486644D01*
X122626854Y-50486644D01*
G37*
X122626854Y-50486644D02*
X123158273Y-50841727D01*
X123513356Y-51373147D01*
X123645000Y-52034966D01*
X123645000Y-97965034D01*
X123513356Y-98626853D01*
X123158273Y-99158273D01*
X122626854Y-99513356D01*
X121965034Y-99645000D01*
X102034966Y-99645000D01*
X101373147Y-99513356D01*
X100841727Y-99158273D01*
X100486644Y-98626854D01*
X100355000Y-97965034D01*
X100355000Y-86632524D01*
X101856933Y-86632524D01*
X103253767Y-90389839D01*
X103673400Y-91017863D01*
X105261118Y-91702537D01*
X111963655Y-85000000D01*
X105261118Y-78297463D01*
X103673400Y-78982137D01*
X102004288Y-82626672D01*
X101856933Y-86632524D01*
X100355000Y-86632524D01*
X100355000Y-78261118D01*
X105297463Y-78261118D01*
X112000000Y-84963655D01*
X118702537Y-78261118D01*
X118017863Y-76673400D01*
X114441447Y-75035485D01*
X115000000Y-75035485D01*
X115103762Y-75015961D01*
X115199060Y-74954638D01*
X115262993Y-74861070D01*
X115285485Y-74750000D01*
X115285485Y-73405000D01*
X115582244Y-73405000D01*
X120963622Y-78786379D01*
X121042386Y-78839006D01*
X121095013Y-78874171D01*
X121250000Y-78905000D01*
X121845000Y-78905000D01*
X121845000Y-82565712D01*
X120746233Y-79610161D01*
X120326600Y-78982137D01*
X118738882Y-78297463D01*
X112036345Y-85000000D01*
X118738882Y-91702537D01*
X120326600Y-91017863D01*
X121845000Y-87702410D01*
X121845000Y-90332244D01*
X115582244Y-96595000D01*
X115285485Y-96595000D01*
X115285485Y-95250000D01*
X115265961Y-95146238D01*
X115204638Y-95050940D01*
X115111070Y-94987007D01*
X115000000Y-94964515D01*
X114112807Y-94964515D01*
X117389839Y-93746233D01*
X118017863Y-93326600D01*
X118702537Y-91738882D01*
X112000000Y-85036345D01*
X105297463Y-91738882D01*
X105982137Y-93326600D01*
X109558553Y-94964515D01*
X109000000Y-94964515D01*
X108896238Y-94984039D01*
X108800940Y-95045362D01*
X108737007Y-95138930D01*
X108714515Y-95250000D01*
X108714515Y-98750000D01*
X108734039Y-98853762D01*
X108795362Y-98949060D01*
X108888930Y-99012993D01*
X109000000Y-99035485D01*
X115000000Y-99035485D01*
X115103762Y-99015961D01*
X115199060Y-98954638D01*
X115262993Y-98861070D01*
X115285485Y-98750000D01*
X115285485Y-97405000D01*
X115750000Y-97405000D01*
X115904987Y-97374171D01*
X116036378Y-97286378D01*
X122536378Y-90786378D01*
X122624171Y-90654987D01*
X122655000Y-90500000D01*
X122655000Y-76410485D01*
X122750000Y-76410485D01*
X122853762Y-76390961D01*
X122949060Y-76329638D01*
X123012993Y-76236070D01*
X123035485Y-76125000D01*
X123035485Y-74875000D01*
X123015961Y-74771238D01*
X122954638Y-74675940D01*
X122861070Y-74612007D01*
X122750000Y-74589515D01*
X122655000Y-74589515D01*
X122655000Y-74500000D01*
X122624171Y-74345013D01*
X122536378Y-74213621D01*
X122470059Y-74147303D01*
X122503762Y-74140961D01*
X122599060Y-74079638D01*
X122662993Y-73986070D01*
X122685485Y-73875000D01*
X122685485Y-73125000D01*
X122665961Y-73021238D01*
X122604638Y-72925940D01*
X122511070Y-72862007D01*
X122405000Y-72840528D01*
X122405000Y-72500000D01*
X122374171Y-72345013D01*
X122322736Y-72268036D01*
X122333762Y-72265961D01*
X122429060Y-72204638D01*
X122492993Y-72111070D01*
X122515485Y-72000000D01*
X122515485Y-70300000D01*
X122495961Y-70196238D01*
X122434638Y-70100940D01*
X122341070Y-70037007D01*
X122310000Y-70030715D01*
X122310000Y-69663797D01*
X122329899Y-69615875D01*
X122330101Y-69385137D01*
X122241987Y-69171886D01*
X122078973Y-69008587D01*
X121865875Y-68920101D01*
X121635137Y-68919899D01*
X121421886Y-69008013D01*
X121258587Y-69171027D01*
X121170101Y-69384125D01*
X121169899Y-69614863D01*
X121258013Y-69828114D01*
X121421027Y-69991413D01*
X121500000Y-70024205D01*
X121500000Y-70029568D01*
X121476238Y-70034039D01*
X121380940Y-70095362D01*
X121317007Y-70188930D01*
X121294515Y-70300000D01*
X121294515Y-72000000D01*
X121314039Y-72103762D01*
X121375362Y-72199060D01*
X121468930Y-72262993D01*
X121500000Y-72269285D01*
X121500000Y-72405000D01*
X121530829Y-72559987D01*
X121594306Y-72654986D01*
X121595000Y-72656025D01*
X121595000Y-72840456D01*
X121496238Y-72859039D01*
X121400940Y-72920362D01*
X121337007Y-73013930D01*
X121314515Y-73125000D01*
X121314515Y-73875000D01*
X121334039Y-73978762D01*
X121395362Y-74074060D01*
X121488930Y-74137993D01*
X121595000Y-74159472D01*
X121595000Y-74250000D01*
X121625829Y-74404987D01*
X121689315Y-74500000D01*
X121713622Y-74536378D01*
X121766759Y-74589515D01*
X121750000Y-74589515D01*
X121646238Y-74609039D01*
X121550940Y-74670362D01*
X121487007Y-74763930D01*
X121464515Y-74875000D01*
X121464515Y-76125000D01*
X121484039Y-76228762D01*
X121545362Y-76324060D01*
X121638930Y-76387993D01*
X121750000Y-76410485D01*
X121845000Y-76410485D01*
X121845000Y-78095000D01*
X121417757Y-78095000D01*
X119656436Y-76333679D01*
X119704529Y-76353600D01*
X120167150Y-76353600D01*
X120224300Y-76296450D01*
X120224300Y-75525700D01*
X120275700Y-75525700D01*
X120275700Y-76296450D01*
X120332850Y-76353600D01*
X120795471Y-76353600D01*
X120879491Y-76318798D01*
X120943797Y-76254492D01*
X120978600Y-76170472D01*
X120978600Y-75582850D01*
X120921450Y-75525700D01*
X120275700Y-75525700D01*
X120224300Y-75525700D01*
X119578550Y-75525700D01*
X119521400Y-75582850D01*
X119521400Y-76170472D01*
X119541321Y-76218564D01*
X118152285Y-74829528D01*
X119521400Y-74829528D01*
X119521400Y-75417150D01*
X119578550Y-75474300D01*
X120224300Y-75474300D01*
X120224300Y-74703550D01*
X120275700Y-74703550D01*
X120275700Y-75474300D01*
X120921450Y-75474300D01*
X120978600Y-75417150D01*
X120978600Y-74829528D01*
X120943797Y-74745508D01*
X120879491Y-74681202D01*
X120795471Y-74646400D01*
X120332850Y-74646400D01*
X120275700Y-74703550D01*
X120224300Y-74703550D01*
X120167150Y-74646400D01*
X119704529Y-74646400D01*
X119620509Y-74681202D01*
X119556203Y-74745508D01*
X119521400Y-74829528D01*
X118152285Y-74829528D01*
X116905607Y-73582850D01*
X119871400Y-73582850D01*
X119871400Y-73920472D01*
X119906203Y-74004492D01*
X119970509Y-74068798D01*
X120054529Y-74103600D01*
X120417150Y-74103600D01*
X120474300Y-74046450D01*
X120474300Y-73525700D01*
X120525700Y-73525700D01*
X120525700Y-74046450D01*
X120582850Y-74103600D01*
X120945471Y-74103600D01*
X121029491Y-74068798D01*
X121093797Y-74004492D01*
X121128600Y-73920472D01*
X121128600Y-73582850D01*
X121071450Y-73525700D01*
X120525700Y-73525700D01*
X120474300Y-73525700D01*
X119928550Y-73525700D01*
X119871400Y-73582850D01*
X116905607Y-73582850D01*
X116402285Y-73079528D01*
X119871400Y-73079528D01*
X119871400Y-73417150D01*
X119928550Y-73474300D01*
X120474300Y-73474300D01*
X120474300Y-72953550D01*
X120525700Y-72953550D01*
X120525700Y-73474300D01*
X121071450Y-73474300D01*
X121128600Y-73417150D01*
X121128600Y-73079528D01*
X121093797Y-72995508D01*
X121029491Y-72931202D01*
X120945471Y-72896400D01*
X120582850Y-72896400D01*
X120525700Y-72953550D01*
X120474300Y-72953550D01*
X120417150Y-72896400D01*
X120054529Y-72896400D01*
X119970509Y-72931202D01*
X119906203Y-72995508D01*
X119871400Y-73079528D01*
X116402285Y-73079528D01*
X116036378Y-72713622D01*
X115904987Y-72625829D01*
X115750000Y-72595000D01*
X115285485Y-72595000D01*
X115285485Y-71250000D01*
X115265961Y-71146238D01*
X115204638Y-71050940D01*
X115111070Y-70987007D01*
X115000000Y-70964515D01*
X109000000Y-70964515D01*
X108896238Y-70984039D01*
X108800940Y-71045362D01*
X108737007Y-71138930D01*
X108714515Y-71250000D01*
X108714515Y-74750000D01*
X108734039Y-74853762D01*
X108795362Y-74949060D01*
X108888930Y-75012993D01*
X109000000Y-75035485D01*
X109887193Y-75035485D01*
X106610161Y-76253767D01*
X105982137Y-76673400D01*
X105297463Y-78261118D01*
X100355000Y-78261118D01*
X100355000Y-62250000D01*
X101095000Y-62250000D01*
X101095000Y-68790000D01*
X101125829Y-68944987D01*
X101179513Y-69025330D01*
X101213622Y-69076378D01*
X101658508Y-69521265D01*
X101631047Y-69562363D01*
X101543996Y-70000000D01*
X101631047Y-70437637D01*
X101878949Y-70808647D01*
X102249959Y-71056549D01*
X102687596Y-71143600D01*
X102732404Y-71143600D01*
X103170041Y-71056549D01*
X103541051Y-70808647D01*
X103788953Y-70437637D01*
X103876004Y-70000000D01*
X103788953Y-69562363D01*
X103541051Y-69191353D01*
X103170041Y-68943451D01*
X102732404Y-68856400D01*
X102687596Y-68856400D01*
X102249959Y-68943451D01*
X102235721Y-68952965D01*
X101905000Y-68622244D01*
X101905000Y-68286054D01*
X102249959Y-68516549D01*
X102687596Y-68603600D01*
X102732404Y-68603600D01*
X103170041Y-68516549D01*
X103541051Y-68268647D01*
X103788953Y-67897637D01*
X103876004Y-67460000D01*
X103788953Y-67022363D01*
X103541051Y-66651353D01*
X103170041Y-66403451D01*
X102732404Y-66316400D01*
X102687596Y-66316400D01*
X102249959Y-66403451D01*
X101905000Y-66633946D01*
X101905000Y-65631586D01*
X102117571Y-65837570D01*
X102513806Y-65994437D01*
X102684300Y-65954750D01*
X102684300Y-64945700D01*
X102735700Y-64945700D01*
X102735700Y-65954750D01*
X102906194Y-65994437D01*
X103302429Y-65837570D01*
X103608472Y-65541011D01*
X103777731Y-65149909D01*
X103784435Y-65116194D01*
X103744731Y-64945700D01*
X102735700Y-64945700D01*
X102684300Y-64945700D01*
X102664300Y-64945700D01*
X102664300Y-64894300D01*
X102684300Y-64894300D01*
X102684300Y-63885250D01*
X102735700Y-63885250D01*
X102735700Y-64894300D01*
X103744731Y-64894300D01*
X103784435Y-64723806D01*
X103777731Y-64690091D01*
X103608472Y-64298989D01*
X103302429Y-64002430D01*
X102906194Y-63845563D01*
X102735700Y-63885250D01*
X102684300Y-63885250D01*
X102513806Y-63845563D01*
X102117571Y-64002430D01*
X101905000Y-64208414D01*
X101905000Y-62417756D01*
X102417756Y-61905000D01*
X110845000Y-61905000D01*
X110845000Y-62317010D01*
X110800940Y-62345362D01*
X110737007Y-62438930D01*
X110714515Y-62550000D01*
X110714515Y-63450000D01*
X110734039Y-63553762D01*
X110795362Y-63649060D01*
X110888930Y-63712993D01*
X111000000Y-63735485D01*
X111500000Y-63735485D01*
X111603762Y-63715961D01*
X111699060Y-63654638D01*
X111762993Y-63561070D01*
X111785485Y-63450000D01*
X111785485Y-62550000D01*
X111765961Y-62446238D01*
X111704638Y-62350940D01*
X111655000Y-62317023D01*
X111655000Y-61905000D01*
X119964515Y-61905000D01*
X119964515Y-61950000D01*
X119984039Y-62053762D01*
X120045362Y-62149060D01*
X120138930Y-62212993D01*
X120250000Y-62235485D01*
X120691759Y-62235485D01*
X120348622Y-62578622D01*
X120260829Y-62710013D01*
X120257987Y-62724302D01*
X120206238Y-62734039D01*
X120110940Y-62795362D01*
X120047007Y-62888930D01*
X120024515Y-63000000D01*
X120024515Y-64700000D01*
X120044039Y-64803762D01*
X120105362Y-64899060D01*
X120198930Y-64962993D01*
X120310000Y-64985485D01*
X120960000Y-64985485D01*
X121063762Y-64965961D01*
X121159060Y-64904638D01*
X121222993Y-64811070D01*
X121245485Y-64700000D01*
X121245485Y-63000000D01*
X121225961Y-62896238D01*
X121206602Y-62866154D01*
X121505523Y-62567233D01*
X121500000Y-62595000D01*
X121500000Y-62729568D01*
X121476238Y-62734039D01*
X121380940Y-62795362D01*
X121317007Y-62888930D01*
X121294515Y-63000000D01*
X121294515Y-64700000D01*
X121314039Y-64803762D01*
X121375362Y-64899060D01*
X121468930Y-64962993D01*
X121500000Y-64969285D01*
X121500000Y-65427244D01*
X121082244Y-65845000D01*
X120500000Y-65845000D01*
X120345013Y-65875829D01*
X120301356Y-65905000D01*
X120213622Y-65963622D01*
X119832244Y-66345000D01*
X115752981Y-66345000D01*
X115957409Y-66140929D01*
X116055375Y-65905000D01*
X118750000Y-65905000D01*
X118904987Y-65874171D01*
X119036378Y-65786378D01*
X119651378Y-65171378D01*
X119739171Y-65039987D01*
X119750012Y-64985485D01*
X119752346Y-64973754D01*
X119793762Y-64965961D01*
X119889060Y-64904638D01*
X119952993Y-64811070D01*
X119975485Y-64700000D01*
X119975485Y-63000000D01*
X119955961Y-62896238D01*
X119894638Y-62800940D01*
X119801070Y-62737007D01*
X119690000Y-62714515D01*
X119040000Y-62714515D01*
X118936238Y-62734039D01*
X118840940Y-62795362D01*
X118777007Y-62888930D01*
X118754515Y-63000000D01*
X118754515Y-64700000D01*
X118774039Y-64803762D01*
X118812975Y-64864269D01*
X118582244Y-65095000D01*
X116055319Y-65095000D01*
X115958526Y-64860743D01*
X115640929Y-64542591D01*
X115225757Y-64370197D01*
X114776215Y-64369804D01*
X114360743Y-64541474D01*
X114042591Y-64859071D01*
X113944625Y-65095000D01*
X113155000Y-65095000D01*
X113155000Y-63932850D01*
X117541400Y-63932850D01*
X117541400Y-64745471D01*
X117576202Y-64829491D01*
X117640508Y-64893797D01*
X117724528Y-64928600D01*
X118012150Y-64928600D01*
X118069300Y-64871450D01*
X118069300Y-63875700D01*
X118120700Y-63875700D01*
X118120700Y-64871450D01*
X118177850Y-64928600D01*
X118465472Y-64928600D01*
X118549492Y-64893797D01*
X118613798Y-64829491D01*
X118648600Y-64745471D01*
X118648600Y-63932850D01*
X118591450Y-63875700D01*
X118120700Y-63875700D01*
X118069300Y-63875700D01*
X117598550Y-63875700D01*
X117541400Y-63932850D01*
X113155000Y-63932850D01*
X113155000Y-63682990D01*
X113199060Y-63654638D01*
X113262993Y-63561070D01*
X113285485Y-63450000D01*
X113285485Y-62954529D01*
X117541400Y-62954529D01*
X117541400Y-63767150D01*
X117598550Y-63824300D01*
X118069300Y-63824300D01*
X118069300Y-62828550D01*
X118120700Y-62828550D01*
X118120700Y-63824300D01*
X118591450Y-63824300D01*
X118648600Y-63767150D01*
X118648600Y-62954529D01*
X118613798Y-62870509D01*
X118549492Y-62806203D01*
X118465472Y-62771400D01*
X118177850Y-62771400D01*
X118120700Y-62828550D01*
X118069300Y-62828550D01*
X118012150Y-62771400D01*
X117724528Y-62771400D01*
X117640508Y-62806203D01*
X117576202Y-62870509D01*
X117541400Y-62954529D01*
X113285485Y-62954529D01*
X113285485Y-62550000D01*
X113265961Y-62446238D01*
X113204638Y-62350940D01*
X113111070Y-62287007D01*
X113000000Y-62264515D01*
X112500000Y-62264515D01*
X112396238Y-62284039D01*
X112300940Y-62345362D01*
X112237007Y-62438930D01*
X112214515Y-62550000D01*
X112214515Y-63450000D01*
X112234039Y-63553762D01*
X112295362Y-63649060D01*
X112345000Y-63682977D01*
X112345000Y-65095000D01*
X110055319Y-65095000D01*
X109958526Y-64860743D01*
X109640929Y-64542591D01*
X109225757Y-64370197D01*
X108776215Y-64369804D01*
X108360743Y-64541474D01*
X108042591Y-64859071D01*
X107870197Y-65274243D01*
X107869804Y-65723785D01*
X108041474Y-66139257D01*
X108246858Y-66345000D01*
X107247756Y-66345000D01*
X106301492Y-65398736D01*
X106328953Y-65357637D01*
X106416004Y-64920000D01*
X106328953Y-64482363D01*
X106081051Y-64111353D01*
X105710041Y-63863451D01*
X105272404Y-63776400D01*
X105227596Y-63776400D01*
X104789959Y-63863451D01*
X104418949Y-64111353D01*
X104171047Y-64482363D01*
X104083996Y-64920000D01*
X104171047Y-65357637D01*
X104418949Y-65728647D01*
X104789959Y-65976549D01*
X105227596Y-66063600D01*
X105272404Y-66063600D01*
X105710041Y-65976549D01*
X105724279Y-65967035D01*
X106793622Y-67036378D01*
X106881356Y-67095000D01*
X106343401Y-67095000D01*
X106328953Y-67022363D01*
X106081051Y-66651353D01*
X105710041Y-66403451D01*
X105272404Y-66316400D01*
X105227596Y-66316400D01*
X104789959Y-66403451D01*
X104418949Y-66651353D01*
X104171047Y-67022363D01*
X104083996Y-67460000D01*
X104171047Y-67897637D01*
X104418949Y-68268647D01*
X104789959Y-68516549D01*
X105227596Y-68603600D01*
X105272404Y-68603600D01*
X105710041Y-68516549D01*
X106081051Y-68268647D01*
X106324033Y-67905000D01*
X106801356Y-67905000D01*
X106713622Y-67963622D01*
X105826329Y-68850915D01*
X104386400Y-68850915D01*
X104282638Y-68870439D01*
X104187340Y-68931762D01*
X104123407Y-69025330D01*
X104100915Y-69136400D01*
X104100915Y-70863600D01*
X104120439Y-70967362D01*
X104181762Y-71062660D01*
X104275330Y-71126593D01*
X104386400Y-71149085D01*
X106113600Y-71149085D01*
X106217362Y-71129561D01*
X106312660Y-71068238D01*
X106376593Y-70974670D01*
X106399085Y-70863600D01*
X106399085Y-70255165D01*
X108281181Y-70255165D01*
X108374562Y-70404564D01*
X108768333Y-70575053D01*
X109197373Y-70581875D01*
X109596365Y-70423991D01*
X109625438Y-70404564D01*
X109718819Y-70255165D01*
X114281181Y-70255165D01*
X114374562Y-70404564D01*
X114768333Y-70575053D01*
X115197373Y-70581875D01*
X115596365Y-70423991D01*
X115625438Y-70404564D01*
X115718819Y-70255165D01*
X115000000Y-69536345D01*
X114281181Y-70255165D01*
X109718819Y-70255165D01*
X109000000Y-69536345D01*
X108281181Y-70255165D01*
X106399085Y-70255165D01*
X106399085Y-69697373D01*
X107918125Y-69697373D01*
X108076009Y-70096365D01*
X108095436Y-70125438D01*
X108244835Y-70218819D01*
X108963655Y-69500000D01*
X109036345Y-69500000D01*
X109755165Y-70218819D01*
X109904564Y-70125438D01*
X110075053Y-69731667D01*
X110075598Y-69697373D01*
X113918125Y-69697373D01*
X114076009Y-70096365D01*
X114095436Y-70125438D01*
X114244835Y-70218819D01*
X114963655Y-69500000D01*
X115036345Y-69500000D01*
X115755165Y-70218819D01*
X115904564Y-70125438D01*
X116075053Y-69731667D01*
X116081875Y-69302627D01*
X115923991Y-68903635D01*
X115904564Y-68874562D01*
X115755165Y-68781181D01*
X115036345Y-69500000D01*
X114963655Y-69500000D01*
X114244835Y-68781181D01*
X114095436Y-68874562D01*
X113924947Y-69268333D01*
X113918125Y-69697373D01*
X110075598Y-69697373D01*
X110081875Y-69302627D01*
X109923991Y-68903635D01*
X109904564Y-68874562D01*
X109755165Y-68781181D01*
X109036345Y-69500000D01*
X108963655Y-69500000D01*
X108244835Y-68781181D01*
X108095436Y-68874562D01*
X107924947Y-69268333D01*
X107918125Y-69697373D01*
X106399085Y-69697373D01*
X106399085Y-69423671D01*
X107167756Y-68655000D01*
X108337332Y-68655000D01*
X108281181Y-68744835D01*
X109000000Y-69463655D01*
X109718819Y-68744835D01*
X109662668Y-68655000D01*
X114337332Y-68655000D01*
X114281181Y-68744835D01*
X115000000Y-69463655D01*
X115718819Y-68744835D01*
X115662668Y-68655000D01*
X117832244Y-68655000D01*
X118097328Y-68920085D01*
X117885137Y-68919899D01*
X117671886Y-69008013D01*
X117508587Y-69171027D01*
X117420101Y-69384125D01*
X117419899Y-69614863D01*
X117508013Y-69828114D01*
X117671027Y-69991413D01*
X117690000Y-69999291D01*
X117690000Y-70029568D01*
X117666238Y-70034039D01*
X117570940Y-70095362D01*
X117507007Y-70188930D01*
X117484515Y-70300000D01*
X117484515Y-72000000D01*
X117504039Y-72103762D01*
X117565362Y-72199060D01*
X117658930Y-72262993D01*
X117770000Y-72285485D01*
X118420000Y-72285485D01*
X118523762Y-72265961D01*
X118619060Y-72204638D01*
X118682993Y-72111070D01*
X118705485Y-72000000D01*
X118705485Y-70300000D01*
X118685961Y-70196238D01*
X118624638Y-70100940D01*
X118531070Y-70037007D01*
X118500000Y-70030715D01*
X118500000Y-69808293D01*
X118579899Y-69615875D01*
X118580086Y-69402842D01*
X118960000Y-69782757D01*
X118960000Y-70029568D01*
X118936238Y-70034039D01*
X118840940Y-70095362D01*
X118777007Y-70188930D01*
X118754515Y-70300000D01*
X118754515Y-72000000D01*
X118774039Y-72103762D01*
X118835362Y-72199060D01*
X118928930Y-72262993D01*
X119040000Y-72285485D01*
X119690000Y-72285485D01*
X119793762Y-72265961D01*
X119889060Y-72204638D01*
X119952993Y-72111070D01*
X119975485Y-72000000D01*
X119975485Y-70300000D01*
X119955961Y-70196238D01*
X119894638Y-70100940D01*
X119801070Y-70037007D01*
X119770000Y-70030715D01*
X119770000Y-69615000D01*
X119759530Y-69562363D01*
X119739172Y-69460014D01*
X119651379Y-69328622D01*
X118286378Y-67963622D01*
X118198644Y-67905000D01*
X120230000Y-67905000D01*
X120230000Y-70029568D01*
X120206238Y-70034039D01*
X120110940Y-70095362D01*
X120047007Y-70188930D01*
X120024515Y-70300000D01*
X120024515Y-72000000D01*
X120044039Y-72103762D01*
X120105362Y-72199060D01*
X120198930Y-72262993D01*
X120310000Y-72285485D01*
X120960000Y-72285485D01*
X121063762Y-72265961D01*
X121159060Y-72204638D01*
X121222993Y-72111070D01*
X121245485Y-72000000D01*
X121245485Y-70300000D01*
X121225961Y-70196238D01*
X121164638Y-70100940D01*
X121071070Y-70037007D01*
X121040000Y-70030715D01*
X121040000Y-67757735D01*
X121078114Y-67741987D01*
X121241413Y-67578973D01*
X121329899Y-67365875D01*
X121330101Y-67135137D01*
X121241987Y-66921886D01*
X121078973Y-66758587D01*
X120865875Y-66670101D01*
X120652842Y-66669914D01*
X120667756Y-66655000D01*
X121250000Y-66655000D01*
X121404987Y-66624171D01*
X121536378Y-66536378D01*
X122191378Y-65881378D01*
X122215685Y-65845000D01*
X122279171Y-65749987D01*
X122310000Y-65595000D01*
X122310000Y-64970432D01*
X122333762Y-64965961D01*
X122429060Y-64904638D01*
X122492993Y-64811070D01*
X122515485Y-64700000D01*
X122515485Y-63000000D01*
X122495961Y-62896238D01*
X122434638Y-62800940D01*
X122341070Y-62737007D01*
X122321953Y-62733136D01*
X122374171Y-62654987D01*
X122395054Y-62550000D01*
X122405000Y-62500000D01*
X122405000Y-62182990D01*
X122449060Y-62154638D01*
X122512993Y-62061070D01*
X122535485Y-61950000D01*
X122535485Y-61050000D01*
X122515961Y-60946238D01*
X122454638Y-60850940D01*
X122361070Y-60787007D01*
X122250000Y-60764515D01*
X121750000Y-60764515D01*
X121655000Y-60782390D01*
X121655000Y-59750000D01*
X121624171Y-59595013D01*
X121536378Y-59463622D01*
X121036378Y-58963622D01*
X121035437Y-58962993D01*
X120904987Y-58875829D01*
X120750000Y-58845000D01*
X119989809Y-58845000D01*
X120012993Y-58811070D01*
X120035485Y-58700000D01*
X120035485Y-57800000D01*
X120015961Y-57696238D01*
X119954638Y-57600940D01*
X119905000Y-57567023D01*
X119905000Y-55029883D01*
X120293491Y-55030222D01*
X120764115Y-54835764D01*
X121124499Y-54476009D01*
X121319778Y-54005725D01*
X121320222Y-53496509D01*
X121125764Y-53025885D01*
X120766009Y-52665501D01*
X120295725Y-52470222D01*
X119786509Y-52469778D01*
X119315885Y-52664236D01*
X118955501Y-53023991D01*
X118760222Y-53494275D01*
X118759778Y-54003491D01*
X118954236Y-54474115D01*
X119095000Y-54615125D01*
X119095000Y-57567010D01*
X119050940Y-57595362D01*
X118987007Y-57688930D01*
X118964515Y-57800000D01*
X118964515Y-58700000D01*
X118984039Y-58803762D01*
X119010575Y-58845000D01*
X118489809Y-58845000D01*
X118512993Y-58811070D01*
X118535485Y-58700000D01*
X118535485Y-57800000D01*
X118515961Y-57696238D01*
X118454638Y-57600940D01*
X118361070Y-57537007D01*
X118250000Y-57514515D01*
X117750000Y-57514515D01*
X117646238Y-57534039D01*
X117550940Y-57595362D01*
X117487007Y-57688930D01*
X117464515Y-57800000D01*
X117464515Y-57845000D01*
X117415235Y-57845000D01*
X117328973Y-57758587D01*
X117115875Y-57670101D01*
X116885137Y-57669899D01*
X116671886Y-57758013D01*
X116508587Y-57921027D01*
X116420101Y-58134125D01*
X116419899Y-58364863D01*
X116508013Y-58578114D01*
X116671027Y-58741413D01*
X116884125Y-58829899D01*
X117114863Y-58830101D01*
X117328114Y-58741987D01*
X117415253Y-58655000D01*
X117464515Y-58655000D01*
X117464515Y-58700000D01*
X117484039Y-58803762D01*
X117510575Y-58845000D01*
X113239809Y-58845000D01*
X113262993Y-58811070D01*
X113285485Y-58700000D01*
X113285485Y-57800000D01*
X113265961Y-57696238D01*
X113204638Y-57600940D01*
X113155000Y-57567023D01*
X113155000Y-54979883D01*
X113533589Y-54980213D01*
X113985829Y-54793351D01*
X114332135Y-54447649D01*
X114519786Y-53995735D01*
X114519928Y-53832850D01*
X116271400Y-53832850D01*
X116271400Y-54795471D01*
X116306202Y-54879491D01*
X116370508Y-54943797D01*
X116454528Y-54978600D01*
X117417150Y-54978600D01*
X117474300Y-54921450D01*
X117474300Y-53775700D01*
X117525700Y-53775700D01*
X117525700Y-54921450D01*
X117582850Y-54978600D01*
X118545472Y-54978600D01*
X118629492Y-54943797D01*
X118693798Y-54879491D01*
X118728600Y-54795471D01*
X118728600Y-53832850D01*
X118671450Y-53775700D01*
X117525700Y-53775700D01*
X117474300Y-53775700D01*
X116328550Y-53775700D01*
X116271400Y-53832850D01*
X114519928Y-53832850D01*
X114520213Y-53506411D01*
X114333351Y-53054171D01*
X113987649Y-52707865D01*
X113979616Y-52704529D01*
X116271400Y-52704529D01*
X116271400Y-53667150D01*
X116328550Y-53724300D01*
X117474300Y-53724300D01*
X117474300Y-52578550D01*
X117525700Y-52578550D01*
X117525700Y-53724300D01*
X118671450Y-53724300D01*
X118728600Y-53667150D01*
X118728600Y-52704529D01*
X118693798Y-52620509D01*
X118629492Y-52556203D01*
X118545472Y-52521400D01*
X117582850Y-52521400D01*
X117525700Y-52578550D01*
X117474300Y-52578550D01*
X117417150Y-52521400D01*
X116454528Y-52521400D01*
X116370508Y-52556203D01*
X116306202Y-52620509D01*
X116271400Y-52704529D01*
X113979616Y-52704529D01*
X113535735Y-52520214D01*
X113046411Y-52519787D01*
X112594171Y-52706649D01*
X112247865Y-53052351D01*
X112060214Y-53504265D01*
X112059787Y-53993589D01*
X112246649Y-54445829D01*
X112345000Y-54544352D01*
X112345000Y-57567010D01*
X112300940Y-57595362D01*
X112237007Y-57688930D01*
X112214515Y-57800000D01*
X112214515Y-58700000D01*
X112234039Y-58803762D01*
X112260575Y-58845000D01*
X111739809Y-58845000D01*
X111762993Y-58811070D01*
X111785485Y-58700000D01*
X111785485Y-57800000D01*
X111765961Y-57696238D01*
X111704638Y-57600940D01*
X111611070Y-57537007D01*
X111500000Y-57514515D01*
X111000000Y-57514515D01*
X110896238Y-57534039D01*
X110800940Y-57595362D01*
X110737007Y-57688930D01*
X110714515Y-57800000D01*
X110714515Y-58700000D01*
X110734039Y-58803762D01*
X110795362Y-58899060D01*
X110845000Y-58932977D01*
X110845000Y-59000000D01*
X110875829Y-59154987D01*
X110939315Y-59250000D01*
X110963622Y-59286378D01*
X111213621Y-59536378D01*
X111345013Y-59624171D01*
X111500000Y-59655000D01*
X120582244Y-59655000D01*
X120845000Y-59917756D01*
X120845000Y-60783753D01*
X120750000Y-60764515D01*
X120250000Y-60764515D01*
X120146238Y-60784039D01*
X120050940Y-60845362D01*
X119987007Y-60938930D01*
X119964515Y-61050000D01*
X119964515Y-61095000D01*
X102250000Y-61095000D01*
X102095013Y-61125829D01*
X101963622Y-61213622D01*
X101213622Y-61963622D01*
X101125829Y-62095013D01*
X101095000Y-62250000D01*
X100355000Y-62250000D01*
X100355000Y-58364863D01*
X103419899Y-58364863D01*
X103508013Y-58578114D01*
X103671027Y-58741413D01*
X103884125Y-58829899D01*
X104114863Y-58830101D01*
X104328114Y-58741987D01*
X104415253Y-58655000D01*
X104464515Y-58655000D01*
X104464515Y-58700000D01*
X104484039Y-58803762D01*
X104545362Y-58899060D01*
X104638930Y-58962993D01*
X104750000Y-58985485D01*
X105250000Y-58985485D01*
X105353762Y-58965961D01*
X105449060Y-58904638D01*
X105512993Y-58811070D01*
X105535485Y-58700000D01*
X105535485Y-57800000D01*
X105515961Y-57696238D01*
X105454638Y-57600940D01*
X105361070Y-57537007D01*
X105250000Y-57514515D01*
X104750000Y-57514515D01*
X104646238Y-57534039D01*
X104550940Y-57595362D01*
X104487007Y-57688930D01*
X104464515Y-57800000D01*
X104464515Y-57845000D01*
X104415235Y-57845000D01*
X104328973Y-57758587D01*
X104115875Y-57670101D01*
X103885137Y-57669899D01*
X103671886Y-57758013D01*
X103508587Y-57921027D01*
X103420101Y-58134125D01*
X103419899Y-58364863D01*
X100355000Y-58364863D01*
X100355000Y-53832850D01*
X103271400Y-53832850D01*
X103271400Y-54795471D01*
X103306202Y-54879491D01*
X103370508Y-54943797D01*
X103454528Y-54978600D01*
X104417150Y-54978600D01*
X104474300Y-54921450D01*
X104474300Y-53775700D01*
X104525700Y-53775700D01*
X104525700Y-54921450D01*
X104582850Y-54978600D01*
X105545472Y-54978600D01*
X105629492Y-54943797D01*
X105693798Y-54879491D01*
X105728600Y-54795471D01*
X105728600Y-54003491D01*
X105759778Y-54003491D01*
X105954236Y-54474115D01*
X106095000Y-54615125D01*
X106095000Y-57567010D01*
X106050940Y-57595362D01*
X105987007Y-57688930D01*
X105964515Y-57800000D01*
X105964515Y-58700000D01*
X105984039Y-58803762D01*
X106045362Y-58899060D01*
X106138930Y-58962993D01*
X106250000Y-58985485D01*
X106750000Y-58985485D01*
X106853762Y-58965961D01*
X106949060Y-58904638D01*
X107012993Y-58811070D01*
X107035485Y-58700000D01*
X107035485Y-57800000D01*
X107015961Y-57696238D01*
X106954638Y-57600940D01*
X106905000Y-57567023D01*
X106905000Y-55029883D01*
X107293491Y-55030222D01*
X107764115Y-54835764D01*
X108124499Y-54476009D01*
X108319778Y-54005725D01*
X108319928Y-53832850D01*
X109571400Y-53832850D01*
X109571400Y-54795471D01*
X109606202Y-54879491D01*
X109670508Y-54943797D01*
X109754528Y-54978600D01*
X110667150Y-54978600D01*
X110724300Y-54921450D01*
X110724300Y-53775700D01*
X110775700Y-53775700D01*
X110775700Y-54921450D01*
X110832850Y-54978600D01*
X111745472Y-54978600D01*
X111829492Y-54943797D01*
X111893798Y-54879491D01*
X111928600Y-54795471D01*
X111928600Y-53832850D01*
X111871450Y-53775700D01*
X110775700Y-53775700D01*
X110724300Y-53775700D01*
X109628550Y-53775700D01*
X109571400Y-53832850D01*
X108319928Y-53832850D01*
X108320222Y-53496509D01*
X108125764Y-53025885D01*
X107804969Y-52704529D01*
X109571400Y-52704529D01*
X109571400Y-53667150D01*
X109628550Y-53724300D01*
X110724300Y-53724300D01*
X110724300Y-52578550D01*
X110775700Y-52578550D01*
X110775700Y-53724300D01*
X111871450Y-53724300D01*
X111928600Y-53667150D01*
X111928600Y-52704529D01*
X111893798Y-52620509D01*
X111829492Y-52556203D01*
X111745472Y-52521400D01*
X110832850Y-52521400D01*
X110775700Y-52578550D01*
X110724300Y-52578550D01*
X110667150Y-52521400D01*
X109754528Y-52521400D01*
X109670508Y-52556203D01*
X109606202Y-52620509D01*
X109571400Y-52704529D01*
X107804969Y-52704529D01*
X107766009Y-52665501D01*
X107295725Y-52470222D01*
X106786509Y-52469778D01*
X106315885Y-52664236D01*
X105955501Y-53023991D01*
X105760222Y-53494275D01*
X105759778Y-54003491D01*
X105728600Y-54003491D01*
X105728600Y-53832850D01*
X105671450Y-53775700D01*
X104525700Y-53775700D01*
X104474300Y-53775700D01*
X103328550Y-53775700D01*
X103271400Y-53832850D01*
X100355000Y-53832850D01*
X100355000Y-52704529D01*
X103271400Y-52704529D01*
X103271400Y-53667150D01*
X103328550Y-53724300D01*
X104474300Y-53724300D01*
X104474300Y-52578550D01*
X104525700Y-52578550D01*
X104525700Y-53724300D01*
X105671450Y-53724300D01*
X105728600Y-53667150D01*
X105728600Y-52704529D01*
X105693798Y-52620509D01*
X105629492Y-52556203D01*
X105545472Y-52521400D01*
X104582850Y-52521400D01*
X104525700Y-52578550D01*
X104474300Y-52578550D01*
X104417150Y-52521400D01*
X103454528Y-52521400D01*
X103370508Y-52556203D01*
X103306202Y-52620509D01*
X103271400Y-52704529D01*
X100355000Y-52704529D01*
X100355000Y-52034966D01*
X100486644Y-51373146D01*
X100841727Y-50841727D01*
X101373147Y-50486644D01*
X102034966Y-50355000D01*
X121965034Y-50355000D01*
X122626854Y-50486644D01*
M02*
