G04 #@! TF.FileFunction,Legend,Bot*
%FSLAX46Y46*%
G04 Gerber Fmt 4.6, Leading zero omitted, Abs format (unit mm)*
G04 Created by KiCad (PCBNEW 4.0.0-rc1-stable) date 8/9/2016 11:22:53 PM*
%MOMM*%
G01*
G04 APERTURE LIST*
%ADD10C,0.100000*%
%ADD11C,0.300000*%
%ADD12R,2.027200X2.027200*%
%ADD13O,2.027200X2.027200*%
%ADD14R,2.300000X2.300000*%
%ADD15C,2.300000*%
%ADD16R,2.200000X2.300000*%
%ADD17C,2.200000*%
%ADD18C,2.000000*%
G04 APERTURE END LIST*
D10*
D11*
X109978571Y-61250001D02*
X109978571Y-61535715D01*
X110050000Y-61678573D01*
X110192857Y-61821430D01*
X110478571Y-61892858D01*
X110978571Y-61892858D01*
X111264286Y-61821430D01*
X111407143Y-61678573D01*
X111478571Y-61535715D01*
X111478571Y-61250001D01*
X111407143Y-61107144D01*
X111264286Y-60964287D01*
X110978571Y-60892858D01*
X110478571Y-60892858D01*
X110192857Y-60964287D01*
X110050000Y-61107144D01*
X109978571Y-61250001D01*
X110478571Y-62321430D02*
X110478571Y-62892859D01*
X109978571Y-62535716D02*
X111264286Y-62535716D01*
X111407143Y-62607144D01*
X111478571Y-62750002D01*
X111478571Y-62892859D01*
X110478571Y-63178573D02*
X110478571Y-63750002D01*
X109978571Y-63392859D02*
X111264286Y-63392859D01*
X111407143Y-63464287D01*
X111478571Y-63607145D01*
X111478571Y-63750002D01*
X111478571Y-64892859D02*
X110692857Y-64892859D01*
X110550000Y-64821430D01*
X110478571Y-64678573D01*
X110478571Y-64392859D01*
X110550000Y-64250002D01*
X111407143Y-64892859D02*
X111478571Y-64750002D01*
X111478571Y-64392859D01*
X111407143Y-64250002D01*
X111264286Y-64178573D01*
X111121429Y-64178573D01*
X110978571Y-64250002D01*
X110907143Y-64392859D01*
X110907143Y-64750002D01*
X110835714Y-64892859D01*
X110478571Y-65464288D02*
X111478571Y-65750002D01*
X110764286Y-66035716D01*
X111478571Y-66321431D01*
X110478571Y-66607145D01*
X111478571Y-67821431D02*
X110692857Y-67821431D01*
X110550000Y-67750002D01*
X110478571Y-67607145D01*
X110478571Y-67321431D01*
X110550000Y-67178574D01*
X111407143Y-67821431D02*
X111478571Y-67678574D01*
X111478571Y-67321431D01*
X111407143Y-67178574D01*
X111264286Y-67107145D01*
X111121429Y-67107145D01*
X110978571Y-67178574D01*
X110907143Y-67321431D01*
X110907143Y-67678574D01*
X110835714Y-67821431D01*
X111478571Y-69678574D02*
X109978571Y-69678574D01*
X111050000Y-70178574D01*
X109978571Y-70678574D01*
X111478571Y-70678574D01*
X111478571Y-72035717D02*
X110692857Y-72035717D01*
X110550000Y-71964288D01*
X110478571Y-71821431D01*
X110478571Y-71535717D01*
X110550000Y-71392860D01*
X111407143Y-72035717D02*
X111478571Y-71892860D01*
X111478571Y-71535717D01*
X111407143Y-71392860D01*
X111264286Y-71321431D01*
X111121429Y-71321431D01*
X110978571Y-71392860D01*
X110907143Y-71535717D01*
X110907143Y-71892860D01*
X110835714Y-72035717D01*
X111478571Y-72750003D02*
X109978571Y-72750003D01*
X110907143Y-72892860D02*
X111478571Y-73321431D01*
X110478571Y-73321431D02*
X111050000Y-72750003D01*
X111407143Y-74535717D02*
X111478571Y-74392860D01*
X111478571Y-74107146D01*
X111407143Y-73964289D01*
X111264286Y-73892860D01*
X110692857Y-73892860D01*
X110550000Y-73964289D01*
X110478571Y-74107146D01*
X110478571Y-74392860D01*
X110550000Y-74535717D01*
X110692857Y-74607146D01*
X110835714Y-74607146D01*
X110978571Y-73892860D01*
X111478571Y-75250003D02*
X110478571Y-75250003D01*
X110764286Y-75250003D02*
X110621429Y-75321431D01*
X110550000Y-75392860D01*
X110478571Y-75535717D01*
X110478571Y-75678574D01*
X110692857Y-77821431D02*
X110692857Y-77321431D01*
X111478571Y-77321431D02*
X109978571Y-77321431D01*
X109978571Y-78035717D01*
X111478571Y-79250002D02*
X110692857Y-79250002D01*
X110550000Y-79178573D01*
X110478571Y-79035716D01*
X110478571Y-78750002D01*
X110550000Y-78607145D01*
X111407143Y-79250002D02*
X111478571Y-79107145D01*
X111478571Y-78750002D01*
X111407143Y-78607145D01*
X111264286Y-78535716D01*
X111121429Y-78535716D01*
X110978571Y-78607145D01*
X110907143Y-78750002D01*
X110907143Y-79107145D01*
X110835714Y-79250002D01*
X111478571Y-79964288D02*
X110478571Y-79964288D01*
X109978571Y-79964288D02*
X110050000Y-79892859D01*
X110121429Y-79964288D01*
X110050000Y-80035716D01*
X109978571Y-79964288D01*
X110121429Y-79964288D01*
X111478571Y-80678574D02*
X110478571Y-80678574D01*
X110764286Y-80678574D02*
X110621429Y-80750002D01*
X110550000Y-80821431D01*
X110478571Y-80964288D01*
X110478571Y-81107145D01*
X111407143Y-82178573D02*
X111478571Y-82035716D01*
X111478571Y-81750002D01*
X111407143Y-81607145D01*
X111264286Y-81535716D01*
X110692857Y-81535716D01*
X110550000Y-81607145D01*
X110478571Y-81750002D01*
X110478571Y-82035716D01*
X110550000Y-82178573D01*
X110692857Y-82250002D01*
X110835714Y-82250002D01*
X110978571Y-81535716D01*
X110121429Y-83964287D02*
X110050000Y-84035716D01*
X109978571Y-84178573D01*
X109978571Y-84535716D01*
X110050000Y-84678573D01*
X110121429Y-84750002D01*
X110264286Y-84821430D01*
X110407143Y-84821430D01*
X110621429Y-84750002D01*
X111478571Y-83892859D01*
X111478571Y-84821430D01*
X109978571Y-85750001D02*
X109978571Y-85892858D01*
X110050000Y-86035715D01*
X110121429Y-86107144D01*
X110264286Y-86178573D01*
X110550000Y-86250001D01*
X110907143Y-86250001D01*
X111192857Y-86178573D01*
X111335714Y-86107144D01*
X111407143Y-86035715D01*
X111478571Y-85892858D01*
X111478571Y-85750001D01*
X111407143Y-85607144D01*
X111335714Y-85535715D01*
X111192857Y-85464287D01*
X110907143Y-85392858D01*
X110550000Y-85392858D01*
X110264286Y-85464287D01*
X110121429Y-85535715D01*
X110050000Y-85607144D01*
X109978571Y-85750001D01*
X111478571Y-87678572D02*
X111478571Y-86821429D01*
X111478571Y-87250001D02*
X109978571Y-87250001D01*
X110192857Y-87107144D01*
X110335714Y-86964286D01*
X110407143Y-86821429D01*
X109978571Y-88964286D02*
X109978571Y-88678572D01*
X110050000Y-88535715D01*
X110121429Y-88464286D01*
X110335714Y-88321429D01*
X110621429Y-88250000D01*
X111192857Y-88250000D01*
X111335714Y-88321429D01*
X111407143Y-88392857D01*
X111478571Y-88535715D01*
X111478571Y-88821429D01*
X111407143Y-88964286D01*
X111335714Y-89035715D01*
X111192857Y-89107143D01*
X110835714Y-89107143D01*
X110692857Y-89035715D01*
X110621429Y-88964286D01*
X110550000Y-88821429D01*
X110550000Y-88535715D01*
X110621429Y-88392857D01*
X110692857Y-88321429D01*
X110835714Y-88250000D01*
X113092857Y-59892858D02*
X113164286Y-60107144D01*
X113235714Y-60178572D01*
X113378571Y-60250001D01*
X113592857Y-60250001D01*
X113735714Y-60178572D01*
X113807143Y-60107144D01*
X113878571Y-59964286D01*
X113878571Y-59392858D01*
X112378571Y-59392858D01*
X112378571Y-59892858D01*
X112450000Y-60035715D01*
X112521429Y-60107144D01*
X112664286Y-60178572D01*
X112807143Y-60178572D01*
X112950000Y-60107144D01*
X113021429Y-60035715D01*
X113092857Y-59892858D01*
X113092857Y-59392858D01*
X113878571Y-61535715D02*
X113092857Y-61535715D01*
X112950000Y-61464286D01*
X112878571Y-61321429D01*
X112878571Y-61035715D01*
X112950000Y-60892858D01*
X113807143Y-61535715D02*
X113878571Y-61392858D01*
X113878571Y-61035715D01*
X113807143Y-60892858D01*
X113664286Y-60821429D01*
X113521429Y-60821429D01*
X113378571Y-60892858D01*
X113307143Y-61035715D01*
X113307143Y-61392858D01*
X113235714Y-61535715D01*
X113878571Y-62892858D02*
X112378571Y-62892858D01*
X113807143Y-62892858D02*
X113878571Y-62750001D01*
X113878571Y-62464287D01*
X113807143Y-62321429D01*
X113735714Y-62250001D01*
X113592857Y-62178572D01*
X113164286Y-62178572D01*
X113021429Y-62250001D01*
X112950000Y-62321429D01*
X112878571Y-62464287D01*
X112878571Y-62750001D01*
X112950000Y-62892858D01*
X112878571Y-64250001D02*
X114092857Y-64250001D01*
X114235714Y-64178572D01*
X114307143Y-64107144D01*
X114378571Y-63964287D01*
X114378571Y-63750001D01*
X114307143Y-63607144D01*
X113807143Y-64250001D02*
X113878571Y-64107144D01*
X113878571Y-63821430D01*
X113807143Y-63678572D01*
X113735714Y-63607144D01*
X113592857Y-63535715D01*
X113164286Y-63535715D01*
X113021429Y-63607144D01*
X112950000Y-63678572D01*
X112878571Y-63821430D01*
X112878571Y-64107144D01*
X112950000Y-64250001D01*
X113807143Y-65535715D02*
X113878571Y-65392858D01*
X113878571Y-65107144D01*
X113807143Y-64964287D01*
X113664286Y-64892858D01*
X113092857Y-64892858D01*
X112950000Y-64964287D01*
X112878571Y-65107144D01*
X112878571Y-65392858D01*
X112950000Y-65535715D01*
X113092857Y-65607144D01*
X113235714Y-65607144D01*
X113378571Y-64892858D01*
X112378571Y-67178572D02*
X112378571Y-68035715D01*
X113878571Y-67607144D02*
X112378571Y-67607144D01*
X113878571Y-69178572D02*
X113092857Y-69178572D01*
X112950000Y-69107143D01*
X112878571Y-68964286D01*
X112878571Y-68678572D01*
X112950000Y-68535715D01*
X113807143Y-69178572D02*
X113878571Y-69035715D01*
X113878571Y-68678572D01*
X113807143Y-68535715D01*
X113664286Y-68464286D01*
X113521429Y-68464286D01*
X113378571Y-68535715D01*
X113307143Y-68678572D01*
X113307143Y-69035715D01*
X113235714Y-69178572D01*
X112878571Y-70535715D02*
X114092857Y-70535715D01*
X114235714Y-70464286D01*
X114307143Y-70392858D01*
X114378571Y-70250001D01*
X114378571Y-70035715D01*
X114307143Y-69892858D01*
X113807143Y-70535715D02*
X113878571Y-70392858D01*
X113878571Y-70107144D01*
X113807143Y-69964286D01*
X113735714Y-69892858D01*
X113592857Y-69821429D01*
X113164286Y-69821429D01*
X113021429Y-69892858D01*
X112950000Y-69964286D01*
X112878571Y-70107144D01*
X112878571Y-70392858D01*
X112950000Y-70535715D01*
X112878571Y-71892858D02*
X114092857Y-71892858D01*
X114235714Y-71821429D01*
X114307143Y-71750001D01*
X114378571Y-71607144D01*
X114378571Y-71392858D01*
X114307143Y-71250001D01*
X113807143Y-71892858D02*
X113878571Y-71750001D01*
X113878571Y-71464287D01*
X113807143Y-71321429D01*
X113735714Y-71250001D01*
X113592857Y-71178572D01*
X113164286Y-71178572D01*
X113021429Y-71250001D01*
X112950000Y-71321429D01*
X112878571Y-71464287D01*
X112878571Y-71750001D01*
X112950000Y-71892858D01*
X113807143Y-73178572D02*
X113878571Y-73035715D01*
X113878571Y-72750001D01*
X113807143Y-72607144D01*
X113664286Y-72535715D01*
X113092857Y-72535715D01*
X112950000Y-72607144D01*
X112878571Y-72750001D01*
X112878571Y-73035715D01*
X112950000Y-73178572D01*
X113092857Y-73250001D01*
X113235714Y-73250001D01*
X113378571Y-72535715D01*
X113878571Y-73892858D02*
X112878571Y-73892858D01*
X113164286Y-73892858D02*
X113021429Y-73964286D01*
X112950000Y-74035715D01*
X112878571Y-74178572D01*
X112878571Y-74321429D01*
X113878571Y-75964286D02*
X112378571Y-75964286D01*
X112378571Y-76535714D01*
X112450000Y-76678572D01*
X112521429Y-76750000D01*
X112664286Y-76821429D01*
X112878571Y-76821429D01*
X113021429Y-76750000D01*
X113092857Y-76678572D01*
X113164286Y-76535714D01*
X113164286Y-75964286D01*
X113878571Y-77464286D02*
X112878571Y-77464286D01*
X113164286Y-77464286D02*
X113021429Y-77535714D01*
X112950000Y-77607143D01*
X112878571Y-77750000D01*
X112878571Y-77892857D01*
X113878571Y-78607143D02*
X113807143Y-78464285D01*
X113735714Y-78392857D01*
X113592857Y-78321428D01*
X113164286Y-78321428D01*
X113021429Y-78392857D01*
X112950000Y-78464285D01*
X112878571Y-78607143D01*
X112878571Y-78821428D01*
X112950000Y-78964285D01*
X113021429Y-79035714D01*
X113164286Y-79107143D01*
X113592857Y-79107143D01*
X113735714Y-79035714D01*
X113807143Y-78964285D01*
X113878571Y-78821428D01*
X113878571Y-78607143D01*
X112878571Y-79535714D02*
X112878571Y-80107143D01*
X112378571Y-79750000D02*
X113664286Y-79750000D01*
X113807143Y-79821428D01*
X113878571Y-79964286D01*
X113878571Y-80107143D01*
X113878571Y-80821429D02*
X113807143Y-80678571D01*
X113735714Y-80607143D01*
X113592857Y-80535714D01*
X113164286Y-80535714D01*
X113021429Y-80607143D01*
X112950000Y-80678571D01*
X112878571Y-80821429D01*
X112878571Y-81035714D01*
X112950000Y-81178571D01*
X113021429Y-81250000D01*
X113164286Y-81321429D01*
X113592857Y-81321429D01*
X113735714Y-81250000D01*
X113807143Y-81178571D01*
X113878571Y-81035714D01*
X113878571Y-80821429D01*
X112878571Y-81750000D02*
X112878571Y-82321429D01*
X112378571Y-81964286D02*
X113664286Y-81964286D01*
X113807143Y-82035714D01*
X113878571Y-82178572D01*
X113878571Y-82321429D01*
X112878571Y-82678572D02*
X113878571Y-83035715D01*
X112878571Y-83392857D02*
X113878571Y-83035715D01*
X114235714Y-82892857D01*
X114307143Y-82821429D01*
X114378571Y-82678572D01*
X112878571Y-83964286D02*
X114378571Y-83964286D01*
X112950000Y-83964286D02*
X112878571Y-84107143D01*
X112878571Y-84392857D01*
X112950000Y-84535714D01*
X113021429Y-84607143D01*
X113164286Y-84678572D01*
X113592857Y-84678572D01*
X113735714Y-84607143D01*
X113807143Y-84535714D01*
X113878571Y-84392857D01*
X113878571Y-84107143D01*
X113807143Y-83964286D01*
X113807143Y-85892857D02*
X113878571Y-85750000D01*
X113878571Y-85464286D01*
X113807143Y-85321429D01*
X113664286Y-85250000D01*
X113092857Y-85250000D01*
X112950000Y-85321429D01*
X112878571Y-85464286D01*
X112878571Y-85750000D01*
X112950000Y-85892857D01*
X113092857Y-85964286D01*
X113235714Y-85964286D01*
X113378571Y-85250000D01*
X113878571Y-88535714D02*
X113878571Y-87678571D01*
X113878571Y-88107143D02*
X112378571Y-88107143D01*
X112592857Y-87964286D01*
X112735714Y-87821428D01*
X112807143Y-87678571D01*
X113735714Y-89178571D02*
X113807143Y-89249999D01*
X113878571Y-89178571D01*
X113807143Y-89107142D01*
X113735714Y-89178571D01*
X113878571Y-89178571D01*
X112378571Y-90178571D02*
X112378571Y-90321428D01*
X112450000Y-90464285D01*
X112521429Y-90535714D01*
X112664286Y-90607143D01*
X112950000Y-90678571D01*
X113307143Y-90678571D01*
X113592857Y-90607143D01*
X113735714Y-90535714D01*
X113807143Y-90464285D01*
X113878571Y-90321428D01*
X113878571Y-90178571D01*
X113807143Y-90035714D01*
X113735714Y-89964285D01*
X113592857Y-89892857D01*
X113307143Y-89821428D01*
X112950000Y-89821428D01*
X112664286Y-89892857D01*
X112521429Y-89964285D01*
X112450000Y-90035714D01*
X112378571Y-90178571D01*
%LPC*%
D12*
X105250000Y-70000000D03*
D13*
X102710000Y-70000000D03*
X105250000Y-67460000D03*
X102710000Y-67460000D03*
X105250000Y-64920000D03*
X102710000Y-64920000D03*
D14*
X117500000Y-53750000D03*
D15*
X120040000Y-53750000D03*
D14*
X104500000Y-53750000D03*
D15*
X107040000Y-53750000D03*
D16*
X110750000Y-53750000D03*
D17*
X113290000Y-53750000D03*
D18*
X109000000Y-65500000D03*
X115000000Y-65500000D03*
X109000000Y-69500000D03*
X115000000Y-69500000D03*
M02*
