G04 #@! TF.FileFunction,Copper,L2,Bot,Signal*
%FSLAX46Y46*%
G04 Gerber Fmt 4.6, Leading zero omitted, Abs format (unit mm)*
G04 Created by KiCad (PCBNEW 4.0.0-rc1-stable) date 8/9/2016 11:22:53 PM*
%MOMM*%
G01*
G04 APERTURE LIST*
%ADD10C,0.100000*%
%ADD11R,1.727200X1.727200*%
%ADD12O,1.727200X1.727200*%
%ADD13R,2.000000X2.000000*%
%ADD14C,2.000000*%
%ADD15R,1.900000X2.000000*%
%ADD16C,1.900000*%
%ADD17C,1.700000*%
%ADD18C,0.600000*%
%ADD19C,0.250000*%
%ADD20C,0.152400*%
G04 APERTURE END LIST*
D10*
D11*
X105250000Y-70000000D03*
D12*
X102710000Y-70000000D03*
X105250000Y-67460000D03*
X102710000Y-67460000D03*
X105250000Y-64920000D03*
X102710000Y-64920000D03*
D13*
X117500000Y-53750000D03*
D14*
X120040000Y-53750000D03*
D13*
X104500000Y-53750000D03*
D14*
X107040000Y-53750000D03*
D15*
X110750000Y-53750000D03*
D16*
X113290000Y-53750000D03*
D17*
X109000000Y-65500000D03*
X115000000Y-65500000D03*
X109000000Y-69500000D03*
X115000000Y-69500000D03*
D18*
X121750000Y-69500000D03*
X118000000Y-69500000D03*
X120750000Y-67250000D03*
X104000000Y-58250000D03*
X117000000Y-58250000D03*
D19*
X102710000Y-70000000D02*
X102710000Y-69960000D01*
X102710000Y-69960000D02*
X101500000Y-68750000D01*
X119750000Y-67500000D02*
X121750000Y-69500000D01*
X107000000Y-67500000D02*
X119750000Y-67500000D01*
X105750000Y-66250000D02*
X107000000Y-67500000D01*
X102000000Y-66250000D02*
X105750000Y-66250000D01*
X101500000Y-66750000D02*
X102000000Y-66250000D01*
X101500000Y-68750000D02*
X101500000Y-66750000D01*
X102710000Y-67460000D02*
X104000000Y-68750000D01*
X116750000Y-68250000D02*
X118000000Y-69500000D01*
X107000000Y-68250000D02*
X116750000Y-68250000D01*
X106500000Y-68750000D02*
X107000000Y-68250000D01*
X104000000Y-68750000D02*
X106500000Y-68750000D01*
X117000000Y-58250000D02*
X119250000Y-58250000D01*
X120750000Y-67250000D02*
X120750000Y-59750000D01*
X119250000Y-58250000D02*
X120750000Y-59750000D01*
X117000000Y-58250000D02*
X104000000Y-58250000D01*
D20*
G36*
X122626854Y-50486644D02*
X123158273Y-50841727D01*
X123513356Y-51373147D01*
X123645000Y-52034966D01*
X123645000Y-97965034D01*
X123513356Y-98626853D01*
X123158273Y-99158273D01*
X122626854Y-99513356D01*
X121965034Y-99645000D01*
X102034966Y-99645000D01*
X101373147Y-99513356D01*
X100841727Y-99158273D01*
X100486644Y-98626854D01*
X100355000Y-97965034D01*
X100355000Y-66750000D01*
X101095000Y-66750000D01*
X101095000Y-68750000D01*
X101125829Y-68904987D01*
X101135928Y-68920101D01*
X101213622Y-69036378D01*
X101674530Y-69497286D01*
X101631047Y-69562363D01*
X101543996Y-70000000D01*
X101631047Y-70437637D01*
X101878949Y-70808647D01*
X102249959Y-71056549D01*
X102687596Y-71143600D01*
X102732404Y-71143600D01*
X103170041Y-71056549D01*
X103541051Y-70808647D01*
X103788953Y-70437637D01*
X103876004Y-70000000D01*
X103788953Y-69562363D01*
X103541051Y-69191353D01*
X103170041Y-68943451D01*
X102732404Y-68856400D01*
X102687596Y-68856400D01*
X102263512Y-68940755D01*
X101905000Y-68582244D01*
X101905000Y-68286054D01*
X102249959Y-68516549D01*
X102687596Y-68603600D01*
X102732404Y-68603600D01*
X103170041Y-68516549D01*
X103184279Y-68507035D01*
X103713621Y-69036378D01*
X103845013Y-69124171D01*
X104000000Y-69155000D01*
X104100915Y-69155000D01*
X104100915Y-70863600D01*
X104120439Y-70967362D01*
X104181762Y-71062660D01*
X104275330Y-71126593D01*
X104386400Y-71149085D01*
X106113600Y-71149085D01*
X106217362Y-71129561D01*
X106312660Y-71068238D01*
X106376593Y-70974670D01*
X106399085Y-70863600D01*
X106399085Y-70255165D01*
X108281181Y-70255165D01*
X108374562Y-70404564D01*
X108768333Y-70575053D01*
X109197373Y-70581875D01*
X109596365Y-70423991D01*
X109625438Y-70404564D01*
X109718819Y-70255165D01*
X114281181Y-70255165D01*
X114374562Y-70404564D01*
X114768333Y-70575053D01*
X115197373Y-70581875D01*
X115596365Y-70423991D01*
X115625438Y-70404564D01*
X115718819Y-70255165D01*
X115000000Y-69536345D01*
X114281181Y-70255165D01*
X109718819Y-70255165D01*
X109000000Y-69536345D01*
X108281181Y-70255165D01*
X106399085Y-70255165D01*
X106399085Y-69697373D01*
X107918125Y-69697373D01*
X108076009Y-70096365D01*
X108095436Y-70125438D01*
X108244835Y-70218819D01*
X108963655Y-69500000D01*
X109036345Y-69500000D01*
X109755165Y-70218819D01*
X109904564Y-70125438D01*
X110075053Y-69731667D01*
X110075598Y-69697373D01*
X113918125Y-69697373D01*
X114076009Y-70096365D01*
X114095436Y-70125438D01*
X114244835Y-70218819D01*
X114963655Y-69500000D01*
X115036345Y-69500000D01*
X115755165Y-70218819D01*
X115904564Y-70125438D01*
X116075053Y-69731667D01*
X116081875Y-69302627D01*
X115923991Y-68903635D01*
X115904564Y-68874562D01*
X115755165Y-68781181D01*
X115036345Y-69500000D01*
X114963655Y-69500000D01*
X114244835Y-68781181D01*
X114095436Y-68874562D01*
X113924947Y-69268333D01*
X113918125Y-69697373D01*
X110075598Y-69697373D01*
X110081875Y-69302627D01*
X109923991Y-68903635D01*
X109904564Y-68874562D01*
X109755165Y-68781181D01*
X109036345Y-69500000D01*
X108963655Y-69500000D01*
X108244835Y-68781181D01*
X108095436Y-68874562D01*
X107924947Y-69268333D01*
X107918125Y-69697373D01*
X106399085Y-69697373D01*
X106399085Y-69155000D01*
X106500000Y-69155000D01*
X106654987Y-69124171D01*
X106786378Y-69036378D01*
X107167756Y-68655000D01*
X108337332Y-68655000D01*
X108281181Y-68744835D01*
X109000000Y-69463655D01*
X109718819Y-68744835D01*
X109662668Y-68655000D01*
X114337332Y-68655000D01*
X114281181Y-68744835D01*
X115000000Y-69463655D01*
X115718819Y-68744835D01*
X115662668Y-68655000D01*
X116582244Y-68655000D01*
X117420006Y-69492762D01*
X117419899Y-69614863D01*
X117508013Y-69828114D01*
X117671027Y-69991413D01*
X117884125Y-70079899D01*
X118114863Y-70080101D01*
X118328114Y-69991987D01*
X118491413Y-69828973D01*
X118579899Y-69615875D01*
X118580101Y-69385137D01*
X118491987Y-69171886D01*
X118328973Y-69008587D01*
X118115875Y-68920101D01*
X117992749Y-68919993D01*
X117036378Y-67963622D01*
X116948644Y-67905000D01*
X119582244Y-67905000D01*
X121170006Y-69492762D01*
X121169899Y-69614863D01*
X121258013Y-69828114D01*
X121421027Y-69991413D01*
X121634125Y-70079899D01*
X121864863Y-70080101D01*
X122078114Y-69991987D01*
X122241413Y-69828973D01*
X122329899Y-69615875D01*
X122330101Y-69385137D01*
X122241987Y-69171886D01*
X122078973Y-69008587D01*
X121865875Y-68920101D01*
X121742749Y-68919993D01*
X120652671Y-67829915D01*
X120864863Y-67830101D01*
X121078114Y-67741987D01*
X121241413Y-67578973D01*
X121329899Y-67365875D01*
X121330101Y-67135137D01*
X121241987Y-66921886D01*
X121155000Y-66834747D01*
X121155000Y-59750000D01*
X121124171Y-59595013D01*
X121036378Y-59463622D01*
X119536378Y-57963622D01*
X119404987Y-57875829D01*
X119250000Y-57845000D01*
X117415235Y-57845000D01*
X117328973Y-57758587D01*
X117115875Y-57670101D01*
X116885137Y-57669899D01*
X116671886Y-57758013D01*
X116584747Y-57845000D01*
X104415235Y-57845000D01*
X104328973Y-57758587D01*
X104115875Y-57670101D01*
X103885137Y-57669899D01*
X103671886Y-57758013D01*
X103508587Y-57921027D01*
X103420101Y-58134125D01*
X103419899Y-58364863D01*
X103508013Y-58578114D01*
X103671027Y-58741413D01*
X103884125Y-58829899D01*
X104114863Y-58830101D01*
X104328114Y-58741987D01*
X104415253Y-58655000D01*
X116584765Y-58655000D01*
X116671027Y-58741413D01*
X116884125Y-58829899D01*
X117114863Y-58830101D01*
X117328114Y-58741987D01*
X117415253Y-58655000D01*
X119082244Y-58655000D01*
X120345000Y-59917756D01*
X120345000Y-66834765D01*
X120258587Y-66921027D01*
X120170101Y-67134125D01*
X120169914Y-67347158D01*
X120036378Y-67213622D01*
X119948644Y-67155000D01*
X119904987Y-67125829D01*
X119750000Y-67095000D01*
X107167756Y-67095000D01*
X106036378Y-65963622D01*
X106023100Y-65954750D01*
X105904987Y-65875829D01*
X105870920Y-65869053D01*
X106081051Y-65728647D01*
X106084299Y-65723785D01*
X107869804Y-65723785D01*
X108041474Y-66139257D01*
X108359071Y-66457409D01*
X108774243Y-66629803D01*
X109223785Y-66630196D01*
X109639257Y-66458526D01*
X109957409Y-66140929D01*
X110129803Y-65725757D01*
X110129804Y-65723785D01*
X113869804Y-65723785D01*
X114041474Y-66139257D01*
X114359071Y-66457409D01*
X114774243Y-66629803D01*
X115223785Y-66630196D01*
X115639257Y-66458526D01*
X115957409Y-66140929D01*
X116129803Y-65725757D01*
X116130196Y-65276215D01*
X115958526Y-64860743D01*
X115640929Y-64542591D01*
X115225757Y-64370197D01*
X114776215Y-64369804D01*
X114360743Y-64541474D01*
X114042591Y-64859071D01*
X113870197Y-65274243D01*
X113869804Y-65723785D01*
X110129804Y-65723785D01*
X110130196Y-65276215D01*
X109958526Y-64860743D01*
X109640929Y-64542591D01*
X109225757Y-64370197D01*
X108776215Y-64369804D01*
X108360743Y-64541474D01*
X108042591Y-64859071D01*
X107870197Y-65274243D01*
X107869804Y-65723785D01*
X106084299Y-65723785D01*
X106328953Y-65357637D01*
X106416004Y-64920000D01*
X106328953Y-64482363D01*
X106081051Y-64111353D01*
X105710041Y-63863451D01*
X105272404Y-63776400D01*
X105227596Y-63776400D01*
X104789959Y-63863451D01*
X104418949Y-64111353D01*
X104171047Y-64482363D01*
X104083996Y-64920000D01*
X104171047Y-65357637D01*
X104418949Y-65728647D01*
X104593083Y-65845000D01*
X103283661Y-65845000D01*
X103302429Y-65837570D01*
X103608472Y-65541011D01*
X103777731Y-65149909D01*
X103784435Y-65116194D01*
X103744731Y-64945700D01*
X102735700Y-64945700D01*
X102735700Y-64965700D01*
X102684300Y-64965700D01*
X102684300Y-64945700D01*
X101675269Y-64945700D01*
X101635565Y-65116194D01*
X101642269Y-65149909D01*
X101811528Y-65541011D01*
X102117571Y-65837570D01*
X102136339Y-65845000D01*
X102000000Y-65845000D01*
X101845013Y-65875829D01*
X101726900Y-65954750D01*
X101713622Y-65963622D01*
X101213622Y-66463622D01*
X101125829Y-66595013D01*
X101095000Y-66750000D01*
X100355000Y-66750000D01*
X100355000Y-64723806D01*
X101635565Y-64723806D01*
X101675269Y-64894300D01*
X102684300Y-64894300D01*
X102684300Y-63885250D01*
X102735700Y-63885250D01*
X102735700Y-64894300D01*
X103744731Y-64894300D01*
X103784435Y-64723806D01*
X103777731Y-64690091D01*
X103608472Y-64298989D01*
X103302429Y-64002430D01*
X102906194Y-63845563D01*
X102735700Y-63885250D01*
X102684300Y-63885250D01*
X102513806Y-63845563D01*
X102117571Y-64002430D01*
X101811528Y-64298989D01*
X101642269Y-64690091D01*
X101635565Y-64723806D01*
X100355000Y-64723806D01*
X100355000Y-53832850D01*
X103271400Y-53832850D01*
X103271400Y-54795471D01*
X103306202Y-54879491D01*
X103370508Y-54943797D01*
X103454528Y-54978600D01*
X104417150Y-54978600D01*
X104474300Y-54921450D01*
X104474300Y-53775700D01*
X104525700Y-53775700D01*
X104525700Y-54921450D01*
X104582850Y-54978600D01*
X105545472Y-54978600D01*
X105629492Y-54943797D01*
X105693798Y-54879491D01*
X105728600Y-54795471D01*
X105728600Y-54003491D01*
X105759778Y-54003491D01*
X105954236Y-54474115D01*
X106313991Y-54834499D01*
X106784275Y-55029778D01*
X107293491Y-55030222D01*
X107764115Y-54835764D01*
X108124499Y-54476009D01*
X108319778Y-54005725D01*
X108319928Y-53832850D01*
X109571400Y-53832850D01*
X109571400Y-54795471D01*
X109606202Y-54879491D01*
X109670508Y-54943797D01*
X109754528Y-54978600D01*
X110667150Y-54978600D01*
X110724300Y-54921450D01*
X110724300Y-53775700D01*
X110775700Y-53775700D01*
X110775700Y-54921450D01*
X110832850Y-54978600D01*
X111745472Y-54978600D01*
X111829492Y-54943797D01*
X111893798Y-54879491D01*
X111928600Y-54795471D01*
X111928600Y-53993589D01*
X112059787Y-53993589D01*
X112246649Y-54445829D01*
X112592351Y-54792135D01*
X113044265Y-54979786D01*
X113533589Y-54980213D01*
X113985829Y-54793351D01*
X114332135Y-54447649D01*
X114519786Y-53995735D01*
X114519928Y-53832850D01*
X116271400Y-53832850D01*
X116271400Y-54795471D01*
X116306202Y-54879491D01*
X116370508Y-54943797D01*
X116454528Y-54978600D01*
X117417150Y-54978600D01*
X117474300Y-54921450D01*
X117474300Y-53775700D01*
X117525700Y-53775700D01*
X117525700Y-54921450D01*
X117582850Y-54978600D01*
X118545472Y-54978600D01*
X118629492Y-54943797D01*
X118693798Y-54879491D01*
X118728600Y-54795471D01*
X118728600Y-54003491D01*
X118759778Y-54003491D01*
X118954236Y-54474115D01*
X119313991Y-54834499D01*
X119784275Y-55029778D01*
X120293491Y-55030222D01*
X120764115Y-54835764D01*
X121124499Y-54476009D01*
X121319778Y-54005725D01*
X121320222Y-53496509D01*
X121125764Y-53025885D01*
X120766009Y-52665501D01*
X120295725Y-52470222D01*
X119786509Y-52469778D01*
X119315885Y-52664236D01*
X118955501Y-53023991D01*
X118760222Y-53494275D01*
X118759778Y-54003491D01*
X118728600Y-54003491D01*
X118728600Y-53832850D01*
X118671450Y-53775700D01*
X117525700Y-53775700D01*
X117474300Y-53775700D01*
X116328550Y-53775700D01*
X116271400Y-53832850D01*
X114519928Y-53832850D01*
X114520213Y-53506411D01*
X114333351Y-53054171D01*
X113987649Y-52707865D01*
X113979616Y-52704529D01*
X116271400Y-52704529D01*
X116271400Y-53667150D01*
X116328550Y-53724300D01*
X117474300Y-53724300D01*
X117474300Y-52578550D01*
X117525700Y-52578550D01*
X117525700Y-53724300D01*
X118671450Y-53724300D01*
X118728600Y-53667150D01*
X118728600Y-52704529D01*
X118693798Y-52620509D01*
X118629492Y-52556203D01*
X118545472Y-52521400D01*
X117582850Y-52521400D01*
X117525700Y-52578550D01*
X117474300Y-52578550D01*
X117417150Y-52521400D01*
X116454528Y-52521400D01*
X116370508Y-52556203D01*
X116306202Y-52620509D01*
X116271400Y-52704529D01*
X113979616Y-52704529D01*
X113535735Y-52520214D01*
X113046411Y-52519787D01*
X112594171Y-52706649D01*
X112247865Y-53052351D01*
X112060214Y-53504265D01*
X112059787Y-53993589D01*
X111928600Y-53993589D01*
X111928600Y-53832850D01*
X111871450Y-53775700D01*
X110775700Y-53775700D01*
X110724300Y-53775700D01*
X109628550Y-53775700D01*
X109571400Y-53832850D01*
X108319928Y-53832850D01*
X108320222Y-53496509D01*
X108125764Y-53025885D01*
X107804969Y-52704529D01*
X109571400Y-52704529D01*
X109571400Y-53667150D01*
X109628550Y-53724300D01*
X110724300Y-53724300D01*
X110724300Y-52578550D01*
X110775700Y-52578550D01*
X110775700Y-53724300D01*
X111871450Y-53724300D01*
X111928600Y-53667150D01*
X111928600Y-52704529D01*
X111893798Y-52620509D01*
X111829492Y-52556203D01*
X111745472Y-52521400D01*
X110832850Y-52521400D01*
X110775700Y-52578550D01*
X110724300Y-52578550D01*
X110667150Y-52521400D01*
X109754528Y-52521400D01*
X109670508Y-52556203D01*
X109606202Y-52620509D01*
X109571400Y-52704529D01*
X107804969Y-52704529D01*
X107766009Y-52665501D01*
X107295725Y-52470222D01*
X106786509Y-52469778D01*
X106315885Y-52664236D01*
X105955501Y-53023991D01*
X105760222Y-53494275D01*
X105759778Y-54003491D01*
X105728600Y-54003491D01*
X105728600Y-53832850D01*
X105671450Y-53775700D01*
X104525700Y-53775700D01*
X104474300Y-53775700D01*
X103328550Y-53775700D01*
X103271400Y-53832850D01*
X100355000Y-53832850D01*
X100355000Y-52704529D01*
X103271400Y-52704529D01*
X103271400Y-53667150D01*
X103328550Y-53724300D01*
X104474300Y-53724300D01*
X104474300Y-52578550D01*
X104525700Y-52578550D01*
X104525700Y-53724300D01*
X105671450Y-53724300D01*
X105728600Y-53667150D01*
X105728600Y-52704529D01*
X105693798Y-52620509D01*
X105629492Y-52556203D01*
X105545472Y-52521400D01*
X104582850Y-52521400D01*
X104525700Y-52578550D01*
X104474300Y-52578550D01*
X104417150Y-52521400D01*
X103454528Y-52521400D01*
X103370508Y-52556203D01*
X103306202Y-52620509D01*
X103271400Y-52704529D01*
X100355000Y-52704529D01*
X100355000Y-52034966D01*
X100486644Y-51373146D01*
X100841727Y-50841727D01*
X101373147Y-50486644D01*
X102034966Y-50355000D01*
X121965034Y-50355000D01*
X122626854Y-50486644D01*
X122626854Y-50486644D01*
G37*
X122626854Y-50486644D02*
X123158273Y-50841727D01*
X123513356Y-51373147D01*
X123645000Y-52034966D01*
X123645000Y-97965034D01*
X123513356Y-98626853D01*
X123158273Y-99158273D01*
X122626854Y-99513356D01*
X121965034Y-99645000D01*
X102034966Y-99645000D01*
X101373147Y-99513356D01*
X100841727Y-99158273D01*
X100486644Y-98626854D01*
X100355000Y-97965034D01*
X100355000Y-66750000D01*
X101095000Y-66750000D01*
X101095000Y-68750000D01*
X101125829Y-68904987D01*
X101135928Y-68920101D01*
X101213622Y-69036378D01*
X101674530Y-69497286D01*
X101631047Y-69562363D01*
X101543996Y-70000000D01*
X101631047Y-70437637D01*
X101878949Y-70808647D01*
X102249959Y-71056549D01*
X102687596Y-71143600D01*
X102732404Y-71143600D01*
X103170041Y-71056549D01*
X103541051Y-70808647D01*
X103788953Y-70437637D01*
X103876004Y-70000000D01*
X103788953Y-69562363D01*
X103541051Y-69191353D01*
X103170041Y-68943451D01*
X102732404Y-68856400D01*
X102687596Y-68856400D01*
X102263512Y-68940755D01*
X101905000Y-68582244D01*
X101905000Y-68286054D01*
X102249959Y-68516549D01*
X102687596Y-68603600D01*
X102732404Y-68603600D01*
X103170041Y-68516549D01*
X103184279Y-68507035D01*
X103713621Y-69036378D01*
X103845013Y-69124171D01*
X104000000Y-69155000D01*
X104100915Y-69155000D01*
X104100915Y-70863600D01*
X104120439Y-70967362D01*
X104181762Y-71062660D01*
X104275330Y-71126593D01*
X104386400Y-71149085D01*
X106113600Y-71149085D01*
X106217362Y-71129561D01*
X106312660Y-71068238D01*
X106376593Y-70974670D01*
X106399085Y-70863600D01*
X106399085Y-70255165D01*
X108281181Y-70255165D01*
X108374562Y-70404564D01*
X108768333Y-70575053D01*
X109197373Y-70581875D01*
X109596365Y-70423991D01*
X109625438Y-70404564D01*
X109718819Y-70255165D01*
X114281181Y-70255165D01*
X114374562Y-70404564D01*
X114768333Y-70575053D01*
X115197373Y-70581875D01*
X115596365Y-70423991D01*
X115625438Y-70404564D01*
X115718819Y-70255165D01*
X115000000Y-69536345D01*
X114281181Y-70255165D01*
X109718819Y-70255165D01*
X109000000Y-69536345D01*
X108281181Y-70255165D01*
X106399085Y-70255165D01*
X106399085Y-69697373D01*
X107918125Y-69697373D01*
X108076009Y-70096365D01*
X108095436Y-70125438D01*
X108244835Y-70218819D01*
X108963655Y-69500000D01*
X109036345Y-69500000D01*
X109755165Y-70218819D01*
X109904564Y-70125438D01*
X110075053Y-69731667D01*
X110075598Y-69697373D01*
X113918125Y-69697373D01*
X114076009Y-70096365D01*
X114095436Y-70125438D01*
X114244835Y-70218819D01*
X114963655Y-69500000D01*
X115036345Y-69500000D01*
X115755165Y-70218819D01*
X115904564Y-70125438D01*
X116075053Y-69731667D01*
X116081875Y-69302627D01*
X115923991Y-68903635D01*
X115904564Y-68874562D01*
X115755165Y-68781181D01*
X115036345Y-69500000D01*
X114963655Y-69500000D01*
X114244835Y-68781181D01*
X114095436Y-68874562D01*
X113924947Y-69268333D01*
X113918125Y-69697373D01*
X110075598Y-69697373D01*
X110081875Y-69302627D01*
X109923991Y-68903635D01*
X109904564Y-68874562D01*
X109755165Y-68781181D01*
X109036345Y-69500000D01*
X108963655Y-69500000D01*
X108244835Y-68781181D01*
X108095436Y-68874562D01*
X107924947Y-69268333D01*
X107918125Y-69697373D01*
X106399085Y-69697373D01*
X106399085Y-69155000D01*
X106500000Y-69155000D01*
X106654987Y-69124171D01*
X106786378Y-69036378D01*
X107167756Y-68655000D01*
X108337332Y-68655000D01*
X108281181Y-68744835D01*
X109000000Y-69463655D01*
X109718819Y-68744835D01*
X109662668Y-68655000D01*
X114337332Y-68655000D01*
X114281181Y-68744835D01*
X115000000Y-69463655D01*
X115718819Y-68744835D01*
X115662668Y-68655000D01*
X116582244Y-68655000D01*
X117420006Y-69492762D01*
X117419899Y-69614863D01*
X117508013Y-69828114D01*
X117671027Y-69991413D01*
X117884125Y-70079899D01*
X118114863Y-70080101D01*
X118328114Y-69991987D01*
X118491413Y-69828973D01*
X118579899Y-69615875D01*
X118580101Y-69385137D01*
X118491987Y-69171886D01*
X118328973Y-69008587D01*
X118115875Y-68920101D01*
X117992749Y-68919993D01*
X117036378Y-67963622D01*
X116948644Y-67905000D01*
X119582244Y-67905000D01*
X121170006Y-69492762D01*
X121169899Y-69614863D01*
X121258013Y-69828114D01*
X121421027Y-69991413D01*
X121634125Y-70079899D01*
X121864863Y-70080101D01*
X122078114Y-69991987D01*
X122241413Y-69828973D01*
X122329899Y-69615875D01*
X122330101Y-69385137D01*
X122241987Y-69171886D01*
X122078973Y-69008587D01*
X121865875Y-68920101D01*
X121742749Y-68919993D01*
X120652671Y-67829915D01*
X120864863Y-67830101D01*
X121078114Y-67741987D01*
X121241413Y-67578973D01*
X121329899Y-67365875D01*
X121330101Y-67135137D01*
X121241987Y-66921886D01*
X121155000Y-66834747D01*
X121155000Y-59750000D01*
X121124171Y-59595013D01*
X121036378Y-59463622D01*
X119536378Y-57963622D01*
X119404987Y-57875829D01*
X119250000Y-57845000D01*
X117415235Y-57845000D01*
X117328973Y-57758587D01*
X117115875Y-57670101D01*
X116885137Y-57669899D01*
X116671886Y-57758013D01*
X116584747Y-57845000D01*
X104415235Y-57845000D01*
X104328973Y-57758587D01*
X104115875Y-57670101D01*
X103885137Y-57669899D01*
X103671886Y-57758013D01*
X103508587Y-57921027D01*
X103420101Y-58134125D01*
X103419899Y-58364863D01*
X103508013Y-58578114D01*
X103671027Y-58741413D01*
X103884125Y-58829899D01*
X104114863Y-58830101D01*
X104328114Y-58741987D01*
X104415253Y-58655000D01*
X116584765Y-58655000D01*
X116671027Y-58741413D01*
X116884125Y-58829899D01*
X117114863Y-58830101D01*
X117328114Y-58741987D01*
X117415253Y-58655000D01*
X119082244Y-58655000D01*
X120345000Y-59917756D01*
X120345000Y-66834765D01*
X120258587Y-66921027D01*
X120170101Y-67134125D01*
X120169914Y-67347158D01*
X120036378Y-67213622D01*
X119948644Y-67155000D01*
X119904987Y-67125829D01*
X119750000Y-67095000D01*
X107167756Y-67095000D01*
X106036378Y-65963622D01*
X106023100Y-65954750D01*
X105904987Y-65875829D01*
X105870920Y-65869053D01*
X106081051Y-65728647D01*
X106084299Y-65723785D01*
X107869804Y-65723785D01*
X108041474Y-66139257D01*
X108359071Y-66457409D01*
X108774243Y-66629803D01*
X109223785Y-66630196D01*
X109639257Y-66458526D01*
X109957409Y-66140929D01*
X110129803Y-65725757D01*
X110129804Y-65723785D01*
X113869804Y-65723785D01*
X114041474Y-66139257D01*
X114359071Y-66457409D01*
X114774243Y-66629803D01*
X115223785Y-66630196D01*
X115639257Y-66458526D01*
X115957409Y-66140929D01*
X116129803Y-65725757D01*
X116130196Y-65276215D01*
X115958526Y-64860743D01*
X115640929Y-64542591D01*
X115225757Y-64370197D01*
X114776215Y-64369804D01*
X114360743Y-64541474D01*
X114042591Y-64859071D01*
X113870197Y-65274243D01*
X113869804Y-65723785D01*
X110129804Y-65723785D01*
X110130196Y-65276215D01*
X109958526Y-64860743D01*
X109640929Y-64542591D01*
X109225757Y-64370197D01*
X108776215Y-64369804D01*
X108360743Y-64541474D01*
X108042591Y-64859071D01*
X107870197Y-65274243D01*
X107869804Y-65723785D01*
X106084299Y-65723785D01*
X106328953Y-65357637D01*
X106416004Y-64920000D01*
X106328953Y-64482363D01*
X106081051Y-64111353D01*
X105710041Y-63863451D01*
X105272404Y-63776400D01*
X105227596Y-63776400D01*
X104789959Y-63863451D01*
X104418949Y-64111353D01*
X104171047Y-64482363D01*
X104083996Y-64920000D01*
X104171047Y-65357637D01*
X104418949Y-65728647D01*
X104593083Y-65845000D01*
X103283661Y-65845000D01*
X103302429Y-65837570D01*
X103608472Y-65541011D01*
X103777731Y-65149909D01*
X103784435Y-65116194D01*
X103744731Y-64945700D01*
X102735700Y-64945700D01*
X102735700Y-64965700D01*
X102684300Y-64965700D01*
X102684300Y-64945700D01*
X101675269Y-64945700D01*
X101635565Y-65116194D01*
X101642269Y-65149909D01*
X101811528Y-65541011D01*
X102117571Y-65837570D01*
X102136339Y-65845000D01*
X102000000Y-65845000D01*
X101845013Y-65875829D01*
X101726900Y-65954750D01*
X101713622Y-65963622D01*
X101213622Y-66463622D01*
X101125829Y-66595013D01*
X101095000Y-66750000D01*
X100355000Y-66750000D01*
X100355000Y-64723806D01*
X101635565Y-64723806D01*
X101675269Y-64894300D01*
X102684300Y-64894300D01*
X102684300Y-63885250D01*
X102735700Y-63885250D01*
X102735700Y-64894300D01*
X103744731Y-64894300D01*
X103784435Y-64723806D01*
X103777731Y-64690091D01*
X103608472Y-64298989D01*
X103302429Y-64002430D01*
X102906194Y-63845563D01*
X102735700Y-63885250D01*
X102684300Y-63885250D01*
X102513806Y-63845563D01*
X102117571Y-64002430D01*
X101811528Y-64298989D01*
X101642269Y-64690091D01*
X101635565Y-64723806D01*
X100355000Y-64723806D01*
X100355000Y-53832850D01*
X103271400Y-53832850D01*
X103271400Y-54795471D01*
X103306202Y-54879491D01*
X103370508Y-54943797D01*
X103454528Y-54978600D01*
X104417150Y-54978600D01*
X104474300Y-54921450D01*
X104474300Y-53775700D01*
X104525700Y-53775700D01*
X104525700Y-54921450D01*
X104582850Y-54978600D01*
X105545472Y-54978600D01*
X105629492Y-54943797D01*
X105693798Y-54879491D01*
X105728600Y-54795471D01*
X105728600Y-54003491D01*
X105759778Y-54003491D01*
X105954236Y-54474115D01*
X106313991Y-54834499D01*
X106784275Y-55029778D01*
X107293491Y-55030222D01*
X107764115Y-54835764D01*
X108124499Y-54476009D01*
X108319778Y-54005725D01*
X108319928Y-53832850D01*
X109571400Y-53832850D01*
X109571400Y-54795471D01*
X109606202Y-54879491D01*
X109670508Y-54943797D01*
X109754528Y-54978600D01*
X110667150Y-54978600D01*
X110724300Y-54921450D01*
X110724300Y-53775700D01*
X110775700Y-53775700D01*
X110775700Y-54921450D01*
X110832850Y-54978600D01*
X111745472Y-54978600D01*
X111829492Y-54943797D01*
X111893798Y-54879491D01*
X111928600Y-54795471D01*
X111928600Y-53993589D01*
X112059787Y-53993589D01*
X112246649Y-54445829D01*
X112592351Y-54792135D01*
X113044265Y-54979786D01*
X113533589Y-54980213D01*
X113985829Y-54793351D01*
X114332135Y-54447649D01*
X114519786Y-53995735D01*
X114519928Y-53832850D01*
X116271400Y-53832850D01*
X116271400Y-54795471D01*
X116306202Y-54879491D01*
X116370508Y-54943797D01*
X116454528Y-54978600D01*
X117417150Y-54978600D01*
X117474300Y-54921450D01*
X117474300Y-53775700D01*
X117525700Y-53775700D01*
X117525700Y-54921450D01*
X117582850Y-54978600D01*
X118545472Y-54978600D01*
X118629492Y-54943797D01*
X118693798Y-54879491D01*
X118728600Y-54795471D01*
X118728600Y-54003491D01*
X118759778Y-54003491D01*
X118954236Y-54474115D01*
X119313991Y-54834499D01*
X119784275Y-55029778D01*
X120293491Y-55030222D01*
X120764115Y-54835764D01*
X121124499Y-54476009D01*
X121319778Y-54005725D01*
X121320222Y-53496509D01*
X121125764Y-53025885D01*
X120766009Y-52665501D01*
X120295725Y-52470222D01*
X119786509Y-52469778D01*
X119315885Y-52664236D01*
X118955501Y-53023991D01*
X118760222Y-53494275D01*
X118759778Y-54003491D01*
X118728600Y-54003491D01*
X118728600Y-53832850D01*
X118671450Y-53775700D01*
X117525700Y-53775700D01*
X117474300Y-53775700D01*
X116328550Y-53775700D01*
X116271400Y-53832850D01*
X114519928Y-53832850D01*
X114520213Y-53506411D01*
X114333351Y-53054171D01*
X113987649Y-52707865D01*
X113979616Y-52704529D01*
X116271400Y-52704529D01*
X116271400Y-53667150D01*
X116328550Y-53724300D01*
X117474300Y-53724300D01*
X117474300Y-52578550D01*
X117525700Y-52578550D01*
X117525700Y-53724300D01*
X118671450Y-53724300D01*
X118728600Y-53667150D01*
X118728600Y-52704529D01*
X118693798Y-52620509D01*
X118629492Y-52556203D01*
X118545472Y-52521400D01*
X117582850Y-52521400D01*
X117525700Y-52578550D01*
X117474300Y-52578550D01*
X117417150Y-52521400D01*
X116454528Y-52521400D01*
X116370508Y-52556203D01*
X116306202Y-52620509D01*
X116271400Y-52704529D01*
X113979616Y-52704529D01*
X113535735Y-52520214D01*
X113046411Y-52519787D01*
X112594171Y-52706649D01*
X112247865Y-53052351D01*
X112060214Y-53504265D01*
X112059787Y-53993589D01*
X111928600Y-53993589D01*
X111928600Y-53832850D01*
X111871450Y-53775700D01*
X110775700Y-53775700D01*
X110724300Y-53775700D01*
X109628550Y-53775700D01*
X109571400Y-53832850D01*
X108319928Y-53832850D01*
X108320222Y-53496509D01*
X108125764Y-53025885D01*
X107804969Y-52704529D01*
X109571400Y-52704529D01*
X109571400Y-53667150D01*
X109628550Y-53724300D01*
X110724300Y-53724300D01*
X110724300Y-52578550D01*
X110775700Y-52578550D01*
X110775700Y-53724300D01*
X111871450Y-53724300D01*
X111928600Y-53667150D01*
X111928600Y-52704529D01*
X111893798Y-52620509D01*
X111829492Y-52556203D01*
X111745472Y-52521400D01*
X110832850Y-52521400D01*
X110775700Y-52578550D01*
X110724300Y-52578550D01*
X110667150Y-52521400D01*
X109754528Y-52521400D01*
X109670508Y-52556203D01*
X109606202Y-52620509D01*
X109571400Y-52704529D01*
X107804969Y-52704529D01*
X107766009Y-52665501D01*
X107295725Y-52470222D01*
X106786509Y-52469778D01*
X106315885Y-52664236D01*
X105955501Y-53023991D01*
X105760222Y-53494275D01*
X105759778Y-54003491D01*
X105728600Y-54003491D01*
X105728600Y-53832850D01*
X105671450Y-53775700D01*
X104525700Y-53775700D01*
X104474300Y-53775700D01*
X103328550Y-53775700D01*
X103271400Y-53832850D01*
X100355000Y-53832850D01*
X100355000Y-52704529D01*
X103271400Y-52704529D01*
X103271400Y-53667150D01*
X103328550Y-53724300D01*
X104474300Y-53724300D01*
X104474300Y-52578550D01*
X104525700Y-52578550D01*
X104525700Y-53724300D01*
X105671450Y-53724300D01*
X105728600Y-53667150D01*
X105728600Y-52704529D01*
X105693798Y-52620509D01*
X105629492Y-52556203D01*
X105545472Y-52521400D01*
X104582850Y-52521400D01*
X104525700Y-52578550D01*
X104474300Y-52578550D01*
X104417150Y-52521400D01*
X103454528Y-52521400D01*
X103370508Y-52556203D01*
X103306202Y-52620509D01*
X103271400Y-52704529D01*
X100355000Y-52704529D01*
X100355000Y-52034966D01*
X100486644Y-51373146D01*
X100841727Y-50841727D01*
X101373147Y-50486644D01*
X102034966Y-50355000D01*
X121965034Y-50355000D01*
X122626854Y-50486644D01*
M02*
