M48
INCH,TZ
T1C0.016
T2C0.039
T3C0.039
T4C0.040
%
G90
G05
T1
X40945Y-22933
X46063Y-22933
X46457Y-27362
X47539Y-26476
X47933Y-27362
T2
X42913Y-25787
X42913Y-27362
X45276Y-25787
X45276Y-27362
T3
X41142Y-21161
X42142Y-21161
X43602Y-21161
X44602Y-21161
X46260Y-21161
X47260Y-21161
T4
X40437Y-25559
X40437Y-26559
X40437Y-27559
X41437Y-25559
X41437Y-26559
X41437Y-27559
T0
M30
